<?xml version="1.0" encoding="UTF-8" standalone="no"?>
<svg width="48px" height="48px" viewBox="0 0 48 48" version="1.1" xmlns="http://www.w3.org/2000/svg" xmlns:xlink="http://www.w3.org/1999/xlink">
    <defs></defs>
    <g stroke="none" stroke-width="1" fill="none" fill-rule="evenodd">
        <g fill="#000000">
            <path d="M9,21 L9,35 L15,35 L15,21 L9,21 L9,21 Z M21,21 L21,35 L27,35 L27,21 L21,21 L21,21 Z M5,45 L43,45 L43,39 L5,39 L5,45 L5,45 Z M33,21 L33,35 L39,35 L39,21 L33,21 L33,21 Z M24,3 L5,13 L5,17 L43,17 L43,13 L24,3 L24,3 Z"></path>
        </g>
    </g>
</svg>