<?xml version="1.0" encoding="UTF-8" standalone="no"?>
<svg width="48px" height="48px" viewBox="0 0 48 48" version="1.1" xmlns="http://www.w3.org/2000/svg" xmlns:xlink="http://www.w3.org/1999/xlink">
    <defs></defs>
    <g stroke="none" stroke-width="1" fill="none" fill-rule="evenodd">
        <g fill="#000000">
            <path d="M37.84,10.02 C37.43,8.84 36.31,8 35,8 L13,8 C11.69,8 10.57,8.84 10.16,10.02 L6,22 L6,38 C6,39.1 6.9,40 8,40 L10,40 C11.11,40 12,39.1 12,38 L12,36 L36,36 L36,38 C36,39.1 36.9,40 38,40 L40,40 C41.11,40 42,39.1 42,38 L42,22 L37.84,10.02 L37.84,10.02 Z M13,30 C11.34,30 10,28.66 10,27 C10,25.34 11.34,24 13,24 C14.66,24 16,25.34 16,27 C16,28.66 14.66,30 13,30 L13,30 Z M35,30 C33.34,30 32,28.66 32,27 C32,25.34 33.34,24 35,24 C36.66,24 38,25.34 38,27 C38,28.66 36.66,30 35,30 L35,30 Z M10,20 L13,11 L35,11 L38,20 L10,20 L10,20 Z"></path>
        </g>
    </g>
</svg>