<?xml version="1.0" encoding="UTF-8" standalone="no"?>
<svg width="48px" height="48px" viewBox="0 0 48 48" version="1.1" xmlns="http://www.w3.org/2000/svg" xmlns:xlink="http://www.w3.org/1999/xlink">
    <defs></defs>
    <g stroke="none" stroke-width="1" fill="none" fill-rule="evenodd">
        <g fill="#000000">
            <path d="M40,4 L8,4 C5.79,4 4.02,5.79 4.02,8 L4,44 L12,36 L40,36 C42.21,36 44,34.21 44,32 L44,8 C44,5.79 42.21,4 40,4 L40,4 Z M12,18 L36,18 L36,22 L12,22 L12,18 L12,18 Z M28,28 L12,28 L12,24 L28,24 L28,28 L28,28 Z M36,16 L12,16 L12,12 L36,12 L36,16 L36,16 Z"></path>
        </g>
    </g>
</svg>