<?xml version="1.0" encoding="UTF-8" standalone="no"?>
<svg width="48px" height="48px" viewBox="0 0 48 48" version="1.1" xmlns="http://www.w3.org/2000/svg" xmlns:xlink="http://www.w3.org/1999/xlink">
    <defs></defs>
    <g stroke="none" stroke-width="1" fill="none" fill-rule="evenodd">
        <g fill="#000000">
            <path d="M39.6,40.3 C39.2,42.1 37.7,43.4 36,43.5 C31.9,44 27.7,44 23.6,44 C19.5,44 15.3,44 11.2,43.5 C9.5,43.3 8,42 7.6,40.3 C7,37.8 7,35.1 7,32.5 C7,29.9 7,27.2 7.6,24.7 C8,22.9 9.5,21.6 11.2,21.4 C15.3,21 19.4,21 23.6,21 C27.8,21 31.9,21 36,21.4 C37.7,21.6 39.2,22.9 39.6,24.7 C40.2,27.2 40.2,29.9 40.2,32.5 C40.1,35 40.1,37.8 39.6,40.3 L39.6,40.3 L39.6,40.3 Z M16.5,26.9 L16.5,24.8 L9.5,24.8 L9.5,26.9 L11.8,26.9 L11.8,39.6 L14,39.6 L14,26.9 L16.5,26.9 L16.5,26.9 Z M20.1,4 L17.4,12.9 L17.4,18.9 L15.2,18.9 L15.2,12.9 C15,11.8 14.6,10.2 13.8,8.2 L12.3,4 L14.7,4 L16.3,9.9 L17.8,4 L20.1,4 L20.1,4 Z M22.5,39.6 L22.5,28.6 L20.5,28.6 L20.5,37 C20.1,37.6 19.6,37.9 19.2,37.9 C18.9,37.9 18.8,37.7 18.7,37.4 L18.7,36.6 L18.7,28.5 L16.7,28.5 L16.7,37.2 C16.7,38 16.8,38.5 16.9,38.8 C17.1,39.4 17.5,39.6 18.2,39.6 C18.9,39.6 19.7,39.2 20.5,38.2 L20.5,39.4 L22.5,39.4 L22.5,39.6 L22.5,39.6 Z M26.1,15.3 C26.1,16.5 25.9,17.4 25.5,17.9 C24.9,18.7 24.2,19 23.1,19 C22.1,19 21.3,18.6 20.8,17.9 C20.4,17.3 20.2,16.4 20.2,15.3 L20.2,11.4 C20.2,10.2 20.4,9.3 20.8,8.8 C21.4,8 22.1,7.7 23.1,7.7 C24.1,7.7 24.9,8.1 25.5,8.8 C25.9,9.4 26.1,10.2 26.1,11.4 L26.1,15.3 L26.1,15.3 Z M24.1,11 C24.1,10 23.8,9.5 23.1,9.5 C22.5,9.5 22.1,10 22.1,11 L22.1,15.7 C22.1,16.7 22.4,17.3 23.1,17.3 C23.8,17.3 24.1,16.8 24.1,15.7 L24.1,11 L24.1,11 Z M30.1,31.9 C30.1,30.9 30.1,30.1 29.9,29.7 C29.7,28.9 29.1,28.5 28.3,28.5 C27.6,28.5 26.9,28.9 26.2,29.7 L26.2,24.9 L24.2,24.9 L24.2,39.7 L26.2,39.7 L26.2,38.6 C26.9,39.4 27.6,39.8 28.3,39.8 C29.1,39.8 29.6,39.4 29.9,38.6 C30.1,38.1 30.1,37.4 30.1,36.4 L30.1,31.9 L30.1,31.9 Z M28.1,36.5 C28.1,37.5 27.8,38 27.2,38 C26.9,38 26.5,37.8 26.2,37.5 L26.2,30.8 C26.5,30.5 26.9,30.3 27.2,30.3 C27.8,30.3 28.1,30.8 28.1,31.8 L28.1,36.5 L28.1,36.5 Z M33.6,19 L31.6,19 L31.6,17.8 C30.8,18.7 30,19.2 29.3,19.2 C28.7,19.2 28.2,18.9 28,18.4 C27.9,18.1 27.8,17.5 27.8,16.7 L27.8,7.9 L29.8,7.9 L29.8,16.1 L29.8,16.9 C29.8,17.2 30,17.4 30.3,17.4 C30.7,17.4 31.1,17.1 31.6,16.4 L31.6,7.9 L33.6,7.9 L33.6,19 L33.6,19 Z M37.7,35.8 L35.7,35.8 L35.7,37.2 C35.6,37.7 35.3,38 34.8,38 C34.1,38 33.8,37.5 33.8,36.5 L33.8,34.6 L37.8,34.6 L37.8,32.3 C37.8,31.1 37.6,30.3 37.2,29.7 C36.6,28.9 35.8,28.6 34.8,28.6 C33.8,28.6 33,29 32.4,29.7 C32,30.3 31.8,31.1 31.8,32.3 L31.8,36.2 C31.8,37.4 32,38.3 32.4,38.8 C33,39.6 33.8,39.9 34.8,39.9 C35.8,39.9 36.7,39.5 37.2,38.7 C37.4,38.3 37.6,37.9 37.7,37.5 L37.7,36.2 L37.7,35.8 L37.7,35.8 Z M35.7,32.8 L33.7,32.8 L33.7,31.8 C33.7,30.8 34,30.3 34.7,30.3 C35.4,30.3 35.7,30.8 35.7,31.8 L35.7,32.8 L35.7,32.8 Z"></path>
        </g>
    </g>
</svg>