<?xml version="1.0" encoding="UTF-8" standalone="no"?>
<svg width="48px" height="48px" viewBox="0 0 48 48" version="1.1" xmlns="http://www.w3.org/2000/svg" xmlns:xlink="http://www.w3.org/1999/xlink">
    <defs></defs>
    <g stroke="none" stroke-width="1" fill="none" fill-rule="evenodd">
        <g fill="#000000">
            <path d="M43.9,38.8 C43.9,41.6 41.6,43.9 38.8,43.9 L9.1,43.9 C6.3,43.9 4,41.6 4,38.8 L4,9.1 C4,6.3 6.3,4 9.1,4 L38.8,4 C41.6,4 43.9,6.3 43.9,9.1 L43.9,38.8 L43.9,38.8 Z M39.4,20.7 L35.9,20.7 C36.2,21.8 36.4,22.9 36.4,24.1 C36.4,30.8 30.8,36.2 24,36.2 C17.2,36.2 11.6,30.8 11.6,24.1 C11.6,22.9 11.8,21.8 12.1,20.7 L8.4,20.7 L8.4,37.6 C8.4,38.5 9.1,39.2 10,39.2 L37.8,39.2 C38.7,39.2 39.4,38.5 39.4,37.6 L39.4,20.7 L39.4,20.7 Z M23.9,15.9 C19.5,15.9 15.9,19.4 15.9,23.7 C15.9,28 19.5,31.5 23.9,31.5 C28.4,31.5 31.9,28 31.9,23.7 C32,19.4 28.4,15.9 23.9,15.9 L23.9,15.9 L23.9,15.9 Z M39.4,10.1 C39.4,9.1 38.6,8.3 37.6,8.3 L33.1,8.3 C32.1,8.3 31.3,9.1 31.3,10.1 L31.3,14.4 C31.3,15.4 32.1,16.2 33.1,16.2 L37.6,16.2 C38.6,16.2 39.4,15.4 39.4,14.4 L39.4,10.1 L39.4,10.1 Z"></path>
        </g>
    </g>
</svg>