<?xml version="1.0" encoding="UTF-8" standalone="no"?>
<svg width="48px" height="48px" viewBox="0 0 48 48" version="1.1" xmlns="http://www.w3.org/2000/svg" xmlns:xlink="http://www.w3.org/1999/xlink">
    <defs></defs>
    <g>
      <path d="M23.9937302,4.01261905 C18.5637302,4.01261905 17.8828571,4.03563492 15.7503175,4.13293651 C13.6222222,4.23 12.1688095,4.56801587 10.8970635,5.06230159 C9.58230159,5.5731746 8.46730159,6.2568254 7.35571429,7.36833333 C6.24420635,8.47992063 5.56055556,9.59492063 5.04968254,10.9096825 C4.55539683,12.1814286 4.21738095,13.6348413 4.12031746,15.7629365 C4.02301587,17.8954762 4,18.5763492 4,24.0063492 C4,29.4362698 4.02301587,30.1171429 4.12031746,32.2496825 C4.21738095,34.3777778 4.55539683,35.8311905 5.04968254,37.1029365 C5.56055556,38.4176984 6.24420635,39.5326984 7.35571429,40.6442857 C8.46730159,41.7557937 9.58230159,42.4394444 10.8970635,42.9503968 C12.1688095,43.4446032 13.6222222,43.782619 15.7503175,43.8796825 C17.8828571,43.9769841 18.5637302,44 23.9937302,44 C29.4236508,44 30.1045238,43.9769841 32.2370635,43.8796825 C34.3651587,43.782619 35.8185714,43.4446032 37.0903175,42.9503968 C38.4050794,42.4394444 39.5200794,41.7557937 40.6316667,40.6442857 C41.7431746,39.5326984 42.4268254,38.4176984 42.9377778,37.1029365 C43.4319841,35.8311905 43.77,34.3777778 43.8670635,32.2496825 C43.9643651,30.1171429 43.987381,29.4362698 43.987381,24.0063492 C43.987381,18.5763492 43.9643651,17.8954762 43.8670635,15.7629365 C43.77,13.6348413 43.4319841,12.1814286 42.9377778,10.9096825 C42.4268254,9.59492063 41.7431746,8.47992063 40.6316667,7.36833333 C39.5200794,6.2568254 38.4050794,5.5731746 37.0903175,5.06230159 C35.8185714,4.56801587 34.3651587,4.23 32.2370635,4.13293651 C30.1045238,4.03563492 29.4236508,4.01261905 23.9937302,4.01261905 L23.9937302,4.01261905 L23.9937302,4.01261905 L23.9937302,4.01261905 L23.9937302,4.01261905 L23.9937302,4.01261905 Z M23.9937302,7.61507937 C29.3322222,7.61507937 29.9646032,7.63547619 32.0728571,7.73166667 C34.0222222,7.82055556 35.080873,8.14626984 35.7853968,8.42007937 C36.7186508,8.78277778 37.3846825,9.21603175 38.0842857,9.91571429 C38.7839683,10.6153175 39.2172222,11.2813492 39.5799206,12.2146032 C39.8537302,12.919127 40.1794444,13.9777778 40.2683333,15.9271429 C40.3645238,18.0353968 40.3849206,18.6677778 40.3849206,24.0063492 C40.3849206,29.3448413 40.3645238,29.9772222 40.2683333,32.0854762 C40.1794444,34.0348413 39.8537302,35.0934921 39.5799206,35.7980159 C39.2172222,36.7312698 38.7839683,37.3973016 38.0842857,38.0969048 C37.3846825,38.7965873 36.7186508,39.2298413 35.7853968,39.5925397 C35.080873,39.8663492 34.0222222,40.1920635 32.0728571,40.2809524 C29.9649206,40.3771429 29.332619,40.3975397 23.9937302,40.3975397 C18.6547619,40.3975397 18.0225397,40.3771429 15.9145238,40.2809524 C13.9651587,40.1920635 12.9065079,39.8663492 12.2019841,39.5925397 C11.2687302,39.2298413 10.6026984,38.7965873 9.90309524,38.0969048 C9.20349206,37.3973016 8.77015873,36.7312698 8.40746032,35.7980159 C8.13365079,35.0934921 7.80793651,34.0348413 7.71904762,32.0854762 C7.62285714,29.9772222 7.60246032,29.3448413 7.60246032,24.0063492 C7.60246032,18.6677778 7.62285714,18.0353968 7.71904762,15.9271429 C7.80793651,13.9777778 8.13365079,12.919127 8.40746032,12.2146032 C8.77015873,11.2813492 9.2034127,10.6153175 9.90309524,9.91571429 C10.6026984,9.21603175 11.2687302,8.78277778 12.2019841,8.42007937 C12.9065079,8.14626984 13.9651587,7.82055556 15.9145238,7.73166667 C18.0227778,7.63547619 18.6551587,7.61507937 23.9937302,7.61507937 L23.9937302,7.61507937 L23.9937302,7.61507937 L23.9937302,7.61507937 L23.9937302,7.61507937 L23.9937302,7.61507937 Z"></path>
      <path d="M23.9937302,30.670873 C20.3129365,30.670873 17.329127,27.6870635 17.329127,24.0063492 C17.329127,20.3255556 20.3129365,17.341746 23.9937302,17.341746 C27.6744444,17.341746 30.658254,20.3255556 30.658254,24.0063492 C30.658254,27.6870635 27.6744444,30.670873 23.9937302,30.670873 L23.9937302,30.670873 L23.9937302,30.670873 L23.9937302,30.670873 L23.9937302,30.670873 L23.9937302,30.670873 L23.9937302,30.670873 Z M23.9937302,13.7392857 C18.3233333,13.7392857 13.7266667,18.3359524 13.7266667,24.0063492 C13.7266667,29.6766667 18.3233333,34.2733333 23.9937302,34.2733333 C29.6640476,34.2733333 34.2607143,29.6766667 34.2607143,24.0063492 C34.2607143,18.3359524 29.6640476,13.7392857 23.9937302,13.7392857 L23.9937302,13.7392857 L23.9937302,13.7392857 L23.9937302,13.7392857 L23.9937302,13.7392857 L23.9937302,13.7392857 L23.9937302,13.7392857 Z"></path>
      <path d="M37.0656349,13.3336508 C37.0656349,14.6587302 35.9914286,15.7328571 34.6663492,15.7328571 C33.3413492,15.7328571 32.2671429,14.6587302 32.2671429,13.3336508 C32.2671429,12.0085714 33.3413492,10.9343651 34.6663492,10.9343651 C35.9914286,10.9343651 37.0656349,12.0085714 37.0656349,13.3336508"></path>
    </g>
</svg>