<svg xmlns="http://www.w3.org/2000/svg" viewBox="0 0 48 48"><path d="M40,40.3 C39.6,42.1 38.1,43.4 36.4,43.5 C32.3,44 28.1,44 24,44 C19.9,44 15.7,44 11.6,43.5 C9.9,43.3 8.4,42 8,40.3 C7.4,37.8 7.4,35.1 7.4,32.5 C7.4,29.9 7.4,27.2 8,24.7 C8.4,22.9 9.9,21.6 11.6,21.4 C15.7,21 19.8,21 24,21 C28.2,21 32.3,21 36.4,21.4 C38.1,21.6 39.6,22.9 40,24.7 C40.6,27.2 40.6,29.9 40.6,32.5 C40.5,35 40.5,37.8 40,40.3 L40,40.3 L40,40.3 Z M16.9,26.9 L16.9,24.8 L9.9,24.8 L9.9,26.9 L12.2,26.9 L12.2,39.6 L14.4,39.6 L14.4,26.9 L16.9,26.9 L16.9,26.9 Z M20.5,4 L17.8,12.9 L17.8,18.9 L15.6,18.9 L15.6,12.9 C15.4,11.8 15,10.2 14.2,8.2 L12.7,4 L15.1,4 L16.7,9.9 L18.2,4 L20.5,4 L20.5,4 Z M22.9,39.6 L22.9,28.6 L20.9,28.6 L20.9,37 C20.5,37.6 20,37.9 19.6,37.9 C19.3,37.9 19.2,37.7 19.1,37.4 L19.1,36.6 L19.1,28.5 L17.1,28.5 L17.1,37.2 C17.1,38 17.2,38.5 17.3,38.8 C17.5,39.4 17.9,39.6 18.6,39.6 C19.3,39.6 20.1,39.2 20.9,38.2 L20.9,39.4 L22.9,39.4 L22.9,39.6 L22.9,39.6 Z M26.5,15.3 C26.5,16.5 26.3,17.4 25.9,17.9 C25.3,18.7 24.6,19 23.5,19 C22.5,19 21.7,18.6 21.2,17.9 C20.8,17.3 20.6,16.4 20.6,15.3 L20.6,11.4 C20.6,10.2 20.8,9.3 21.2,8.8 C21.8,8 22.5,7.7 23.5,7.7 C24.5,7.7 25.3,8.1 25.9,8.8 C26.3,9.4 26.5,10.2 26.5,11.4 L26.5,15.3 L26.5,15.3 Z M24.5,11 C24.5,10 24.2,9.5 23.5,9.5 C22.9,9.5 22.5,10 22.5,11 L22.5,15.7 C22.5,16.7 22.8,17.3 23.5,17.3 C24.2,17.3 24.5,16.8 24.5,15.7 L24.5,11 L24.5,11 Z M30.5,31.9 C30.5,30.9 30.5,30.1 30.3,29.7 C30.1,28.9 29.5,28.5 28.7,28.5 C28,28.5 27.3,28.9 26.6,29.7 L26.6,24.9 L24.6,24.9 L24.6,39.7 L26.6,39.7 L26.6,38.6 C27.3,39.4 28,39.8 28.7,39.8 C29.5,39.8 30,39.4 30.3,38.6 C30.5,38.1 30.5,37.4 30.5,36.4 L30.5,31.9 L30.5,31.9 Z M28.5,36.5 C28.5,37.5 28.2,38 27.6,38 C27.3,38 26.9,37.8 26.6,37.5 L26.6,30.8 C26.9,30.5 27.3,30.3 27.6,30.3 C28.2,30.3 28.5,30.8 28.5,31.8 L28.5,36.5 L28.5,36.5 Z M34,19 L32,19 L32,17.8 C31.2,18.7 30.4,19.2 29.7,19.2 C29.1,19.2 28.6,18.9 28.4,18.4 C28.3,18.1 28.2,17.5 28.2,16.7 L28.2,7.9 L30.2,7.9 L30.2,16.1 L30.2,16.9 C30.2,17.2 30.4,17.4 30.7,17.4 C31.1,17.4 31.5,17.1 32,16.4 L32,7.9 L34,7.9 L34,19 L34,19 Z M38.1,35.8 L36.1,35.8 L36.1,37.2 C36,37.7 35.7,38 35.2,38 C34.5,38 34.2,37.5 34.2,36.5 L34.2,34.6 L38.2,34.6 L38.2,32.3 C38.2,31.1 38,30.3 37.6,29.7 C37,28.9 36.2,28.6 35.2,28.6 C34.2,28.6 33.4,29 32.8,29.7 C32.4,30.3 32.2,31.1 32.2,32.3 L32.2,36.2 C32.2,37.4 32.4,38.3 32.8,38.8 C33.4,39.6 34.2,39.9 35.2,39.9 C36.2,39.9 37.1,39.5 37.6,38.7 C37.8,38.3 38,37.9 38.1,37.5 L38.1,36.2 L38.1,35.8 L38.1,35.8 Z M36.1,32.8 L34.1,32.8 L34.1,31.8 C34.1,30.8 34.4,30.3 35.1,30.3 C35.8,30.3 36.1,30.8 36.1,31.8 L36.1,32.8 L36.1,32.8 Z"/></svg>