<?xml version="1.0" encoding="UTF-8" standalone="no"?>
<svg width="48px" height="48px" viewBox="0 0 48 48" version="1.1" xmlns="http://www.w3.org/2000/svg" xmlns:xlink="http://www.w3.org/1999/xlink">
    <defs></defs>
    <g stroke="none" stroke-width="1" fill="none" fill-rule="evenodd">
        <g fill="#000000">
            <path d="M8,33 C8,34.77 8.78,36.34 10,37.44 L10,41 C10,42.1 10.9,43 12,43 L14,43 C15.11,43 16,42.1 16,41 L16,39 L32,39 L32,41 C32,42.1 32.89,43 34,43 L36,43 C37.1,43 38,42.1 38,41 L38,37.44 C39.22,36.34 40,34.77 40,33 L40,13 C40,6 32.84,5 24,5 C15.16,5 8,6 8,13 L8,33 L8,33 Z M15,35 C13.34,35 12,33.66 12,32 C12,30.34 13.34,29 15,29 C16.66,29 18,30.34 18,32 C18,33.66 16.66,35 15,35 L15,35 Z M33,35 C31.34,35 30,33.66 30,32 C30,30.34 31.34,29 33,29 C34.66,29 36,30.34 36,32 C36,33.66 34.66,35 33,35 L33,35 Z M36,23 L12,23 L12,13 L36,13 L36,23 L36,23 Z"></path>
        </g>
    </g>
</svg>