<?xml version="1.0" encoding="UTF-8" standalone="no"?>
<svg xmlns="http://www.w3.org/2000/svg" width="48" height="35" viewBox="0 0 48 35">
    <path d="M43.609375,9.09375 C43.609375,9.09375 43.6744785,9.7643162 43.8046875,11.1054688 C43.9348965,12.4466213 44,13.9114504 44,15.5 L44,18.546875 C44,20.1875082 43.9348965,21.6783787 43.8046875,23.0195312 L43.609375,25.03125 L43.2578125,26.5546875 C43.0234363,27.5703176 42.6197945,28.3906219 42.046875,29.015625 C41.2656211,29.7968789 40.4908892,30.2721346 39.7226562,30.4414062 C38.9544232,30.6106779 38.375002,30.7083332 37.984375,30.734375 C36.6041598,30.8385422 35.0937582,30.9166664 33.453125,30.96875 C31.8385336,31.0208336 30.328132,31.0598957 28.921875,31.0859375 C27.515618,31.1119793 26.3437547,31.125 25.40625,31.125 L22.3203125,31.125 C21.2005152,31.0989582 19.8919346,31.0729168 18.3945312,31.046875 C16.8971279,31.0208332 15.3932367,30.9817711 13.8828125,30.9296875 C12.3723883,30.8776039 11.2135457,30.8125004 10.40625,30.734375 C9.96353944,30.6562496 9.30599396,30.5455736 8.43359376,30.4023438 C7.56119356,30.2591139 6.73437891,29.7968789 5.953125,29.015625 C5.35416367,28.3906219 4.94401152,27.5703176 4.72265625,26.5546875 L4.390625,25.03125 L4.1953125,23.0195312 C4.06510352,21.6783787 4,20.1875082 4,18.546875 L4,15.5 C4,13.8854086 4.06510352,12.4140692 4.1953125,11.0859375 L4.390625,9.09375 L4.7421875,7.53125 C4.97656367,6.48957812 5.38020547,5.68229452 5.953125,5.109375 C6.73437891,4.27603752 7.50911074,3.78776112 8.27734376,3.64453124 C9.04557676,3.50130136 9.62499804,3.4166668 10.015625,3.390625 C11.3958402,3.2864578 12.9062418,3.2083336 14.546875,3.15625 C16.1614664,3.1041664 17.671868,3.06510428 19.078125,3.03906248 C20.484382,3.01302072 21.6562453,3 22.59375,3 L25.40625,3 C26.3437547,3 27.515618,3.01302072 28.921875,3.03906248 C30.328132,3.06510428 31.8385336,3.1041664 33.453125,3.15625 C35.0937582,3.2083336 36.6041598,3.2864578 37.984375,3.390625 C38.375002,3.4427086 38.9544232,3.54036388 39.7226562,3.68359376 C40.4908892,3.82682364 41.2656211,4.30207928 42.046875,5.109375 C42.6458363,5.70833632 43.0559885,6.52213028 43.2773438,7.55078124 L43.609375,9.09375 Z M29.390625,17.375 L30.71875,16.671875 L19.9375,11.046875 L19.9375,22.296875 L29.390625,17.375 Z"></path>
</svg>
