<?xml version="1.0" encoding="UTF-8" standalone="no"?>
<svg width="48px" height="48px" viewBox="0 0 48 48" version="1.1" xmlns="http://www.w3.org/2000/svg" xmlns:xlink="http://www.w3.org/1999/xlink">
    <defs></defs>
    <g stroke="none" stroke-width="1" fill="none" fill-rule="evenodd">
        <g fill="#000000">
            <path d="M38.4,14.2 L31.2,14.2 L31.2,10.6 C31.2,8.602 29.598,7 27.6,7 L20.4,7 C18.402,7 16.8,8.602 16.8,10.6 L16.8,14.2 L9.6,14.2 C7.602,14.2 6.018,15.802 6.018,17.8 L6,37.6 C6,39.598 7.602,41.2 9.6,41.2 L38.4,41.2 C40.398,41.2 42,39.598 42,37.6 L42,17.8 C42,15.802 40.398,14.2 38.4,14.2 L38.4,14.2 Z M27.6,14.2 L20.4,14.2 L20.4,10.6 L27.6,10.6 L27.6,14.2 L27.6,14.2 Z"></path>
        </g>
    </g>
</svg>