<?xml version="1.0" encoding="UTF-8" standalone="no"?>
<svg width="48px" height="48px" viewBox="0 0 48 48" version="1.1" xmlns="http://www.w3.org/2000/svg" xmlns:xlink="http://www.w3.org/1999/xlink">
    <defs></defs>
    <g stroke="none" stroke-width="1" fill="none" fill-rule="evenodd">
        <g fill="#000000">
            <path d="M31,12 C33.2,12 35,10.2 35,8 C35,5.8 33.2,4 31,4 C28.8,4 27,5.8 27,8 C27,10.2 28.8,12 31,12 L31,12 Z M10,25 C4.5,25 0,29.5 0,35 C0,40.5 4.5,45 10,45 C15.5,45 20,40.5 20,35 C20,29.5 15.5,25 10,25 L10,25 Z M10,42 C6.1,42 3,38.9 3,35 C3,31.1 6.1,28 10,28 C13.9,28 17,31.1 17,35 C17,38.9 13.9,42 10,42 L10,42 Z M21.6,22.1 L26.3,17.3 L27.8,18.8 C30.3,21.4 33.8,22.9 37.9,22.9 L37.9,18.9 C34.9,18.9 32.4,17.8 30.6,16 L26.7,12.2 C26.1,11.5 25.1,11 24,11 C22.9,11 21.9,11.4 21.2,12.2 L15.7,17.7 C15,18.4 14.5,19.4 14.5,20.5 C14.5,21.6 15,22.6 15.7,23.4 L22,29 L22,39 L26,39 L26,26.5 L21.6,22.1 L21.6,22.1 Z M38,25 C32.5,25 28,29.5 28,35 C28,40.5 32.5,45 38,45 C43.5,45 48,40.5 48,35 C48,29.5 43.5,25 38,25 L38,25 Z M38,42 C34.1,42 31,38.9 31,35 C31,31.1 34.1,28 38,28 C41.9,28 45,31.1 45,35 C45,38.9 41.9,42 38,42 L38,42 Z"></path>
        </g>
    </g>
</svg>