<?xml version="1.0" encoding="UTF-8" standalone="no"?>
<svg width="48px" height="48px" viewBox="0 0 48 48" version="1.1" xmlns="http://www.w3.org/2000/svg" xmlns:xlink="http://www.w3.org/1999/xlink">
    <defs></defs>
    <g stroke="none" stroke-width="1" fill="none" fill-rule="evenodd">
        <g fill="#000000">
            <path d="M24,4 C12.95,4 4,12.95 4,24 C4,35.05 12.95,44 24,44 C35.05,44 44,35.05 44,24 C44,12.95 35.05,4 24,4 L24,4 Z M24,10 C27.31,10 30,12.69 30,16 C30,19.32 27.31,22 24,22 C20.69,22 18,19.32 18,16 C18,12.69 20.69,10 24,10 L24,10 Z M24,38.4 C18.99,38.4 14.59,35.84 12,31.96 C12.05,27.99 20.01,25.8 24,25.8 C27.99,25.8 35.94,27.99 36,31.96 C33.41,35.84 29.01,38.4 24,38.4 L24,38.4 Z"></path>
        </g>
    </g>
</svg>