<?xml version="1.0" encoding="UTF-8" standalone="no"?>
<svg width="48px" height="48px" viewBox="0 0 48 48" version="1.1" xmlns="http://www.w3.org/2000/svg" xmlns:xlink="http://www.w3.org/1999/xlink">
    <defs></defs>
    <g stroke="none" stroke-width="1" fill="none" fill-rule="evenodd">
        <g fill="#000000">
          <path d="M41.792382,4 L6.20761801,4 C4.98810764,4 4,4.98810764 4,6.20761801 L4,41.792382 C4,43.0115926 4.98810764,44 6.20761801,44 L25.3651862,44 L25.3651862,28.5099553 L20.15248,28.5099553 L20.15248,22.4731017 L25.3651862,22.4731017 L25.3651862,18.021147 C25.3651862,12.8546015 28.5207461,10.0413497 33.129617,10.0413497 C35.337235,10.0413497 37.2347674,10.2057596 37.787646,10.279197 L37.787646,15.6784941 L34.591171,15.6799928 C32.0845579,15.6799928 31.5992716,16.8710274 31.5992716,18.6188374 L31.5992716,22.4731017 L37.5772254,22.4731017 L36.798789,28.5099553 L31.5992716,28.5099553 L31.5992716,44 L41.792382,44 C43.0115926,44 44,43.0115926 44,41.792382 L44,6.20761801 C44,4.98810764 43.0115926,4 41.792382,4"></path>
        </g>
    </g>
</svg>