<?xml version="1.0" encoding="UTF-8" standalone="no"?>
<svg width="48px" height="48px" viewBox="0 0 48 48" version="1.1" xmlns="http://www.w3.org/2000/svg" xmlns:xlink="http://www.w3.org/1999/xlink">
    <defs></defs>
    <g stroke="none" stroke-width="1" fill="none" fill-rule="evenodd">
        <g fill="#000000">
            <path d="M38,6 L10,6 C7.79,6 6.02,7.79 6.02,10 L6,38 C6,40.21 7.79,42 10,42 L38,42 C40.21,42 42,40.21 42,38 L42,10 C42,7.79 40.21,6 38,6 L38,6 Z M36,28 L28,28 L28,36 L20,36 L20,28 L12,28 L12,20 L20,20 L20,12 L28,12 L28,20 L36,20 L36,28 L36,28 Z"></path>
        </g>
    </g>
</svg>