<svg xmlns="http://www.w3.org/2000/svg" viewBox="0 0 48 48"><path d="M44,36.5 C44,40.6 40.6,44 36.5,44 L11.5,44 C7.4,44 4,40.6 4,36.5 L4,11.5 C4,7.4 7.4,4 11.5,4 L36.5,4 C40.6,4 44,7.4 44,11.5 L44,36.5 L44,36.5 Z M13.2,10.7 C11.1,10.7 9.8,12.1 9.8,13.8 C9.8,15.5 11.1,16.9 13.1,16.9 L13.1,16.9 C15.2,16.9 16.5,15.5 16.5,13.8 C16.6,12.1 15.3,10.7 13.2,10.7 L13.2,10.7 L13.2,10.7 Z M16.2,37.5 L16.2,19.4 L10.2,19.4 L10.2,37.5 L16.2,37.5 L16.2,37.5 Z M37.8,37.5 L37.8,27.1 C37.8,21.6 34.8,19 30.9,19 C27.7,19 26.2,20.8 25.5,22 L25.6,22 L25.6,19.4 L19.6,19.4 C19.6,19.4 19.7,21.1 19.6,37.5 L25.6,37.5 L25.6,27.4 C25.6,26.9 25.6,26.3 25.8,25.9 C26.2,24.8 27.2,23.7 28.9,23.7 C31.1,23.7 31.9,25.3 31.9,27.8 L31.9,37.5 L37.8,37.5 L37.8,37.5 Z"/></svg>