<svg xmlns="http://www.w3.org/2000/svg" viewBox="0 0 48 48"><path d="M39.9,15.9 L39.9,17 C39.9,27.8 31.6,40.3 16.6,40.3 C12,40.3 7.6,39 4,36.6 C4.7,36.7 5.3,36.7 6,36.7 C9.8,36.7 13.4,35.4 16.2,33.2 C12.6,33.1 9.6,30.8 8.5,27.5 C9,27.6 9.5,27.6 10,27.6 C10.7,27.6 11.5,27.5 12.2,27.3 C8.4,26.5 5.6,23.2 5.6,19.3 L5.6,19.2 C6.7,19.8 8,20.2 9.3,20.2 C7.1,18.7 5.6,16.2 5.6,13.4 C5.6,11.9 6,10.5 6.7,9.3 C10.7,14.3 16.8,17.5 23.6,17.9 C23.5,17.3 23.4,16.7 23.4,16 C23.4,11.5 27.1,7.8 31.6,7.8 C34,7.8 36.1,8.8 37.6,10.4 C39.5,10 41.2,9.4 42.8,8.4 C42.2,10.3 40.9,11.9 39.2,12.9 C40.9,12.7 42.4,12.3 43.9,11.6 C42.9,13.2 41.5,14.7 39.9,15.9 L39.9,15.9 L39.9,15.9 Z"/></svg>