<?xml version="1.0" encoding="UTF-8" standalone="no"?>
<svg width="48px" height="48px" viewBox="0 0 48 48" version="1.1" xmlns="http://www.w3.org/2000/svg" xmlns:xlink="http://www.w3.org/1999/xlink">
    <defs></defs>
    <g stroke="none" stroke-width="1" fill="none" fill-rule="evenodd">
        <g fill="#000000">
            <path d="M24.97,21.8 C20.43,20.62 18.97,19.41 18.97,17.51 C18.97,15.33 20.98,13.8 24.37,13.8 C27.93,13.8 29.25,15.5 29.37,18 L33.79,18 C33.66,14.55 31.55,11.41 27.37,10.38 L27.37,6 L21.37,6 L21.37,10.32 C17.49,11.17 14.37,13.67 14.37,17.54 C14.37,22.16 18.2,24.46 23.77,25.8 C28.78,27 29.77,28.75 29.77,30.63 C29.77,32 28.8,34.2 24.37,34.2 C20.25,34.2 18.62,32.35 18.41,30 L14,30 C14.25,34.38 17.52,36.83 21.37,37.66 L21.37,42 L27.37,42 L27.37,37.7 C31.26,36.95 34.37,34.7 34.37,30.59 C34.37,24.93 29.51,22.99 24.97,21.8 L24.97,21.8 Z"></path>
        </g>
    </g>
</svg>