<svg xmlns="http://www.w3.org/2000/svg" viewBox="0 0 48 48"><path d="M44,38.9 C44,41.7 41.7,44 38.9,44 L9.2,44 C6.4,44 4.1,41.7 4.1,38.9 L4.1,9.2 C4.1,6.4 6.4,4.1 9.2,4.1 L38.9,4.1 C41.7,4.1 44,6.4 44,9.2 L44,38.9 L44,38.9 Z M39.5,20.8 L36,20.8 C36.3,21.9 36.5,23 36.5,24.2 C36.5,30.9 30.9,36.3 24.1,36.3 C17.3,36.3 11.7,30.9 11.7,24.2 C11.7,23 11.9,21.9 12.2,20.8 L8.5,20.8 L8.5,37.7 C8.5,38.6 9.2,39.3 10.1,39.3 L37.9,39.3 C38.8,39.3 39.5,38.6 39.5,37.7 L39.5,20.8 L39.5,20.8 Z M24,16 C19.6,16 16,19.5 16,23.8 C16,28.1 19.6,31.6 24,31.6 C28.5,31.6 32,28.1 32,23.8 C32.1,19.5 28.5,16 24,16 L24,16 L24,16 Z M39.5,10.2 C39.5,9.2 38.7,8.4 37.7,8.4 L33.2,8.4 C32.2,8.4 31.4,9.2 31.4,10.2 L31.4,14.5 C31.4,15.5 32.2,16.3 33.2,16.3 L37.7,16.3 C38.7,16.3 39.5,15.5 39.5,14.5 L39.5,10.2 L39.5,10.2 Z"/></svg>