<?xml version="1.0" encoding="UTF-8" standalone="no"?>
<svg width="49px" height="48px" viewBox="0 0 49 48" version="1.1" xmlns="http://www.w3.org/2000/svg" xmlns:xlink="http://www.w3.org/1999/xlink">
    <defs></defs>
    <g stroke="none" stroke-width="1" fill="none" fill-rule="evenodd">
        <g transform="translate(0.500000, 0.000000)" fill="#000000">
            <path d="M38,16 L10,16 C6.69,16 4,18.69 4,22 L4,34 L12,34 L12,42 L36,42 L36,34 L44,34 L44,22 C44,18.69 41.31,16 38,16 L38,16 Z M32,38 L16,38 L16,28 L32,28 L32,38 L32,38 Z M38,24 C36.89,24 36,23.11 36,22 C36,20.89 36.89,20 38,20 C39.11,20 40,20.89 40,22 C40,23.11 39.11,24 38,24 L38,24 Z M36,6 L12,6 L12,14 L36,14 L36,6 L36,6 Z"></path>
        </g>
    </g>
</svg>