<?xml version="1.0" encoding="UTF-8" standalone="no"?>
<svg width="49px" height="48px" viewBox="0 0 49 48" version="1.1" xmlns="http://www.w3.org/2000/svg" xmlns:xlink="http://www.w3.org/1999/xlink">
    <defs></defs>
    <g stroke="none" stroke-width="1" fill="none" fill-rule="evenodd">
        <g transform="translate(0.000000, 0.000000)" fill="#000000">
            <path d="M9.6,44 L9.6,44 C6.6,44 4,41.4 4,38.4 L4,38.4 C4,35.4 6.6,32.8 9.6,32.8 L9.6,32.8 C12.6,32.8 15.2,35.4 15.2,38.4 L15.2,38.4 C15.2,41.4 12.8,44 9.6,44 L9.6,44 L9.6,44 Z M4,4 L4,10 C22.8,10 38,25.2 38,44 L44,44 C44,21.9 26.1,4 4,4 L4,4 L4,4 Z M4,16.2 L4,22.2 C16,22.2 25.8,32 25.8,44 L31.8,44 C31.8,28.6 19.4,16.2 4,16.2 L4,16.2 L4,16.2 Z"></path>
        </g>
    </g>
</svg>