<?xml version="1.0" encoding="UTF-8" standalone="no"?>
<svg width="49px" height="48px" viewBox="0 0 49 48" version="1.1" xmlns="http://www.w3.org/2000/svg" xmlns:xlink="http://www.w3.org/1999/xlink">
    <defs></defs>
    <g stroke="none" stroke-width="1" fill="none" fill-rule="evenodd">
        <g transform="translate(1.000000, 0.000000)" fill="#000000">
            <path d="M26,11 C28.2,11 30,9.2 30,7 C30,4.8 28.2,3 26,3 C23.8,3 22,4.8 22,7 C22,9.2 23.8,11 26,11 L26,11 Z M18.5,17.8 L13,46 L17.2,46 L20.7,30 L25,34 L25,46 L29,46 L29,30.9 L24.9,26.8 L26.1,20.8 C28.7,24 32.6,26 37,26 L37,22 C33.3,22 30.1,20 28.3,17.1 L26.4,13.9 C25.7,12.7 24.4,12 23,12 C22.5,12 22,12.1 21.5,12.3 L11,16.6 L11,26 L15,26 L15,19.3 L18.5,17.8 L18.5,17.8 Z"></path>
        </g>
    </g>
</svg>