<?xml version="1.0" encoding="utf-8"?>
<svg xmlns="http://www.w3.org/2000/svg" viewBox="0 0 113.386 27.291">
  <path fill="#FFF" d="M16.884 26.853c-1.006-1.005-2.249-1.537-3.452-2.051l-.096-.041-.64-.239c-.076-.029-.125-.047-.155-.06l-.11-.05-.004.013c-3.939-1.393-6.348-4.637-6.451-8.697-.006-.165-.009-.341-.009-.522 0-.609.036-1.249.108-1.903.052-.387.173-1.295.176-1.318L6.6 9.913c.033-.213.051-.32.063-.37l.031-.126-.023-.002c.021-.288.042-.641.042-.99 0-1.429-.362-2.331-1.175-2.927l-.006-.004-.106-.107 1.752-2.283-.05-.066c-.137-.182-.217-.372-.237-.564l-.026-.259.245.087c.156.056.314.105.481.152l.071.02L9.404.204l.08.134c.327.55.91.817 1.785.817.358 0 .769-.043 1.293-.137 0 0 1.721-.265 1.736-.268C15.49.612 15.716.585 15.753.581L15.86.57c.34-.033.704-.05 1.086-.05.751 0 1.565.063 2.42.188.005.001 1.222.182 1.233.183l1.516.252c.222.021.477.042.734.042.68 0 1.154-.15 1.494-.474.075-.067.136-.145.196-.221l.17-.214 1.603 2.109.077-.029c.26-.099.615-.228 1.069-.391 0 0 .237-.086.315-.114.588-.214 1.066-.359 1.462-.442l.312-.066-.127.293c-.109.249-.206.437-.308.593l-.19.291.323-.13c.006-.003.234-.094.429-.171l-.205.393c-.11.21-.532.875-.923 1.164l-.088.064.061.087c.003.004.006.008.008.012.041.065.064.165.064.277 0 .106-.021.211-.055.283-.044.091-.111.213-.239.344l-.066.068.431.567-.084.063c-.828.623-1.23 1.583-1.23 2.935l.001.045c-.003.07-.004.143-.004.218 0 .312.022.652.065 1.008l.211 1.322c.148.884.224 1.341.227 1.36.041.389.146 1.395.155 1.472.051 1.251.056 1.364.056 1.372.001.051.002.105.002.158 0 2.19-.735 4.407-1.917 5.788l-.023.029c-.769.937-1.823 2.22-4.699 3.232-1.613.587-3.048 1.162-4.28 2.255l-.005.004-.046.052-.038.042-.088.099-.081-.079z"/>
  <path fill="#094183" d="M28.205 5.271c-.023-.03-.041-.043-.058-.046.017.003.034.016.058.046zm.001.003c0-.001-.001-.002-.002-.003.001.001.002.002.002.003zm1.006-2.993c.109-.166.211-.366.317-.609l.212-.487-.52.11c-.401.085-.884.231-1.477.447-.083.03-.192.069-.315.114-.408.147-.795.287-1.071.392L24.72.091l-.258.325c-.059.075-.115.146-.185.209-.318.303-.769.444-1.419.444-.254 0-.508-.021-.717-.041L20.622.776c-.018-.003-1.233-.183-1.233-.183-.859-.126-1.679-.19-2.436-.19-.426 0-.832.021-1.206.062-.037.004-.239.027-1.461.169-.02.003-1.736.268-1.737.268-.518.092-.922.135-1.274.135-.833 0-1.386-.25-1.691-.764L9.424 0 7.629 2.339c-.156-.043-.311-.091-.474-.149l-.409-.145.045.431c.023.225.116.431.258.619l-1.76 2.293.179.179.014.011c.781.573 1.13 1.448 1.13 2.838 0 .392-.027.79-.05 1.092h.003c-.013.054-.03.159-.067.377l-.349 2.077c-.003.022-.116.871-.176 1.32-.072.657-.108 1.301-.108 1.914 0 .182.003.359.009.524.106 4.143 2.584 7.446 6.629 8.834l.001-.002c.034.015.085.034.162.063 0 0 .631.236.636.238l.096.041c1.193.51 2.427 1.038 3.417 2.028l.16.161.165-.184.039-.042s.024-.027.043-.049c1.217-1.081 2.642-1.651 4.244-2.234 2.904-1.022 3.969-2.319 4.748-3.267l.022-.026c1.199-1.399 1.944-3.644 1.944-5.859 0-.054-.001-.108-.002-.16 0-.002 0-.005-.056-1.378-.002-.022-.103-.976-.156-1.479 0-.003-.001-.01-.227-1.362l-.21-1.318c-.042-.352-.064-.687-.064-.995 0-.074.001-.146.004-.22l-.001-.044c0-1.315.388-2.247 1.187-2.848l.172-.129-.44-.579c.136-.138.209-.268.26-.373.083-.172.098-.487-.014-.665-.004-.006-.008-.012-.012-.017.403-.298.833-.968.955-1.202L29.915 2s-.698.278-.703.281zm-21.203.165L9.405.632c.492.709 1.301.759 2.103.788l.533-.057 2.28-.359 1.533-.175c1.483-.169 2.961.063 4.367.26l2.026.331c.858.063 1.779.042 2.363-.598l.112-.126 1.291 1.697-.006.003c-.027.013-.068.03-.12.052-.167.06-.355.129-.531.2-.022.008-.045.016-.067.023l-.022-.005-.657-.866c-.683.387-1.534.443-2.356.387l-1.182-.183-1.462-.239-1.562-.185c-.935-.077-1.892-.042-2.8.063l-1.293.183-2.152.324c-.83.07-1.632-.029-2.3-.401l-.668.868c-.087-.016-.173-.033-.264-.052-.205-.041-.388-.079-.562-.119zm16.352 4.032c-.02.211-.266.258-.347.429l-.116.082c.102-.007.211-.069.28-.157.17-.054.705-.166.729-.061.024.104-.026.2-.184.313s-.723.355-1.139.287c-.232-.006-.45.061-.669.109l-1.12.328c-.388.102-.842.157-1.262.055-.62-.116-1.235-.28-1.89-.239-.074.003-.178.061-.219.15.068-.014.171-.047.239 0-.01.085-.021.554-.202.731-.048-.054-.073-.141-.097-.219-.024-.078-.295-1.263.224-1.638.31-.101.716.088.818.144.401.217 1.086.333 1.618.538.232-.027.457-.103.695-.13l1.604-.211c.287.054.329-.314.58-.34.164.006.267-.117.396-.191.024-.021.062-.015.062.02zm-13.226.723c.061-.054.275-.103.477-.074s.564.116.836.308c.553.184.985.565 1.548.741.021-.049-.054-.09-.082-.123.348-.266.71-.512 1.099-.675.252-.294.586-.586.996-.526l.093-.01s.002.094 0 .132c-.011.213-.122.426-.243.718 0 0-.34.126-.505.225-.134.081-1.31.771-1.31.771-.334.266-.5-.032-.846-.266-.403-.212-.819-.416-1.167-.744 0-.047.102-.02.054-.075-.198.02-.345.089-.523.144-.075.035-.261.097-.321-.019l.086-.023c.11-.074.15-.222.33-.265-.131-.126-.388-.171-.575-.184l.053-.055zm14.844.096c.014.098-.185.333-.44.39-.31.069-.56.009-.759-.105.009.22.375.304.643.253-.149.205-.603.346-.944.333-.354-.014-.592-.12-.907-.315-.032.213.37.393.657.416-.57.314-1.207.086-1.286.065-.157-.042-.389-.139-.512-.264-.008.165.216.296.415.343-.375.176-.852-.02-1.041-.332.616-.179 1.085-.343 1.711-.499.604.101 1.182-.152 1.407-.416.088-.103.147-.228.15-.261.057-.018.137.003.193.017.057.014.658.15.713.375zm-5.125.897c.294.035.696-.026.833-.068.067.115-.067.311-.18.269.048.163.199.375.172.566-.143-.054-.566-.221-.566-.221.102.171.251.471.197.689-.171-.129-.531-.14-.674-.25.068.26.239.635.013.881-.211-.15-.314-.389-.491-.56.034.246.089.628-.083.854-.109-.137-.576-.318-.563-.482-.048-.015-.173.501-.33.597-.156-.218-.29-.525-.506-.722.06-.068.135-.028.107-.144-.061-.148-.285-.232-.532-.333.037-.077.062-.115.141-.227.2-.285.325-.55.372-.687.078-.226.105-.3.122-.464.256.032.432.073.743.108.324.037.801.141 1.225.194zm-5.296-.091c-.078.084-.125.131-.165.231-.093.231 0 .578.238.75.159.114.212.128.341.166-.313.084-.66.535-.662.774-.121-.112-.153-.333-.123-.537-.086.121-.278.209-.394.222-.04-.102-.021-.369.099-.492-.047-.081-.318-.039-.444.049-.027-.163.033-.292.198-.394-.045-.093-.146-.026-.37.003.143-.07.36-.187.591-.335.392-.251.691-.437.691-.437zm.146 6.537c.34.545.37.566.554.88s.947 1.491 1.095 1.73c.148.239.935 1.573 1.444 1.832-.391.426-.204.953-.849 1.057-.373.06-1.419.382-1.781-.223-.362-.605-.526-1.573-.417-2.337.46.714.789 1.03 1.043 1.176-.84-.933-.736-1.128-1.138-1.633-.162-.204-.196-.533-.216-.782-.033-.424-.026-.853-.047-1.278-.012-.23 0-.474-.077-.694-.03-.084-.091-.338-.109-.425-.019-.088-.009-.204-.009-.204s.167.356.507.901zm2.544-8.129c-.354.252-.421.482-1.003.779-.323.165-.64.3-.846.197-.211-.116-.146-.497-.146-.547-.001-.043.005-.104.007-.136.157-.079.384-.03.448-.225.054-.163.04-.347.075-.519.068-.143.273-.212.313-.368-.265.17-.477.43-.805.416-.102-.027-.034-.157-.088-.218-.066-.026-.065-.078-.075-.126.027.004.048.004.05.004.016 0 .028-.012.028-.028 0-.015-.012-.029-.028-.029s-.052-.003-.085-.013c-.003-.002-.004-.004-.006-.006-.006-.055.021-.13-.02-.17l-.167-.028c.014-.17.13-.32.137-.504.027.034.13.026.082.095-.027.027-.02.075-.006.103-.009-.081.287-.187.129-.243-.068-.013-.259.031-.273-.072 0-.15.062-.279.144-.402.171.143.402.266.457.498.061.068.123.157.212.157.191-.075.286.116.47.102 0-.04.021-.082.062-.096.042-.022.088 0 .116.035.021.088-.034.143-.075.198-.068.054-.15.068-.239.082.149.103.28-.061.423-.095.068-.014.137.014.163.082.062.348-.088.852.348 1.024.061.026.13.033.198.053zm6.798 12.655c-.282-.032-.523-.016-.625.25-.143.328-.22.568-.333.758-.133.225-.35.422-.715.524-.365.102-.875.125-.938-.094.094-.446.7-.515.958-.64.482-.233.527-.657.543-1.094-.678-.437-2.044-1.52-2.044-1.52s1.19 1.182 1.824 1.604c0 .372-.097.583-.392.746-.192.106-.412.185-.684.323-.465.264-.326.639-.955.878-.264.101-.9.188-.734-.156.238-.357-.016-.359-.016-.359-.145.043-.531.15-.731.158-.122.005-.246-.084-.139-.184.039-.036.101-.066.166-.116.096-.074.152-.122.193-.196.066-.118.118-.277.047-.318-.085-.05-.216-.015-.279.053-.26.288-.282.773-1.032.633 0 0-.883-.203-.171-1.197.201-.267-.352-.579-.677-.977-.621-.761-2.393-3.634-2.393-3.634-.184-.266-.378-.586-.548-.846-.169-.26-.225-.815.164-.761.185.039.245.122.451.035.148-.063.135.159 0 .271-.086.089-.086.255.031.344.152.088.191-.085.363-.036.173.049.295.465.603.554.084.02.137.014.157-.04.045-.124-.098-.294-.064-.445.051.093.182.19.358.287.214.118.338.147.282-.033-.064-.203-.095-.342-.095-.342-.021-.153.115-.271.219-.271.06 0 .124.053.165.123.135.246.071.388.379.485.462.979 1.653 2.232 2.128 2.623.099.082.278.183.417.236-.105-.103-.274-.252-.349-.324-1.249-1.198-2.04-2.305-2.019-2.541.357-.149.413-.496.517-.444.052.031-.113.315-.083.458.017.083.101.198.326.194-.404.404.625.743 1.388.725.276.171.756.462 1.333.593 0 0 .056.275.236.285 0 0 .422.653.999 1.272s1.23 1.624 1.769 2.156zm-4.453-.685c-1.232-1.315-2.456-3.304-2.619-3.365 0 0 1.518 2.306 1.794 2.697s.651.762.829 1.077c.055-.093.139-.255-.004-.409zM18.356 6.736c-.528.502.096 1.772-.261 2.289-.039.056-.08.125-.108.18-.285-.094-.456-.101-.698-.104-.143-.002-.313.032-.427.042-.285.024-.496-.003-.756.052.02-.056.056-.103.108-.18-.243.007-.427-.042-.562-.219-.087-.121-.104-.27-.059-.392.069-.189.268-.364.351-.538 0 0 .14-.218.191-.482.024.087.065.23.302.284.22.051.462-.031.853-.229-.179.284-.433.462-.909.539.164.034.476-.033.795-.2.388-.203.877-.875.877-.875.114-.103.344-.201.303-.167zm-.594 1.776c-.087.161-.194.287-.537.302-.437.02-.539-.238-.539-.238.027.135.121.417.542.398.536-.024.534-.462.534-.462zm10.544-3.085c-.808.644-1.057 1.62-1.106 1.917-.134.858-.163 1.822-.007 2.665l.429 2.666.125 1.167.051 1.364c.089 3.15-1.426 7.37-6.598 9.066l-1.251.484c-1.055.465-2.089.971-2.989 1.787-1.252-1.118-2.729-1.729-4.22-2.3-4.747-1.503-6.412-5.512-6.498-8.27-.042-.927-.006-1.92.105-2.848l.198-1.407.33-1.906c.148-1.077.156-2.272-.203-3.256-.175-.45-.5-.858-.893-1.209.434-.575.935-1.238 1.384-1.821.007.017.014.033.022.05l.012.027c.076.209.16.37.226.48.034.062.069.127.108.192l-.753 1.008c.929 1.048.977 2.532.935 3.924l-.112.865-.409 2.469-.161 1.406-.05 1.294c-.16 3.16 2.247 7.209 6.674 8.538 1.154.463 2.272.998 3.306 1.758 1.034-.753 2.166-1.28 3.327-1.731 5.123-1.442 6.674-5.393 6.736-8.002.057-.964-.027-1.913-.126-2.834l-.197-1.309-.267-1.631c-.161-.906-.128-2.009.034-2.888.275-.121.57-.389.75-.961l.026-.084c.299-.207.667-.541.911-.872.036.015.075.079.151.202zm.963-3.857c-.355.815-.579 1.051-1.125 1.242 0 0-1.761.54-2.212.713-.523.2-.932.418-1.198.571-.938-.571-2.661-.145-3.079.012-.674.253-1.365.666-1.938 1.075-.085-.084-.2-.221-.296-.228 0 0 .293.178.24.486.074-.021.363-.238.559-.065.198.173-.004.381-.073.544.212-.164.439-.292.669-.141.257.168-.033.476-.118.621.19-.034.387-.179.522.018.135.197-.068.299-.26.408.184-.013.197.13.725.163-.245.023-.5.05-.663.065-.119-.026-.259-.094-.494-.159-.609-.171-.972-.36-1.212-.437s-.521-.103-.701-.047c-.097.002-.099.041-.181.047.806-.287.565-1.256.948-1.843.389-.731 1.201-.905 1.924-1.035.941-.13 2.416-.272 2.853-.362.787-.161 1.767-.482 1.965-.575.241-.113 1.299-.487 1.707-.636s.954-.334 1.438-.437zm.053.966c-.117.306-.521 1.008-.962 1.231-.607.341-1.465.484-2.122.558-.525.076-.935-.025-1.125-.085 0 0-.195-.062-.261-.112.983-.529 2.182-.887 3.435-1.224.696-.241.782-.267 1.035-.368zM16.963 3.602c-.261.033-.595.096-.793.452-.093-.075-.062-.228.042-.363.076-.099.348-.205.751-.089zm11.425.826c-.065.134-.157.275-.346.422-.395.333-2.274.604-2.992.365.762-.307.842-.563.888-.758.571-.022 1.428-.087 2.386-.504.112-.028.133.333.064.475zm-4.098-.415c.221.074.558.228.401.275-1.201.201-1.989.537-4.061 1.33-.07-.003-.157.01-.227.037.023-.106.014-.231-.106-.352-.097-.096-.257-.145-.505-.054.607-.396 1.23-.794 1.916-1.046.547-.201 1.136-.298 1.772-.31.389-.007.616.055.81.12zm-6.172.065c.018.065.004.239-.12.305-.232.108-.374-.132-.564-.187-.356-.055-.781.006-1.121-.082.092-.131.244-.272.428-.334.218-.068.635-.161.932-.069.288.09.411.249.445.367zm.285.122c0 .054-.018.072-.044.112s-.084.101-.195.072c-.013-.097.042-.198.13-.253.047-.013.109.015.109.069zm7.412.288c-.037.166-.282.365-.473.474-.214.121-.519.195-.623.357-.137.122-1.326.465-1.886.606-.561.141-1.018.261-1.556.351-.101-.082-.254-.077-.351-.059.139-.287.085-.481-.165-.555l2.719-.98c.501-.144 1.128-.322 1.546-.335.273.063.459.141.789.141zm-8.289-.124c.178.055.499.377.582.541.027.13-.027.252-.109.348-.075.027-.156.109-.184.183.013-.081-.008-.156-.055-.218-.075-.048-.155-.131-.189-.221-.283.005-.702.015-.855-.125-.003-.056-.024-.104-.08-.17.09-.011.422.018.602.024s.426.003.474.075c0 .034-.033.034-.054.041-.02.006-.047-.008-.061.006.055.089.163.109.259.082.055-.027.083-.082.048-.15-.053-.103-.177-.122-.335-.143-.158-.022-.984-.034-.984-.034-.088-.096-.282-.235-.407-.297-.014-.061.059-.114.099-.094.335.118.882.105 1.249.152zm1.083.049c-.013.055.021.042.068.096 0 .102-.068.184-.15.232-.075.041-.191.068-.266.007-.041-.027-.141-.054-.141-.054 0-.178.211-.266.348-.328.059-.028.122-.013.141.047zm-8.173.14c.787.138.748.848.942 1.152-.664.036-.957.059-1.467-.058-1.804-.417-2.147-1.267-2.632-2.41.874.789 2.789 1.251 3.157 1.316zm17.552.475c-.396.553-1.125 1.015-1.408 1.137-.205.088-.472.154-.911.051-.23-.053-.445-.152-.596-.272-.295-.236-.278-.397-.273-.48.004-.057.102-.182.202-.15 1.086.275 2.626-.056 2.986-.286zm-9.523-.147c.035-.007.062-.027.104-.02.047.157-.125.206-.226.232-.075.007-.116-.056-.143-.109 0-.047.001-.108-.033-.146.001-.022.009-.042.033-.059.062.088.157.136.265.102zm-7.025.942c.056.074.158.326.534.596-.21.057-.437.08-.765.097-.444.023-.845-.023-.845-.023-.657-.054-1.494-.844-1.702-1.152.442.233 1.031.417 1.491.473.459.057.904.065 1.287.009zm2.139.563c-.004.076.01.194.151.286-.094.012-.303.01-.414.048-.688-.039-1.377-.245-1.767-.906.174 0 .333-.012.595.045.374.08.937.246 1.435.527zm12.118-.036c-.032.139-.306.347-.594.39-.008.002-.039-.22-.348-.199-.174.012-.173.036-.296.064.054-.075.039-.187-.009-.269-.014-.02-.049-.054-.077-.054-.081 0-.166.027-.268.092-.104.066-.209.049-.291.08-.145.055-.245.14-.354.309-.031.024-.075.013-.146.008-.066-.029-1.229.142-1.229.142-.217-.014-.515.007-.895-.108 0 0 .314-.156.148-.433 0 0 1.566-.342 2.185-.515.618-.173.953-.285 1.161-.387-.037.143.102.397.349.591.17.132.52.262.664.289zm1.31-.304c-.352 1.118-1.346.977-1.701.751.366-.112.522-.422.522-.422.498.041.832-.051 1.179-.329zm-13.79.736c-.149.083-.11.2-.077.277.047.11.171.169.171.169-.07.043-.153.127-.215.217-.16-.085-.385-.209-.581-.274-.366-.213-.715-.34-1.094-.314-.11.008-.351.093-.43.126-.258-.045-.646-.266-.749-.389.474.065.782.049 1.056.03.47-.034.777-.114.777-.114.388.152.665.278 1.142.272zm5.284 2.875c-.124.007-.045.06-.311.264-.054.041-.247.068-.411.051.045-.085.114-.159.022-.347-.095-.193-.242-.242-.311-.243.108.079.193.178.243.295.04.093.01.203-.072.285-.087.021-.19.077-.263.143.065-.246-.151-.608-.331-.66.16.214.3.364.212.735-.056.125-.553.466-.703.342-.242-.214-.044-.385-.133-.624-.02-.042-.034-.101-.069-.086.068.232-.032.332-.014.573-.167.059-.256.093-.374.069-.055-.068-.097-.18-.061-.358s.174-.411.325-.596c0 0-.077.027-.149.093-.216.199-.327.459-.311.644.007.085.017.158.08.221-.045.001-.273-.011-.339-.147-.13-.266.061-.513.203-.69.117-.145.309-.232.309-.232.3-.143.735-.087 1.038-.133.303-.046.558.001.811.081s.417.184.609.32zm4.631 5.284c.036.199-.221.334-.419.363l-.062.006c.006-.187-.031-.544.163-.579s.281.058.318.21zm-3.08-2.171c.556.68 1.075 1.039 1.184 1.115 0 0-.761-.712-.914-.99 1.284.999 2.286 1.396 2.763 1.737-.178-.04-.397-.061-.504.083-.108.143-.025.365-.093.577-.037.16-.146.187-.2.187-.096-.601-.574-.696-.574-.696.12.143.273.282.308.497-.448-.079-1.295-.597-1.294-.604-.444.025-.982-.027-1.265-.211-.322-.211.349-.245.074-.465-.121-.097-.262.008-.364-.146-.069-.104.187-.33.076-.548-.07-.138-.205-.134-.321-.023-.118.111-.186.55-.529.464-.202-.051-.139-.392-.354-.552-.14-.104-.334-.105-.451.017-.144.15-.111.353-.111.353-.408-.811-.014-2.534-.014-2.534-.431 1.12-.427 2.088-.097 2.678-.105-.052-.278-.22-.321-.319-.092-.209-.227-.5-.192-.784-.257.451.238 1.271.042 1.267-.163-.003-.161-.322-.364-.43-.21-.111-.286.075-.371.003-.094-.08.35-.396-.038-.618-.21-.12-.305.104-.477.006-.173-.099-.395-.054-.395-.054-.075-.395.42-2.172.42-2.172.295.148.711-.093.711-.093.222.418.668.077.863-.086.147-.123.194-.227.367-.304.187-.083.406.035.598-.049.206-.09.254-.214.254-.214.266.233.582 1.078.709 1.367.433.985.874 1.541.874 1.541zm-4.043-6.19c-.437-.069-.815.126-1.152.571-.44.135-.705.298-1.047.646-.243-.083-.521-.237-.603-.287.051-.127.141-.228.261-.282-.111-.069-.304-.165-.269-.29.065-.236.37-.097.708-.234-.135-.066-.295-.168-.229-.361.065-.193.364-.162.604-.103-.132-.128-.161-.346-.02-.439.142-.092.451-.06.451-.06.007-.164.129-.281.219-.41-.144.034-.227.214-.274.323-.441-.037-.64.179-.54.457-.212-.042-.429-.005-.512.175-.539-.321-1.344-.553-1.916-.585-.085-.005-.121-.004-.197-.014-.063-.07-.124-.243-.142-.313-.064-.242-.182-.586-.434-.707.527.071 1.943.344 2.829.712-.649-.479-2.405-.721-3.475-.97-.8-.187-1.892-.53-2.571-1.01-.386-.272-.609-.589-.645-.942.487.173.903.263 1.462.377.378.076.684.128 1.223.242.502.107 1.233.324 1.233.324 1.14.328 2.416.116 3.534.498.503.194.478.805.553 1.27l.12.12c.001.645.311.903.829 1.292zm3.637 6.161c.541.679.579.681 1.051 1.153-.257-.125-.811-.642-1.113-1.016-.463-.573-.678-1.077-.757-1.61.001 0 .277.795.819 1.473zM13.78 4.46c-.654-.349-1.59-.318-2.12-.455-.538-.14-.607-.174-.607-.174.209.035.403.097.628.125.715.089 1.505.125 2.104.379.339.144.52.487.603.851-.139-.283-.337-.582-.608-.726z"/>
  <path fill="#094183" d="M1.218 19.303H1.09l.032.125c.303 1.185-.018 2.337-.857 3.082L0 22.744l.349-.061c.268-.047.622-.097.994-.068.875.055 1.491.235 1.996.573l-.527 2.605c-.009.039-.013.078-.013.115 0 .166.082.311.167.434l.005.006.005.006c.384.404.872.538 1.344.668l.04.011c2.063.481 4.24.053 6.132-1.205l1.019-.665.448-.277.539-.331c1.039-.616 1.894-.951 2.86-1.12 1.997-.351 4.136.074 5.723 1.137.006.004.208.121.208.121-.005-.003 1.339.878 1.339.878.001.001.834.528.834.528 1.845 1.159 4.234 1.503 6.237.898.339-.113 1.038-.346 1.137-.96l.003-.018s-.505-2.626-.526-2.738c.001-.001.073-.053.073-.053l-.023.018c.843-.471 1.947-.636 2.953-.439l.364.071-.28-.245c-.841-.739-1.155-1.893-.842-3.087l.033-.125-.128-.001c-1.278-.014-2.469.163-3.541.526-.532.205-1.331.512-1.567 1.234l-.005.015-.028 2.094s-.004.586-.006.825c-1.244-.026-2.274-.65-3.143-1.24 0 .001-.303-.21-.303-.21-.002-.002-1.244-.813-1.244-.813-1.473-.913-2.932-1.456-4.461-1.662-2.618-.342-5.233.297-7.564 1.848-.001 0-1.171.796-1.171.796-.92.605-1.92 1.193-3.134 1.206.001-.156.014-2.772.014-2.772-.007-.417-.327-.803-.953-1.149-1.149-.557-2.501-.824-4.139-.815z"/>
  <g fill="#FFF">
    <path d="M5.059 22.317c.334-.096.676-.202.954-.463-.001.142-.006 2.114-.006 2.184-.726-.02-1.544-.119-2.158-.671 0-.001-.026-.035-.026-.035-.068-.088-.125-.161-.125-.253 0-.033.007-.068.025-.106.178-.33.531-.427.871-.52l.277-.082c-.001.002.188-.054.188-.054zm22.558-.347c.333.292.744.414 1.144.527.352.099.716.201 1.016.424.092.082.135.154.135.228 0 .033-.008.066-.025.101-.194.368-.645.551-.967.656-.428.12-.856.181-1.304.189.001-.071.001-1.993.001-2.125z"/>
    <path d="M1.51 20.287c0-.233-.026-.469-.071-.706 1.244.05 2.676.194 3.919.865.31.198.662.471.662.833 0 .01 0 .019-.001.028-.058.463-.526.604-.939.729l-.538.165c-.439.122-.889.255-1.091.71-.708-.425-1.597-.621-2.646-.581.456-.542.705-1.267.705-2.043zm27.882 2.099l-.044-.017-.522-.158c-.425-.113-.827-.22-1.127-.554-.055-.079-.079-.181-.079-.283 0-.091.019-.181.051-.253.391-.602 1.06-.812 1.706-1.014l.17-.054c.794-.216 1.675-.331 2.687-.355-.045.256-.071.507-.071.748 0 .782.237 1.471.682 2.001-1.028-.04-1.92.15-2.656.566-.12-.362-.491-.51-.797-.627zm-20.135.908l1.809-1.165c2.191-1.393 4.547-1.944 7.004-1.637 1.417.183 2.768.664 4.13 1.471l1.164.728 1.191.775c1.142.776 2.532 1.086 3.914.872.558-.123 1.18-.268 1.6-.774.025.126.478 2.471.478 2.471-.067.325-.423.485-.71.613l-.073.032c-2.075.689-4.593.277-6.569-1.078 0-.001-1.795-1.179-1.795-1.179-1.866-1.204-4.098-1.636-6.285-1.218-1.073.205-2.123.656-3.306 1.419L10.154 25.7c-1.619 1.035-3.518 1.437-5.345 1.132-.56-.108-1.139-.219-1.583-.629-.09-.098-.137-.185-.148-.283.001 0 .431-2.144.493-2.45.602.664 1.473.809 2.331.855 1.111.055 2.177-.273 3.355-1.031z"/>
  </g>
  <path fill="#094183" d="M4.605 24.753l-.642-.095c-.016.012-.022.049-.022.049.062.032.065.046.06.081l-.178 1.199c-.005.035-.012.047-.065.046-.015.013-.021.051-.021.051.012.017.421.077.421.077l.014.003.008-.053c-.05-.025-.061-.038-.061-.061 0-.006 0-.012.001-.019 0 0 .07-.474.071-.477.001.014.287.056.287.056.369.055.533-.147.565-.354.031-.209-.068-.45-.438-.503zm-.136.594s-.252-.037-.255-.037c.013-.001.059-.304.065-.345.027.003.241.035.241.035.108.016.173.043.204.085l.022.126c-.019.126-.094.163-.277.136zm1.369-.448c-.182-.006-.342.051-.463.164-.139.13-.22.328-.227.558-.015.445.243.753.641.766.182.006.341-.051.462-.164.139-.13.22-.328.228-.558.008-.23-.06-.434-.191-.573-.112-.12-.268-.186-.45-.193zm.204 1.148c-.063.059-.145.087-.244.084-.235-.008-.359-.185-.349-.499.006-.178.054-.314.139-.392.062-.058.144-.086.242-.082.099.003.179.036.237.099.079.085.118.223.112.4-.005.176-.053.311-.137.39zm1.277-.72c-.173-.001-.321-.003-.343-.109-.02-.097.039-.166.166-.193.214-.045.343.024.354.074l.005.033c.013.025.054.032.054.032.017-.009.144-.381.144-.381l.017-.051-.068.032-.045.038-.069-.01-.08-.016c-.102-.018-.216-.015-.337.011-.381.082-.469.336-.428.529.062.292.36.296.6.298.183.002.341.004.366.119 0 .001-.018.13-.018.13-.037.058-.122.101-.252.129-.113.023-.28.018-.355-.03l-.035-.042-.009-.035-.04-.008c-.018.011-.108.374-.108.374s.009.002.015.003v.001l.03.011c.002-.004.004-.003.006-.006.005.001.014.002.014.002.009-.017.014-.026.021-.027l.086.008.084.016.331-.008c.427-.091.571-.368.525-.587-.072-.333-.382-.335-.631-.337zm1.699.235s-.45-.986-.452-.991c.007.011.289-.117.289-.117.055-.025.068-.023.091.013.018.005.053-.011.053-.011.007-.019-.133-.328-.133-.328-.02-.007-.054.008-.054.008-.002.046-.008.058-.063.083l-.84.382c-.059.027-.07.022-.087-.001-.018-.005-.052.011-.052.011-.007.019.133.329.133.329.019.008.055-.008.055-.008-.001-.008-.001-.016-.001-.023 0-.04.012-.052.059-.073 0 0 .295-.135.296-.135v.001c0 .033.432.985.432.985.007.014.01.025.01.033 0 .014-.008.023-.025.035 0 .002-.001.005-.001.008 0 .019.012.046.012.046.02.008.375-.155.375-.155l.014-.007-.023-.048c-.062.005-.073-.003-.088-.037zm1.501-1.119c.001.009.001.017.001.023 0 .026-.01.04-.053.067l-.524.339s.001 0 .001-.001c0-.022-.163-.274-.185-.309l.279-.181c.054-.035.066-.032.083-.015.018.001.05-.019.05-.019.004-.021-.17-.29-.17-.29-.021-.004-.052.017-.052.017.001.009.002.017.002.023 0 .027-.011.041-.053.067 0 0-.29.187-.292.188.001 0 .001 0 .001-.001 0-.023-.172-.288-.173-.289.008.012.488-.298.488-.298.054-.036.066-.033.083-.016.018.002.051-.019.051-.019.004-.02-.17-.289-.17-.289-.021-.005-.053.016-.053.016.005.044.004.057-.05.092l-.799.516c-.005.021.016.052.016.052.09-.031.098-.018.117.009l.657 1.017c.019.03.023.042-.032.087-.003.02.018.051.018.051.02.005.846-.529.846-.529.054-.035.066-.031.084-.011.019.003.052-.018.052-.018.004-.02-.173-.294-.173-.294-.019-.006-.05.015-.05.015zm1.222-.651l-.046-.028-.401-.231c.004-.005.006-.01.01-.014.137-.126.149-.306.032-.488-.138-.213-.382-.242-.637-.077l-.569.368c-.005.02.015.052.015.052.062-.013.074-.008.094.023l.659 1.018c.021.033.019.045-.01.072-.002.019.019.051.019.051.02.005.352-.21.352-.21l.013-.008-.029-.045c-.06.013-.071.008-.092-.024 0 0-.261-.4-.263-.404.009.01.202-.114.202-.114 0 .009.411.242.411.242l.068.048c.001.001.002.003.002.006 0 .006-.004.017-.026.034v.005c0 .019.018.047.018.047.02.004.359-.215.359-.215.004-.021-.017-.052-.017-.052-.056.01-.081-.005-.164-.056zm-.738-.312l-.262.17.001-.001c0-.022-.157-.267-.179-.301l.249-.163c.126-.08.218-.071.281.027.001 0 .03.124.03.124-.01.05-.05.098-.12.144zm3.443-1.206c-.016 0-.045.019-.045.019-.004.021.021.068.021.068 0 .001-.014.092-.014.092-.036.068-.113.128-.197.154-.097.029-.194.02-.28-.026-.107-.057-.19-.168-.233-.314-.054-.178-.055-.319-.001-.421.044-.083.122-.14.24-.176.128-.04.269.002.295.087l.003.009.015.028.026.002c.016-.011.093-.376.093-.376l.008-.042-.052.02-.043.036-.061-.011-.071-.017c-.098-.02-.194-.014-.295.017-.333.102-.6.429-.447.931.126.412.476.62.852.505.24-.073.324-.199.375-.274l.046-.053c.01-.003.023.001.04.011.022-.006.034-.037.034-.037-.005-.016-.309-.232-.309-.232zm1.473.059l-.029-.043s-.262-.373-.266-.38c.006-.003.011-.006.016-.009.177-.057.263-.214.233-.428-.035-.251-.245-.381-.546-.339l-.672.096c-.012.016-.007.055-.007.055.061.013.069.023.074.061l.17 1.199c.004.039-.002.05-.04.062-.009.016-.005.054-.005.054.017.013.409-.043.409-.043l.014-.002-.007-.051c-.062-.015-.07-.025-.074-.061 0 0-.067-.473-.068-.478.003.014.231-.019.231-.019h.001c0 .013.27.392.27.392l.041.072v.003c0 .006-.004.016-.037.024-.006.009-.007.023-.007.035 0 .011.001.018.001.018.016.013.414-.043.414-.043.013-.017.008-.054.008-.054-.052-.015-.07-.038-.124-.121zm-.367-.671c-.03.041-.088.067-.17.079 0 0-.305.043-.307.044.001-.001.002-.005.002-.014 0-.063-.032-.296-.037-.335.026-.004.294-.042.294-.042.149-.02.228.026.245.143l-.027.125zm1.614.577h-.625l.014-.362h.334c.064 0 .073.01.077.032l.053.012.015-.335-.053-.015c-.019.039-.027.049-.092.049h-.348l.014-.339.573.015c.064 0 .072.009.077.032l.053.012.015-.336-.053-.015c-.02.039-.028.049-.092.049h-.952l-.015.053c.093.023.093.038.093.07v1.212c0 .035-.004.048-.075.057l-.013.052.999.015c.065 0 .072.01.078.036l.053.012.015-.34-.053-.015c-.02.04-.027.049-.092.049zm1.242-.625c.02-.004.263-.309.263-.309l-.012-.009-.001-.001-.029-.023c-.017.015-.031.023-.054.02l-.062-.032-.07-.042c-.091-.051-.198-.085-.319-.102-.385-.051-.553.158-.58.353-.039.297.24.4.465.483.171.063.319.118.304.234l-.062.114c-.055.042-.149.054-.281.037-.113-.015-.268-.076-.322-.146l-.018-.054.004-.035-.036-.021c-.02.004-.226.316-.226.316l-.008.011.037.028c.023-.004.058-.029.058-.029l.074.037.075.043c.001 0 .315.104.315.104.274.037.438-.037.528-.105.089-.068.147-.165.161-.272.044-.335-.246-.44-.48-.526-.161-.059-.299-.11-.285-.217l.051-.095c.039-.03.096-.04.169-.03.192.026.268.108.287.132l.021.056c-.005.027-.009.045-.009.045.008.014.042.035.042.035zm1.357 1.218c.022.006.049-.011.049-.011.006-.018-.136-.364-.136-.364-.015-.009-.048-.008-.048-.008-.014.017-.018.068-.018.068 0 .001-.064.072-.064.072-.067.038-.161.047-.245.023-.223-.061-.327-.292-.254-.56.049-.179.125-.3.225-.356.08-.046.18-.053.296-.02.08.022.151.073.186.135l.018.102-.006.036.021.016c.02-.001.277-.268.277-.268l.03-.03-.053-.011-.055.007-.044-.039-.054-.054c-.071-.068-.155-.115-.258-.143-.184-.051-.37-.031-.525.057-.167.095-.288.265-.35.49-.113.415.072.777.45.881.242.066.381.004.463-.032l.066-.02c.012.003.022.013.029.029zm1.142.512l.086-1.225.009-.075c.004-.009.012-.028.052-.013.019-.008.033-.043.033-.043-.008-.019-.425-.196-.425-.196-.019.008-.033.044-.033.044.037.032.043.044.043.05v.003l-.056.069c-.002.001-.821.916-.821.916-.02.022-.04.041-.062.034-.018.009-.032.043-.032.043.008.019.338.159.338.159l.013.006.02-.048c-.031-.026-.038-.044-.038-.056 0-.007.002-.011.003-.014l.026-.036c.002-.001.157-.178.158-.179.001.01.431.193.433.194-.009.001-.025.25-.025.25-.001.001-.007.042-.007.042-.002.004-.004.009-.039-.001-.017.008-.032.043-.032.043.008.019.348.163.348.163.019-.008.035-.043.035-.043-.025-.03-.031-.036-.027-.087zm-.175-1.143c-.025.107-.067.538-.068.556l-.012-.005c-.032-.027-.238-.117-.283-.136.023-.026.324-.384.364-.431l-.001.016zm1.51 1.972l.66-1.055c.012-.02.026-.028.059-.01.02-.005.04-.037.04-.037-.005-.02-.408-.272-.408-.272-.02.005-.041.037-.041.037.014.025.018.037.018.046 0 .006-.002.009-.005.014-.012.018-.156.119-.308.225 0 0-.328.233-.379.27.001-.006.003-.013.004-.02.028-.081.07-.319.07-.319.033-.195.077-.462.09-.486.004-.006.011-.012.04-.007.015-.007.035-.038.035-.038-.005-.02-.412-.276-.412-.276-.021.005-.04.037-.04.037.031.04.03.055.017.075l-.659 1.055c-.014.022-.03.026-.055.012-.02.005-.04.038-.04.038.005.02.319.215.319.215l.013.008.027-.044c-.026-.03-.035-.046-.035-.059 0-.008.004-.015.008-.022 0 0 .452-.724.514-.823-.003.009-.004.018-.006.027-.047.158-.156.695-.156.695l-.07.394c.006.015.041.037.041.037.017-.001.375-.258.375-.258s.49-.364.574-.427l-.023.037c-.127.177-.507.784-.507.784-.011.018-.023.029-.064.006-.019.005-.04.036-.04.036.005.02.327.223.327.223.02-.005.041-.037.041-.037-.041-.049-.034-.065-.024-.081zm1.7.875c-.049.037-.062.038-.113.004 0 0-.498-.326-.499-.327.017-.001.602-.891.602-.891.02-.03.03-.039.097-.004.019-.005.04-.037.04-.037-.004-.02-.376-.264-.376-.264-.02.004-.042.035-.042.035.054.062.049.075.03.104l-.664 1.012c-.018.03-.03.037-.082.011-.019.005-.04.037-.04.037.005.021.794.538.794.538.053.035.054.048.044.073.006.018.037.039.037.039.021-.005.208-.29.208-.29-.004-.019-.036-.04-.036-.04zm.978-.682c.046.042.042.051.04.055l-.054.066-.857.886c-.02.02-.042.04-.063.032-.019.008-.035.042-.035.042.007.02.331.172.331.172l.014.006.021-.048c-.024-.025-.035-.04-.035-.056 0-.005.001-.011.004-.016 0-.001.027-.035.027-.035.001-.001.163-.17.164-.172 0 .011.423.209.425.209-.009.001-.036.249-.036.249 0 .001-.007.042-.007.042-.002.005-.004.008-.04-.002-.017.008-.034.042-.034.042.007.02.342.178.342.178.02-.007.035-.042.035-.042-.023-.031-.029-.038-.023-.087.001 0 .128-1.188.128-1.188l.018-.111c.004-.009.012-.025.052-.01.019-.007.035-.043.035-.043-.007-.02-.418-.211-.418-.211-.018.007-.034.042-.034.042zm.089.371c-.029.107-.087.536-.089.553l-.011-.005c-.029-.028-.234-.127-.278-.147.023-.026.339-.372.381-.416l-.003.015zm1.521.201c.052.036.056.049.047.084l-.193.781c-.044.178-.172.256-.35.212-.089-.022-.152-.064-.189-.125-.037-.06-.044-.139-.023-.226l.193-.78c.009-.035.018-.045.065-.041.015-.011.025-.049.025-.049-.011-.018-.412-.116-.412-.116l-.015-.004-.004.015-.008.037c.064.038.066.052.056.086l-.192.775c-.087.357.058.584.43.675.19.047.346.035.463-.037.112-.067.19-.188.232-.36l.192-.775c.009-.035.016-.046.07-.04.016-.011.025-.048.025-.048-.011-.018-.385-.111-.385-.111-.017.01-.027.047-.027.047zm1.09.061l-.596-.002c-.015.014-.016.053-.016.053.059.022.066.033.064.071l-.004 1.21c0 .037-.007.047-.054.056l-.012.051c.015.015.558.017.558.017.237.001.42-.06.542-.181.123-.122.185-.305.186-.543.002-.456-.248-.73-.668-.732zm.367.73c-.002.356-.116.47-.475.468h-.157c.014-.004.018-.863.019-.942.025 0 .142.002.142.002.356.001.471.115.471.466v.006zm1.728.106c-.018-.011-.055 0-.055 0-.009.042-.014.054-.077.07 0 0-.602.155-.603.156 0 0 .001-.002.001-.005 0-.042-.069-.31-.08-.349.026-.007.323-.083.323-.083.062-.016.073-.01.083.011.016.008.054-.002.054-.002.011-.018-.07-.328-.07-.328-.019-.011-.056 0-.056 0-.009.042-.014.054-.076.069 0 0-.334.086-.337.087.001 0 .001-.002.001-.005 0-.044-.072-.323-.072-.324.004.013.557-.13.557-.13.062-.015.072-.009.083.012.017.007.054-.003.054-.003.011-.018-.071-.328-.071-.328-.018-.011-.055 0-.055 0-.009.042-.014.054-.076.07l-.921.239c-.011.018-.001.055-.001.055.092-.001.099.012.107.044l.304 1.174c.008.035.008.047-.057.073-.009.017 0 .054 0 .054.018.011.97-.236.97-.236.062-.015.072-.008.084.016.016.008.054-.002.054-.002.014-.02-.068-.335-.068-.335zM13.026 23.16l-.871-.819c-.018-.018-.078-.079-.078-.079-.007-.013-.011-.028.023-.049.006-.019-.011-.053-.011-.053-.02-.006-.423.206-.423.206-.007.019.011.053.011.053.062-.011.066-.002.068.001 0 .001.02.083.02.083.001.005.192 1.22.192 1.22.004.03.006.057-.013.069-.005.019.012.054.012.054.02.006.338-.161.338-.161l.013-.007-.025-.047c-.047.006-.066.002-.077-.017 0-.001-.011-.043-.011-.043 0-.001-.039-.235-.04-.236.005.008.421-.21.426-.212 0 .012.178.178.178.178l.027.031c.001.002.002.004.002.005 0 .005-.005.011-.026.026-.001.002-.001.005-.001.007 0 .019.014.046.014.046.02.006.347-.166.347-.166.006-.02-.012-.054-.012-.054-.038-.001-.046-.001-.083-.036zm-.62-.177c-.039.006-.24.11-.285.133-.006-.035-.094-.508-.103-.556l.013.012c.065.085.374.392.387.405l-.012.006z"/>
  <path d="M9.36 10.574l-.533-.191.277.518-.504.356.568.127-.043.576.469-.391.433.391-.029-.604.597-.05-.497-.383.283-.512-.581.17-.219-.555-.221.548zm3.417.88l-.533-.177.277.511-.504.349.583.127-.057.583.461-.392.447.392-.036-.604.598-.051-.49-.376.276-.519-.583.156-.213-.539-.226.54zm-3.829 2.941l.212.547.584-.163-.278.505.491.383-.597.05.029.611-.434-.398-.468.398.049-.583-.568-.128.497-.348-.27-.504.532.177m4.262-.291l.172.504h.524l-.425.327.163.519-.434-.312-.432.312.155-.519-.425-.319.511-.008m-.043 3.58l-.533-.184.27.511-.504.348.575.128-.042.583.462-.399.44.405-.042-.597.604-.071-.49-.383.277-.505-.576.163-.213-.554-.228.555zM11.73 7.92c-.17-.002-.438.238-.525.33.348-.12.479-.055.558-.159.004-.056.016-.138-.033-.171zm.217.093c-.041.22.109.436.283.54l.032-.167c-.026-.157-.191-.301-.315-.373zm-.097.417c-.019.062-.073.14-.058.208.024.123.218.17.278.353.107-.169-.034-.512-.22-.561zm-.138.364l-.085.15c-.142.216.118.387.116.523.079-.084.167-.31.118-.465-.022-.082-.072-.155-.149-.208zm-.523.033c-.094.037-.323.187-.439.171.057.073.31.058.4.069.157.009.264-.169.343-.294l-.304.054zm.248.379c-.31.076-.114.44-.376.65.18-.033.258-.035.371-.251.052-.104.076-.293.005-.399zm-2.41-.689c-.06.237-.004.29.108.435-.055-.332.336-.471.157-.735-.125.033-.234.189-.265.3zm1.313.916c.011.074.306.056.443-.004.068-.015.299-.104.323-.187-.534-.121-.344.077-.766.191zm.629-.772c.024.07.311.001.436-.082.064-.028.274-.155.284-.24-.547-.026-.325.135-.72.322zm-1.77-.711c-.078-.036-.297.076-.353.116-.136.062-.346.271-.299.328.366-.238.387.035.652-.444zm.734-.931c.185.052.269.162.392.179.144.006.196-.037.223-.089-.057-.183-.426-.164-.615-.09zm.856.82c-.014-.192.061-.308.036-.43-.043-.139-.1-.173-.159-.18-.152.117-.01.456.123.61zm-.881-.664c-.155-.055-.423.056-.51.132.198-.019.323.201.559.104l.152-.08c-.049-.078-.121-.13-.201-.156zm.304.387c-.049.155.069.42.149.505-.026-.198.191-.329.087-.563l-.086-.149c-.076.052-.127.126-.15.207zm.773 2.029l-.171.009c-.253.036-.248.289-.428.374.114.022.401-.021.505-.146.058-.063.092-.145.094-.237zM9.25 7.505c-.23.083-.243.159-.301.333.246-.23.578.014.697-.281-.096-.085-.287-.088-.396-.052zm.533.449c.02.243.091.276.244.376-.158-.296.164-.555-.091-.744-.108.069-.16.253-.153.368zm-.284-.023c-.013.333-.007.589.135.748.091-.269.095-.391.023-.554-.026-.072-.091-.197-.158-.194z" fill="#FFF"/>
  <path fill="#FFF" d="M36.898 2.029c-.009.028-.165.683-.165.768 0 .087.048.117.09.117.074 0 .104-.06.121-.106 0 .002.115-.208.115-.208.099-.148.251-.194.677-.202l.99-.014V5.32c0 .662 0 1.234-.034 1.526-.029.211-.063.322-.163.343-.002.001-.201.027-.201.027-.076 0-.109.048-.109.097 0 .11.125.11.166.11l.578-.017.115-.004.082.003.787.018c.151 0 .167-.077.167-.11 0-.047-.034-.097-.11-.097l-.31-.027c-.168-.023-.209-.133-.229-.341-.036-.294-.036-.866-.036-1.527V2.385c.097.002.836.014.836.014.68.014.795.181.816.343l.007.075c.005.067.014.169.111.169.017 0 .104-.007.104-.145l.007-.226.014-.551c0-.042 0-.14-.09-.14l-.084.013c-.1.02-.287.058-.615.058h-2.651l-.552-.035c-.002 0-.228-.059-.228-.059l-.089-.026c-.065-.001-.091.078-.117.154zm9.516-.039l-.114.004-.091-.003-.708-.018c-.041 0-.167 0-.167.11 0 .056.047.096.111.096l.229.018c.192.042.248.118.262.355l.014 1.523v.149l-2.985-.013.011-.136.015-1.523c.014-.24.067-.326.218-.354.001 0 .166-.019.166-.019.064 0 .111-.041.111-.096 0-.073-.056-.11-.167-.11l-.577.017-.116.004-.093-.003-.707-.018c-.11 0-.166.037-.166.11 0 .055.047.096.11.096l.227.018c.194.042.25.118.262.355l.015 1.523V5.32c0 .662 0 1.233-.035 1.526-.03.211-.063.322-.162.343-.001.001-.202.027-.202.027-.076 0-.111.048-.111.097 0 .11.126.11.168.11l.576-.017.116-.004.083.003.787.018c.149 0 .166-.077.166-.11 0-.048-.034-.097-.109-.097l-.311-.027c-.166-.023-.208-.133-.229-.342-.036-.294-.036-.865-.036-1.527v-.743l2.987.012-.013.731c0 .662 0 1.233-.036 1.526-.027.206-.061.322-.162.343-.002.001-.201.027-.201.027-.076 0-.111.05-.111.097 0 .11.126.11.167.11l.579-.017.115-.005.081.003.789.018c.152 0 .168-.077.168-.11 0-.047-.035-.097-.11-.097l-.31-.027c-.168-.023-.209-.133-.231-.342-.034-.294-.034-.865-.034-1.527V4.076l.014-1.523c.015-.243.066-.325.218-.354l.166-.019c.065 0 .112-.041.112-.096 0-.11-.126-.11-.167-.11l-.582.016zm4.515-.05l-.034.013-.294.035-1.615.006-.095-.003-.703-.018c-.041 0-.167 0-.167.11 0 .056.046.096.11.096l.228.018c.193.042.25.118.263.355l.015 1.523V5.32c0 .662 0 1.233-.035 1.526-.029.211-.063.322-.163.343-.002.001-.201.027-.201.027-.075 0-.109.048-.109.097 0 .11.124.11.165.11l.575-.017.119-.004.269.009 1.477.033c.279 0 .373 0 .433-.222.036-.15.094-.635.094-.699 0-.052 0-.16-.098-.16-.09 0-.106.098-.114.151-.049.271-.127.398-.289.467-.174.074-.477.074-.657.074-.684 0-.747-.087-.766-.528l-.001-.895.001-.311v-.622c0 .003 1 .039 1 .039.24.024.297.118.321.208.001.001.026.22.026.22 0 .068.043.116.104.116.104 0 .104-.126.104-.186l.028-.448.056-.401c0-.102-.067-.11-.088-.11l-.143.103c-.053.06-.137.073-.301.087l-1.119.014.011-1.967c.085-.016.836-.01.949.004.387.042.424.126.46.208-.001-.001.038.233.038.233 0 .131.078.145.11.145.036 0 .082-.021.103-.121.001-.003.027-.36.027-.36l.007-.114c0 .001.043-.241.043-.241l.016-.095c0-.11-.063-.118-.083-.118l-.077.025zm8.058.049l-.12.005-.1-.004-.651-.018c-.041 0-.166 0-.166.11 0 .055.047.096.11.096l.228.018c.207.045.249.132.263.355l.013 1.523v.886c0 .845-.119 1.352-.397 1.697-.253.301-.662.489-1.067.489-.401 0-.698-.061-1.031-.375-.254-.242-.513-.634-.513-1.707v-.988l.014-1.523c.015-.246.068-.332.216-.354.001 0 .168-.02.168-.02.064 0 .111-.041.111-.096 0-.11-.125-.11-.166-.11l-.525.015-.176.006-.146-.005-.667-.016c-.041 0-.167 0-.167.11 0 .055.047.096.11.096l.229.018c.192.042.248.118.261.355l.015 1.523v1.031c0 1.143.338 1.615.632 1.899.479.45 1.14.517 1.492.517.381 0 .95-.055 1.492-.538.592-.527.669-1.427.669-2.153v-.755l.014-1.523c.013-.243.064-.325.218-.354.002-.001.166-.019.166-.019.064 0 .11-.041.11-.096 0-.11-.125-.11-.166-.11l-.473.015zm1.895.292l-.007 4.05c0 .633-.036.807-.173.847-.002 0-.275.039-.275.039-.076 0-.11.048-.11.097 0 .11.116.11.166.11l.563-.016.116-.005.104.004.645.017c.05 0 .181 0 .181-.11 0-.045-.029-.097-.111-.097l-.339-.04c-.143-.043-.22-.174-.235-.77 0 0-.08-2.975-.087-3.24.176.193 1.747 1.921 1.747 1.921.768.827 1.773 1.85 1.847 1.919.403.401.473.465.553.465.109 0 .117-.084.117-.556l.013-4.14c0-.441.037-.538.219-.578.001 0 .159-.019.159-.019.091 0 .132-.054.132-.104 0-.103-.122-.103-.181-.103l-.474.016-.127.006-.151-.005-.584-.016c-.068 0-.196 0-.196.103 0 .066.04.104.11.104l.335.034c.169.044.227.14.233.619 0 0 .061 2.787.076 3.449-.137-.149-.527-.572-.527-.572l-1.073-1.17-2.308-2.49c-.1-.11-.164-.176-.226-.176-.123 0-.132.161-.132.407zm7.242-.291l-.114.004-.109-.004-.605-.017c-.041 0-.166 0-.166.11 0 .055.047.096.109.096l.208.025c.109.026.184.095.199.348l.014 1.523V5.32c0 .662 0 1.233-.035 1.526-.03.216-.062.322-.162.343-.002.001-.201.027-.201.027-.076 0-.11.05-.11.097 0 .11.126.11.167.11l.578-.017.115-.004.08.003.789.018c.151 0 .167-.077.167-.11 0-.047-.034-.097-.109-.097l-.31-.027c-.168-.023-.21-.133-.231-.342-.038-.293-.038-.865-.038-1.526V4.076l.015-1.522c.014-.24.066-.326.217-.355.001 0 .166-.019.166-.019.065 0 .111-.041.111-.096 0-.11-.127-.11-.168-.11l-.577.016zm6.322-.001l-.104.005-.164-.006-.528-.015c-.073 0-.209 0-.209.11 0 .036.017.096.131.096l.251.024c.047.025.056.081.056.112l-.062.252c-.143.468-1.019 2.758-1.458 3.795-.089-.236-1.31-3.493-1.31-3.493-.103-.264-.188-.486-.188-.567 0-.039.01-.07.062-.093l.246-.03c.112 0 .124-.073.124-.104 0-.103-.153-.103-.245-.103l-.513.016-.144.006-.174-.005-.652-.016c-.1 0-.237 0-.237.103 0 .064.042.104.11.104l.254.026c.222.064.32.125.473.513l1.747 4.375c.131.331.171.43.289.43.087 0 .118-.07.223-.304l.121-.266.873-2.046.419-1.01.413-1.003c.185-.466.287-.583.369-.64.12-.075.262-.075.309-.075.121 0 .139-.065.139-.104 0-.068-.058-.103-.174-.103l-.447.016zm3.859-.048l-.031.012-.295.035-1.615.006-.093-.003-.705-.018c-.041 0-.168 0-.168.11 0 .056.047.096.111.096l.229.018c.192.042.248.118.261.355l.015 1.523V5.32c0 .662 0 1.233-.036 1.526-.029.211-.062.322-.162.343-.001.001-.202.027-.202.027-.075 0-.11.05-.11.097 0 .11.126.11.167.11l.576-.017.116-.004.27.009 1.477.032c.28 0 .374 0 .434-.222.035-.15.093-.635.093-.699 0-.052 0-.16-.096-.16-.088 0-.105.09-.116.149-.047.273-.123.4-.285.47-.175.074-.478.074-.658.074-.685 0-.748-.087-.766-.528l-.001-.895.001-.311v-.622c0 .003 1.001.039 1.001.039.268.027.303.145.321.209l.026.218c0 .07.041.116.104.116.102 0 .102-.126.102-.186l.029-.448c0-.001.056-.401.056-.401 0-.102-.068-.11-.089-.11l-.131.092c-.065.072-.147.085-.313.099l-1.117.014.011-1.967c-.011-.016.95.004.95.004.385.042.423.127.459.209 0 .001.037.233.037.233 0 .131.078.145.111.145.03 0 .083-.016.101-.123l.028-.335.009-.135.056-.336c0-.107-.057-.118-.082-.118l-.08.023zM80.88 4.73c-.023-.015-.024-.027-.024-.04V2.38c0-.019.006-.028.022-.034.054-.016.235-.04.455-.04.732 0 1.169.509 1.169 1.36 0 .48-.152.87-.408 1.043-.157.111-.349.125-.499.125-.335 0-.632-.054-.715-.104zm-.11-2.743l-.236.007-.094-.003-.705-.018c-.041 0-.166 0-.166.11 0 .056.047.096.111.096l.227.018c.193.042.249.118.263.355l.015 1.523V5.32c0 .662 0 1.233-.036 1.526-.028.206-.061.322-.162.343-.001.001-.201.027-.201.027-.076 0-.11.048-.11.097 0 .11.126.11.167.11l.636-.02c.028-.001.112.002.112.002l.785.018c.153 0 .169-.077.169-.11 0-.047-.035-.097-.112-.097l-.31-.027c-.168-.023-.209-.133-.229-.341-.036-.294-.036-.866-.036-1.527V5.15c-.004-.002.865.011.865.011.001 0 .056.028.056.028 0 .002.243.334.243.334l.52.705.096.125c.353.466.586.773.876.928.195.106.385.141.782.141h.502c.089 0 .224 0 .224-.11 0-.053-.053-.097-.118-.097l-.267-.02c-.184-.029-.47-.112-.831-.492-.37-.394-.802-.95-1.302-1.594 0 0-.097-.126-.137-.176.568-.537.838-1.058.838-1.635 0-.503-.321-.869-.51-1.006-.394-.282-.89-.32-1.324-.32l-.601.015zM85.335 3.2c0 .482.16.935.938 1.575l.318.261c.623.513.794.778.794 1.232 0 .44-.329.885-.956.885-.257 0-.869-.066-.994-.677l-.019-.25c0-.039 0-.131-.103-.131-.094 0-.105.104-.111.16 0 .002-.005.069-.005.069l-.03.687c0 .19.006.253.136.317h.001c.273.133.591.198.971.198.43 0 .81-.106 1.097-.308.46-.327.624-.843.624-1.218 0-.553-.173-1.009-1.053-1.703l-.199-.157c-.676-.554-.842-.779-.842-1.145 0-.458.327-.766.814-.766.585 0 .78.243.837.347.037.069.079.253.087.333.006.05.017.141.109.141.104 0 .104-.141.104-.217l.023-.695.003-.053c0-.103-.093-.103-.123-.103l-.236-.036c-.202-.049-.415-.072-.669-.072-.907 0-1.516.533-1.516 1.326zm4.742-1.21l-.117.004-.108-.004-.605-.017c-.111 0-.167.037-.167.11 0 .055.047.096.11.096l.205.025c.096.023.186.08.201.348l.013 1.523V5.32c0 .662 0 1.233-.035 1.526-.029.211-.063.322-.163.343-.001.001-.201.027-.201.027-.075 0-.11.05-.11.097 0 .11.125.11.166.11l.58-.017.113-.004.084.003.787.018c.149 0 .165-.077.165-.11 0-.048-.034-.097-.11-.097l-.309-.027c-.168-.023-.209-.133-.23-.342-.036-.294-.036-.865-.036-1.527V4.076l.016-1.522c.012-.24.066-.326.218-.355l.166-.019c.064 0 .111-.041.111-.096 0-.11-.126-.11-.168-.11l-.576.016zm1.579.054c-.003.013-.16.668-.16.754 0 .087.048.117.089.117.071 0 .102-.056.121-.105 0-.001.116-.21.116-.21.098-.149.25-.194.675-.202l.992-.014V5.32c0 .662 0 1.233-.035 1.526-.027.206-.062.322-.162.343-.002.001-.202.027-.202.027-.076 0-.11.048-.11.097 0 .11.125.11.166.11l.576-.017.116-.004.084.003.785.018c.146 0 .168-.069.168-.11 0-.047-.035-.097-.11-.097l-.311-.027c-.167-.023-.208-.133-.23-.342-.035-.294-.035-.865-.035-1.527V2.384c.097.002.836.014.836.014.681.014.795.181.818.343l.006.075c.005.067.011.169.112.169.017 0 .102-.007.102-.145l.006-.226.014-.551c0-.042 0-.14-.089-.14l-.084.013c-.099.02-.285.058-.615.058h-2.65l-.555-.035c-.001 0-.228-.059-.228-.059l-.087-.026c-.059 0-.088.074-.119.17zm9.191-.056l-.186.006-.113-.006-.353-.015c-.145 0-.167.06-.167.095 0 .073.069.097.137.119.031.009.083.022.083.149 0 .101-.038.213-.113.333-.12.2-.913 1.564-1.132 1.995-.234-.393-1.145-1.959-1.249-2.149-.053-.1-.085-.177-.085-.25 0-.031.021-.058.063-.08.001 0 .036-.014.036-.014.046-.018.099-.039.099-.097 0-.068-.049-.103-.145-.103l-.499.019-.097.005-.165-.005-.532-.016c-.14 0-.147.086-.147.103 0 .061.051.104.125.104.049 0 .175.037.274.104.14.093.313.283.465.508.254.376 1.196 1.924 1.24 2.028.094.208.159.353.159.721v.608l-.022.701c-.009.141-.047.314-.176.34-.001.001-.201.027-.201.027-.076 0-.11.048-.11.097 0 .11.125.11.166.11l.579-.017.114-.004.084.003.785.018c.151 0 .167-.077.167-.11 0-.047-.035-.097-.11-.097l-.31-.027c-.157-.022-.228-.12-.244-.34l-.021-.701v-.61c0-.227 0-.442.102-.686.121-.29 1.104-1.946 1.342-2.235.158-.193.232-.271.362-.347.098-.064.221-.092.296-.092.108 0 .146-.06.146-.111 0-.044-.038-.095-.146-.095l-.501.014zm3.805 2.505c0-1.401.769-2.271 2.008-2.271 1.009 0 2.095.799 2.095 2.555 0 2.256-1.58 2.37-1.897 2.37-1.299-.001-2.206-1.092-2.206-2.654zm-.781.197c0 1.365.875 2.833 2.797 2.833 1.665 0 2.873-1.239 2.873-2.946 0-1.617-1.138-2.703-2.831-2.703-2.068 0-2.839 1.727-2.839 2.816zm9.342-2.747l-.039.019c-.001 0-.215.022-.215.022l-.082.004-1.736.006-.093-.003-.705-.018c-.042 0-.168 0-.168.11 0 .056.047.096.111.096l.227.018c.193.042.25.118.263.355l.015 1.523V5.32c0 .662 0 1.233-.036 1.526-.029.211-.063.322-.162.343-.001.001-.201.027-.201.027-.076 0-.11.048-.11.097 0 .11.126.11.167.11l.576-.017.116-.004.085.003.785.018c.151 0 .168-.077.168-.11 0-.048-.034-.097-.111-.097l-.309-.027c-.168-.023-.209-.133-.229-.342-.036-.294-.036-.865-.036-1.527v-.601c.263-.01.9-.008 1.057.011.187.024.291.129.324.22l.034.201.004.042c0 .063.042.11.103.11.104 0 .104-.122.104-.188l.028-.468.057-.401c0-.102-.068-.11-.088-.11-.051 0-.082.04-.109.076-.059.084-.123.107-.298.121l-.315.007-.905.007.004-1.96c.009-.024 1.096-.003 1.096-.003.254.006.399.12.435.195 0 .001.057.247.057.247 0 .131.086.137.104.137.037 0 .087-.021.109-.12 0-.003.028-.351.028-.351l.008-.122c0 .001.041-.241.041-.241l.016-.094c0-.07-.04-.118-.096-.118l-.079.026zm-75.606 9.576h75.382v.43H37.607zm7.595 4.53s-2.699 5.668-2.944 6.181l-2.954-6.104c-.137-.274-.209-.354-.319-.354-.072 0-.168.053-.212.306l-1.08 7.115c-.059.401-.151.781-.426.839l-.322.033c-.05 0-.202 0-.202.103 0 .147.162.147.224.147l.671-.02.409-.013.35.011.796.022c.14 0 .289-.011.289-.147 0-.065-.069-.103-.19-.103l-.453-.054c-.206-.048-.306-.154-.306-.323l.032-.509s.496-3.801.56-4.29c.09.147.53 1.084.53 1.084l.604 1.293c.129.3.978 1.946 1.256 2.479l.032.06c.166.312.265.5.374.5.118 0 .175-.109.428-.626 0-.001 2.379-4.954 2.379-4.954v-.001c0 .044.648 4.793.648 4.793.014.096.019.175.019.237 0 .133-.026.193-.055.203-.073.031-.139.07-.139.146 0 .099.115.127.341.147.43.032 1.934.066 2.218.066.2 0 .31-.052.31-.147 0-.103-.136-.103-.202-.103-.149 0-.36-.012-.669-.108-.321-.097-.422-.425-.515-1.08l-.994-6.744c-.035-.243-.107-.362-.223-.362-.117 0-.178.104-.265.277zm8.541-.099l-.064.019c-.001 0-.467.065-.467.065-.185.01-1.968.011-2.726.011l-.559-.017-.127-.005-.885-.011c-.129 0-.267.009-.267.125 0 .125.143.125.212.125l.419.032c.356.076.429.253.448.598.022.348.022.648.022 2.312v1.921c0 1 0 1.864-.054 2.321-.049.353-.108.539-.296.577l-.388.043c-.087 0-.201.012-.201.114 0 .09.082.136.245.136l.754-.022.622-.011 1.134.033.317.008 1.572.025c.42 0 .534 0 .615-.304.056-.224.143-.964.143-1.219 0-.11 0-.223-.114-.223-.105 0-.127.077-.147.186-.077.45-.206.664-.476.788-.278.128-.739.128-1.015.128-1.133 0-1.262-.18-1.283-.89l-.002-1.24.002-.45v-.862c0-.083.02-.083.039-.083.245 0 1.336.011 1.546.033.346.037.527.162.588.405 0 .001.035.287.035.287l.008.102c0 .078.044.122.125.122.125 0 .125-.147.125-.234l.02-.344.024-.386.074-.68.014-.118c0-.072-.038-.114-.104-.114-.063 0-.11.053-.18.134-.107.12-.264.151-.521.172-.161.014-.781.022-1.744.022-.034 0-.049-.009-.049-.094v-2.76c0-.082.026-.082.049-.082.211 0 1.358.021 1.546.043.548.066.64.198.709.376.062.148.063.36.063.383 0 .054 0 .18.125.18.107 0 .128-.103.136-.142l.039-.501.015-.223c0-.001.072-.604.072-.604l.015-.108c0-.031 0-.125-.093-.125l-.11.026zm4.207.081l-.578.014-.554-.013-.942-.02c-.129 0-.267.009-.267.125 0 .125.143.125.212.125l.354.032c.356.076.428.253.449.598.022.348.022.648.022 2.312v1.921c0 1 0 1.864-.054 2.321-.049.353-.108.539-.295.577-.001 0-.388.043-.388.043-.086 0-.201.012-.201.114 0 .136.184.136.245.136l.753-.022.622-.011 1.704.042 1.472.023c.574 0 .643-.055.714-.315.088-.321.164-1.136.164-1.262 0-.105 0-.212-.114-.212-.126 0-.139.122-.147.188-.021.204-.151.503-.277.639-.256.277-.646.297-1.257.297-.873 0-1.132-.082-1.303-.233-.22-.189-.22-.948-.22-2.326v-1.921c0-1.664 0-1.964.022-2.312.023-.398.119-.548.382-.597l.421-.032c.116 0 .224-.015.224-.125s-.123-.125-.256-.125l-.907.019zm6.733-.005l-.786.019-.42-.011-1.064-.022c-.129 0-.267.009-.267.125 0 .125.143.125.212.125l.419.032c.356.076.429.253.449.598.022.348.022.648.022 2.312v1.921c0 1 0 1.864-.053 2.321-.041.291-.091.536-.295.577l-.388.043c-.086 0-.201.012-.201.114 0 .136.184.136.245.136l.753-.022.622-.011.817.033.425.019.34.014c2.032 0 2.941-1.209 2.941-2.406 0-1.235-1.006-2.027-1.963-2.367.654-.529 1.09-1.06 1.09-1.901 0-.39-.169-1.663-2.351-1.663l-.547.014zm.36.487c.974 0 1.337 1.021 1.337 1.665 0 .511-.152.904-.437 1.136-.19.167-.445.201-.768.201l-.507-.032c-.033-.008-.056-.019-.056-.094v-2.695c0-.116.02-.143.078-.16l.353-.021zm-.066 7.161c-.334-.135-.365-.302-.365-1.023v-2.587c0-.045.016-.049.039-.049l.468.011c.412.021.662.093.891.257h.001c.945.659 1.047 1.723 1.047 2.15 0 1.304-1.078 1.37-1.294 1.37-.248.001-.495-.009-.787-.129zm4.579-3.51c0 2.073 1.385 4.304 4.425 4.304 2.676 0 4.545-1.851 4.545-4.501 0-2.534-1.7-4.108-4.436-4.108-3.115 0-4.534 2.232-4.534 4.305zm1.559-.339c0-2.948 1.665-3.388 2.658-3.388 1.867 0 3.171 1.618 3.171 3.934 0 3.157-1.752 3.498-2.506 3.498-1.956 0-3.323-1.663-3.323-4.044zm15.784-3.79l-.315.01c-.03-.001-1.255-.033-1.255-.033-.124 0-.256.009-.256.125 0 .125.143.125.212.125l.386.032c.356.076.428.253.449.598.022.348.022.648.022 2.312v1.364c0 1.168-.046 2.108-.625 2.687-.524.525-1.215.581-1.486.581-.377 0-.872-.05-1.347-.441-.437-.357-.842-.927-.842-2.664v-1.528c0-1.664 0-1.964.022-2.312.023-.398.119-.548.383-.597l.311-.032c.06 0 .202 0 .202-.125 0-.116-.138-.125-.267-.125l-.798.019-.545.014-.583-.013-1.01-.02c-.129 0-.267.009-.267.125 0 .125.143.125.212.125l.419.032c.356.076.429.254.449.598.022.348.022.648.022 2.312v1.593c0 1.384.311 2.309.981 2.912.84.76 1.962.76 2.44.76.635 0 1.47-.091 2.287-.792.919-.788 1.046-2.054 1.046-3.305v-1.167c0-1.664 0-1.964.022-2.312.022-.398.119-.548.381-.597.001 0 .312-.032.312-.032.116 0 .223-.015.223-.125 0-.116-.132-.125-.256-.125l-.929.021zm4.721-.007l-.801.017-.437-.011-1.058-.022c-.129 0-.267.009-.267.125 0 .125.143.125.212.125l.419.032c.357.076.429.253.448.598.022.348.022.648.022 2.312v1.921c0 1 0 1.864-.054 2.321-.04.291-.09.536-.295.577l-.388.043c-.086 0-.202.012-.202.114 0 .136.185.136.246.136l.889-.021.443-.012.352.009 1.251.024c.061 0 .245 0 .245-.136 0-.035-.016-.114-.158-.114l-.531-.044c-.292-.039-.367-.232-.402-.576-.054-.457-.054-1.327-.054-2.333v-.153c0-.045.016-.06.06-.06l.949.022c.075 0 .13.012.177.067 0 .001.522.721.522.721l.557.783c.637.877 1.045 1.367 1.504 1.613.296.16.583.21 1.181.21h1.036c.076 0 .235 0 .235-.136 0-.035-.016-.114-.158-.114l-.301-.033c-.177-.035-.617-.122-1.207-.734-.555-.584-1.186-1.38-1.984-2.386 0 0-.338-.426-.367-.462 1.001-.818 1.431-1.551 1.431-2.447 0-.796-.493-1.341-.754-1.517-.61-.418-1.365-.474-2.023-.474l-.738.015zm-.04 4.209c-.059-.026-.08-.055-.08-.172v-3.317c0-.081.018-.11.078-.127.098-.03.274-.043.571-.043.61 0 1.643.415 1.643 1.97 0 1.002-.397 1.442-.633 1.615-.187.135-.323.18-.759.18-.31.001-.617-.039-.82-.106zm7.448-4.013l-.098 6.46c-.011.941-.056 1.247-.319 1.328-.162.046-.373.053-.483.053-.055 0-.202 0-.202.114 0 .136.154.136.267.136l.995-.026.184-.007.304.009 1.05.024c.09 0 .278 0 .278-.136 0-.114-.149-.114-.212-.114-.162 0-.371-.009-.559-.075-.235-.083-.344-.437-.364-1.187 0 0-.116-4.435-.118-4.533.061.053.221.227.221.227.459.504 1.414 1.553 2.361 2.493l1.448 1.449 1.771 1.759c.125.125.259.247.39.247.149 0 .168-.184.168-.365l.12-6.885c.011-.61.1-.821.384-.902l.32-.032c.148 0 .224-.042.224-.125 0-.125-.167-.125-.278-.125l-.87.025-.2.008-.385-.011-.935-.022c-.131 0-.311 0-.311.125 0 .111.108.125.202.125.153 0 .409 0 .568.064.23.096.342.264.354.958 0 0 .102 4.585.109 4.873h-.026c0-.011-.766-.806-.766-.806l-1.616-1.674c-1.659-1.648-3.365-3.485-3.382-3.503l-.102-.111c-.129-.142-.214-.236-.321-.236-.153 0-.171.228-.171.398zm13.695-.274l-.063.019c-.001 0-.467.065-.467.065-.185.01-1.968.011-2.725.011l-.557-.017-.129-.005-.885-.011c-.129 0-.267.009-.267.125 0 .125.143.125.212.125l.419.032c.356.076.429.253.448.598.022.348.022.648.022 2.312v1.921c0 1 0 1.864-.054 2.321-.04.291-.09.536-.295.577l-.388.043c-.087 0-.202.012-.202.114 0 .136.185.136.246.136l.753-.022.622-.011 1.134.033.317.008 1.572.025c.41 0 .534 0 .615-.304.056-.222.143-.962.143-1.219 0-.11 0-.223-.114-.223-.105 0-.127.077-.147.186-.077.45-.206.663-.476.788-.279.128-.739.128-1.015.128-1.133 0-1.261-.18-1.282-.89l-.002-1.24.002-.45v-.862c0-.083.019-.083.038-.083.245 0 1.337.011 1.547.033.345.037.527.162.587.405 0 .001.035.29.035.29l.008.099c0 .078.044.122.125.122.125 0 .125-.147.125-.234l.02-.354.024-.376.074-.679.014-.119c0-.072-.038-.114-.103-.114-.063 0-.11.053-.18.135-.107.119-.264.15-.521.171-.161.014-.78.022-1.743.022-.035 0-.049-.009-.049-.094v-2.76c0-.082.027-.082.049-.082.21 0 1.358.021 1.546.043.548.066.64.198.709.376.062.147.064.359.064.383 0 .054 0 .18.125.18.108 0 .128-.107.135-.142.001-.001.04-.499.04-.499l.015-.224c0-.001.072-.604.072-.604l.015-.108c0-.083-.032-.125-.093-.125l-.115.025z"/>
</svg>
