<?xml version="1.0" encoding="UTF-8"?>
<svg xmlns="http://www.w3.org/2000/svg" viewBox="0 0 42.52 42.841">
  <path fill="#FFF" d="M.091 30.394c-.005.015-.091.379-.091.426 0 .048.027.065.05.065.041 0 .058-.033.067-.059 0 .001.064-.116.064-.116.055-.082.139-.107.376-.112 0 0 .432-.006.549-.007v1.629c0 .367 0 .684-.019.847-.016.117-.035.179-.09.19-.001 0-.111.015-.111.015-.042 0-.061.027-.061.054 0 .061.069.061.092.061l.321-.01.062-.003.046.002.436.01c.084 0 .093-.043.093-.061 0-.026-.019-.054-.061-.054l-.172-.015c-.093-.013-.116-.074-.127-.189-.02-.163-.02-.48-.02-.847v-1.629c.054.001.464.007.464.007.377.008.441.1.453.19l.004.042c.003.037.008.094.061.094.01 0 .058-.004.058-.081l.004-.125.008-.306c0-.023 0-.078-.05-.078l-.047.007c-.056.011-.159.032-.341.032H.639l-.306-.019c-.001 0-.127-.033-.127-.033l-.049-.015c-.037.002-.052.046-.066.088zm5.279-.022l-.063.002-.05-.002-.393-.01c-.023 0-.093 0-.093.061 0 .031.026.053.062.053l.127.01c.107.023.138.066.145.197l.007.845v.083l-1.656-.007.006-.076.008-.845c.007-.133.037-.181.121-.197l.092-.011c.036 0 .061-.022.061-.053 0-.041-.031-.061-.093-.061l-.32.009-.065.002-.051-.002-.392-.01c-.061 0-.092.021-.092.061 0 .03.026.053.061.053l.126.01c.107.023.139.066.145.197l.008.845v.69c0 .367 0 .684-.019.847-.016.117-.035.179-.09.19-.001 0-.112.015-.112.015-.042 0-.061.027-.061.054 0 .061.07.061.093.061l.319-.009.064-.002.046.002.436.01c.083 0 .092-.043.092-.061 0-.027-.019-.054-.06-.054l-.173-.015c-.092-.013-.115-.074-.127-.189-.02-.163-.02-.48-.02-.847v-.412l1.657.007-.004.407c0 .367 0 .684-.02.846-.015.114-.034.179-.09.19-.001 0-.111.015-.111.015-.042 0-.062.028-.062.054 0 .061.07.061.093.061l.321-.01.063-.002.045.002.437.01c.084 0 .093-.043.093-.061 0-.026-.019-.054-.061-.054l-.172-.015c-.093-.013-.116-.074-.128-.189-.019-.163-.019-.48-.019-.847v-.69l.007-.845c.008-.135.037-.181.121-.196l.092-.011c.036 0 .062-.022.062-.053 0-.061-.07-.061-.093-.061l-.32.008zm2.504-.027l-.019.007-.163.019-.896.004-.053-.002-.39-.01c-.023 0-.093 0-.093.061 0 .031.026.053.061.053l.126.01c.107.023.138.066.146.197l.008.845v.69c0 .367 0 .684-.019.846-.016.117-.035.179-.09.19-.001 0-.111.015-.111.015-.042 0-.061.027-.061.054 0 .061.069.061.092.061l.319-.009.066-.002.149.005.819.018c.155 0 .207 0 .24-.123.02-.083.052-.352.052-.388 0-.029 0-.089-.054-.089-.05 0-.059.054-.063.084-.026.151-.069.222-.159.26-.096.041-.264.041-.365.041-.38 0-.415-.048-.425-.293v-1.013c0 .002.555.021.555.021.133.013.165.066.178.115 0 .001.014.122.014.122 0 .038.024.064.058.064.058 0 .058-.07.058-.103l.015-.248.031-.223c0-.057-.037-.061-.049-.061l-.079.057c-.03.033-.076.04-.167.048l-.62.008.006-1.091c.047-.009.464-.006.527.002.215.023.235.07.255.115 0-.001.021.129.021.129 0 .073.043.08.061.08.02 0 .045-.012.057-.067 0-.002.015-.199.015-.199l.004-.063.024-.133.009-.052c0-.061-.035-.066-.046-.066l-.044.014zm4.47.027l-.067.003-.055-.002-.361-.01c-.023 0-.092 0-.092.061 0 .03.026.053.061.053l.126.01c.115.025.138.073.146.197l.007.845v.49c0 .469-.066.75-.22.942-.14.167-.367.271-.592.271-.222 0-.387-.034-.572-.208-.141-.134-.284-.352-.284-.947v-.547l.007-.845c.008-.136.037-.184.12-.196l.093-.011c.036 0 .062-.022.062-.053 0-.061-.07-.061-.092-.061l-.291.008-.097.003-.081-.003-.37-.009c-.023 0-.092 0-.092.061 0 .03.026.053.061.053l.127.01c.107.023.138.066.145.197l.008.845v.572c0 .634.187.896.351 1.053.266.25.632.287.828.287.211 0 .527-.031.828-.298.329-.292.371-.792.371-1.194v-.42l.008-.845c.007-.135.036-.181.121-.196.001 0 .092-.011.092-.011.035 0 .061-.022.061-.053 0-.061-.069-.061-.092-.061l-.265.009zm1.051.162l-.004 2.247c0 .351-.02.448-.096.47-.001 0-.152.022-.152.022-.042 0-.061.027-.061.054 0 .061.065.061.092.061l.312-.009.064-.003.057.002.358.01c.028 0 .1 0 .1-.061 0-.025-.016-.054-.062-.054l-.188-.022c-.079-.024-.122-.097-.13-.427l-.048-1.797c.097.107.969 1.066.969 1.066.426.459.984 1.026 1.025 1.065.224.222.263.258.307.258.06 0 .065-.047.065-.308l.007-2.297c0-.245.021-.299.122-.321.001 0 .088-.011.088-.011.05 0 .073-.03.073-.058 0-.057-.068-.057-.1-.057l-.263.009-.07.003-.084-.003-.324-.009c-.038 0-.108 0-.108.057 0 .037.022.058.061.058l.186.019c.094.025.126.078.129.343l.042 1.913c-.076-.083-.292-.317-.292-.317l-.595-.648-1.281-1.381c-.055-.061-.091-.098-.125-.098-.068-.002-.074.087-.074.224zm4.018-.162l-.063.002-.061-.002-.336-.01c-.023 0-.092 0-.092.061 0 .03.026.053.06.053l.115.014c.06.014.102.052.111.193l.008.845v.69c0 .367 0 .684-.02.846-.017.12-.034.179-.09.19-.001 0-.111.015-.111.015-.042 0-.061.028-.061.054 0 .061.07.061.093.061l.321-.01.064-.002.044.002.437.01c.084 0 .093-.043.093-.061 0-.026-.019-.054-.06-.054l-.172-.015c-.093-.013-.116-.074-.128-.19-.02-.163-.02-.48-.02-.847v-.69l.008-.845c.008-.133.037-.181.121-.197l.092-.011c.036 0 .062-.022.062-.053 0-.061-.07-.061-.093-.061l-.322.012zm3.507 0l-.058.003-.091-.003-.293-.009c-.04 0-.116 0-.116.061 0 .02.01.053.073.053l.139.014c.026.014.031.045.031.062l-.034.14c-.079.259-.565 1.53-.809 2.105-.049-.131-.727-1.937-.727-1.937-.057-.147-.104-.27-.104-.314 0-.022.006-.039.034-.052l.136-.017c.062 0 .069-.04.069-.058 0-.057-.085-.057-.136-.057l-.285.009-.08.003-.097-.003-.362-.009c-.055 0-.132 0-.132.057 0 .036.023.058.061.058l.141.014c.123.036.177.07.263.284l.969 2.427c.073.183.095.239.16.239.048 0 .066-.039.124-.169l.067-.147.484-1.135.232-.56.229-.556c.103-.259.159-.323.204-.355.066-.042.145-.042.171-.042.067 0 .077-.036.077-.058 0-.038-.032-.057-.096-.057l-.244.009zm2.14-.027l-.017.007-.164.019-.896.004-.052-.002-.391-.01c-.023 0-.093 0-.093.061 0 .031.026.053.062.053l.127.01c.106.023.138.066.145.197l.008.845v.69c0 .367 0 .684-.02.846-.016.117-.034.179-.09.19l-.112.015c-.042 0-.061.028-.061.054 0 .061.07.061.093.061l.32-.009.064-.002.15.005.819.018c.155 0 .208 0 .241-.123.019-.083.052-.352.052-.388 0-.029 0-.089-.053-.089-.049 0-.058.05-.065.083-.026.152-.068.222-.158.261-.097.041-.265.041-.365.041-.38 0-.415-.048-.425-.293l-.001-.496.001-.172v-.345c0 .002.555.021.555.021.149.015.168.081.178.116l.014.121c0 .039.023.064.058.064.057 0 .057-.07.057-.103l.016-.248.031-.223c0-.057-.038-.061-.05-.061l-.072.051c-.036.04-.082.047-.174.055l-.62.008.006-1.091c-.006-.009.527.002.527.002.213.023.234.07.255.116l.021.129c0 .073.043.08.062.08.017 0 .046-.009.056-.068l.016-.186.005-.075.031-.187c0-.059-.032-.066-.045-.066l-.046.014zm1.428 1.547c-.013-.008-.014-.015-.014-.022v-1.282c0-.01.003-.015.012-.019.03-.009.13-.022.252-.022.406 0 .648.282.648.755 0 .266-.085.483-.226.578-.087.062-.194.07-.277.07-.184 0-.349-.03-.395-.058zm-.061-1.521l-.131.004-.052-.002-.391-.01c-.023 0-.092 0-.092.061 0 .031.026.053.061.053l.126.01c.107.023.138.066.146.197l.008.845v.69c0 .367 0 .684-.02.846-.015.114-.034.179-.09.19l-.111.015c-.042 0-.061.027-.061.054 0 .061.07.061.093.061l.353-.011c.016-.001.062.001.062.001l.435.01c.085 0 .094-.043.094-.061 0-.026-.019-.054-.062-.054l-.172-.015c-.093-.013-.116-.074-.127-.189-.02-.163-.02-.48-.02-.847v-.094c-.002-.001.48.006.48.006l.031.016c0 .001.135.185.135.185l.288.391.053.069c.196.258.325.429.486.515.108.059.214.078.434.078h.278c.049 0 .124 0 .124-.061 0-.03-.03-.054-.066-.054l-.149-.01c-.102-.016-.261-.062-.461-.273-.205-.219-.445-.527-.722-.884 0 0-.054-.07-.076-.097.315-.298.465-.587.465-.907 0-.279-.178-.482-.283-.558-.218-.156-.494-.178-.735-.178l-.331.008zm2.532.672c0 .268.088.519.521.874l.176.145c.346.285.44.432.44.683 0 .244-.182.491-.531.491-.143 0-.482-.037-.552-.376l-.011-.139c0-.022 0-.073-.057-.073-.052 0-.058.058-.062.089l-.003.038-.017.381c0 .105.003.14.076.176.151.074.328.11.539.11.239 0 .449-.059.609-.171.255-.181.346-.468.346-.675 0-.307-.096-.56-.584-.945l-.109-.086c-.375-.307-.467-.432-.467-.635 0-.254.181-.425.451-.425.325 0 .433.135.464.193.021.038.044.14.048.185.003.028.009.078.061.078.058 0 .058-.078.058-.12l.013-.386.002-.03c0-.057-.051-.057-.068-.057l-.131-.019c-.112-.027-.23-.04-.371-.04-.502-.001-.841.295-.841.734zm2.631-.671l-.065.002-.06-.002-.335-.01c-.062 0-.093.021-.093.061 0 .03.026.053.061.053l.114.014c.053.013.103.044.112.193l.007.845v.69c0 .367 0 .684-.019.847-.016.117-.035.179-.09.19-.001 0-.111.015-.111.015-.042 0-.061.028-.061.054 0 .061.069.061.092.061l.321-.01.063-.002.046.002.437.01c.083 0 .091-.043.091-.061 0-.027-.019-.054-.061-.054l-.172-.015c-.093-.013-.116-.074-.127-.189-.02-.163-.02-.48-.02-.847v-.69l.009-.845c.007-.133.036-.181.121-.197l.092-.011c.036 0 .062-.022.062-.053 0-.061-.07-.061-.093-.061l-.321.01zm.876.03c-.002.007-.089.371-.089.418 0 .048.027.065.049.065.04 0 .057-.031.067-.058l.064-.116c.055-.082.139-.108.375-.112 0 0 .433-.006.55-.007v1.629c0 .367 0 .684-.019.846-.015.114-.034.179-.09.19-.001 0-.112.015-.112.015-.042 0-.061.027-.061.054 0 .061.069.061.092.061l.32-.009.065-.002.046.002.435.01c.081 0 .093-.038.093-.061 0-.026-.019-.054-.061-.054l-.173-.015c-.092-.013-.115-.074-.127-.19-.02-.163-.02-.48-.02-.847v-1.629c.054.001.464.007.464.007.378.008.441.101.454.19l.004.042c.003.037.006.094.062.094.009 0 .057-.004.057-.081l.004-.125.008-.305c0-.023 0-.078-.049-.078l-.046.007c-.055.011-.158.032-.341.032h-1.47l-.308-.019-.126-.033-.048-.014c-.036-.001-.052.04-.069.093zm5.098-.031l-.103.004-.063-.003-.196-.008c-.081 0-.093.033-.093.053 0 .041.038.054.076.066.017.005.046.012.046.083 0 .056-.021.118-.063.185-.067.111-.506.868-.628 1.107-.13-.218-.635-1.087-.693-1.192-.029-.055-.047-.098-.047-.138 0-.017.012-.032.035-.044l.02-.008c.026-.01.055-.021.055-.054 0-.038-.027-.057-.08-.057l-.277.009-.053.001-.092-.003-.295-.009c-.078 0-.082.048-.082.057 0 .034.029.058.069.058.027 0 .097.021.152.058.077.052.174.157.258.282.141.208.664 1.067.688 1.125.052.115.088.196.088.4v.337l-.012.389c-.005.078-.026.174-.098.189l-.111.015c-.042 0-.061.027-.061.054 0 .061.069.061.092.061l.321-.01.063-.002.047.002.435.01c.084 0 .093-.043.093-.061 0-.026-.019-.054-.061-.054l-.172-.015c-.087-.012-.126-.067-.135-.189l-.011-.389v-.337c0-.126 0-.245.056-.38.067-.161.613-1.08.744-1.24.087-.107.129-.15.201-.192.054-.035.123-.051.164-.051.06 0 .081-.033.081-.062 0-.024-.021-.053-.081-.053l-.277.006zm2.111 1.39c0-.777.427-1.26 1.114-1.26.56 0 1.162.443 1.162 1.417 0 1.251-.877 1.315-1.052 1.315-.721 0-1.224-.606-1.224-1.472zm-.433.109c0 .757.485 1.572 1.551 1.572.923 0 1.594-.687 1.594-1.634 0-.897-.631-1.5-1.57-1.5-1.148 0-1.575.958-1.575 1.562zm5.182-1.524l-.021.011-.119.012-.046.002-.963.004-.052-.002-.391-.01c-.023 0-.093 0-.093.061 0 .031.026.053.062.053l.126.01c.107.023.139.066.146.197l.008.845v.69c0 .367 0 .684-.02.846-.016.117-.035.179-.09.19l-.111.015c-.042 0-.061.027-.061.054 0 .061.07.061.093.061l.32-.009.064-.002.047.002.435.01c.084 0 .093-.043.093-.061 0-.027-.019-.054-.062-.054l-.171-.015c-.093-.013-.116-.074-.127-.189-.02-.163-.02-.48-.02-.847v-.334c.146-.005.499-.004.586.006.104.013.161.072.18.122l.019.111.002.023c0 .035.023.061.057.061.057 0 .057-.068.057-.104l.016-.259.032-.223c0-.057-.037-.061-.049-.061-.029 0-.046.022-.061.042-.033.046-.068.059-.165.067l-.174.004-.502.004.002-1.087c.005-.013.608-.002.608-.002.141.004.221.067.241.108l.032.137c0 .073.048.076.057.076.021 0 .048-.011.061-.067 0-.002.015-.195.015-.195l.004-.068.023-.134.009-.052c0-.039-.022-.066-.053-.066l-.044.017zM.484 35.658h41.815v.239H.484zm4.213 2.513S3.2 41.315 3.064 41.599c-.026-.055-1.639-3.386-1.639-3.386-.076-.152-.116-.196-.177-.196-.04 0-.093.029-.118.17l-.599 3.947c-.033.223-.084.433-.236.466l-.178.018c-.028 0-.112 0-.112.057 0 .082.09.082.124.082l.372-.011.227-.007.194.006.442.012c.078 0 .16-.006.16-.082 0-.036-.038-.057-.106-.057l-.251-.03c-.114-.027-.17-.085-.17-.179l.018-.283s.275-2.108.311-2.38c.05.082.294.601.294.601l.335.717c.072.167.543 1.079.697 1.375l.018.033c.092.173.147.277.207.277.065 0 .097-.06.237-.347 0 0 1.319-2.748 1.32-2.748 0 .025.359 2.659.359 2.659.008.053.011.097.011.132 0 .074-.014.107-.031.113-.04.017-.077.039-.077.081 0 .055.064.07.189.081.239.018 1.073.036 1.23.036.111 0 .172-.029.172-.082 0-.057-.076-.057-.112-.057-.083 0-.2-.007-.371-.06-.178-.054-.234-.236-.286-.599l-.551-3.741c-.019-.135-.059-.201-.124-.201-.064.001-.097.059-.146.155zm4.738-.055l-.036.011-.259.036c-.103.005-1.092.006-1.512.006l-.31-.009-.071-.003-.491-.006c-.072 0-.148.005-.148.069 0 .069.08.069.118.069l.233.018c.198.042.238.14.249.332.012.193.012.359.012 1.282v1.065c0 .555 0 1.034-.03 1.287-.027.196-.06.299-.164.32l-.215.024c-.048 0-.112.007-.112.063 0 .05.046.075.136.075l.418-.012.345-.006.629.018.176.004.872.014c.233 0 .296 0 .341-.168.031-.124.079-.535.079-.676 0-.061 0-.124-.063-.124-.058 0-.07.043-.081.103-.043.25-.114.368-.264.437-.154.071-.41.071-.563.071-.629 0-.7-.1-.712-.494l-.001-.688.001-.25v-.478c0-.046.011-.046.022-.046.136 0 .741.006.858.018.192.02.292.09.326.225l.019.159.004.057c0 .043.025.068.069.068.069 0 .069-.081.069-.13l.011-.191.013-.214.041-.377.008-.065c0-.04-.021-.063-.057-.063-.035 0-.061.03-.1.074-.059.066-.146.084-.289.095-.088.01-.431.014-.966.014-.019 0-.027-.005-.027-.052v-1.531c0-.045.015-.045.027-.045.117 0 .754.012.858.024.304.037.355.11.394.209.034.082.035.199.035.212 0 .03 0 .1.07.1.059 0 .071-.057.075-.079l.022-.278.008-.124.04-.335.008-.06c0-.017 0-.07-.051-.07l-.064.015zm2.334.045l-.321.007-.307-.007-.522-.011c-.072 0-.148.005-.148.069 0 .069.08.069.118.069l.196.018c.198.042.238.14.249.332.012.193.012.359.012 1.282v1.065c0 .555 0 1.034-.03 1.287-.027.196-.06.299-.164.32l-.215.024c-.048 0-.112.007-.112.063 0 .075.102.075.136.075l.418-.012.345-.006.945.023.816.013c.318 0 .357-.031.396-.175.049-.178.091-.63.091-.7 0-.058 0-.118-.063-.118-.07 0-.077.068-.081.104-.012.113-.084.279-.154.354-.142.154-.358.165-.697.165-.484 0-.628-.045-.723-.129-.122-.105-.122-.526-.122-1.29v-1.065c0-.923 0-1.089.012-1.282.013-.221.066-.304.212-.331l.233-.018c.064 0 .124-.008.124-.069 0-.061-.068-.069-.142-.069l-.502.012zm3.735-.003l-.436.01-.233-.006-.59-.012c-.072 0-.148.005-.148.069 0 .069.08.069.118.069l.232.018c.198.042.238.14.249.332.012.193.012.359.012 1.282v1.065c0 .555 0 1.034-.03 1.287-.022.162-.05.297-.164.32l-.215.024c-.048 0-.111.007-.111.063 0 .075.102.075.136.075l.418-.012.345-.006.453.018.236.011.188.008c1.127 0 1.631-.67 1.631-1.334 0-.685-.558-1.124-1.089-1.313.363-.293.605-.588.605-1.054 0-.216-.094-.923-1.304-.923l-.303.009zm.2.27c.54 0 .742.567.742.924 0 .284-.084.502-.243.63-.105.093-.247.112-.426.112l-.281-.018c-.018-.004-.031-.011-.031-.052v-1.495c0-.065.011-.079.043-.089l.196-.012zm-.037 3.973c-.185-.075-.203-.168-.203-.567v-1.435c0-.025.009-.027.021-.027l.26.006c.229.012.367.052.494.142.524.366.581.956.581 1.193 0 .723-.598.76-.718.76-.136 0-.273-.006-.435-.072zm2.54-1.947c0 1.15.768 2.388 2.455 2.388 1.484 0 2.521-1.027 2.521-2.497 0-1.406-.943-2.279-2.46-2.279-1.729 0-2.516 1.238-2.516 2.388zm.865-.188c0-1.635.924-1.88 1.474-1.88 1.036 0 1.759.897 1.759 2.182 0 1.751-.972 1.94-1.39 1.94-1.085.001-1.843-.921-1.843-2.242zm8.755-2.103l-.175.005c-.017-.001-.696-.018-.696-.018-.069 0-.142.005-.142.069 0 .069.079.069.118.069l.214.018c.198.042.238.14.249.332.012.193.012.359.012 1.282v.757c0 .648-.025 1.169-.347 1.491-.291.291-.674.322-.824.322-.209 0-.484-.028-.747-.245-.243-.198-.467-.514-.467-1.478v-.847c0-.923 0-1.089.012-1.282.013-.221.066-.304.212-.331l.172-.018c.033 0 .112 0 .112-.069 0-.064-.077-.069-.148-.069l-.443.011-.302.008-.323-.007-.56-.011c-.072 0-.148.005-.148.069 0 .069.079.069.118.069l.232.018c.198.042.238.141.249.332.012.193.012.359.012 1.282v.884c0 .768.173 1.281.544 1.615.466.421 1.088.421 1.354.421.352 0 .816-.05 1.269-.44.51-.437.58-1.139.58-1.833v-.647c0-.923 0-1.089.012-1.282.012-.221.066-.304.211-.331l.173-.018c.064 0 .124-.008.124-.069 0-.064-.073-.069-.142-.069l-.515.01zm2.619-.004l-.444.01-.243-.006-.587-.012c-.071 0-.148.005-.148.069 0 .069.08.069.118.069l.233.018c.198.042.238.14.249.332.012.193.012.359.012 1.282v1.065c0 .555 0 1.034-.03 1.287-.022.162-.05.297-.164.32l-.215.024c-.048 0-.112.007-.112.063 0 .075.102.075.136.075l.493-.011.246-.007.195.005.694.013c.034 0 .136 0 .136-.075 0-.019-.009-.063-.087-.063l-.295-.024c-.162-.022-.203-.129-.223-.32-.03-.254-.03-.736-.03-1.294v-.085c0-.025.009-.033.033-.033l.526.012c.042 0 .072.006.098.037l.29.4.309.435c.354.487.58.758.834.894.164.088.323.117.655.117h.575c.042 0 .13 0 .13-.075 0-.019-.009-.063-.088-.063l-.167-.018c-.098-.02-.342-.068-.67-.407-.308-.324-.658-.765-1.101-1.324 0 0-.188-.236-.203-.256.555-.454.794-.86.794-1.357 0-.441-.274-.744-.418-.842-.338-.232-.757-.263-1.122-.263l-.409.008zm-.022 2.335c-.033-.015-.044-.03-.044-.095v-1.84c0-.045.01-.061.044-.07.055-.016.152-.024.317-.024.339 0 .911.23.911 1.093 0 .556-.22.8-.351.896-.104.075-.179.1-.421.1-.174 0-.343-.023-.456-.06zm4.131-2.226l-.054 3.583c-.006.522-.031.692-.177.737-.09.026-.207.03-.268.03-.031 0-.112 0-.112.063 0 .075.085.075.148.075l.552-.014.102-.004.168.005.582.013c.05 0 .154 0 .154-.075 0-.063-.083-.063-.118-.063-.09 0-.206-.005-.31-.042-.131-.046-.191-.243-.202-.658 0 0-.065-2.46-.066-2.515.034.029.123.126.123.126.255.28.784.861 1.31 1.383l.803.804.983.976c.07.069.144.137.216.137.083 0 .093-.102.093-.202l.067-3.819c.006-.338.056-.455.213-.5l.177-.018c.082 0 .124-.023.124-.069 0-.069-.093-.069-.154-.069l-.483.014-.111.004-.213-.006-.519-.012c-.073 0-.172 0-.172.069 0 .061.06.069.112.069.085 0 .227 0 .315.035.128.053.19.147.196.531 0 0 .057 2.544.06 2.703h-.015c0-.006-.425-.447-.425-.447l-.897-.928c-.92-.914-1.867-1.933-1.876-1.943l-.056-.061c-.071-.079-.119-.131-.178-.131-.082-.001-.092.125-.092.219zm7.597-.152l-.035.01-.259.036c-.103.005-1.091.006-1.512.006l-.309-.009-.072-.003-.491-.006c-.071 0-.148.005-.148.069 0 .069.079.069.118.069l.233.018c.198.042.238.14.249.332.012.193.012.359.012 1.282v1.065c0 .555 0 1.034-.03 1.287-.022.161-.05.297-.164.32l-.215.024c-.048 0-.112.007-.112.063 0 .075.103.075.136.075l.418-.012.345-.006.629.018.176.004.872.014c.227 0 .296 0 .341-.168.031-.123.079-.534.079-.676 0-.061 0-.124-.063-.124-.058 0-.07.043-.081.103-.043.25-.114.368-.264.437-.155.071-.41.071-.563.071-.628 0-.7-.1-.711-.494l-.001-.688.001-.25v-.478c0-.046.011-.046.021-.046.136 0 .742.006.858.018.192.021.292.09.326.225l.02.161.004.055c0 .043.024.068.069.068.069 0 .069-.081.069-.13l.011-.196.013-.209.041-.377.008-.066c0-.04-.021-.063-.057-.063-.035 0-.061.03-.1.075-.059.066-.146.083-.289.095-.089.008-.433.012-.967.012-.019 0-.027-.005-.027-.052v-1.531c0-.045.015-.045.027-.045.117 0 .754.012.858.024.304.037.355.11.393.209.034.082.035.199.035.212 0 .03 0 .1.069.1.06 0 .071-.059.075-.079l.022-.277.008-.124.04-.335.008-.06c0-.046-.018-.07-.051-.07l-.063.017zM21.223 26.999c-1.011-1.011-2.262-1.546-3.471-2.063l-.096-.041-.644-.241c-.077-.029-.126-.047-.156-.061l-.111-.051-.004.013c-3.96-1.401-6.382-4.662-6.486-8.744-.006-.166-.009-.342-.009-.524 0-.613.036-1.256.108-1.913l.177-1.325.351-2.084c.036-.213.054-.321.066-.371l.031-.127-.023-.002c.021-.289.042-.644.042-.996 0-1.437-.364-2.344-1.181-2.943l-.007-.003-.107-.106 1.761-2.295-.05-.067c-.138-.183-.218-.374-.238-.567l-.027-.26.247.088c.157.056.315.106.484.152l.071.02L13.702.206l.08.134c.328.553.915.822 1.794.822.36 0 .773-.044 1.3-.137 0 0 1.73-.267 1.745-.269C19.819.617 20.047.59 20.084.587l.109-.012c.341-.033.708-.05 1.092-.05.755 0 1.574.064 2.433.189.005.001 1.228.183 1.24.184l1.525.253c.224.022.479.043.738.043.683 0 1.161-.151 1.502-.476.076-.067.137-.146.197-.222l.17-.215L30.703 2.4l.077-.03c.261-.1.619-.229 1.075-.393 0 0 .239-.086.317-.115.591-.215 1.072-.361 1.47-.445l.313-.066-.128.294c-.109.25-.208.44-.31.596l-.191.293.325-.131c.006-.003.235-.094.431-.172l-.206.395c-.11.211-.535.88-.928 1.171l-.086.064.062.088c.003.004.006.008.008.012.041.065.064.166.064.278 0 .106-.021.212-.055.284-.044.092-.112.214-.241.346l-.067.068.433.57-.086.064c-.832.626-1.237 1.592-1.237 2.951l.001.046c-.003.07-.004.144-.004.22 0 .314.022.655.065 1.014l.212 1.33c.149.889.226 1.348.228 1.367.041.391.147 1.402.156 1.48.051 1.258.056 1.372.056 1.379.001.052.002.105.002.159 0 2.202-.739 4.431-1.928 5.819l-.023.029c-.773.942-1.833 2.232-4.725 3.25-1.622.59-3.065 1.168-4.303 2.268l-.005.004-.046.053-.038.042-.089.099-.079-.082z"/>
  <path fill="#094183" d="M32.605 5.3c-.023-.03-.041-.044-.059-.046.018.003.036.015.059.046zm.002.003s-.001-.002-.002-.003c.001.001.002.002.002.003zm1.011-3.01c.109-.167.212-.368.319-.613l.213-.489-.522.11c-.403.085-.889.232-1.485.449-.083.03-.193.07-.317.114-.41.148-.799.289-1.077.394L29.101.09l-.259.326c-.059.076-.115.147-.186.21-.32.304-.773.446-1.426.446-.256 0-.511-.021-.72-.041L24.983.777c-.018-.003-1.239-.184-1.239-.184-.864-.126-1.688-.191-2.449-.191-.428 0-.836.021-1.213.062-.037.004-.241.028-1.469.17-.02.003-1.745.269-1.747.27-.521.093-.928.136-1.28.136-.837 0-1.393-.251-1.7-.768L13.723 0l-1.805 2.352c-.157-.043-.312-.092-.476-.15l-.412-.146.045.434c.023.226.117.433.259.622L9.566 5.418l.179.18.014.011c.786.576 1.136 1.456 1.136 2.854 0 .394-.027.794-.05 1.098h.003c-.013.054-.031.159-.068.379l-.351 2.088c-.003.022-.117.876-.177 1.327-.072.66-.109 1.308-.109 1.925 0 .183.003.361.009.527.106 4.166 2.598 7.486 6.665 8.882l.001-.002c.034.015.085.035.163.064 0 0 .634.237.639.239l.096.041c1.2.513 2.44 1.043 3.436 2.039l.161.162.166-.185.039-.042s.024-.027.043-.049c1.224-1.087 2.657-1.66 4.267-2.246 2.92-1.028 3.991-2.331 4.773-3.284l.022-.027c1.205-1.407 1.954-3.664 1.954-5.891 0-.054-.001-.109-.002-.161 0-.002 0-.005-.056-1.385-.003-.022-.103-.982-.156-1.487 0-.003-.001-.01-.229-1.369l-.211-1.326c-.043-.354-.064-.691-.064-1.001 0-.074.001-.147.004-.221l-.001-.044c0-1.323.39-2.259 1.193-2.863l.173-.13-.442-.582c.136-.139.21-.27.261-.375.083-.173.098-.49-.014-.668-.004-.006-.008-.012-.012-.017.406-.299.838-.973.96-1.208l.344-.658c0-.002-.701.278-.707.28zM12.3 2.459L13.704.635c.495.713 1.308.763 2.114.792l.536-.057 2.292-.361 1.541-.176c1.492-.17 2.977.064 4.391.261l2.037.333c.863.063 1.789.042 2.376-.602l.112-.126 1.298 1.707-.006.003c-.027.013-.068.031-.12.052-.167.061-.357.13-.534.201-.022.008-.045.016-.068.024l-.022-.005-.661-.871c-.686.389-1.542.445-2.369.389l-1.189-.184-1.47-.24-1.569-.184c-.94-.077-1.902-.042-2.815.064l-1.3.184-2.164.326c-.835.07-1.641-.029-2.313-.403l-.671.87c-.087-.017-.174-.034-.265-.052-.206-.043-.39-.081-.565-.121zm16.441 4.054c-.02.212-.267.26-.349.431l-.116.083c.102-.007.212-.069.282-.158.171-.054.709-.166.733-.061.024.104-.026.201-.185.315-.159.114-.728.357-1.146.289-.233-.006-.453.061-.672.109l-1.126.33c-.39.103-.846.158-1.269.055-.624-.116-1.241-.282-1.901-.241-.074.003-.179.062-.22.151.069-.014.172-.048.241 0-.01.085-.021.557-.203.735-.048-.054-.073-.142-.098-.22-.024-.078-.297-1.27.225-1.647.312-.101.719.088.823.144.403.218 1.092.334 1.626.541.233-.028.459-.103.699-.131l1.613-.213c.288.054.331-.316.583-.342.165.006.268-.118.398-.192.024-.019.062-.013.062.022zm-13.298.727c.062-.055.277-.103.48-.074s.567.117.841.31c.556.185.991.568 1.556.745.021-.049-.055-.09-.082-.124.35-.268.714-.515 1.105-.679.253-.296.589-.59 1.001-.529l.093-.01s.002.095 0 .133c-.012.214-.123.428-.245.721 0 0-.342.126-.508.226-.134.081-1.317.775-1.317.775-.336.267-.503-.032-.85-.267-.406-.213-.824-.418-1.174-.748 0-.047.103-.021.055-.075-.199.021-.347.09-.526.145-.076.035-.262.097-.323-.019l.087-.023c.111-.074.151-.223.332-.267-.132-.127-.39-.172-.578-.185l.053-.055zm14.924.097c.014.099-.186.335-.442.392-.312.07-.563.009-.763-.105.009.222.377.305.647.254-.15.206-.607.348-.949.335-.356-.014-.595-.121-.912-.316-.033.214.372.395.661.419-.573.315-1.214.086-1.293.065-.158-.042-.391-.14-.515-.265-.008.166.217.298.417.345-.377.177-.857-.02-1.046-.334.619-.18 1.091-.345 1.72-.501.607.101 1.188-.153 1.415-.418.088-.103.147-.23.151-.262.057-.018.138.003.194.017s.66.147.715.374zm-5.153.902c.296.035.7-.026.838-.069.068.116-.067.312-.181.27.048.164.2.377.173.569-.144-.054-.569-.222-.569-.222.103.172.252.474.198.693-.172-.13-.534-.141-.678-.251.069.261.24.638.014.885-.212-.151-.316-.391-.493-.563.034.247.09.631-.083.858-.109-.138-.58-.32-.566-.484-.048-.015-.174.504-.332.6-.157-.219-.291-.528-.509-.726.061-.069.136-.028.108-.145-.062-.149-.287-.233-.535-.335.037-.077.063-.115.142-.228.201-.287.327-.553.375-.69.079-.227.105-.301.123-.466.256.033.433.073.746.109.324.037.803.141 1.229.195zm-5.324-.092c-.078.085-.126.132-.166.233-.094.232 0 .582.24.754.16.115.214.129.343.167-.315.085-.664.538-.665.778-.122-.113-.154-.335-.123-.54-.087.121-.279.21-.396.223-.043-.104-.023-.372.097-.496-.047-.082-.32-.039-.446.05-.027-.164.033-.294.199-.396-.045-.093-.147-.026-.372.004.144-.07.362-.188.594-.337.395-.253.695-.44.695-.44zm.147 6.573c.342.548.372.569.557.885.185.316.953 1.499 1.101 1.74.149.24.94 1.582 1.451 1.842-.393.428-.205.958-.854 1.063-.375.061-1.427.384-1.791-.225-.364-.608-.529-1.581-.42-2.35.462.718.794 1.036 1.048 1.182-.844-.939-.74-1.134-1.144-1.642-.163-.205-.197-.536-.217-.786-.034-.426-.026-.858-.047-1.285-.012-.231 0-.477-.077-.698-.03-.085-.091-.339-.11-.428-.019-.088-.009-.205-.009-.205s.17.359.512.907zm2.557-8.173c-.356.253-.423.484-1.009.783-.325.165-.643.301-.85.198-.213-.116-.146-.5-.147-.55-.001-.043.005-.105.007-.137.158-.079.386-.03.45-.226.054-.164.04-.349.075-.521.068-.144.274-.213.315-.37-.267.171-.48.432-.81.418-.103-.027-.034-.158-.088-.219-.067-.026-.065-.079-.076-.127.027.004.048.004.05.004.016 0 .028-.012.028-.028 0-.015-.012-.029-.028-.029s-.052-.003-.086-.013c-.003-.002-.004-.004-.006-.006-.006-.055.021-.131-.02-.171l-.165-.029c.014-.171.131-.322.138-.507.028.034.131.026.082.095-.027.028-.02.076-.006.104-.009-.082.288-.188.13-.244-.068-.013-.26.031-.274-.072 0-.151.062-.281.145-.404.172.144.405.267.459.5.061.069.124.158.213.158.192-.075.288.116.473.103 0-.041.021-.082.062-.096.042-.022.089 0 .117.035.021.089-.034.144-.076.199-.069.054-.151.069-.24.082.15.103.281-.062.425-.096.068-.014.137.014.164.082.062.35-.089.857.35 1.03.061.026.13.033.198.054zm6.835 12.724c-.283-.032-.526-.016-.628.252-.144.33-.222.571-.334.762-.134.227-.352.424-.719.526-.367.102-.88.126-.943-.095.094-.448.704-.518.963-.643.485-.234.53-.661.546-1.1-.682-.439-2.055-1.528-2.055-1.528s1.197 1.188 1.834 1.613c0 .374-.098.586-.394.75-.193.107-.414.186-.688.325-.468.265-.328.642-.961.883-.265.101-.905.189-.738-.157.239-.359-.016-.361-.016-.361-.146.043-.534.151-.735.159-.123.005-.247-.085-.14-.185.039-.036.101-.066.167-.116.097-.074.152-.123.194-.197.066-.119.119-.278.048-.32-.086-.05-.217-.015-.28.054-.262.29-.283.777-1.037.636 0 0-.887-.204-.172-1.203.202-.268-.354-.583-.68-.983-.625-.765-2.406-3.654-2.406-3.654-.185-.267-.381-.589-.551-.851s-.226-.82.165-.765c.186.039.246.123.453.035.149-.063.136.16 0 .272-.086.09-.086.256.031.346.153.088.192-.086.365-.036.174.05.297.468.606.557.084.02.138.014.158-.041.045-.125-.099-.296-.064-.448.052.093.183.191.36.288.215.118.34.148.284-.033-.064-.204-.095-.344-.095-.344-.021-.154.116-.272.22-.272.061 0 .124.053.166.123.136.247.071.39.381.487.464.984 1.662 2.244 2.139 2.637.1.082.28.184.419.237-.106-.104-.275-.253-.351-.325-1.256-1.204-2.051-2.318-2.03-2.555.359-.15.415-.499.52-.447.052.031-.114.317-.084.461.017.084.101.199.328.195-.407.406.628.747 1.396.729.277.172.761.464 1.34.597 0 0 .057.277.237.286 0 0 .424.657 1.004 1.279.58.623 1.235 1.634 1.777 2.17zm-4.477-.689c-1.239-1.322-2.469-3.322-2.633-3.383 0 0 1.527 2.318 1.804 2.711.277.393.655.766.833 1.082.056-.092.14-.256-.004-.41zM22.703 6.773c-.531.505.097 1.782-.263 2.302-.039.056-.08.126-.108.181-.286-.094-.459-.102-.701-.105-.143-.002-.314.032-.429.042-.286.024-.499-.003-.761.052.02-.057.057-.103.108-.181-.244.007-.429-.042-.565-.22-.087-.122-.104-.271-.059-.394.069-.19.269-.366.353-.541 0 0 .14-.22.192-.485.024.087.066.231.304.286.222.051.464-.032.858-.23-.18.286-.436.465-.914.542.165.034.478-.033.799-.201.39-.204.881-.88.881-.88.116-.104.346-.202.305-.168zm-.597 1.785c-.087.162-.195.288-.54.304-.44.02-.542-.239-.542-.239.027.135.122.419.545.401.539-.025.537-.466.537-.466zm10.601-3.101c-.812.648-1.062 1.629-1.112 1.927-.135.863-.164 1.831-.007 2.68l.432 2.68.126 1.173.051 1.372c.09 3.167-1.434 7.41-6.634 9.115l-1.258.487c-1.061.467-2.1.977-3.005 1.796-1.259-1.124-2.744-1.739-4.243-2.313-4.773-1.511-6.446-5.542-6.534-8.315-.042-.932-.006-1.93.106-2.863l.199-1.414.332-1.916c.148-1.082.156-2.284-.205-3.274-.176-.452-.502-.863-.898-1.216.436-.578.941-1.245 1.392-1.831.007.017.014.033.022.05l.012.027c.076.21.161.372.228.483.034.064.069.129.108.194l-.757 1.014c.934 1.053.983 2.545.94 3.946l-.113.869-.411 2.482-.162 1.414-.05 1.301c-.161 3.178 2.259 7.248 6.71 8.584 1.16.466 2.284 1.003 3.324 1.768 1.04-.757 2.178-1.287 3.345-1.741 5.151-1.45 6.71-5.423 6.773-8.046.058-.969-.028-1.924-.127-2.849l-.198-1.316-.269-1.64c-.162-.911-.128-2.02.035-2.904.277-.122.573-.391.754-.966l.027-.084c.301-.208.671-.544.916-.877.035.015.075.079.151.203zm.969-3.878c-.357.819-.582 1.057-1.131 1.249 0 0-1.771.543-2.224.717-.526.201-.937.42-1.205.574-.943-.574-2.675-.146-3.096.012-.678.255-1.372.67-1.949 1.081-.086-.084-.201-.222-.298-.229 0 0 .294.179.241.488.075-.021.365-.24.562-.066.199.174-.004.383-.074.547.213-.165.441-.293.673-.142.258.169-.033.479-.119.624.191-.034.389-.18.525.018.136.198-.069.301-.262.41.185-.014.199.131.729.163-.247.023-.503.051-.667.065-.119-.027-.26-.094-.497-.16-.612-.172-.977-.362-1.218-.44-.241-.078-.524-.103-.705-.047-.098.002-.099.041-.182.048.81-.288.568-1.263.953-1.853.391-.735 1.208-.91 1.935-1.041.947-.13 2.429-.274 2.868-.364.791-.162 1.777-.485 1.976-.578.242-.114 1.306-.49 1.716-.639.412-.148.962-.334 1.449-.437zm.053.971c-.118.308-.524 1.013-.967 1.238-.61.343-1.473.487-2.133.561-.528.076-.941-.026-1.132-.086 0 0-.197-.063-.262-.113.988-.532 2.194-.892 3.454-1.231.699-.242.786-.268 1.04-.369zM21.303 3.621c-.263.034-.598.096-.798.455-.093-.076-.062-.229.043-.365.076-.099.349-.206.755-.09zm11.487.831c-.065.135-.157.276-.348.424-.397.335-2.286.608-3.008.367.767-.309.846-.566.893-.762.575-.022 1.436-.087 2.399-.507.112-.028.133.336.064.478zm-4.121-.417c.222.074.561.229.404.277-1.207.202-2 .54-4.083 1.337-.071-.003-.158.01-.228.037.023-.107.014-.232-.107-.354-.098-.098-.258-.147-.507-.056.61-.398 1.237-.798 1.926-1.051.55-.202 1.142-.3 1.782-.312.39-.006.618.057.813.122zm-6.205.065c.018.065.004.241-.121.306-.233.109-.376-.133-.568-.188-.358-.055-.785.006-1.127-.083.092-.132.246-.273.431-.335.219-.069.639-.162.937-.069.29.09.413.251.448.369zm.286.123c0 .055-.018.073-.044.113-.026.04-.084.102-.196.073-.013-.097.042-.199.131-.254.048-.015.109.013.109.068zm7.452.289c-.037.167-.283.367-.476.476-.215.122-.522.196-.626.359-.138.123-1.333.467-1.897.609-.563.142-1.023.263-1.563.353-.101-.083-.255-.077-.353-.06.14-.288.085-.484-.166-.558l2.734-.986c.503-.145 1.134-.324 1.554-.337.275.066.462.144.793.144zm-8.333-.124c.179.055.502.379.585.544.027.13-.027.254-.11.35-.076.028-.157.11-.185.184.013-.082-.008-.157-.056-.219-.076-.048-.156-.132-.19-.222-.285.005-.706.015-.859-.126-.003-.056-.024-.105-.08-.171.091-.011.425.018.605.025s.428.003.476.076c0 .034-.034.034-.055.041-.021.006-.048-.008-.061.006.055.089.164.109.261.082.055-.027.083-.083.048-.151-.053-.104-.178-.122-.336-.144-.159-.022-.989-.034-.989-.034-.088-.096-.283-.236-.409-.299-.014-.061.06-.115.1-.094.336.118.885.105 1.255.152zm1.089.049c-.013.055.021.042.069.097 0 .103-.069.185-.151.233-.076.041-.192.068-.268.007-.042-.027-.143-.055-.143-.055 0-.179.213-.268.35-.329.06-.028.123-.014.143.047zm-8.218.141c.791.138.752.853.947 1.158-.667.036-.962.06-1.475-.059-1.814-.419-2.16-1.273-2.647-2.423.88.794 2.805 1.259 3.175 1.324zm17.647.477c-.398.556-1.131 1.021-1.415 1.143-.206.088-.475.155-.916.051-.231-.054-.447-.153-.599-.274-.297-.237-.28-.399-.275-.483.004-.057.102-.183.203-.15 1.093.278 2.64-.056 3.002-.287zm-9.574-.148c.035-.007.063-.028.104-.02.047.158-.126.207-.227.233-.076.008-.117-.055-.144-.109 0-.047.001-.108-.033-.147.001-.022.009-.042.033-.059.063.089.158.137.267.102zm-7.063.947c.056.074.159.328.537.599-.211.058-.439.08-.769.097-.447.023-.85-.024-.85-.024-.661-.054-1.503-.848-1.712-1.157.445.234 1.037.419 1.499.476.462.058.91.066 1.295.009zm2.15.567c-.004.076.01.195.151.287-.095.012-.304.01-.416.048-.691-.039-1.385-.246-1.777-.911.175 0 .335-.012.598.045.377.082.944.248 1.444.531zm12.184-.036c-.033.14-.307.349-.597.392-.008.002-.039-.221-.35-.2-.175.012-.174.036-.297.064.055-.076.039-.188-.009-.271-.014-.021-.05-.054-.078-.054-.082 0-.167.027-.27.092-.105.066-.21.049-.293.08-.146.055-.246.141-.356.311-.032.024-.075.013-.147.008-.067-.029-1.236.143-1.236.143-.219-.014-.518.007-.9-.109 0 0 .316-.157.149-.436 0 0 1.575-.344 2.196-.518.622-.174.958-.287 1.167-.389-.037.144.102.399.351.594.174.135.525.265.67.293zm1.317-.306c-.353 1.124-1.354.982-1.711.755.368-.112.524-.425.524-.425.503.042.838-.05 1.187-.33zm-13.865.74c-.15.084-.111.201-.078.278.047.11.172.17.172.17-.07.043-.153.127-.216.218-.16-.085-.387-.21-.584-.276-.368-.214-.719-.342-1.1-.316-.111.008-.353.094-.432.126-.259-.045-.649-.267-.753-.391.477.066.786.049 1.062.03.472-.035.781-.115.781-.115.39.156.669.282 1.148.276zm5.313 2.89c-.125.007-.045.06-.313.266-.055.041-.249.069-.414.052.046-.085.115-.16.022-.349-.095-.194-.243-.243-.313-.244.109.08.194.179.245.296.04.094.01.204-.072.286-.087.021-.191.078-.264.144.066-.247-.152-.612-.333-.663.161.216.301.366.213.739-.056.126-.556.469-.707.344-.243-.215-.044-.387-.134-.627-.02-.042-.035-.101-.07-.087.069.233-.033.334-.014.576-.167.059-.257.093-.376.07-.055-.069-.098-.181-.061-.36.036-.179.176-.413.328-.6 0 0-.078.027-.15.094-.217.2-.328.462-.312.648.007.086.017.159.081.223-.045.001-.274-.011-.341-.147-.131-.268.061-.516.204-.694.117-.146.311-.233.311-.233.302-.144.739-.088 1.044-.134s.561.001.815.081c.254.079.418.183.611.319zm4.656 5.313c.036.2-.222.336-.421.365l-.063.006c.006-.189-.031-.547.164-.582s.283.059.32.211zm-3.097-2.183c.559.684 1.081 1.045 1.191 1.121 0 0-.765-.716-.918-.995 1.291 1.005 2.298 1.404 2.778 1.746-.179-.04-.399-.061-.507.083-.108.144-.025.367-.093.58-.037.161-.146.188-.201.188-.096-.605-.577-.7-.577-.7.121.144.275.283.309.5-.451-.079-1.302-.6-1.301-.608-.446.025-.988-.028-1.272-.212-.324-.212.351-.246.075-.468-.122-.098-.263.008-.366-.147-.07-.105.188-.331.077-.551-.071-.139-.206-.135-.323-.023-.119.111-.187.553-.532.466-.203-.051-.14-.394-.356-.555-.141-.105-.336-.105-.454.017-.144.15-.112.355-.112.355-.41-.816-.014-2.548-.014-2.548-.434 1.127-.43 2.099-.098 2.692-.106-.052-.279-.221-.323-.321-.092-.21-.228-.502-.193-.789-.258.454.239 1.278.042 1.274-.164-.003-.162-.324-.366-.433-.211-.112-.288.076-.373.003-.095-.08.352-.398-.038-.621-.211-.121-.307.104-.48.006-.174-.099-.397-.055-.397-.055-.075-.397.423-2.184.423-2.184.297.149.714-.093.714-.093.223.421.671.077.867-.086.148-.124.195-.228.369-.305.188-.084.408.035.601-.049.207-.09.255-.215.255-.215.267.234.585 1.084.713 1.374.437.995.88 1.553.88 1.553zm-4.064-6.224c-.44-.07-.82.127-1.158.574-.442.136-.709.3-1.053.65-.244-.084-.523-.238-.606-.289.051-.127.142-.23.263-.283-.112-.07-.306-.166-.271-.291.066-.237.372-.098.712-.236-.137-.066-.298-.169-.231-.363.065-.194.366-.163.607-.104-.133-.129-.162-.347-.02-.441.142-.093.453-.06.453-.06.007-.165.129-.283.22-.412-.144.034-.228.215-.276.325-.443-.037-.644.18-.543.459-.213-.042-.431-.005-.515.176-.542-.323-1.351-.556-1.926-.589-.086-.005-.121-.004-.198-.014-.063-.07-.124-.245-.143-.315-.064-.244-.183-.589-.436-.711.53.072 1.954.346 2.844.716-.653-.482-2.418-.724-3.494-.976-.805-.188-1.902-.533-2.585-1.015-.386-.273-.61-.592-.647-.947.489.174.908.265 1.47.379.38.077.688.129 1.23.244.505.108 1.24.325 1.24.325 1.146.33 2.429.117 3.553.501.505.195.481.81.556 1.277l.121.12c0 .65.312.909.833 1.3zM24 12.811c.544.682.583.684 1.057 1.159-.258-.126-.815-.645-1.119-1.021-.465-.577-.682-1.083-.761-1.619.001-.001.278.798.823 1.481zm-5.897-8.327c-.657-.351-1.599-.319-2.132-.458-.541-.14-.61-.175-.61-.175.211.036.405.097.632.125.719.09 1.514.126 2.116.381.341.144.523.489.606.856-.141-.283-.34-.583-.612-.729z"/>
  <path fill="#094183" d="M5.472 19.408h-.129l.032.125c.305 1.192-.018 2.35-.862 3.098l-.266.236.351-.061c.269-.047.625-.097.999-.068.88.055 1.499.236 2.006.576-.027.134-.53 2.619-.53 2.619-.009.039-.013.078-.013.115 0 .167.083.313.168.436l.005.006.005.006c.386.406.877.541 1.352.672l.04.011c2.074.484 4.263.053 6.165-1.212l1.025-.669.451-.278.542-.333c1.045-.619 1.904-.956 2.875-1.126 2.008-.353 4.158.074 5.755 1.144.006.004.209.122.209.122-.005-.003 1.346.882 1.346.882.001.001.838.531.838.531 1.855 1.165 4.257 1.511 6.271.903.341-.113 1.044-.348 1.144-.965l.003-.018s-.508-2.64-.529-2.753c.001-.001.074-.053.074-.053l-.023.018c.848-.474 1.958-.639 2.969-.442l.366.072-.281-.246c-.845-.743-1.162-1.903-.847-3.104l.033-.125-.129-.001c-1.285-.014-2.483.163-3.56.529-.535.206-1.339.515-1.576 1.241l-.005.015-.028 2.105c0 .001-.004.59-.006.83-1.251-.026-2.287-.653-3.16-1.246l-.305-.211c-.002-.002-1.251-.818-1.251-.818-1.481-.918-2.948-1.464-4.486-1.671-2.632-.344-5.261.298-7.605 1.858-.001 0-1.177.8-1.177.8-.925.608-1.93 1.199-3.151 1.213.001-.157.014-2.787.014-2.787-.007-.419-.329-.807-.958-1.155-1.155-.561-2.514-.83-4.161-.821z"/>
  <g fill="#FFF">
    <path d="M9.334 22.439c.336-.097.68-.203.959-.465-.001.142-.006 2.126-.006 2.196-.73-.02-1.552-.12-2.169-.675 0-.001-.026-.035-.026-.035-.068-.088-.126-.162-.126-.254 0-.033.007-.068.025-.106.179-.332.534-.429.876-.523l.279-.082c-.002 0 .188-.056.188-.056zm22.68-.35c.335.293.748.416 1.15.53.354.099.72.202 1.022.426.092.083.136.154.136.229 0 .033-.008.066-.025.102-.195.37-.648.554-.972.66-.43.121-.86.182-1.311.19v-2.137z"/>
    <path d="M5.766 20.398c0-.234-.026-.471-.071-.71 1.251.05 2.691.195 3.94.87.312.199.665.473.665.837 0 .01 0 .019-.001.029-.059.466-.529.608-.944.733l-.541.166c-.442.123-.893.256-1.097.713-.712-.427-1.606-.624-2.661-.584.459-.546.71-1.274.71-2.054zm28.033 2.11l-.044-.017-.525-.159c-.428-.113-.831-.221-1.133-.557-.055-.08-.079-.182-.079-.284 0-.092.019-.182.051-.254.393-.605 1.065-.816 1.715-1.02l.171-.054c.798-.217 1.684-.333 2.702-.357-.045.258-.071.51-.071.752 0 .787.238 1.479.686 2.012-1.033-.041-1.931.151-2.67.569-.122-.364-.496-.514-.803-.631zm-20.244.913l1.819-1.171c2.203-1.401 4.572-1.955 7.042-1.646 1.425.184 2.783.668 4.152 1.479l1.17.732 1.197.78c1.149.78 2.546 1.092 3.935.877.561-.123 1.187-.27 1.609-.778.025.126.48 2.484.48 2.484-.067.327-.426.487-.713.616l-.073.033c-2.086.693-4.618.278-6.605-1.084 0-.001-1.804-1.185-1.804-1.185-1.876-1.21-4.12-1.645-6.319-1.225-1.079.206-2.134.66-3.324 1.427l-1.664 1.08c-1.628 1.041-3.537 1.445-5.374 1.138-.563-.109-1.146-.221-1.591-.632-.091-.098-.137-.186-.149-.284.001 0 .434-2.155.496-2.464.606.668 1.481.813 2.344.86 1.115.054 2.187-.275 3.372-1.037z"/>
  </g>
  <path fill="#094183" d="M8.878 24.887l-.646-.095c-.016.012-.022.049-.022.049.062.032.065.046.061.081l-.179 1.206c-.005.035-.012.047-.065.046-.015.013-.021.052-.021.052.012.017.423.077.423.077l.014.003.008-.053c-.05-.025-.061-.038-.061-.061 0-.006 0-.012.001-.019 0 0 .071-.476.071-.48.001.014.288.056.288.056.371.055.536-.148.568-.356.031-.209-.068-.452-.44-.506zm-.137.598s-.253-.037-.256-.038c.014-.001.059-.306.066-.347.026.004.242.036.242.036.109.016.174.043.206.086l.022.127c-.021.126-.096.163-.28.136zm1.377-.45c-.183-.006-.343.051-.466.165-.139.131-.221.33-.228.561-.015.448.244.757.645.77.183.006.343-.051.465-.165.14-.131.221-.33.229-.561.008-.231-.061-.436-.192-.576-.114-.121-.271-.188-.453-.194zm.204 1.154c-.063.059-.146.088-.245.084-.236-.008-.361-.186-.351-.502.006-.179.054-.315.139-.394.062-.059.144-.087.243-.083.099.003.18.036.239.099.079.085.118.224.112.402-.005.178-.052.314-.137.394zm1.285-.724c-.174-.001-.323-.003-.345-.109-.02-.097.039-.167.167-.194.216-.046.345.024.356.074l.005.033c.014.025.055.033.055.033.017-.009.145-.383.145-.383l.017-.051-.07.032-.045.038-.07-.01-.081-.016c-.103-.019-.217-.015-.339.011-.383.082-.471.338-.43.532.062.294.362.298.603.3.184.002.343.004.368.119 0 .001-.019.131-.019.131-.038.058-.123.102-.254.13-.114.024-.282.019-.357-.031l-.035-.044-.009-.036-.041-.008c-.018.011-.108.376-.108.376s.009.002.015.003v.001l.03.011c.002-.004.004-.003.006-.006.005.001.014.002.014.002.009-.017.014-.026.021-.027l.086.008.084.016.333-.008c.429-.091.574-.37.528-.59-.069-.333-.381-.335-.63-.337zm1.708.236s-.453-.992-.455-.997c.007.011.291-.117.291-.117.055-.025.068-.024.092.013.018.005.053-.011.053-.011.007-.019-.134-.33-.134-.33-.02-.007-.055.008-.055.008-.002.046-.008.058-.064.084l-.844.384c-.059.027-.071.022-.087-.001-.018-.005-.052.011-.052.011-.007.019.134.331.134.331.019.008.055-.009.055-.009-.001-.009-.001-.016-.001-.023 0-.041.012-.052.059-.074 0 0 .297-.135.298-.136v.001c0 .034.435.99.435.99.007.014.01.025.01.034 0 .014-.009.023-.025.035 0 .002-.001.005-.001.008 0 .019.012.046.012.046.02.008.377-.156.377-.156l.014-.007-.023-.048c-.064.006-.074-.002-.089-.036zm1.508-1.125c.001.009.001.017.001.023 0 .026-.01.04-.053.068 0 0-.524.339-.526.341 0 0 .001 0 .001-.001 0-.022-.164-.276-.186-.311l.28-.182c.054-.035.067-.032.084-.015.018.001.05-.019.05-.019.004-.021-.171-.291-.171-.291-.021-.004-.052.017-.052.017.001.009.002.017.002.024 0 .027-.011.041-.053.068 0 0-.292.188-.293.189.001 0 .001 0 .001-.001 0-.024-.173-.289-.173-.291.008.012.49-.3.49-.3.055-.036.066-.033.084-.016.018.002.051-.019.051-.019.004-.021-.171-.291-.171-.291-.021-.005-.053.016-.053.016.005.044.004.057-.05.092l-.803.519c-.005.021.016.053.016.053.091-.031.099-.018.118.009l.66 1.022c.019.03.024.042-.032.088-.003.02.018.051.018.051.021.005.851-.532.851-.532.055-.035.066-.031.084-.011.019.003.052-.018.052-.018.004-.021-.174-.296-.174-.296-.021-.007-.053.014-.053.014zm1.229-.654l-.046-.029-.403-.232c.004-.005.006-.01.01-.014.137-.127.15-.308.032-.491-.139-.214-.384-.244-.64-.078l-.572.371c-.005.021.015.052.015.052.062-.014.074-.008.094.024l.662 1.023c.021.033.019.046-.01.073-.002.019.019.051.019.051.02.005.354-.211.354-.211l.013-.008-.029-.045c-.061.014-.072.008-.092-.024 0 0-.262-.403-.264-.407.009.01.203-.114.203-.115 0 .009.413.244.413.244l.069.049c.001.001.002.003.002.006 0 .006-.004.017-.026.034v.005c0 .019.018.047.018.047.021.004.361-.216.361-.216.004-.021-.017-.052-.017-.052-.057.008-.082-.006-.166-.057zm-.742-.315s-.261.169-.263.171c0-.001.001-.001.001-.001 0-.023-.158-.269-.18-.303l.251-.164c.126-.081.219-.072.283.028l.031.125c-.012.051-.052.099-.123.144zm3.462-1.212c-.016 0-.046.019-.046.019-.004.021.021.068.021.068l-.014.093c-.036.068-.113.129-.198.155-.097.029-.195.02-.282-.026-.108-.058-.191-.169-.235-.315-.055-.178-.055-.321-.001-.423.044-.083.123-.141.242-.177.129-.04.27.002.296.088l.003.009.015.029.026.002c.016-.011.094-.378.094-.378l.009-.042-.052.02-.043.036c-.001.001-.061-.011-.061-.011l-.071-.017c-.098-.02-.195-.014-.296.017-.335.102-.603.431-.449.936.126.414.479.623.856.508.241-.073.326-.2.377-.275l.046-.053c.01-.003.024.001.04.011.022-.006.034-.037.034-.037-.005-.02-.311-.237-.311-.237zm1.481.06l-.029-.044-.268-.382c.006-.003.011-.006.016-.009.178-.057.264-.215.234-.43-.035-.252-.246-.383-.549-.341l-.676.096c-.012.016-.007.055-.007.055.061.013.069.023.074.061l.171 1.205c.004.039-.002.05-.04.063-.009.016-.005.054-.005.054.017.013.412-.043.412-.043l.014-.002-.007-.052c-.062-.015-.071-.025-.075-.061 0 0-.068-.476-.068-.48.003.014.232-.019.233-.019 0 .013.272.394.272.394l.041.073v.003c0 .006-.004.016-.038.024-.006.009-.007.023-.007.035 0 .011.001.019.001.019.016.013.416-.043.416-.043.013-.017.008-.055.008-.055-.051-.015-.069-.038-.123-.121zm-.369-.675c-.031.041-.088.068-.171.079 0 0-.307.044-.309.044.001-.001.002-.005.002-.014 0-.063-.032-.298-.038-.337.026-.004.295-.042.295-.042.149-.021.229.026.246.144l-.025.126zm1.623.58h-.628l.014-.364h.336c.065 0 .074.01.078.032l.053.012.015-.337-.054-.015c-.019.039-.027.049-.092.049h-.35l.014-.341.576.015c.064 0 .072.009.077.032l.054.012.015-.338-.053-.015c-.02.039-.028.049-.092.049h-.957l-.015.054c.094.023.094.038.094.071v1.219c0 .036-.004.048-.075.057l-.013.053 1.005.015c.065 0 .073.01.078.036l.053.012.015-.342-.055-.014c-.02.039-.028.048-.093.048zm1.249-.628c.02-.004.265-.311.265-.311l-.012-.009-.001-.001-.029-.024c-.017.016-.031.024-.054.02l-.063-.033-.071-.042c-.091-.052-.199-.086-.321-.102-.388-.052-.556.159-.583.355-.04.299.241.402.467.485.172.064.321.118.306.235l-.062.117c-.055.042-.15.054-.283.037-.114-.016-.27-.076-.324-.147l-.018-.054.004-.036-.036-.021c-.02.004-.228.318-.228.318l-.008.011.037.028c.023-.004.058-.029.059-.029l.075.037.075.044.317.104c.276.037.441-.037.531-.106.09-.069.148-.166.162-.273.045-.336-.248-.443-.482-.529-.162-.06-.301-.111-.287-.218l.051-.096c.039-.03.096-.04.17-.03.193.026.269.108.288.133l.021.056c-.005.028-.009.046-.009.046.008.014.043.035.043.035zm1.364 1.224c.022.006.049-.011.049-.011.006-.018-.137-.366-.137-.366-.015-.009-.049-.008-.049-.008-.014.017-.018.068-.018.068 0 .001-.064.072-.064.072-.068.038-.162.048-.246.024-.224-.061-.328-.293-.255-.563.049-.18.125-.301.226-.358.081-.046.181-.053.297-.021.08.022.152.074.187.136l.018.102-.006.036.021.016c.02-.001.279-.269.279-.269l.03-.031-.052-.009-.055.007-.044-.04-.054-.055c-.071-.069-.156-.116-.259-.144-.185-.051-.372-.031-.528.058-.168.096-.29.266-.351.492-.114.417.072.781.452.885.243.066.383.004.465-.032l.066-.02c.011.005.021.015.028.031zm1.148.515l.086-1.232.009-.076c.004-.009.012-.028.052-.013.019-.008.034-.044.034-.044-.008-.019-.428-.197-.428-.197-.019.008-.034.044-.034.044.038.032.043.045.043.05v.003l-.056.07c-.002.001-.825.921-.825.921-.02.022-.04.041-.062.034-.018.009-.032.044-.032.044.008.019.339.16.339.16l.014.006.021-.048c-.031-.026-.038-.045-.038-.057 0-.007.002-.011.003-.014l.026-.036c.002-.001.158-.179.159-.18.001.01.433.194.435.195-.009.001-.025.251-.025.251-.001.001-.007.042-.007.042-.002.004-.004.009-.039-.001-.017.009-.032.044-.032.044.008.019.35.164.35.164.019-.008.035-.043.035-.043-.026-.03-.032-.036-.028-.087zm-.176-1.149c-.025.108-.067.541-.068.559l-.012-.005c-.032-.028-.24-.118-.284-.137.023-.026.326-.386.366-.433l-.002.016zm1.518 1.982l.663-1.061c.012-.02.026-.028.06-.01.02-.005.041-.038.041-.038-.005-.02-.41-.274-.41-.274-.021.005-.041.037-.041.037.014.025.018.037.018.046 0 .006-.002.009-.005.014-.012.018-.157.119-.31.226 0 0-.33.235-.381.271.001-.006.003-.014.004-.021.028-.081.071-.321.071-.321.033-.196.077-.465.091-.488.004-.006.011-.012.041-.007.015-.007.035-.039.035-.039-.005-.02-.414-.277-.414-.277-.021.005-.041.037-.041.037.031.041.03.056.017.076l-.663 1.061c-.014.023-.03.026-.055.012-.02.005-.04.038-.04.038.005.02.32.216.32.216l.013.008.027-.044c-.026-.03-.035-.046-.035-.059 0-.008.004-.015.008-.022l.517-.827c-.003.009-.004.018-.006.027-.047.159-.156.698-.156.698l-.07.396c.006.015.041.037.041.037.017-.001.377-.259.377-.259l.578-.429-.023.037c-.128.178-.51.789-.51.789-.011.018-.023.029-.064.006-.019.005-.04.036-.04.036.005.021.329.224.329.224.021-.005.041-.038.041-.038-.044-.045-.038-.062-.028-.078zm1.71.88c-.049.038-.062.038-.113.004 0 0-.501-.328-.502-.329.017-.001.605-.896.605-.896.02-.03.03-.039.097-.004.019-.005.04-.037.04-.037-.004-.021-.378-.265-.378-.265-.021.004-.042.036-.042.036.054.062.049.075.03.105l-.667 1.017c-.019.03-.03.038-.083.011-.019.005-.041.037-.041.037.005.021.799.541.799.541.053.035.055.048.044.074.006.018.037.039.037.039.021-.005.209-.292.209-.292-.004-.02-.035-.041-.035-.041zm.983-.686c.046.043.042.051.04.055l-.055.066-.862.891c-.021.02-.042.04-.064.032-.019.008-.035.042-.035.042.007.02.333.173.333.173l.014.006.021-.048c-.024-.025-.035-.041-.035-.056 0-.005.001-.011.004-.016l.027-.035c.001-.001.164-.171.165-.173 0 .011.425.21.428.211-.009.001-.036.251-.036.251 0 .001-.007.042-.007.042-.002.005-.004.008-.04-.002-.017.008-.034.042-.034.042.007.02.344.179.344.179.02-.007.036-.042.036-.042-.023-.031-.029-.038-.023-.087l.129-1.195.018-.111c.004-.009.012-.026.052-.01.019-.007.035-.043.035-.043-.007-.02-.42-.212-.42-.212-.019.005-.035.04-.035.04zm.09.374c-.029.108-.088.539-.089.556l-.011-.005c-.029-.028-.236-.127-.28-.148.023-.026.341-.374.383-.419l-.003.016zm1.529.202c.053.036.056.049.047.084l-.194.785c-.044.179-.173.257-.352.213-.089-.022-.153-.064-.19-.125-.037-.061-.044-.139-.023-.228l.194-.785c.009-.035.018-.046.065-.041.015-.011.025-.049.025-.049-.011-.018-.415-.117-.415-.117l-.015-.004-.004.015-.008.037c.065.039.066.052.057.086l-.193.779c-.088.359.058.587.432.678.191.047.348.035.466-.037.112-.067.191-.189.233-.362l.193-.779c.009-.035.016-.046.07-.041.016-.011.025-.048.025-.048-.011-.018-.387-.111-.387-.111-.016.013-.026.05-.026.05zm1.095.061l-.599-.002c-.015.014-.016.053-.016.053.059.022.066.034.065.071l-.004 1.217c0 .037-.007.048-.055.056l-.012.052c.015.015.561.017.561.017.238.001.422-.06.545-.182.123-.123.186-.306.187-.546.002-.459-.25-.734-.672-.736zm.369.734c-.002.358-.117.473-.478.471h-.158c.014-.004.019-.868.019-.947.025 0 .143.002.143.002.358.001.473.116.473.469v.005zm1.738.106c-.018-.011-.055 0-.055 0-.009.043-.014.055-.077.071 0 0-.605.156-.607.156 0 0 .001-.002.001-.005 0-.042-.07-.311-.08-.351.026-.007.325-.084.325-.084.063-.016.073-.01.084.011.016.008.054-.002.054-.002.011-.018-.07-.33-.07-.33-.019-.011-.056 0-.056 0-.009.043-.014.054-.076.07 0 0-.336.086-.338.087.001 0 .001-.002.001-.005 0-.044-.072-.324-.072-.326.004.014.56-.131.56-.131.063-.015.072-.009.084.012.017.007.054-.003.054-.003.011-.018-.071-.33-.071-.33-.018-.011-.055 0-.055 0-.009.042-.014.055-.076.071l-.926.24c-.011.018-.001.055-.001.055.093-.001.099.012.108.044l.306 1.18c.008.035.008.047-.058.073-.009.017 0 .055 0 .055.018.011.975-.238.975-.238.062-.015.072-.009.085.016.016.008.054-.002.054-.002.009-.016-.073-.334-.073-.334zm-16.78-2.689l-.876-.823c-.018-.018-.078-.079-.078-.079-.007-.013-.011-.028.023-.049.006-.019-.011-.054-.011-.054-.021-.006-.425.207-.425.207-.007.019.011.054.011.054.062-.011.066-.002.068.001l.02.084c.001.005.193 1.226.193 1.226.004.03.006.057-.014.069-.005.019.012.054.012.054.021.006.34-.162.34-.162l.013-.007-.025-.047c-.047.006-.067.002-.078-.017 0-.001-.011-.043-.011-.043 0-.001-.039-.237-.04-.237.005.008.423-.211.428-.213 0 .012.179.178.179.178l.027.031c.001.002.002.004.002.005 0 .005-.005.011-.026.026-.001.002-.001.005-.001.007 0 .019.014.046.014.046.021.006.349-.167.349-.167.006-.02-.012-.054-.012-.054-.037-.001-.045-.001-.082-.036zm-.624-.178c-.039.006-.242.11-.286.133-.006-.035-.095-.51-.104-.559l.013.012c.065.085.376.394.389.407l-.012.007z"/>
  <path d="M13.658 10.631l-.536-.192.278.521-.506.358.571.128-.043.579.472-.393.436.393-.029-.607.6-.051-.499-.385.285-.515-.586.171-.221-.558-.222.551zm3.436.886l-.536-.178.278.514-.507.351.586.128-.058.586.464-.394.45.394-.036-.607.601-.051-.492-.378.278-.522-.586.156-.214-.542-.228.543zm-3.85 2.957l.214.549.586-.164-.279.508.494.385-.601.05.029.614-.436-.4-.471.4.049-.585-.57-.129.5-.35-.272-.507.535.178m4.285-.292l.172.507h.528l-.428.329.164.521-.436-.314-.434.314.155-.521-.427-.322.514-.007m-.043 3.599l-.536-.185.272.514-.507.35.578.129-.043.586.464-.401.443.408-.043-.6.607-.072-.493-.385.279-.507-.579.164-.214-.558-.228.557zM16.041 7.963c-.171-.002-.441.239-.528.331.35-.121.481-.055.561-.16.005-.055.016-.138-.033-.171zm.218.093c-.042.222.11.438.284.543l.032-.168c-.025-.157-.191-.302-.316-.375zm-.097.42c-.019.062-.074.141-.058.209.024.124.22.171.28.355.106-.17-.035-.515-.222-.564zm-.139.366l-.086.151c-.143.218.119.389.116.526.079-.085.168-.311.119-.468-.021-.082-.072-.156-.149-.209zm-.526.033c-.094.037-.324.188-.442.172.058.073.311.058.402.069.158.009.265-.17.345-.295l-.305.054zm.25.381c-.311.077-.114.442-.378.653.181-.033.26-.035.373-.252.052-.104.076-.294.005-.401zm-2.424-.692c-.06.238-.004.291.109.437-.055-.334.337-.474.158-.739-.126.033-.235.189-.267.302zm1.321.92c.012.074.308.056.445-.004.069-.015.3-.104.325-.188-.537-.121-.346.078-.77.192zm.632-.776c.024.07.313.001.438-.083.065-.028.276-.155.286-.242-.55-.025-.327.137-.724.325zm-1.78-.715c-.078-.036-.298.076-.355.117-.136.062-.348.272-.3.33.368-.24.389.035.655-.447zm.739-.936c.186.052.27.163.394.18.145.006.197-.037.225-.09-.059-.184-.43-.164-.619-.09zm.86.824c-.014-.193.062-.309.036-.432-.043-.139-.1-.174-.16-.181-.152.118-.01.459.124.613zm-.886-.667c-.155-.055-.424.057-.512.133.199-.02.325.202.562.105l.152-.08c-.049-.08-.121-.132-.202-.158zm.306.389c-.05.156.07.423.15.508-.026-.199.192-.331.087-.566l-.086-.15c-.077.053-.127.127-.151.208zm.778 2.04l-.172.01c-.254.036-.249.291-.43.376.114.022.403-.021.508-.147.056-.064.091-.146.094-.239zm-1.746-2.097c-.232.083-.244.16-.303.335.247-.232.581.014.7-.282-.095-.087-.286-.089-.397-.053zm.537.451c.021.244.091.277.245.378-.159-.298.165-.558-.092-.748-.108.07-.16.255-.153.37zm-.286-.023c-.013.335-.007.592.136.752.091-.271.096-.393.023-.557-.027-.072-.091-.198-.159-.195z" fill="#FFF"/>
</svg>
