<?xml version="1.0" encoding="UTF-8" standalone="no"?>
<svg width="517px" height="329px" viewBox="0 0 517 329" version="1.1" xmlns="http://www.w3.org/2000/svg" xmlns:xlink="http://www.w3.org/1999/xlink" xmlns:sketch="http://www.bohemiancoding.com/sketch/ns">
    <!-- Generator: Sketch 3.0.4 (8053) - http://www.bohemiancoding.com/sketch -->
    <title>home_designers</title>
    <desc>Created with Sketch.</desc>
    <defs></defs>
    <g id="Page-1" stroke="none" stroke-width="1" fill="none" fill-rule="evenodd" sketch:type="MSPage">
        <path d="M250.584504,289.692293 C250.584504,289.692293 243.965027,284.04432 240.323751,280.377455 C236.681347,276.706046 235.694627,272.205389 235.694627,272.205389 L232.813407,241.084743 L152.540688,241.084743 L149.647064,272.21902 C149.647064,272.21902 148.65245,276.978675 145.010047,280.645541 C141.367643,284.318086 134.744783,289.864958 134.744783,289.864958 C134.744783,289.864958 128.787253,294.099801 137.727494,295.433413 C142.848285,296.197912 165.681535,296.746578 184.030003,296.746578 L201.352284,296.746578 C220.074015,296.746578 242.515959,296.134298 247.635623,295.3698 C256.576991,294.036188 250.584504,289.692293 250.584504,289.692293" id="Fill-1" stroke="#00457C" stroke-width="2" sketch:type="MSShapeGroup"></path>
        <path d="M306.023327,235.819435 L10.829147,235.819435 C5.60925027,235.819435 1,231.048164 1,225.78078 L1,11.9708878 C1,6.70350424 5.60925027,1.88928966 10.829147,1.88928966 L375.134066,1.88928966 C380.355094,1.88928966 384.350305,6.70350424 384.350305,11.9708878 L384.350305,87.6386032 L315.137893,87.6386032 C310.104094,87.6386032 306.023327,91.7170334 306.023327,96.7479496 L306.023327,235.819435 Z" id="Fill-2" stroke="#00457C" stroke-width="2" sketch:type="MSShapeGroup"></path>
        <path d="M369.287424,87.6386032 L369.287424,18.4374028 L16.0628803,18.4374028 L16.0628803,218.519134 L306.023327,218.519134 L306.023327,96.7479496 C306.023327,91.7170334 310.104094,87.6386032 315.137893,87.6386032 L369.287424,87.6386032 Z" id="Path" stroke="#00457C" stroke-width="2" fill="#00457C" sketch:type="MSShapeGroup"></path>
        <path d="M446.200722,313.294692 L315.137893,313.294692 C310.104094,313.294692 306.023327,309.216261 306.023327,304.185345 L306.023327,96.7479496 C306.023327,91.7170334 310.104094,87.6386032 315.137893,87.6386032 L470.88503,87.6386032 C475.918828,87.6386032 479.999595,91.7170334 479.999595,96.7479496 L479.999595,190.690984 C471.690412,190.744761 463.62461,191.582314 456.042782,193.209133 C447.308571,195.08283 446.129148,200.378979 446.2135,207.900848 L446.139692,308.693901 C446.091652,310.277358 446.08857,311.822782 446.200722,313.294692 Z" id="Path" stroke="#00457C" stroke-width="2" sketch:type="MSShapeGroup"></path>
        <path d="M461.924139,192.119928 L461.924139,107.195464 L323.345639,107.195464 L323.345639,293.737831 L446.150644,293.737831 L446.2135,207.900848 C446.129148,200.378979 447.308571,195.08283 456.042782,193.209133 C457.973184,192.79493 459.93496,192.431892 461.924139,192.119928 Z" id="Path" stroke="#00457C" stroke-width="2" fill="#00457C" sketch:type="MSShapeGroup"></path>
        <path d="M393.011461,308.029383 C390.307345,308.029383 388.116025,305.840848 388.116025,303.140168 C388.116025,300.440098 390.307345,298.250952 393.011461,298.250952 C395.714966,298.250952 397.906897,300.440098 397.906897,303.140168 C397.906897,305.840848 395.714966,308.029383 393.011461,308.029383 L393.011461,308.029383 Z" id="Imported-Layers" stroke="#00457C" stroke-width="2" sketch:type="MSShapeGroup"></path>
        <path d="M515.359652,308.945132 L515.308438,208.152079 C515.392037,200.630209 514.586926,195.334061 505.851962,193.459611 C501.57561,192.542695 497.3211,191.878514 492.802235,191.461802 L492.802235,191.213581 C479.998787,190.098087 467.47099,190.757003 456.042782,193.209133 C447.308571,195.08283 446.129148,200.378979 446.2135,207.900848 L446.139692,308.693901 C445.911489,316.215771 446.697771,322.879395 456.031485,324.881717 C460.261895,325.788854 464.935907,326.45454 469.454771,326.879525 L469.454771,327.181152 C481.505075,328.292885 494.511119,327.594103 505.992047,325.132195 C515.325007,323.129873 515.587855,316.467001 515.359652,308.945132 L515.359652,308.945132 Z" id="Path" stroke="#00457C" stroke-width="2" sketch:type="MSShapeGroup"></path>
        <path d="M510.603547,311.08736 L450.819729,311.08736 L450.694707,205.028999 L510.729323,205.028999 L510.603547,311.08736 L510.603547,311.08736 Z" id="Imported-Layers" stroke="#00457C" stroke-width="2" fill="#00457C" sketch:type="MSShapeGroup"></path>
    </g>
</svg>