<?xml version="1.0" encoding="utf-8"?>
<!-- Generator: Adobe Illustrator 17.1.0, SVG Export Plug-In . SVG Version: 6.00 Build 0)  -->
<!DOCTYPE svg PUBLIC "-//W3C//DTD SVG 1.1//EN" "http://www.w3.org/Graphics/SVG/1.1/DTD/svg11.dtd">
<svg version="1.1" id="Layer_1" xmlns="http://www.w3.org/2000/svg" xmlns:xlink="http://www.w3.org/1999/xlink" x="0px" y="0px"
	 viewBox="0 -75.3 504.1 504.1" enable-background="new 0 -75.3 504.1 504.1" xml:space="preserve">
<path fill="#000000" d="M505.7,70.6c0,5.3-4.3,9.6-9.6,9.6H9.3c-5.3,0-9.6-4.3-9.6-9.6V9.8c0-5.3,4.3-9.6,9.6-9.6h486.8
	c5.3,0,9.6,4.3,9.6,9.6V70.6z"/>
<path fill="#000000" d="M505.7,207.6c0,5.3-4.3,9.6-9.6,9.6H9.3c-5.3,0-9.6-4.3-9.6-9.6v-60.8c0-5.3,4.3-9.6,9.6-9.6h486.8
	c5.3,0,9.6,4.3,9.6,9.6V207.6z"/>
<path fill="#000000" d="M505.7,344.6c0,5.3-4.3,9.6-9.6,9.6H9.3c-5.3,0-9.6-4.3-9.6-9.6v-60.8c0-5.3,4.3-9.6,9.6-9.6h486.8
	c5.3,0,9.6,4.3,9.6,9.6V344.6z"/>
</svg>
