<?xml version="1.0" encoding="UTF-8" standalone="no"?>
<svg width="48px" height="48px" viewBox="0 0 48 48" version="1.1" xmlns="http://www.w3.org/2000/svg" xmlns:xlink="http://www.w3.org/1999/xlink" xmlns:sketch="http://www.bohemiancoding.com/sketch/ns">
    <!-- Generator: Sketch 3.3.2 (12043) - http://www.bohemiancoding.com/sketch -->
    <title>cafe</title>
    <desc>Created with Sketch.</desc>
    <defs></defs>
    <g id="Page-1" stroke="none" stroke-width="1" fill="none" fill-rule="evenodd" sketch:type="MSPage">
        <g id="cafe" sketch:type="MSArtboardGroup" fill="#000000">
            <path d="M40,6 L8,6 L8,26 C8,30.42 11.58,34 16,34 L28,34 C32.42,34 36,30.42 36,26 L36,20 L40,20 C42.21,20 44,18.21 44,16 L44,10 C44,7.79 42.21,6 40,6 L40,6 Z M40,16 L36,16 L36,10 L40,10 L40,16 L40,16 Z M4,42 L40,42 L40,38 L4,38 L4,42 L4,42 Z" id="Shape" sketch:type="MSShapeGroup"></path>
        </g>
    </g>
</svg>