<?xml version="1.0" encoding="UTF-8" standalone="no"?>
<svg width="48px" height="48px" viewBox="0 0 48 48" version="1.1" xmlns="http://www.w3.org/2000/svg" xmlns:xlink="http://www.w3.org/1999/xlink" xmlns:sketch="http://www.bohemiancoding.com/sketch/ns">
    <!-- Generator: Sketch 3.3.2 (12043) - http://www.bohemiancoding.com/sketch -->
    <title>cart</title>
    <desc>Created with Sketch.</desc>
    <defs></defs>
    <g id="Page-1" stroke="none" stroke-width="1" fill="none" fill-rule="evenodd" sketch:type="MSPage">
        <g id="cart" sketch:type="MSArtboardGroup" fill="#000000">
            <path d="M16,36 C13.79,36 12.02,37.79 12.02,40 C12.02,42.21 13.79,44 16,44 C18.21,44 20,42.21 20,40 C20,37.79 18.21,36 16,36 L16,36 Z M4,4 L4,8 L8,8 L15.19,23.17 L12.49,28.07 C12.18,28.65 12,29.3 12,30 C12,32.21 13.79,34 16,34 L40,34 L40,30 L16.85,30 C16.57,30 16.35,29.78 16.35,29.5 C16.35,29.41 16.37,29.33 16.41,29.26 L18.2,26 L33.1,26 C34.6,26 35.91,25.17 36.6,23.94 L43.75,10.96 C43.91,10.68 44,10.35 44,10 C44,8.89 43.1,8 42,8 L12.43,8 L10.53,4 L4,4 L4,4 Z M36,36 C33.79,36 32.02,37.79 32.02,40 C32.02,42.21 33.79,44 36,44 C38.21,44 40,42.21 40,40 C40,37.79 38.21,36 36,36 L36,36 Z" id="Shape" sketch:type="MSShapeGroup"></path>
        </g>
    </g>
</svg>