<?xml version="1.0" encoding="UTF-8" standalone="no"?>
<svg width="48px" height="48px" viewBox="0 0 48 48" version="1.1" xmlns="http://www.w3.org/2000/svg" xmlns:xlink="http://www.w3.org/1999/xlink" xmlns:sketch="http://www.bohemiancoding.com/sketch/ns">
    <!-- Generator: Sketch 3.3.2 (12043) - http://www.bohemiancoding.com/sketch -->
    <title>city</title>
    <desc>Created with Sketch.</desc>
    <defs></defs>
    <g id="Page-1" stroke="none" stroke-width="1" fill="none" fill-rule="evenodd" sketch:type="MSPage">
        <g id="city" sketch:type="MSArtboardGroup" fill="#000000">
            <path d="M30,23 L30,11 L24,5 L18,11 L18,15 L6,15 L6,43 L42,43 L42,23 L30,23 L30,23 Z M14,39 L10,39 L10,35 L14,35 L14,39 L14,39 Z M14,31 L10,31 L10,27 L14,27 L14,31 L14,31 Z M14,23 L10,23 L10,19 L14,19 L14,23 L14,23 Z M26,39 L22,39 L22,35 L26,35 L26,39 L26,39 Z M26,31 L22,31 L22,27 L26,27 L26,31 L26,31 Z M26,23 L22,23 L22,19 L26,19 L26,23 L26,23 Z M26,15 L22,15 L22,11 L26,11 L26,15 L26,15 Z M38,39 L34,39 L34,35 L38,35 L38,39 L38,39 Z M38,31 L34,31 L34,27 L38,27 L38,31 L38,31 Z" id="Shape" sketch:type="MSShapeGroup"></path>
        </g>
    </g>
</svg>