<?xml version="1.0" encoding="UTF-8" standalone="no"?>
<svg width="49px" height="48px" viewBox="0 0 49 48" version="1.1" xmlns="http://www.w3.org/2000/svg" xmlns:xlink="http://www.w3.org/1999/xlink" xmlns:sketch="http://www.bohemiancoding.com/sketch/ns">
    <!-- Generator: Sketch 3.3.2 (12043) - http://www.bohemiancoding.com/sketch -->
    <title>cutlery</title>
    <desc>Created with Sketch.</desc>
    <defs></defs>
    <g id="Page-1" stroke="none" stroke-width="1" fill="none" fill-rule="evenodd" sketch:type="MSPage">
        <g id="cutlery" sketch:type="MSArtboardGroup" transform="translate(0.500000, 0.000000)" fill="#000000">
            <path d="M15.71,26.4168728 L21.37,20.7568728 L7.34,6.7268728 C4.22,9.8468728 4.22,14.9168728 7.34,18.0368728 L15.71,26.4168728 L15.71,26.4168728 Z M29.28,22.7868728 C32.33,24.2168728 36.64,23.2068728 39.82,20.0268728 C43.65,16.1968728 44.38,10.7268728 41.45,7.7968728 C38.51,4.8668728 33.03,5.5968728 29.21,9.4268728 C26.03,12.6068728 25.03,16.9168728 26.45,19.9668728 C22,24.4068728 6.92,39.4868728 6.92,39.4868728 L9.75,42.3168728 L23.51,28.5568728 L37.27,42.3168728 L40.1,39.4868728 L26.34,25.7268728 L29.28,22.7868728 L29.28,22.7868728 Z" id="Shape" sketch:type="MSShapeGroup"></path>
        </g>
    </g>
</svg>