<?xml version="1.0" encoding="UTF-8" standalone="no"?>
<svg width="48px" height="48px" viewBox="0 0 48 48" version="1.1" xmlns="http://www.w3.org/2000/svg" xmlns:xlink="http://www.w3.org/1999/xlink" xmlns:sketch="http://www.bohemiancoding.com/sketch/ns">
    <!-- Generator: Sketch 3.3.2 (12043) - http://www.bohemiancoding.com/sketch -->
    <title>ellipsis</title>
    <desc>Created with Sketch.</desc>
    <defs></defs>
    <g id="Page-1" stroke="none" stroke-width="1" fill="none" fill-rule="evenodd" sketch:type="MSPage">
        <g id="ellipsis" sketch:type="MSArtboardGroup" fill="#000000">
            <path d="M12,20 C9.79,20 8,21.79 8,24 C8,26.21 9.79,28 12,28 C14.21,28 16,26.21 16,24 C16,21.79 14.21,20 12,20 L12,20 Z M36,20 C33.79,20 32,21.79 32,24 C32,26.21 33.79,28 36,28 C38.21,28 40,26.21 40,24 C40,21.79 38.21,20 36,20 L36,20 Z M24,20 C21.79,20 20,21.79 20,24 C20,26.21 21.79,28 24,28 C26.21,28 28,26.21 28,24 C28,21.79 26.21,20 24,20 L24,20 Z" id="Shape" sketch:type="MSShapeGroup"></path>
        </g>
    </g>
</svg>