<?xml version="1.0" encoding="UTF-8" standalone="no"?>
<svg width="49px" height="48px" viewBox="0 0 49 48" version="1.1" xmlns="http://www.w3.org/2000/svg" xmlns:xlink="http://www.w3.org/1999/xlink" xmlns:sketch="http://www.bohemiancoding.com/sketch/ns">
    <!-- Generator: Sketch 3.3.2 (12043) - http://www.bohemiancoding.com/sketch -->
    <title>face</title>
    <desc>Created with Sketch.</desc>
    <defs></defs>
    <g id="Page-1" stroke="none" stroke-width="1" fill="none" fill-rule="evenodd" sketch:type="MSPage">
        <g id="face" sketch:type="MSArtboardGroup" transform="translate(1.000000, 0.000000)" fill="#000000">
            <path d="M18,23.5 C16.62,23.5 15.5,24.62 15.5,26 C15.5,27.38 16.62,28.5 18,28.5 C19.38,28.5 20.5,27.38 20.5,26 C20.5,24.62 19.38,23.5 18,23.5 L18,23.5 Z M30,23.5 C28.62,23.5 27.5,24.62 27.5,26 C27.5,27.38 28.62,28.5 30,28.5 C31.38,28.5 32.5,27.38 32.5,26 C32.5,24.62 31.38,23.5 30,23.5 L30,23.5 Z M24,4 C12.95,4 4,12.95 4,24 C4,35.05 12.95,44 24,44 C35.05,44 44,35.05 44,24 C44,12.95 35.05,4 24,4 L24,4 Z M24,40 C15.18,40 8,32.82 8,24 C8,23.42 8.04,22.85 8.1,22.29 C12.81,20.2 16.57,16.34 18.52,11.55 C22.14,16.65 28.09,20 34.83,20 C36.38,20 37.89,19.81 39.33,19.47 C39.76,20.91 40,22.43 40,24 C40,32.82 32.82,40 24,40 L24,40 Z" id="Shape" sketch:type="MSShapeGroup"></path>
        </g>
    </g>
</svg>