<?xml version="1.0" encoding="UTF-8" standalone="no"?>
<svg width="48px" height="48px" viewBox="0 0 48 48" version="1.1" xmlns="http://www.w3.org/2000/svg" xmlns:xlink="http://www.w3.org/1999/xlink" xmlns:sketch="http://www.bohemiancoding.com/sketch/ns">
    <!-- Generator: Sketch 3.3.2 (12043) - http://www.bohemiancoding.com/sketch -->
    <title>faculty</title>
    <desc>Created with Sketch.</desc>
    <defs></defs>
    <g id="Page-1" stroke="none" stroke-width="1" fill="none" fill-rule="evenodd" sketch:type="MSPage">
        <g id="faculty" sketch:type="MSArtboardGroup" fill="#000000">
            <path d="M24,14 L24,6 L4,6 L4,42 L44,42 L44,14 L24,14 L24,14 Z M12,38 L8,38 L8,34 L12,34 L12,38 L12,38 Z M12,30 L8,30 L8,26 L12,26 L12,30 L12,30 Z M12,22 L8,22 L8,18 L12,18 L12,22 L12,22 Z M12,14 L8,14 L8,10 L12,10 L12,14 L12,14 Z M20,38 L16,38 L16,34 L20,34 L20,38 L20,38 Z M20,30 L16,30 L16,26 L20,26 L20,30 L20,30 Z M20,22 L16,22 L16,18 L20,18 L20,22 L20,22 Z M20,14 L16,14 L16,10 L20,10 L20,14 L20,14 Z M40,38 L24,38 L24,34 L28,34 L28,30 L24,30 L24,26 L28,26 L28,22 L24,22 L24,18 L40,18 L40,38 L40,38 Z M36,22 L32,22 L32,26 L36,26 L36,22 L36,22 Z M36,30 L32,30 L32,34 L36,34 L36,30 L36,30 Z" id="Shape" sketch:type="MSShapeGroup"></path>
        </g>
    </g>
</svg>