<?xml version="1.0" encoding="UTF-8" standalone="no"?>
<svg width="49px" height="48px" viewBox="0 0 49 48" version="1.1" xmlns="http://www.w3.org/2000/svg" xmlns:xlink="http://www.w3.org/1999/xlink" xmlns:sketch="http://www.bohemiancoding.com/sketch/ns">
    <!-- Generator: Sketch 3.3.2 (12043) - http://www.bohemiancoding.com/sketch -->
    <title>map</title>
    <desc>Created with Sketch.</desc>
    <defs></defs>
    <g id="Page-1" stroke="none" stroke-width="1" fill="none" fill-rule="evenodd" sketch:type="MSPage">
        <g id="map" sketch:type="MSArtboardGroup" transform="translate(1.000000, 0.000000)" fill="#000000">
            <path d="M41,6 C40.89,6 40.79,6.01 40.69,6.05 L30,10.2 L18,6 L6.73,9.8 C6.31,9.94 6,10.3 6,10.76 L6,41 C6,41.55 6.45,42 7,42 C7.11,42 7.21,41.99 7.31,41.95 L18,37.8 L30,42 L41.28,38.21 C41.7,38.06 42,37.7 42,37.24 L42,7 C42,6.45 41.55,6 41,6 L41,6 Z M30,38 L18,33.79 L18,10 L30,14.21 L30,38 L30,38 Z" id="Shape" sketch:type="MSShapeGroup"></path>
        </g>
    </g>
</svg>