<?xml version="1.0" encoding="UTF-8" standalone="no"?>
<svg width="48px" height="48px" viewBox="0 0 48 48" version="1.1" xmlns="http://www.w3.org/2000/svg" xmlns:xlink="http://www.w3.org/1999/xlink" xmlns:sketch="http://www.bohemiancoding.com/sketch/ns">
    <!-- Generator: Sketch 3.3.2 (12043) - http://www.bohemiancoding.com/sketch -->
    <title>share</title>
    <desc>Created with Sketch.</desc>
    <defs></defs>
    <g id="Page-1" stroke="none" stroke-width="1" fill="none" fill-rule="evenodd" sketch:type="MSPage">
        <g id="share" sketch:type="MSArtboardGroup" fill="#000000">
            <path d="M36,32.18 C34.48,32.18 33.11,32.77 32.07,33.72 L17.82,25.41 C17.93,24.96 18,24.49 18,24.01 C18,23.53 17.93,23.06 17.82,22.61 L31.92,14.38 C32.99,15.38 34.42,16 36,16 C39.31,16 42,13.31 42,10 C42,6.69 39.31,4 36,4 C32.69,4 30,6.69 30,10 C30,10.48 30.07,10.95 30.18,11.4 L16.08,19.63 C15.01,18.63 13.58,18.01 12,18.01 C8.69,18.01 6,20.7 6,24.01 C6,27.32 8.69,30.01 12,30.01 C13.58,30.01 15.01,29.39 16.08,28.39 L30.33,36.7 C30.23,37.12 30.17,37.56 30.17,38.01 C30.17,41.23 32.78,43.84 36,43.84 C39.22,43.84 41.83,41.23 41.83,38.01 C41.83,34.79 39.22,32.18 36,32.18 L36,32.18 Z" id="Shape" sketch:type="MSShapeGroup"></path>
        </g>
    </g>
</svg>