<?xml version="1.0" encoding="UTF-8" standalone="no"?>
<svg width="49px" height="48px" viewBox="0 0 49 48" version="1.1" xmlns="http://www.w3.org/2000/svg" xmlns:xlink="http://www.w3.org/1999/xlink" xmlns:sketch="http://www.bohemiancoding.com/sketch/ns">
    <!-- Generator: Sketch 3.3.2 (12043) - http://www.bohemiancoding.com/sketch -->
    <title>tag</title>
    <desc>Created with Sketch.</desc>
    <defs></defs>
    <g id="Page-1" stroke="none" stroke-width="1" fill="none" fill-rule="evenodd" sketch:type="MSPage">
        <g id="tag" sketch:type="MSArtboardGroup" transform="translate(0.500000, 0.000000)" fill="#000000">
            <path d="M42.82,23.16 L24.83,5.17 C24.1,4.45 23.1,4 22,4 L8,4 C5.79,4 4,5.79 4,8 L4,22 C4,23.11 4.45,24.11 5.18,24.83 L23.18,42.83 C23.9,43.55 24.9,44 26,44 C27.1,44 28.11,43.55 28.83,42.83 L42.83,28.83 C43.55,28.1 44,27.1 44,26 C44,24.89 43.55,23.89 42.82,23.16 L42.82,23.16 Z M11,14 C9.34,14 8,12.66 8,11 C8,9.34 9.34,8 11,8 C12.66,8 14,9.34 14,11 C14,12.66 12.66,14 11,14 L11,14 Z" id="Shape" sketch:type="MSShapeGroup"></path>
        </g>
    </g>
</svg>