<?xml version="1.0" encoding="UTF-8" standalone="no"?>
<svg width="48px" height="48px" viewBox="0 0 48 48" version="1.1" xmlns="http://www.w3.org/2000/svg" xmlns:xlink="http://www.w3.org/1999/xlink" xmlns:sketch="http://www.bohemiancoding.com/sketch/ns">
    <!-- Generator: Sketch 3.3.2 (12043) - http://www.bohemiancoding.com/sketch -->
    <title>train</title>
    <desc>Created with Sketch.</desc>
    <defs></defs>
    <g id="Page-1" stroke="none" stroke-width="1" fill="none" fill-rule="evenodd" sketch:type="MSPage">
        <g id="train" sketch:type="MSArtboardGroup" fill="#000000">
            <path d="M8,33 C8,36.87 11.14,40 15,40 L12,43 L12,44 L36,44 L36,43 L33,40 C36.87,40 40,36.87 40,33 L40,12 C40,5 32.84,4 24,4 C15.16,4 8,5 8,12 L8,33 L8,33 Z M24,36 C21.79,36 20,34.21 20,32 C20,29.79 21.79,28 24,28 C26.21,28 28,29.79 28,32 C28,34.21 26.21,36 24,36 L24,36 Z M36,22 L12,22 L12,12 L36,12 L36,22 L36,22 Z" id="Shape" sketch:type="MSShapeGroup"></path>
        </g>
    </g>
</svg>