<?xml version="1.0" encoding="UTF-8" standalone="no"?>
<svg width="48px" height="48px" viewBox="0 0 48 48" version="1.1" xmlns="http://www.w3.org/2000/svg" xmlns:xlink="http://www.w3.org/1999/xlink" xmlns:sketch="http://www.bohemiancoding.com/sketch/ns">
    <!-- Generator: Sketch 3.3.2 (12043) - http://www.bohemiancoding.com/sketch -->
    <title>twitter</title>
    <desc>Created with Sketch.</desc>
    <defs></defs>
    <g id="Page-1" stroke="none" stroke-width="1" fill="none" fill-rule="evenodd" sketch:type="MSPage">
        <g id="twitter" sketch:type="MSArtboardGroup" fill="#000000">
            <path d="M39.9,16.1 L39.9,17.2 C39.9,28 31.6,40.5 16.6,40.5 C12,40.5 7.6,39.2 4,36.8 C4.7,36.9 5.3,36.9 6,36.9 C9.8,36.9 13.4,35.6 16.2,33.4 C12.6,33.3 9.6,31 8.5,27.7 C9,27.8 9.5,27.8 10,27.8 C10.7,27.8 11.5,27.7 12.2,27.5 C8.4,26.7 5.6,23.4 5.6,19.5 L5.6,19.4 C6.7,20 8,20.4 9.3,20.4 C7.1,18.9 5.6,16.4 5.6,13.6 C5.6,12.1 6,10.7 6.7,9.5 C10.7,14.5 16.8,17.7 23.6,18.1 C23.5,17.5 23.4,16.9 23.4,16.2 C23.4,11.7 27.1,8 31.6,8 C34,8 36.1,9 37.6,10.6 C39.5,10.2 41.2,9.6 42.8,8.6 C42.2,10.5 40.9,12.1 39.2,13.1 C40.9,12.9 42.4,12.5 43.9,11.8 C42.9,13.4 41.5,14.9 39.9,16.1 L39.9,16.1 L39.9,16.1 Z" id="Shape" sketch:type="MSShapeGroup"></path>
        </g>
    </g>
</svg>