<?xml version="1.0" encoding="UTF-8" standalone="no"?>
<svg width="48px" height="48px" viewBox="0 0 48 48" version="1.1" xmlns="http://www.w3.org/2000/svg" xmlns:xlink="http://www.w3.org/1999/xlink" xmlns:sketch="http://www.bohemiancoding.com/sketch/ns">
    <!-- Generator: Sketch 3.3.2 (12043) - http://www.bohemiancoding.com/sketch -->
    <title>zoom-out</title>
    <desc>Created with Sketch.</desc>
    <defs></defs>
    <g id="Page-1" stroke="none" stroke-width="1" fill="none" fill-rule="evenodd" sketch:type="MSPage">
        <g id="zoom-out" sketch:type="MSArtboardGroup" fill="#000000">
            <path d="M32.6,29.2 L30.8,29.2 L30.2,28.6 C32.4,26 33.8,22.6 33.8,18.9 C33.8,10.7 27.1,4 18.9,4 C10.7,4 4,10.7 4,18.9 C4,27.1 10.7,33.8 18.9,33.8 C22.6,33.8 26,32.5 28.6,30.2 L29.2,30.8 L29.2,32.6 L40.6,44 L44,40.6 L32.6,29.2 L32.6,29.2 Z M18.9,29.2 C13.2,29.2 8.6,24.6 8.6,18.9 C8.6,13.2 13.2,8.6 18.9,8.6 C24.6,8.6 29.2,13.2 29.2,18.9 C29.2,24.6 24.6,29.2 18.9,29.2 L18.9,29.2 L18.9,29.2 Z M13.2,17.8 L24.6,17.8 L24.6,20.1 L13.2,20.1 L13.2,17.8 L13.2,17.8 Z" id="Shape" sketch:type="MSShapeGroup"></path>
        </g>
    </g>
</svg>