<?xml version="1.0" encoding="utf-8"?>
<!-- Generator: Adobe Illustrator 18.0.0, SVG Export Plug-In . SVG Version: 6.00 Build 0)  -->
<!DOCTYPE svg PUBLIC "-//W3C//DTD SVG 1.1//EN" "http://www.w3.org/Graphics/SVG/1.1/DTD/svg11.dtd">
<svg version="1.1" id="Layer_1" xmlns="http://www.w3.org/2000/svg" xmlns:xlink="http://www.w3.org/1999/xlink" x="0px" y="0px"
	 viewBox="0 0 595.3 841.9" enable-background="new 0 0 595.3 841.9" xml:space="preserve">
<path fill="#002E6D" d="M200.2,243.5l0.6,1.6c-0.1,0.1-8.6,11.2-12.2,15.9c9.7,8.4,11,20.8,11,29.5c0,3.9-0.3,7.9-0.5,10.8l0,0.2
	c0,0-4,23.7-4,23.7c-0.1,0.8-0.4,3.3-1.7,12.5c-0.7,6-1,12-1,17.7l0.1,4.9c1,37.6,23.5,67.6,60.2,80.2c0.1,0.1,5.1,1.9,5.1,1.9
	l3.2,1.2l-0.3-0.1l0.9,0.4c11.1,4.7,22.5,9.7,32.2,18.6c12.1-10.5,26-16.1,41.5-21.7c26.6-9.4,36.3-21.2,43.4-29.8
	c0,0,0.2-0.3,0.2-0.3c10.8-12.6,17.5-32.9,17.5-53.1l0-1.4c0,0.1-0.5-12.4-0.5-12.9c-0.1-0.6-1.4-13.7-1.5-13.9
	c0-0.2-2.2-12.9-2.2-12.9c0,0-2-12.7-2-12.7c-0.5-3.7-0.7-7.1-0.7-10.3l0-2.3c0,0,0-0.3,0-0.3c0-13,3.7-22.6,11.2-29.3l0.3-1.8
	l-20.4-27.1l-1.4,0.4l-9-11.8c0,0,0.1,0.1,0.1,0.1c-0.3-0.3-0.8-1-2.4-3c-0.5,0.5-0.9,1-0.9,1c-6.5,6.2-15.9,5.9-24.2,5.1l-0.1,0
	l-14.7-2.4l0.2,0l-12-1.8c-8.7-1.3-21.6-2.5-33.7-1.2c0,0-13.5,1.6-13.9,1.6c-0.3,0-16.6,2.6-16.6,2.6c-6.9,1.2-22.4,3.9-30.9-5.2
	c-2.7,3.5-9.9,12.8-12.2,15.8l-1.2-0.4L200.2,243.5z"/>
<g>
	
		<image overflow="visible" opacity="0.95" enable-background="new    " width="94" height="59" xlink:href="FE42A75F094F122B.png"  transform="matrix(4.308 0 0 4.2805 93.3268 126.6221)">
	</image>
	<g>
		<path fill="#FFFFFF" d="M241.7,223.4l5.1-0.5l21.8-3.4l14.7-1.7c14.2-1.6,28.4,0.6,41.8,2.5l19.4,3.2c8.2,0.6,17,0.4,22.6-5.7
			l1.1-1.2l12.4,16.3c-2,0.7-4.6,1.7-6.9,2.6l-0.3-0.1l-6.3-8.3c-6.5,3.7-14.7,4.2-22.6,3.7l-11.3-1.8l-14-2.3l-15-1.8
			c-9-0.7-18.1-0.4-26.8,0.6l-12.4,1.8l-20.6,3.1c-8,0.7-15.6-0.3-22-3.8l-7,9.1c-2.8-0.5-5-1.3-7.5-2.1l13.6-17.7
			C226.3,222.7,234.1,223.2,241.7,223.4z"/>
	</g>
</g>
<g enable-background="new    ">
	
		<image overflow="visible" opacity="0.75" enable-background="new    " width="69" height="70" xlink:href="FE42A75F094F1229.png"  transform="matrix(4.3543 0 0 4.3543 143.453 211.5829)">
	</image>
	<g>
		<path fill="#FFFFFF" d="M325.9,437.9c-11.1,4.3-22,9.4-31.9,16.6c-9.9-7.3-20.6-12.4-31.7-16.8c-42.4-12.7-65.5-51.5-63.9-81.8
			l0.5-12.4l1.5-13.5l3.9-23.7l1.1-8.3c0.4-13.3-0.1-27.6-9-37.6l7.3-9.8c0,0-2.1-2.5-3.6-7.1c-4.3,5.6-9.1,12-13.3,17.5
			c3.8,3.4,6.9,7.3,8.6,11.6c3.4,9.4,3.4,20.9,2,31.2l-3.2,18.3l-1.9,13.5c-1.1,8.9-1.4,18.4-1,27.3c0.8,26.4,16.8,64.8,62.3,79.2
			c14.3,5.5,28.4,11.3,40.4,22c8.6-7.8,18.5-12.7,28.6-17.1l12-4.6c49.6-16.3,64.1-56.7,63.2-86.9l-0.5-13.1l-1.2-11.2l-4.1-25.5
			c-1.5-8.1-1.2-17.3,0.1-25.5c0.5-2.8,2.9-12.2,10.6-18.4c-2.8-4.5-0.4-0.8-10.7,6.8c0,0-0.9,5.4-6.9,9.6c-1.6,8.4-1.9,19-0.3,27.7
			l2.6,15.6l1.9,12.5c0.9,8.8,1.8,17.9,1.2,27.2C389.8,386.3,375,424.1,325.9,437.9z"/>
	</g>
</g>
<linearGradient id="SVGID_1_" gradientUnits="userSpaceOnUse" x1="59.5224" y1="811.8762" x2="77.5389" y2="783.1802" gradientTransform="matrix(4.252 0 0 -4.252 0 3703.0217)">
	<stop  offset="0.436" style="stop-color:#1C4585"/>
	<stop  offset="1" style="stop-color:#091E36"/>
</linearGradient>
<path fill="url(#SVGID_1_)" d="M385.1,278.6c-1.6,8.4-1.9,19-0.3,27.7l2.6,15.6l1.9,12.5c0.9,8.8,1.8,17.9,1.2,27.2
	c-0.6,25-15.5,62.9-64.5,76.7c-11.1,4.3-22,9.4-31.9,16.6c-9.9-7.3-20.6-12.4-31.7-16.9c-42.4-12.7-65.5-51.5-63.9-81.8l0.5-12.4
	l1.5-13.5l3.9-23.7l1.1-8.3c0.4-13.3-0.1-27.6-9-37.6l19.1-24.8l7-9.1c6.4,3.6,14.1,4.5,22,3.8l20.6-3.1l12.4-1.8
	c8.7-1,17.9-1.3,26.8-0.6l15,1.8l14,2.3l11.3,1.8c7.9,0.5,16,0,22.6-3.7l6.3,8.3l23.5,28.9c-1.2,1.2-2.9,2.7-5.1,4.4
	C392,269,391.1,274.4,385.1,278.6z"/>
<g>
	
		<image overflow="visible" opacity="0.39" enable-background="new    " width="25" height="33" xlink:href="FE42A75F094F122F.png"  transform="matrix(4.1802 0 0 4.2224 185.899 297.5722)">
	</image>
	<g>
		<g>
			<path fill="#FFFFFF" d="M222.7,307.4l-1.6,3.7l-5.1-1.8l2.7,5l-4.8,3.4l2.2,0.4l3.3,0.8l-0.4,5.5l1-0.9l3.5-2.9l4.2,3.7
				c0,0-0.3-5.8-0.3-5.8c0,0,5.7-0.5,5.7-0.5l-4.8-3.7l2.7-4.9c0,0-5.6,1.6-5.6,1.6l-1-2.6l-1.1-2.8L222.7,307.4z M222.7,307.4
				l0.6-1.6l1.1,2.8l1,2.6l5.6-1.6l-2.7,4.9l4.8,3.7c0,0-5.7,0.5-5.7,0.5c0,0,0.3,5.8,0.3,5.8l-4.2-3.7l-3.5,2.9l-1,0.9l0.4-5.5
				l-3.3-0.8l-2.2-0.4l4.8-3.4l-2.7-5l5.1,1.8L222.7,307.4z"/>
			<path fill="#FFFFFF" d="M219.3,352.9c1.8-0.3,3.7-1,5.6-1.6l-2.7,4.8c1.4,1.4,3.1,2.4,4.7,3.7l-5.7,0.5c0,1.9,0.3,3.9,0.3,5.9
				c-1.4-1.3-2.8-2.5-4.2-3.8c-1.5,1.2-3,2.4-4.5,3.8l0.5-5.6c-1.7-0.7-3.7-0.7-5.4-1.2c1.6-1.1,3.2-2.1,4.8-3.3l-2.6-4.8
				c1.6,0.4,3.4,1.1,5.1,1.7c0.8-1.6,1.4-3.5,2.1-5.2L219.3,352.9z"/>
			<path fill="#FFFFFF" d="M255.3,352c0-0.1,0.6-1.8,0.6-1.7c0,0,0.6,1.9,1.1,3.3c-0.5-1.4-1.1-3.3-1.2-3.4
				C255.9,350.2,255.4,351.9,255.3,352z M255.3,352l-1.2,3c0,0-4.9,0.1-4.9,0.1l4.1,3.1l-1.5,5l4.1-3l4.2,3l-1.6-5l4.1-3.1h-5
				c0,0-0.3-0.8-0.5-1.4c0.3,0.8,0.5,1.4,0.5,1.4h5l-4.1,3.1l1.6,5l-4.2-3l-4.1,3l1.5-5l-4.1-3.1l4.9-0.1L255.3,352L255.3,352z"/>
			<path fill="#FFFFFF" d="M257.9,389.3c1.8-0.3,3.6-1.2,5.5-1.6l-2.7,4.8l4.7,3.7c-1.8,0.3-3.9,0.3-5.8,0.7l0.4,5.7l-4.2-3.9
				l-4.4,3.8c0-1.8,0.3-3.6,0.4-5.6c-1.8-0.4-3.7-0.8-5.5-1.2c1.6-1.2,3.3-2.1,4.8-3.3l-2.6-4.9l5.1,1.8l2.2-5.3L257.9,389.3z"/>
			<path fill="#FFFFFF" d="M256.1,314.4c-0.8,1.7-1.2,3.6-2.2,5.2l-5.1-1.7l2.6,4.9l-4.8,3.3c1.8,0.5,3.8,0.6,5.6,1.2
				c-0.3,1.8-0.5,3.9-0.6,5.6c1.4-1.4,3-2.5,4.4-3.8l4.3,3.8c0-2-0.3-3.9-0.3-5.8l5.7-0.5c-1.6-1.2-3.1-2.5-4.7-3.6l2.6-5
				c-1.9,0.5-3.7,1.3-5.6,1.5L256.1,314.4z"/>
		</g>
	</g>
</g>
<g opacity="0.3">
	
		<linearGradient id="SVGID_2_" gradientUnits="userSpaceOnUse" x1="44.6578" y1="802.7319" x2="91.9045" y2="785.5356" gradientTransform="matrix(4.252 0 0 -4.252 0 3703.0217)">
		<stop  offset="0" style="stop-color:#FFFFFF"/>
		<stop  offset="0.5375" style="stop-color:#FFFFFF;stop-opacity:0"/>
	</linearGradient>
	<path fill="url(#SVGID_2_)" d="M371.3,237.4L371.3,237.4L371.3,237.4l-4.8-6.3c-4.6,2-10.1,3-16.7,3c-1.6,0-3.3-0.1-5.1-0.2l-0.1,0
		l-0.1,0l-11.3-1.8l-14-2.3l-14.8-1.7c-3.1-0.3-6.4-0.4-9.6-0.4c-5.3,0-10.8,0.3-16.5,1l-12.4,1.7l-20.6,3.1l-0.1,0l-0.1,0
		c-1.7,0.1-3.3,0.2-4.9,0.2c-6.2,0-11.7-1.1-16.5-3.2l-5.4,7l-17.6,22.8c8.2,10.8,8.5,25.1,8.1,37.8l0,0.2l0,0.2l-1.1,8.3l0,0.1
		l0,0.1l-3.9,23.6l-1.5,13.3l-0.5,12.3c-0.7,14.8,4.7,31.4,14.9,45.5c8,11.1,22.7,25.9,46.8,33.1l0.1,0l0.1,0.1
		c12.7,5.1,22.2,10,30.5,15.9c8.3-5.8,17.9-10.7,30.7-15.6l0.1-0.1l0.1,0c21.4-6,37.8-17.1,48.7-32.9c11.3-16.3,13.3-32.6,13.5-40.8
		v-0.1l0-0.1c0.5-9.2-0.3-18.1-1.2-26.6l-1.9-12.5l-2.6-15.6c-1.5-8.6-1.4-19.4,0.3-28.8l0.2-1.3l1.1-0.7c4.8-3.3,5.6-7.5,5.6-7.5
		l0.2-1.3l1-0.8c1-0.7,1.9-1.4,2.7-2.1L371.3,237.4z"/>
</g>
<path fill="#FFFFFF" d="M255.2,316.5l-1.3,3l-5.1-1.7l2.7,4.9l-4.8,3.3l2.6,0.6l3,0.7l-0.5,5.6l2.8-2.4l1.6-1.3l4.3,3.8
	c0,0-0.3-5.8-0.3-5.8l5.7-0.5l-1.3-1l-3.4-2.6l2.6-5l-2.1,0.6l-3.5,0.9l-2-5.2L255.2,316.5z M255.2,316.5l0.9-2.2l2,5.2l3.5-0.9
	l2.1-0.6l-2.6,5l3.4,2.6l1.3,1c0,0-5.7,0.5-5.7,0.5c0,0,0.3,5.8,0.3,5.8l-4.3-3.8l-1.6,1.3l-2.8,2.4l0.5-5.6l-3-0.7l-2.6-0.6
	l4.8-3.3l-2.7-4.9l5.1,1.7L255.2,316.5z"/>
<g>
	<path fill="#FFFFFF" d="M225.4,311.2l5.6-1.6l-2.7,4.9l4.8,3.7l-5.7,0.5c0,1.9,0.3,3.8,0.3,5.8l-4.2-3.7c-1.5,1.1-3,2.5-4.5,3.7
		l0.4-5.5c-1.7-0.7-3.7-0.7-5.4-1.2l4.8-3.4l-2.7-5l5.1,1.8c1.2-1.9,1.5-3.9,2.1-5.2C224.1,307.5,224.6,309.4,225.4,311.2z"/>
	<path fill="#FFFFFF" d="M258.1,319.5c1.8-0.2,3.7-1,5.6-1.5l-2.6,5c1.6,1.1,3.1,2.4,4.7,3.6l-5.7,0.5c0,1.8,0.3,3.8,0.3,5.8
		l-4.3-3.8c-1.4,1.2-3,2.4-4.4,3.8c0.1-1.7,0.2-3.8,0.5-5.6c-1.8-0.6-3.8-0.7-5.6-1.2l4.8-3.3l-2.7-4.9l5.1,1.7
		c1-1.6,1.4-3.5,2.2-5.2L258.1,319.5z"/>
	<path fill="#FFFFFF" d="M216.3,350l-1.2,2.9l-0.4-0.1l-4.7-1.6l2.6,4.8l-3.3,2.3l-1.5,1l2.4,0.5l3,0.7l-0.5,5.6l4.2-3.6l0.3-0.2
		l2.4,2.2l1.7,1.6c0,0-0.3-5.9-0.3-5.9c0,0,5.7-0.5,5.7-0.5l-2-1.5l-2.7-2.2l2.7-4.8l-1.8,0.5l-3.8,1l-2-5.2L216.3,350z M216.3,350
		l0.9-2.3l2,5.2l3.8-1l1.8-0.5l-2.7,4.8l2.7,2.2l2,1.5c0,0-5.7,0.5-5.7,0.5c0,0,0.3,5.9,0.3,5.9l-1.7-1.6l-2.4-2.2l-0.3,0.2
		l-4.2,3.6l0.5-5.6l-3-0.7l-2.4-0.5l1.5-1l3.3-2.3l-2.6-4.8l4.7,1.6l0.4,0.1L216.3,350z"/>
	<path fill="#FFFFFF" d="M257.6,355h5l-4.1,3.1l1.6,5l-4.2-3l-4.1,3l1.5-5c-1.3-1-2.6-2-4.1-3.1l4.9-0.1c0.9-1.4,1.2-3.2,1.8-4.8
		C256.4,351.8,256.9,353.4,257.6,355z"/>
	<path fill="#FFFFFF" d="M253.7,389.3l-5.1-1.8l2.6,4.9l-2.9,2.1l-1.9,1.3l5.5,1.2l-0.2,2.1l-0.2,3.5l4.4-3.8l4.2,3.9
		c0,0-0.4-5.7-0.4-5.7l5.8-0.7l-4.7-3.7l2.7-4.8l-2.6,0.8l-2.9,0.8l-2-5.3L253.7,389.3z M255.9,384l2,5.3l2.9-0.8l2.6-0.8l-2.7,4.8
		l4.7,3.7c0,0-5.8,0.7-5.8,0.7c0,0,0.4,5.7,0.4,5.7l-4.2-3.9l-4.4,3.8l0.2-3.5l0.2-2.1l-5.5-1.2l1.9-1.3l2.9-2.1l-2.6-4.9l5.1,1.8
		L255.9,384z"/>
</g>
<g opacity="0.4">
	
		<image overflow="visible" enable-background="new    " width="117" height="124" xlink:href="FE42A75F094F1228.png"  transform="matrix(4.3543 0 0 4.3543 43.3034 67.89)">
	</image>
</g>
<g>
	
		<image overflow="visible" opacity="0.75" enable-background="new    " width="57" height="51" xlink:href="FE42A75F094F1226.png"  transform="matrix(4.3543 0 0 4.3543 186.9963 211.5829)">
	</image>
	<g>
		<g>
			
				<linearGradient id="SVGID_3_" gradientUnits="userSpaceOnUse" x1="72.6709" y1="808.9084" x2="97.2583" y2="780.1956" gradientTransform="matrix(4.252 0 0 -4.252 0 3703.0217)">
				<stop  offset="0.4162" style="stop-color:#1C4585"/>
				<stop  offset="1" style="stop-color:#091E36"/>
			</linearGradient>
			<path fill="url(#SVGID_3_)" d="M411.6,231.7l-1.4,0.6c1.3-1.7,2.5-3.9,3.8-6.9l1.8-4l-4.3,0.9c-7.4,1.6-14.6,4.3-21.6,7
				c-2,0.8-3.9,1.5-5.9,2.2c-2.6,0.9-5.2,1.9-7.8,2.8c-2.3,0.8-4.5,1.7-6.8,2.4c-6.1,1.9-12.4,3.3-18.7,3.9
				c-1.8,0.2-3.6,0.3-5.3,0.4c-2.8,0.3-5.6,0.5-8.3,0.8c-3.4,0.4-6.7,1-9.9,1.9c-3,0.9-5.8,2.2-8.2,4.2c-1.3,1.2-2.7,2.7-3.4,4.4
				c-1.3,2.8-1.9,5.7-2.3,8.3c-0.8,4.3-3.9,10-6.4,9.1c-2.5-0.8-3.1-2.6-3-4.8c0.1-2.2,2.2-4.4,2.2-4.4s1.7,1.2,3.8-0.7
				c1-0.9,1.4-2.4,1.7-3.6c0.2-0.7,0.4-1.5,0.5-2.3c0.1-0.6,0.4-1.3,0.3-2c-0.1-0.4-0.5-0.6-0.7-0.8c-0.4-1-1.2-1.6-2.3-1.8
				c-0.2-0.5-0.5-1-1-1.4c-0.4-0.3-1-0.5-1.5-0.6c-0.6-1.1-2.2-3.2-5.4-4.3c-1.9-0.6-3.7-0.6-5.4-0.4l-1-0.3c-3.2-1-8-0.6-10,2.5
				c-0.6,0.9-1.2,2.6-1,3.6c0,0.2,0.1,0.5,0.2,0.7c-0.2,0.4-0.3,0.8-0.3,1.2c0,0.2,0,0.4,0.1,0.6l0,0.2c0,0.2-0.6,1.1-0.7,1.3
				c-0.2,0.4-0.4,0.9-0.5,1.3c-0.2,0.6-0.4,1.2-0.4,1.8c0,0.7,0.3,1.1,0.7,1.7c-0.1,0.4-0.5,1.6-0.5,1.6s-0.8,2.8-0.8,2.8
				c-0.4,1.6,0.1,2.4,1.8,2.5c-0.2,0,0.9,2.3,1,2.5c0.5,0.6,0.5,1.3,0.9,1.9c0.2,0.4,0.6,0.8,1,1c1,0.6,2.3,0.5,3.4,0.2
				c-0.1,0.7-0.3,1.8-0.3,1.8c0,0-0.6,0.1-0.6,0.1c-0.4,0.1-1,0.2-1.6,0.5c0,0-1.5-1.1-1.5-1.1c-3.2-2.4-6.3-5.3-6.5-9.6
				c0-0.8,0.1-1.6-0.2-2.3c-0.3-0.7-1-1.1-1.3-1.8c-0.3-0.7-0.2-1.6-0.4-2.4c-0.2-1-0.4-1.9-0.7-2.9c-0.6-1.9-1.6-3.8-2.9-5.4
				c-2.8-3.4-8.3-3.8-12.3-4.3c-1.5-0.2-3-0.3-4.5-0.4c-1.3-0.1-2.7-0.2-4-0.3c-5.5-0.3-10.7-0.6-15.7-2.1c-0.3-0.1-7.1-2.1-12-3.1
				c-2.3-0.5-4.7-0.9-7-1.4c-1.6-0.3-3.2-0.6-4.7-1c-2.8-0.7-5.5-1.4-8.2-2.1c-2.6-0.7-5.3-1.4-7.9-2c-0.1,0-1.7-0.4-1.7-0.4
				c0,0,0.5,2.8,1.1,5c0.6,2.2,3.4,7.7,3.4,7.7c1.8,4,5.1,11.4,12.1,16.8l1.4,0.8c0.3,0.9,0.6,1.8,1,2.6c0.9,2.4,2.6,4.4,4.5,6
				c1.4,1.1,2.9,2.2,4.5,2.9c1.2,0.6,3.5,1.9,4.8,1.6c-0.4,0.1-0.8,0.2-1,0.3c-0.7,0.2-1.3,0.5-2,0.7c-0.7,0.3,0.3,0.9-0.4,1.3
				c-1,0.5-3.5,0.9-4.3,1.6c-0.8,0.8-0.5,1.1-1.2,2c-0.5,0.6-2.2,1.7-2.6,2.4c-0.2,0.3-0.4,0.7-0.5,1c-0.1,0.2-0.3,1-0.5,1.1
				c-1.3,0.7-2.6,1.8-3.3,3.1c-0.4,0.8-0.3,1.8,0,2.7c0.2,0.5,0.5,1,0.8,1.5c0.5,0.7,0.8,0.4,1.4,0c0.3-0.2,0.6-0.4,0.8-0.5
				c0.4-0.3,0.7-0.4,1-0.5c-0.2,0.1-0.2,1.7-0.2,1.9c0,0.5,0.2,1,0.4,1.5c0.4,0.9,1,1.6,1.7,2.3c0.4,0.4,0.8,0.8,1.2,1.2
				c0.3,0.2,0.6,0.5,0.9,0.2c0.3-0.3,0.3-0.8,0.4-1.1c0.1-0.4,0.9-3.3,1.4-3.2c0.2,0,2.1,2.2,2.6,2.4c0.2,0.1,0.3,0.3,0.6,0.2
				c0.3-0.1,0.4-0.5,0.5-0.7c0.3-0.6,0.6-1.3,0.8-1.9c0.3-0.9,0.2-2.3,0.4-2.4c0.2-0.1,1.2,0.2,1.3,0.2c0.7,0,1.1,0.2,1.3-0.5
				c0.1-0.5,0.3-1.8,0.8-2c0.6-0.3,0.9,0.5,1.5,0.2c0.7-0.4,1.8-2.2,2.5-2.5c0.7-0.3,1.4,0.1,2,0.2c0.5,0.1,0.9-0.1,1.1,0.1
				c0.4,0.5-0.2,1-0.8,2.1c-0.2,0.3,1.5,0.7,1.3,1.1c-0.3,0.4-1.9,1.3-2.3,1.6c-0.5,0.5-0.9,1.1-1.3,1.7c-0.3,0.5,1,0.6,0.8,1
				c-0.6,1.5-3,2.8-4.7,3.2c-0.5,0.1-1.1,0.2-1.6,0.3c-0.8,0.3-0.2,1.6-0.2,2.1c0.1,0.8,0.6,1.5,1.3,1.9c0.2,0.1,0.5,0.2,0.8,0.3
				c0,0-0.7,0.8-0.8,0.9c-0.3,0.3-0.6,0.5-0.9,0.8c-0.3,0.3-1.9,1-1.8,1.6c0.1,0.3,1,0.5,1.2,0.7c0.5,0.3,0.9,0.6,1.4,0.8
				c1,0.4,2.1,0.2,3.1-0.1c0.5-0.2,1-0.3,1.5-0.5c0.4-0.2,1-0.5,1.4-0.6c0.7,0,1.5,0.4,2.2,0.3c1.5-0.2,3.4-2.4,4.7-3.1
				c1.3-0.7,2.2-0.3,3.3-1.3c1.2-1.2,0.8-2,1.8-3.4c0.9-1.3,2.7-3.2,3.1-4.7c0.2-1,0.4-2,0.6-2.9c1.5,0.8,3,1.6,4.5,2.4
				c0.7,0.4,1.3,1.2,1.9,1.7c1.1,0.9,2.4,2,3.9,2.2c0.7,0.1,1.3,0,2-0.3c0.2-0.1,1.3-0.6,1.5-0.5c0.5,0.4,1.2,0.6,1.9,0.7
				c-0.1,0-0.4,1.2-0.4,1.4c0,0.2,0.2,3.4,0.4,3.4c0,0,2.9-0.3,3.2-0.4c-0.2,0.6-0.4,1.3-0.4,2c0.1,0.9,0.5,1.8,0.8,2.6
				c0.2,0.4,3.7-0.7,3.6-0.8c0.4,1.3,0.9,2.4,1.4,3.2c0.8,1.2,1.4,2.6,2.3,3.7c0-0.1-0.1,0.5-0.1,0.5s-4.8,16.9-4.1,20.7l0.4,2.4
				c-0.5,1.3-0.5,3,0.1,5.3c-0.7,0.7-1,1.5-1,2.4c0,1.9,0.8,3.6,1.4,5.4c1,3.2,0.4,8.6,0.4,10.1c0.1,1.2,0.2,2.5,0.2,3.7
				c0.2,3.7,0.1,7.3,1.4,10.8c0.5,1.3,1.1,2.4,2,3.4c-0.1,0.7-0.2,1.7-0.2,1.7c-0.2,1.5-0.3,3.2-0.3,4.8c0,5.6,1.1,11.3,3.3,16.5
				c1.4,3.3,4.1,5.8,7.6,6.7c0.9,0.2,1.8,0.4,2.7,0.5c2.9,0.3,5.7-0.1,8.6-0.7c1.7-0.4,3.2-0.8,4.4-2.1c1.2-1.2,2-3,2.7-4.5
				c-0.1,0.5-0.1,0.9-0.1,1.3c0,0.9,0.2,1.7,0.5,2.5c1.4,3.6,5.2,4.6,5.6,4.7c3.4,0.6,5.5,0,7.1-0.9c0,0.2,0,0.4,0.1,0.6
				c0.8,1.7,2.3,2.2,8.2,0.7c-0.2,0.5-0.4,1-0.4,1.5c0,0.9,0.3,1.7,1,2.3c2.4,2.4,8.2,0.9,9.5,0.3c2.2-1.1,3.6-2.1,4.6-3.1
				c-0.3,0.3,2.5,1.7,2.7,1.7c1.9,0.5,4,0.4,6,0c2.6-0.5,5.4-1.4,7.6-3c1.7-1.2,2.8-2.9,3.8-4.8c0.5-1.1,1-2.2,1.4-3.3l1.2-3
				c0.3-0.8,0.5-1.4,3.7-1l6.5,0.7l-4.6-4.6c-2.4-2.3-5.1-6-7.8-9.6c-3-4-6.1-8.2-9-11l-9.4-11.3c0.4-0.2,0.8-0.5,1.1-1
				c0,0,2-0.2,2-0.2c2.4-0.2,5.4-2.4,5.9-4.8c0.4-1.5-0.5-2.8-1.1-4.2c-0.2-0.5-0.4-1.2-0.8-1.7c-0.6-0.7-1.4-1-2.2-1.5
				c-0.9-0.6-1.8-1.2-2.7-1.8c-1.9-1.2-3.8-2.4-5.6-3.5c-3.8-2.4-7.6-4.7-11.5-6.9c-2-1.2-4.9-1.5-6.4-3.4c-1-1.3-1.6-2.9-2.5-4.3
				c-0.9-1.5-1.9-3-2.8-4.5c-0.7-1.2-1.4-2.4-2-3.7c-1-2-1.7-4-2.6-6c0,0,1.3-1,1.4-1.1c0.2-0.2,2.1-2.8,1.8-3
				c0.4,0.3,0.9,0.6,1.3,0.9c0,0,3.5,2.4,3.5,2.4c0.4,0.3,1.5-1.1,1.7-1.3c0.3-0.4,1.9-2.8,1.4-3.3c0.3,0.3,0.6,0.7,1,1l1.6,1.2
				l1.4-1.5c1.3-1.4,1.7-3,1.7-4.5c0-0.7-0.1-1.3-0.2-2c0.8,0.2,1.5,0.4,1.9,0.7l2.7,2.1l0.8-3.3c0.1-0.5,0.2-1,0.2-1.5
				c0-0.6-0.2-1.1-0.3-1.7c0.2,0.1,3.4,1.3,3.4,1.3l0.4-2.8c0-0.3,0.1-0.5,0.1-0.8c0-1.5-0.6-2.9-1.2-4.1c0.2-0.3,0.4-0.5,0.6-0.8
				c2.3,1.5,5.2,2.7,8.6,1.8l2.7-0.7c0,0-0.1-0.2-0.1-0.2c3.2,1.2,6.5,1.8,11.1-0.5l1.9-0.9c0,0-0.3-0.7-0.6-1.3
				c3.5,0.6,7.4,1,10.2-0.8l1.8-1.2l-1.2-1.9c-0.1-0.1-0.2-0.2-0.3-0.4c2.4-0.2,4.8-1,6.1-3.3c0.4-0.8,0.3-1.3,0-2.1
				c1-0.1,2-0.2,3-0.6c3.5-1.3,6.1-4.4,7.6-9.2l0.2-0.7c3-1.8,5.6-4.3,8.1-7.9l2.3-5.3c1.2-1.4,2.2-3,2.7-4.3c0.4-0.7,1.3-2.5,0.1-4
				c-0.1-0.1-0.1-0.1-0.2-0.2c3.6-2.6,7.6-8.5,9.1-11.4l3.1-5.9L411.6,231.7z"/>
		</g>
	</g>
</g>
<path fill="#FFFFFF" d="M398.2,229.1l-16.5,6.1l-11.4,4.1l-7.3,2c-8.5,2.7-18.3,2.2-27.3,3.5c-6.9,1.2-14.7,2.4-18.4,9.4
	c-3.7,5.6-1.4,14.9-9.2,17.7c1,0,2.5,0,3.5,0.2c1.3-0.4,3.7,0.3,5,0.7c5.3,1.5,7,3.5,12.5,4.6c2.7,0.6,5.5,2,8.2,0.6
	c-1.4-1.4-4.1-2.2-5.9-2.1c1.8-1,4.5-2.1,3.3-4.2c-2.1-1.4-4.3,0.4-6.1,0.7c0.8-1.4,4.5-4.5,2.1-6.4c-2.7-1.1-4.8,0.1-6.8,1.7
	c0.7-1.6,3.3-3.8,1.4-5.4c-1.9-1.7-4.5-0.2-5.2,0c-0.3-1.2-1.2-3.7-2.4-4.6l0.1-0.1c0.9,0.1,1.9,0.5,2.7,1.3
	c5.5-3.9,11-7.5,17.9-9.8c4.7-1.8,15.8-5.9,30.7-0.5c3.9-1.4,7.3-3.8,10.8-5.1l21.1-6.6c5.2-1.8,7.9-3.9,11.3-11.7
	C407.3,225.9,402.6,227.7,398.2,229.1z M402.5,238.4c-12.4,3.3-21.9,6.1-33.4,11.7l2.9,0.4c4.8,0.8,5.8,1.4,10.8,0.7
	c7.1-1.2,14.6-2.6,20.4-5.8c3.2-1.8,7.6-8.1,9.2-11.1C410,235.1,409.2,236.1,402.5,238.4z M287.2,246c-0.6,0.7-2,2.6-0.7,3.3
	c2-3.9,5.1-3.7,7.6-4.3C292.1,244.4,289.3,244.5,287.2,246z M402.9,248.1c-9.2,3.5-15.5,4.2-21.2,4.9c-1.5,0.9-1.1,3.2-8.4,6.2
	c0.8,2,10.5,1.2,15.7,0.4c6.8-1.2,7.9-2.3,10.4-4.4c1.6-1.4,3.6-4,4-5.5C404.1,248.5,404,247.8,402.9,248.1z M358.8,247.9
	c-15.7-0.8-22.4,3.5-36.6,11.4c0.9-0.1,3.6,0.6,4.3,1.2c0.5,0.5,1.8,2.4,1.6,2.8c20.7-8.3,27.3-9.6,39.5-12.2
	c1.5-0.5-0.6-1.6-4.4-2.5C362,248.1,360.1,247.9,358.8,247.9z M300.5,245.7c-2.8-0.9-5.8-0.2-7.9,0.4c-1.8,0.6-4.3,2.2-5.2,3.4
	c3.3,0.9,7.3,0.3,10.7,0.8c1.8,0.5,3.2,2.8,5.4,1.8c1.4-1.4,1.3-2.3,1.1-2.9C304.4,248.5,303.3,246.6,300.5,245.7z M306,250.1
	c-0.8,0.5-1.4,1.5-1.2,2.4c1.1,0.3,1.3-0.3,1.9-0.7c0.3-0.4,0.4-0.6,0.4-1.1C307,250.2,306.4,250,306,250.1z M357.9,255.4l-25.8,8.3
	c2.5,1.4,2.1,3.5,0.8,5.8c6.2-0.9,11.6-2.2,15.5-3.1l14.7-4.2c5-1,5.5-2.1,10.3-4.8c0.7-0.8,4.4-1.8,4.8-3.4
	C373.3,251.1,366.1,253,357.9,255.4z M287,250.6c-0.4-0.2-1.1-0.1-1,0.5c0.8,0.7,3.1,2.8,3.9,3.3l9.4,0.3c1.2,0.1,2.5,0.3,3.2,1.4
	c0.2,0.5,0.1,1.2-0.5,1.4c-0.9,0.3-2,0.1-2.5-0.8c0.1-0.1,0.4,0,0.6-0.1c0.2-0.1,0.5-0.1,0.5-0.4c-1.4-0.5-3-0.5-4.5-0.7
	c-0.8,0.2-4.9-0.7-5.4,0.1c0.2,2.5,5.3,2.5,8.6,2.5c0.3,0.9,1.1,1.7,1.8,2.1c0.5,0.6,0.7,1.3,0.5,2.1c0.3-0.7,1-1.5,1.8-1.8
	c0.8-0.9,1.3-2.1,1-3.3c-0.8-1.6-3.9-4.7-5.6-5.2C295.4,251.6,290.2,251.7,287,250.6z M307.9,252c-1.3,0.6-3.3,1.4-3.3,3.1
	c0,0,1,0.3,1.4,0.5c0.7,0.6,1.8,0.3,2.6-0.1c0.8-0.5,1.4-1.2,1.4-2.2c-0.5-0.5-0.8-0.4-0.7-0.9C309.1,251.9,308.4,251.9,307.9,252z
	 M202.3,242c2.8,6.4,9,19.5,25.4,21.4l13.7,0.8c-2.1-5.2-2.3-7.8-10.3-10.1C226.8,253.4,213.5,250.1,202.3,242z M370.6,261.1
	c-3.6,1.1-0.6,3.7,5.9,7.6c3.5,1.8,6,0.5,8.9-0.2c5.2-1.2,9.2-4.2,13-9.5C393.3,261,381.7,263.9,370.6,261.1z M305.2,255.8
	c-0.7,0.5,0,1.3,0,2c0.3,0.5,0.7,1.1,1.4,1c0.7-0.6,2.6-0.7,2.2-2.2c-0.4-0.1-0.7,0.1-1,0.2C306.7,257.1,305.8,256.7,305.2,255.8z
	 M231.6,265.8c-2-0.1-7.8-0.5-14.6-2.4c2.1,2.7,9.3,8,13.8,8.3l15-0.1l-2.1-2.1C240.1,265.3,236.3,266,231.6,265.8z M247.8,266.3
	c-1.4-0.6-3.3-0.7-5.6-0.8c3.6,6.1,11,7.8,17.4,8.2c2.4,0.6,0.8-1,1.3-2.1C256.3,268.9,253,267.9,247.8,266.3z M371.6,268.1
	c-4.5-4.7-2.6-5.9-14.7-2l-20,4.8c1.6,2.7-1.2,3.9-1.2,3.9c2.1,1.7,6.7,1.7,9.3,1.6l11.3-1.6c1.6-2.5,4.4-2.7,6.8-3.8
	c0.7-0.1,1.2-1,2-1c0.3,0,0.5,0.3,0.7,0.5c0.5,0.8,0.1,2.2-0.5,2.9c1.2-0.3,1.8-0.5,3.4-0.5c2,0,2.7,0.9,2.6,1.5
	c2-0.5,4.2-0.8,5.3-2.9L371.6,268.1z M364.3,271.7c-1.2,0.7-2.2,1.9-3.8,1.8c-2.4,0.3-2.8,3.8-5.6,3.3l-15.4,2
	c-2.3,0.3-4.4,1-6.7,1.2c-5.1-2-10.8-2.3-15.5-5.2c-2.5-0.8-5-2.1-7.8-1.4c-5,3.6-2.5,10.8-1.8,15.6c0.1,0.3,0.3,0.8,0.7,0.8
	c1.3-1.5,1.4-3.7,1.8-5.7c-0.7-0.5-1.6-0.1-2.3,0c0.4-0.9,1.3-1.1,2.1-1.4c6.3-0.4,12.2,1.2,18.1,2.3c3.8,1.2,8.4,0.5,12.1-0.5
	l10.7-3.1c2.1-0.5,4.2-1.1,6.4-1c4,0.6,7.7-1,10.9-2.8c0.9-0.5,2-2,1.8-3c-0.2-1-5.4,0.1-7,0.6c-0.7,0.8-1.7,1.4-2.7,1.5l1.1-0.8
	c0.8-1.6,3.1-2.1,3.3-4.1C364.9,271.6,364.5,271.7,364.3,271.7z M379,271.3c0,0-0.2,2.4-3.9,3.5c3.4,2.2,11.3,4.2,14.7-6.5
	C386.5,269.9,384.2,271.6,379,271.3z M246.1,272.8c0,0-2.3,0.9-5.8,1c-2.5,0-4.3-0.3-9.6-0.6c2.4,1.4,8.4,3.6,11.5,4
	c5.2-0.1,8.7,1.6,13,3.8c1.3,0.9,1.5-1.6,2.4-2.1c0,0-0.7-0.4-0.9-1.2c-0.2-0.8-0.4-1.5,1-1.9C253.6,274.6,250.5,273.5,246.1,272.8z
	 M237.7,279.4c1.8,0.1,4.3,0.5,5.5,1.8c-1.7,0.4-2.1,1.8-3.2,2.5l-0.2,0.6c0.7,0.6,1.8,0.1,2.5-0.2c1.7-0.5,3.1-1.2,5-1.4
	c0.5,0.5-0.5,0.3-0.5,0.7c3.3,3.1,7.3,5.1,11.2,7.1c3.3,2.2,4.9,5.1,8.1,2.5l12.6-7.4l4.8-2.2c0.3-2.6,2.4-4.5,2.2-7.3l-0.7-0.8
	c-3.9-0.6-7.1,2.2-9.5,5c-3.7,1.6-7.2,3.9-10.5,6.5c0.3,0.3,1,0.7,0.8,1.2c-5.4-1.7-9.5-5.3-14.8-7.1c-2.6-1.8-4.7-2.1-8-2.7
	c-2-0.6-4-0.1-4.6,0.4L237.7,279.4z M373.1,276.4c-0.7,0-1.5-0.7-2.5,0.9c-2.3,3.2-8.8,5-14.1,4.1c-6,1-11.2,3.9-16.9,5.1
	c2.7,2.2,5.7,4.4,9.5,3.5c-1-2-2.6-1.1-3.2-3.2c1,0.3,0.9,0.1,2,0.4c5.6,2,8.5,4.5,14.5,1.6c-0.9-2-5.2-2-3.8-3.2
	c1.4-1.2,10.9,3,15.1,0.2c-1.5-2.4-5.7-2.1-4.7-3.3c0.9-1.2,8.5,1,10.5-2.7C378.9,277.7,373.1,276.4,373.1,276.4z M319.2,285.6
	c-3-0.1-6.9-1.1-8.4,2c-0.5,3.4-1.1,7-4.5,8.8c0,0-2.9,1.4-0.5,2.2c2.1,1.5,4.2,1.8,5.5,3.4c0.3,1.1-0.7,1.1-1.3,1.8
	c2.3,1.3,3.9,4.3,5.4,6.4c1.5-0.9,2.7-5.9,3.2-5.7c-0.1,1.6,4.4,3.3,5.4,4.6c1.6-2.2,1.1-5.8,0.8-8.2c1.7,1.6,2.7,3.9,4.7,5.4
	c2.2-2.4,0.5-5.9-0.1-8.4c1.4,1,4.8,1.2,6.5,2.4c0.5-2.1-0.9-5-1.9-6.6c0,0,4,1.6,5.4,2.1c0.3-1.8-1.2-3.9-1.7-5.4
	c1.2,0.5,2.6-2.8,1.2-3.5c-2.6,0.3-4.8,1.4-7.6,1.1C327.2,287.1,323.2,286.2,319.2,285.6z M279.7,287.7c-3.6,1.4-9,4-12.2,6.2
	c0.2,0.5,4.1,0.2,4.3,0.9c-0.9,1.2-2.2,2.2-1.9,3.8c0.9-0.2,4.2-0.5,4.2-0.5c0.1,1.1-1.3,3.7-0.9,4.7c1.1-0.1,3-1.4,3.8-2.1
	c0,1.8,0.8,4.3,1.8,5.8c0.5-1.1,2.3-5.3,5.8-8c-1.1-0.5-2.2-1.1-3.2-2c-2-1.6-3.1-4-2.2-6.5c0.3-0.8,1.3-1.4,1.2-2.3L279.7,287.7
	L279.7,287.7z M302.1,299.5c-1.4-0.8-5.2-1-6.9-1c-3.3,0.5-7.1-0.1-9.9,1.3c0,0-0.4,0.2-0.7,0.5c-0.8,0.9-0.7,0.8-1.3,1.9
	c-0.1,0.3-2.4,3.4-2.2,3.8c-0.5,1-0.8,2-0.7,2.7c0.6,1.3,1.8,0.7,2.8,1.1c-0.9-0.7-0.9-1.2-1-1.8c-0.3-1.5,2.1-4.8,3-6.2
	c0.6-0.5,1.1-0.9,1.5-0.9h0.2c-1.4,1.8-2.4,3.6-3.1,5.7c-0.3,0.8-0.1,1.6,0.4,2.3c0.5,0.5,3,0.8,3.7,0.8c-0.2-2.3,1.1-3.2,0.4-5.4
	c0.3-0.1,0.9-0.1,1,0.3c0.9,2.3-0.6,4.2,1.2,6c2.5,0.7,3.4-0.9,5.1-2.1c0.6-2.7,0.2-5.6-0.5-8.1c1.8,0.5,2.2,4.6,3.2,5.8
	c0.8,0.3,1.4-0.2,2-0.7c1.8-1.8-0.3-4.4-1.4-6c0.2-0.1,1.7,0.1,3,2.5c1.2,2.5,0,2.2,0.9,3.5c0.5-0.2,2.7-0.1,3.2-0.5
	c2.6-2,1.8-2.5,3-2.5C306.9,301.1,304.2,300.2,302.1,299.5z M278,343.8h-0.1c-1.1,0.6,0,2.9,0.3,3.7c0.7,2.1,0.6,4.5,0.7,6.7
	c0.2,4.1,0.1,8.2,0.4,12.2c0.2,2.4,0.5,5.5,2.1,7.5c3.8,4.8,7.4,9.7,10.2,15.1l-0.1,0.1c-2.6-1.5-6.6-6.5-9.2-10.8
	c-1,7.3,0.7,16.6,4,22.4c4.4,5.7,16.8,1.9,16.8,1.9c4-2.5,2.1-7.1,6.4-10.3c-1.3-2.1-2.6-2.6-5.2-5.8c-2.6-4.2-5.1-7.3-6.8-10.8
	c-3.5-5.7-7.3-11.2-10.3-17.1l-5.3-8.4L278,343.8z M350.3,351.5c-1.9,0.9-1.7,3.2-1.8,5l0.6-0.1c1.5-0.7,4-1.3,4-3.5
	C352.6,352,351.5,351.4,350.3,351.5z M329.3,335.6c3.1,3.9,5.7,7.3,5.7,7.3c-1-0.7-4.5-2-10.5-8.6c-1.5-2-4.1-4.8-4.6-4.4
	c-0.2,0.8,1.6,2.3,1.9,2.8c0,0,7.4,9.8,6.3,9.9c-1.1,0.1-5.3-3.9-7.8-7.8c-2.7-4.3-7.6-11.9-8.4-17c0,0,8.2,10.4,10.3,11.6
	c0,0-6-9.2-7-12c-1-2.8-4.2-10.9-6.8-13.1c0,0,0.4,0.6-2.4,2c-2.4,1.2-3.1-0.2-5.7,0.8c-2.6,0.9-2.1,1.4-3.5,2.6
	c-1.9,1.6-6.1,4.8-8.3,0.8c0,0-3.5,2.1-6.4,0.7c0,0-5.2,17.2-4.5,21c0,0,2.1-1.7,3.8-0.7c1.6,0.9,3.3-1.9,5.4-1
	c2.2,1-0.7,5.9,0.2,6.7c1.1,1,1.7-1.6,3.7-0.5c2,1,0.4,3.9,2.3,3.9c1.9,0-0.1-8.6,2.1-8.6c0,0,0.1,5.5,2.5,7.2c0,0-2.8-13,1.3-23.7
	c0,0-0.7,15.2,0.7,21.7c0,0,2.6-5.7,5.7-3.5c3.1,2.1,0,6.6,1.9,7.1c1.9,0.5,4.6-2.6,5.7-3.7c1.1-1.1,3-1.5,3.6-0.1
	c1.6,3.7-2,2.6-1.1,4.7c0.8,1.8,2.4,0.8,4,1.8c2.9,1.7-4.5,2.9-1.4,5c2.7,1.8,7.9,2.3,12.1,2c0,0.1,8.7,3.1,11.5,5.3
	c-0.8-1.5-1.9-2.4-2-4.3h0.1c3.2,1.5,4.7,3.9,5.4,6.7c0.5,0,1.2-0.2,1.6-1.7c0.8-2.3-1-3.9,1.2-5.6c1.4-1,3.1-1.2,4.8-0.8
	C348.1,346.8,331.6,336.5,329.3,335.6z M245.2,285.1c-1.6-0.1-4.3,2.2-5.1,3c3.4-1.1,4.6-0.4,5.4-1.4
	C245.5,286.2,245.7,285.4,245.2,285.1z M247.3,286.1c-0.5,2.1,0.9,4.2,2.6,5.2l0.3-1.6C250,288.2,248.4,286.8,247.3,286.1z
	 M246.2,290c-0.2,0.6-0.7,1.3-0.6,2c0.2,1.2,2,1.7,2.6,3.5C249.3,293.9,248,290.6,246.2,290z M244.8,293.5l-0.9,1.4
	c-1.4,2,1,3.7,1,5c0.8-0.8,1.7-2.9,1.3-4.4C246,294.7,245.5,294,244.8,293.5z M239.8,293.7c-0.9,0.3-3.1,1.7-4.3,1.5
	c0.5,0.7,3,0.6,3.8,0.8c1.5,0.1,2.6-1.5,3.4-2.7L239.8,293.7z M242.1,297.4c-3,0.6-1.2,4.2-3.8,6.1c1.7-0.3,2.5-0.3,3.6-2.3
	C242.4,300.2,242.7,298.4,242.1,297.4z M219.2,290.1c-0.6,2.2-0.1,2.8,0.9,4.2c-0.4-3.2,3.3-4.4,1.7-7
	C220.6,287.6,219.5,289,219.2,290.1z M231.5,299.2c0.1,0.7,2.9,0.6,4.2,0.1c0.7-0.1,2.9-0.9,3.1-1.7
	C233.8,296.3,235.6,298.3,231.5,299.2z M237.7,292c0.2,0.7,3,0.1,4.2-0.7c0.6-0.2,2.7-1.4,2.8-2.2
	C239.5,288.7,241.6,290.3,237.7,292z M221,284.7c-0.7-0.4-2.9,0.6-3.4,1c-1.3,0.6-3.4,2.5-2.9,3.1
	C218.2,286.6,218.3,289.2,221,284.7z M228.3,276c1.8,0.5,2.5,1.6,3.7,1.8c1.4,0.1,1.9-0.3,2.2-0.8
	C233.6,275.3,230.1,275.3,228.3,276z M236.2,284.1c-0.1-1.8,0.7-2.9,0.5-4.1c-0.4-1.3-0.9-1.7-1.5-1.8
	C233.7,279.3,235,282.6,236.2,284.1z M228,277.5c-1.5-0.6-4.1,0.4-4.9,1.1c1.9-0.1,3,2,5.3,1.2l1.5-0.7
	C229.4,278.3,228.7,277.8,228,277.5z M230.8,281.3c-0.5,1.5,0.5,4,1.3,4.9c-0.2-1.9,1.9-3.1,1-5.4l-0.8-1.4
	C231.5,279.8,231,280.5,230.8,281.3z M237.6,300.9l-1.6,0c-2.4,0.3-2.5,2.7-4.2,3.5c1.1,0.2,3.8-0.1,4.9-1.3
	C237.2,302.6,237.6,301.8,237.6,300.9z M221.6,280.5c-2.2,0.7-2.4,1.5-3,3.1c2.4-2.1,5.5,0.3,6.7-2.5
	C224.5,280.2,222.6,280.2,221.6,280.5z M226.6,284.9c0.1,2.3,0.8,2.7,2.2,3.7c-1.4-2.9,1.7-5.3-0.7-7.2
	C227.1,282.1,226.5,283.8,226.6,284.9z M223.9,284.6c-0.2,3.2-0.2,5.6,1.1,7.2c0.9-2.6,1-3.7,0.4-5.3
	C225.1,285.8,224.5,284.6,223.9,284.6z M304.4,271.7c-4.2-1.6-2.7-6.5-3.3-9.8c-0.3-0.7-0.9-0.9-1.6-0.8c-1.4,0.3-2.6,1.9-4.1,0.9
	c0.8-0.1,1.6-0.3,2.3-0.8c0.4-0.5,0.9-1,0.7-1.9c-0.3-0.3-0.7-0.3-1.1-0.3c-0.4,0.1-0.6,0.5-0.6,0.9c-1.8,0.1-2.7-1.7-4.5-1
	c-0.8,0-1.4-0.8-2-1.5c-0.5-2.2-2.7-3.4-4.4-4.8c-0.8,1.2-1.4,2.4-1.4,3.8c0.1,1,2,0.6,2.6,0.7c1.5,0.5-1.3,1.5-1.2,2.3
	c-0.1-0.3-0.2-0.7,0.1-1c0.5-0.7-0.5-0.6-0.8-0.9c-0.1,1.8-1.2,3.2-1.3,4.8l1.6,0.3c0.4,0.4,0.1,1.1,0.2,1.6c0,0,0,0,0.1,0.1
	c0.3,0.1,0.7,0.1,0.8,0.1c0.2,0,0.3,0.1,0.3,0.3c0,0.2-0.1,0.3-0.3,0.3c0,0-0.2,0-0.5,0c0.1,0.5,0.1,1,0.7,1.2
	c0.5,0.6-0.1,1.8,0.8,2.1c3.1,0.1,5.2-2.4,7.7-4c-0.4,1.5-2.4,2.2-3,3.5c-0.3,1.6-0.2,3.4-0.7,5c-0.7,2.2-3.5,1-4.3,2.8
	c0.3,2-0.7,4.8,1.4,5.9c2.8,0.4,5.3-0.5,7.5-1.8c3.9-1.4,6.8-5.2,10.2-7.6C305.7,272,305,272,304.4,271.7z M284.4,273.5
	c-3.8-0.1-6.9,1.5-9.5,5.8c-3.8,0.8-6.5,2.3-10,6.1c-2.6-0.6-7.1-3.3-7.1-3.3s2.3-2.6,2.8-2.8c-0.7-0.9-2.2-0.7-1.8-3
	c0.5-2.3,3.9-0.6,6.3-1.7c-1-0.9-2.7-1.9-2-3.7c0.6-1.9,4-0.9,5.4-0.9c-0.1-1.3-1.6-3.4-0.2-4.2c1.4-0.9,4.6-0.6,4.6-0.6
	c0.1-1.6,0.9-2.9,1.7-4.3c-0.2-0.3-3.2,1.6-3.7,2.6c-4.2-0.4-4.9,1.5-5,4c-1,1.6-3.9,0.3-4.5,2c-5.2-3.1-7.9-3.5-16.2-5.8
	c-2.6-1.1-5.1-4-5.2-7.9c3.4,0.4,5.1,1,7.4,1.2l15.8,4.3c0.1,0,0.1-0.1,0.1-0.1c-6.9-6-16-5.5-24.4-7.8c-4.6-0.9-7.5-1.5-8.9-1.9
	c-5.5-1.1-27.4-7.5-30.8-18.3c5.1,1.2,9.4,2.4,14,3.6c3.6,0.8,6.6,1.2,11.7,2.3c4.8,1,11.8,3.1,11.8,3.1c10.9,3.1,23.1,1.1,33.9,4.8
	c3.7,3.1,4.6,7.7,5.3,12.2l1.2,1.1C276.9,266.7,279.4,269.7,284.4,273.5z M269.4,259.5c-0.8-3.5-2.3-7.2-5.6-8.4
	c-7.8-2.8-18-3.2-26.3-4.6l5.8,2C254.4,250.8,262.9,250.9,269.4,259.5z M371.5,393.5c-2.7-0.3-5-0.2-6,2.4c-3,6.9-3,9.7-10,12.3
	c-3.9,0.9-8.4,1.2-9-0.9c0.9-4.3,6.8-4.8,9.2-6.1c4-2.1,5.1-6.3,5.2-10.5c-0.2-0.8-2.5-2.5-3.3-3l-6.6-4.5l-9.5-7
	c-0.1-0.1-0.1-0.1-0.2-0.1l-0.1,0.1c0,0,11.3,11.1,16.2,14.3c0.6,7.2-4.2,7.6-10,10.5c-3.7,2-1.3,5.7-8.1,9.1
	c-1.9,0.9-8.6,1.8-7-1.5c2.3-3.4-0.2-3.4-0.2-3.4c-2.6,0.7-12.9,3.6-5.7-1.2c1-0.6,1.8-2.4,1.8-2.4c1-2.8-2.1-3.4-3.3-2.2
	c-2.5,2.8-2.7,7.4-9.9,6.1c0,0-8.5-1.9-1.6-11.5c3.1-2.2-5.1-6.1-6.5-9.4l-4.2-6.8l-10.4-16.2l-7.9-12c-1.8-2.5-3.9-5.2-5.7-7.9
	c-2.3-6-0.6-7,1.6-7.3c2.8,1.5,3,0.8,4.3,0.3c1.5-0.5,1.3,1.5,0,2.6c-0.7,1.4-0.7,2,0.3,3.3c1.8,0.7,1.8-0.8,3.5-0.3
	c1.7,0.5,3.6,5.5,6.5,6.4c0.6-0.1,1.2,0.1,1.5-0.4c-0.1-1.5-1.2-3.9-1.4-5.3c1.6,1.8,7.3,7.1,6.5,4.1c-0.8-3.1-0.7-5-0.7-5
	c0.6-0.8,0.6-2.2,1.5-2.2c0.6,0,1.1,0.1,1.5,0.4c1.3,2.4,0.5,5.5,2.7,7.3c0.5,0.1,1.2,0.7,1.6,0.3c5,9.3,13,17.1,21.3,23.8
	c0.6,0.4,1.6,1.1,2.3,1.1c0.2-1.3-3.5-4.2-4.9-6.5L316.7,354c-1.6-1.9-7.2-7.5-6.2-10.1c0.5-2,2.8-3.6,3.8-3.7
	c-0.2,0.7-1.7,1.6-1.2,3.4c0.7,1.4,1.3,1.9,2.8,2.5c-3.9,3.9,2.4,7,9.1,7.9c7-1.5,11,3.7,17.6,4.7c0,0,0.5,2.1,2,2.3l9.9,11.8
	C360,378,366.3,388.4,371.5,393.5z M329.3,386.1c0,0-20.3-27.5-25.6-31.4l17.2,25.8c2.3,3,6.2,7.3,7.9,10.3
	C329.4,390,330.1,388.8,329.3,386.1z M307.4,274.4c-5.6,5.3,2.3,20-5,23.3c-12.5-1.7-14.7,0.4-16.5-0.1c-0.1-0.3,0.5-0.7,0.7-1.1
	c-2-0.3-3.7-0.5-4.8-2.4c-2.5-3.5,1.3-6.1,2.6-8.9c0,0,1.1-2.2,1.7-4c0.2-0.7,0.7,2.2,3.1,2.1c2.3-0.1,3.7-0.3,7.2-1.8
	c-3,3-3.9,3.1-7.8,4.2c1.6,0.3,4.6,0,7.6-1.6c3.7-1.9,8.4-8.2,8.4-8.2C305.6,275,307.8,274.1,307.4,274.4z M302.2,293.3
	c-1,1.2-2.1,1.8-5.7,1.8c-4.2,0-6.3-2.7-6.3-2.7c0.2,1.2,1,3,3.2,3.5c1.8,0.5,2.4,0.6,5.2,0.4C301.5,296.2,302.2,293.3,302.2,293.3z
	"/>
<linearGradient id="SVGID_4_" gradientUnits="userSpaceOnUse" x1="68.3373" y1="773.9645" x2="70.2778" y2="759.9937" gradientTransform="matrix(4.252 0 0 -4.252 0 3703.0217)">
	<stop  offset="0.4162" style="stop-color:#1C4585"/>
	<stop  offset="1" style="stop-color:#091E36"/>
</linearGradient>
<path fill="url(#SVGID_4_)" d="M143.2,394.8l-1.2,0l0.3,1.2c2.9,11.4-0.2,22.4-8.2,29.5l-2.5,2.3l3.3-0.6c2.6-0.4,6-0.9,9.5-0.6
	c8.4,0.5,14.3,2.2,19.1,5.5c-0.3,1.3-5,25-5,25c-0.1,0.4-0.1,0.7-0.1,1.1c0,1.6,0.8,3,1.6,4.2l0,0.1l0.1,0.1
	c3.7,3.9,8.4,5.2,12.9,6.4l0.4,0.1c19.8,4.6,40.6,0.5,58.8-11.5l9.8-6.4l4.3-2.7l5.2-3.2c10-5.9,18.1-9.1,27.4-10.7
	c19.1-3.4,39.6,0.7,54.8,10.9c0.1,0,2,1.2,2,1.2c0,0,12.8,8.4,12.8,8.4c0,0,8,5.1,8,5.1c17.7,11.1,40.6,14.4,59.8,8.6
	c3.2-1.1,9.9-3.3,10.9-9.2l0-0.2c0,0-4.8-25.2-5-26.2c0,0,0.7-0.5,0.7-0.5l-0.2,0.2c8.1-4.5,18.7-6.1,28.3-4.2l3.5,0.7l-2.7-2.3
	c-8.1-7.1-11.1-18.1-8.1-29.6l0.3-1.2l-1.2,0c-12.2-0.1-23.7,1.6-33.9,5c-5.1,2-12.8,4.9-15,11.8l0,0.1l-0.3,20.1c0,0,0,5.6-0.1,7.9
	c-11.9-0.2-21.8-6.2-30.1-11.9c0,0-2.9-2-2.9-2c0,0-11.9-7.8-11.9-7.8c-14.1-8.7-28.1-13.9-42.8-15.9c-25.1-3.3-50.1,2.8-72.5,17.7
	c0,0-11.2,7.6-11.2,7.6c-8.8,5.8-18.4,11.4-30,11.6c0-1.5,0.1-26.6,0.1-26.6c-0.1-4-3.1-7.7-9.1-11
	C171.8,397.3,158.8,394.7,143.2,394.8z"/>
<path fill="#FFFFFF" d="M180,423.7c3.2-0.9,6.5-1.9,9.1-4.4c0,1.4-0.1,20.3-0.1,20.9c-7-0.2-14.8-1.1-20.7-6.4c0,0-0.2-0.3-0.2-0.3
	c-0.6-0.8-1.2-1.5-1.2-2.4c0-0.3,0.1-0.6,0.2-1c1.7-3.2,5.1-4.1,8.3-5l2.7-0.8C178.1,424.2,180,423.7,180,423.7z"/>
<path fill="#FFFFFF" d="M396.1,420.4c3.2,2.8,7.1,4,11,5c3.4,0.9,6.9,1.9,9.7,4.1c0.9,0.8,1.3,1.5,1.3,2.2c0,0.3-0.1,0.6-0.2,1
	c-1.9,3.5-6.2,5.3-9.3,6.3c-4.1,1.1-8.2,1.7-12.5,1.8C396.1,440,396.1,421.6,396.1,420.4z"/>
<g>
	<path fill="#FFFFFF" d="M146,404.2c0-2.2-0.3-4.5-0.7-6.8c11.9,0.5,25.6,1.9,37.6,8.3c3,1.9,6.3,4.5,6.3,8c0,0.1,0,0.2,0,0.3
		c-0.6,4.4-5,5.8-9,7l-5.2,1.6c-4.2,1.2-8.5,2.4-10.5,6.8c-6.8-4.1-15.3-5.9-25.4-5.6C143.6,418.6,146,411.7,146,404.2z"/>
</g>
<path fill="#FFFFFF" d="M413.1,424.3l-0.4-0.2l-5-1.5c-4.1-1.1-7.9-2.1-10.8-5.3c-0.5-0.8-0.8-1.7-0.8-2.7c0-0.9,0.2-1.7,0.5-2.4
	c3.7-5.8,10.2-7.8,16.3-9.7l1.6-0.5c7.6-2.1,16.1-3.2,25.8-3.4c-0.4,2.5-0.7,4.9-0.7,7.2c0,7.5,2.3,14.1,6.5,19.2
	c-9.8-0.4-18.4,1.4-25.4,5.4C419.6,426.9,416.1,425.5,413.1,424.3z"/>
<path fill="#FFFFFF" d="M220.2,433l17.3-11.2c21-13.4,43.6-18.6,67.1-15.7c13.6,1.8,26.5,6.4,39.6,14.1l11.2,7l11.4,7.4
	c10.9,7.4,24.3,10.4,37.5,8.4c5.3-1.2,11.3-2.6,15.3-7.4c0.2,1.2,4.6,23.7,4.6,23.7c-0.6,3.1-4.1,4.6-6.8,5.9l-0.7,0.3
	c-19.9,6.6-44,2.7-62.9-10.3c0,0-17.2-11.3-17.2-11.3c-17.9-11.5-39.3-15.7-60.2-11.7c-10.3,2-20.3,6.3-31.7,13.6l-15.9,10.3
	c-15.5,9.9-33.7,13.8-51.2,10.8c-5.4-1-10.9-2.1-15.2-6c-0.9-0.9-1.3-1.8-1.4-2.7c0,0,4.1-20.5,4.7-23.5c5.8,6.4,14.1,7.8,22.3,8.2
	C198.7,443.4,208.9,440.3,220.2,433z M175.6,447l-6.2-0.9c-0.2,0.1-0.2,0.5-0.2,0.5c0.6,0.3,0.6,0.4,0.6,0.8l-1.7,11.5
	c-0.1,0.3-0.1,0.5-0.6,0.4c-0.1,0.1-0.2,0.5-0.2,0.5c0.1,0.2,4,0.7,4,0.7l0.1,0l0.1-0.5c-0.5-0.2-0.6-0.4-0.6-0.6c0-0.1,0-0.1,0-0.2
	c0,0,0.7-4.5,0.7-4.6c0,0.1,2.7,0.5,2.7,0.5c3.5,0.5,5.1-1.4,5.4-3.4C180.1,449.8,179.2,447.5,175.6,447z M174.3,452.7
	c0,0-2.4-0.4-2.4-0.4c0.1,0,0.6-2.9,0.6-3.3c0.2,0,2.3,0.3,2.3,0.3c1,0.1,1.7,0.4,2,0.8l0.2,1.2C176.8,452.6,176.1,453,174.3,452.7z
	 M187.4,448.4c-1.7-0.1-3.3,0.5-4.4,1.6c-1.3,1.2-2.1,3.1-2.2,5.4c-0.1,4.3,2.3,7.2,6.1,7.3c1.7,0.1,3.3-0.5,4.4-1.6
	c1.3-1.2,2.1-3.1,2.2-5.4c0.1-2.2-0.6-4.2-1.8-5.5C190.7,449.1,189.2,448.5,187.4,448.4z M189.4,459.4c-0.6,0.6-1.4,0.8-2.3,0.8
	c-2.3-0.1-3.4-1.8-3.3-4.8c0.1-1.7,0.5-3,1.3-3.8c0.6-0.6,1.4-0.8,2.3-0.8c0.9,0,1.7,0.3,2.3,0.9c0.8,0.8,1.1,2.1,1.1,3.8
	C190.6,457.4,190.2,458.7,189.4,459.4z M201.6,452.5c-1.7,0-3.1,0-3.3-1c-0.2-0.9,0.4-1.6,1.6-1.9c2.1-0.4,3.3,0.2,3.4,0.7
	c0,0,0,0.3,0,0.3c0.1,0.2,0.5,0.3,0.5,0.3c0.2-0.1,1.4-3.6,1.4-3.6l0.2-0.5l-0.7,0.3l-0.4,0.4l-0.7-0.1l-0.8-0.2
	c-1-0.2-2.1-0.1-3.2,0.1c-3.7,0.8-4.5,3.2-4.1,5.1c0.6,2.8,3.5,2.8,5.8,2.9c1.8,0,3.3,0,3.5,1.1c0,0-0.2,1.2-0.2,1.2
	c-0.4,0.6-1.2,1-2.4,1.2c-1.1,0.2-2.7,0.2-3.4-0.3l-0.3-0.4l-0.1-0.3l-0.4-0.1c-0.2,0.1-1,3.6-1,3.6s0.1,0,0.1,0v0l0.3,0.1
	c0,0,0,0,0.1-0.1c0,0,0.1,0,0.1,0c0.1-0.2,0.1-0.3,0.2-0.3c0,0,0.8,0.1,0.8,0.1l0.8,0.1c0,0,3.2-0.1,3.2-0.1c4.1-0.9,5.5-3.5,5-5.6
	C207,452.6,204,452.5,201.6,452.5z M217.9,454.8c0,0-4.3-9.4-4.3-9.5c0.1,0.1,2.8-1.1,2.8-1.1c0.5-0.2,0.6-0.2,0.9,0.1
	c0.2,0.1,0.5-0.1,0.5-0.1c0.1-0.2-1.3-3.1-1.3-3.1c-0.2-0.1-0.5,0.1-0.5,0.1c0,0.4-0.1,0.6-0.6,0.8l-8,3.7c-0.6,0.3-0.7,0.2-0.8,0
	c-0.2,0-0.5,0.1-0.5,0.1c-0.1,0.2,1.3,3.1,1.3,3.1c0.2,0.1,0.5-0.1,0.5-0.1c0-0.1,0-0.2,0-0.2c0-0.4,0.1-0.5,0.6-0.7
	c0,0,2.8-1.3,2.8-1.3c0,0,0,0,0,0c0,0.3,4.1,9.4,4.1,9.4c0.1,0.1,0.1,0.2,0.1,0.3c0,0.1-0.1,0.2-0.2,0.3c0,0,0,0,0,0.1
	c0,0.2,0.1,0.4,0.1,0.4c0.2,0.1,3.6-1.5,3.6-1.5l0.1-0.1l-0.2-0.5C218.1,455.2,218,455.1,217.9,454.8z M232.3,444c0,0.1,0,0.2,0,0.2
	c0,0.3-0.1,0.4-0.5,0.6c0,0-5,3.2-5,3.2c0,0,0,0,0,0c0-0.2-1.6-2.6-1.8-3c0.2-0.1,2.7-1.7,2.7-1.7c0.5-0.3,0.6-0.3,0.8-0.1
	c0.2,0,0.5-0.2,0.5-0.2c0-0.2-1.6-2.8-1.6-2.8c-0.2,0-0.5,0.2-0.5,0.2c0,0.1,0,0.2,0,0.2c0,0.3-0.1,0.4-0.5,0.6c0,0-2.8,1.8-2.8,1.8
	c0,0,0,0,0,0c0-0.2-1.6-2.8-1.7-2.8c0.1,0.1,4.7-2.9,4.7-2.9c0.5-0.3,0.6-0.3,0.8-0.2c0.2,0,0.5-0.2,0.5-0.2c0-0.2-1.6-2.8-1.6-2.8
	c-0.2,0-0.5,0.2-0.5,0.2c0,0.4,0,0.5-0.5,0.9l-7.7,4.9c0,0.2,0.2,0.5,0.2,0.5c0.9-0.3,0.9-0.2,1.1,0.1l6.3,9.7
	c0.2,0.3,0.2,0.4-0.3,0.8c0,0.2,0.2,0.5,0.2,0.5c0.2,0,8.1-5.1,8.1-5.1c0.5-0.3,0.6-0.3,0.8-0.1c0.2,0,0.5-0.2,0.5-0.2
	c0-0.2-1.7-2.8-1.7-2.8C232.6,443.8,232.3,444,232.3,444z M244,437.8l-0.4-0.3l-3.8-2.2c0,0,0.1-0.1,0.1-0.1
	c1.3-1.2,1.4-2.9,0.3-4.7c-1.3-2-3.7-2.3-6.1-0.7l-5.5,3.5c0,0.2,0.1,0.5,0.1,0.5c0.6-0.1,0.7-0.1,0.9,0.2l6.3,9.7
	c0.2,0.3,0.2,0.4-0.1,0.7c0,0.2,0.2,0.5,0.2,0.5c0.2,0,3.4-2,3.4-2l0.1-0.1l-0.3-0.4c-0.6,0.1-0.7,0.1-0.9-0.2c0,0-2.5-3.8-2.5-3.9
	c0.1,0.1,1.9-1.1,1.9-1.1c0,0.1,3.9,2.3,3.9,2.3l0.7,0.5c0,0,0,0,0,0.1c0,0.1,0,0.2-0.2,0.3v0c0,0.2,0.2,0.5,0.2,0.5
	c0.2,0,3.4-2.1,3.4-2.1c0-0.2-0.2-0.5-0.2-0.5C245,438.4,244.8,438.3,244,437.8z M236.9,434.8c0,0-2.5,1.6-2.5,1.6c0,0,0,0,0,0
	c0-0.2-1.5-2.6-1.7-2.9c0.2-0.1,2.4-1.6,2.4-1.6c1.2-0.8,2.1-0.7,2.7,0.3c0,0,0.3,1.2,0.3,1.2C238,433.9,237.6,434.4,236.9,434.8z
	 M269.9,423.3c-0.2,0-0.4,0.2-0.4,0.2c0,0.2,0.2,0.6,0.2,0.6c0,0-0.1,0.9-0.1,0.9c-0.3,0.6-1.1,1.2-1.9,1.5
	c-0.9,0.3-1.9,0.2-2.7-0.3c-1-0.5-1.8-1.6-2.2-3c-0.5-1.7-0.5-3.1,0-4c0.4-0.8,1.2-1.3,2.3-1.7c1.2-0.4,2.6,0,2.8,0.8l0,0.1l0.1,0.3
	l0.2,0c0.2-0.1,0.9-3.6,0.9-3.6l0.1-0.4l-0.5,0.2l-0.4,0.3c0,0-0.6-0.1-0.6-0.1l-0.7-0.2c-0.9-0.2-1.9-0.1-2.8,0.2
	c-3.2,1-5.8,4.1-4.3,8.9c1.2,3.9,4.6,5.9,8.2,4.8c2.3-0.7,3.1-1.9,3.6-2.6l0.4-0.5c0.1,0,0.2,0,0.4,0.1c0.2-0.1,0.3-0.4,0.3-0.4
	C272.8,425.3,269.9,423.3,269.9,423.3z M284,423.8l-0.3-0.4c0,0-2.5-3.6-2.6-3.6c0.1,0,0.1-0.1,0.2-0.1c1.7-0.5,2.5-2,2.2-4.1
	c-0.3-2.4-2.3-3.7-5.2-3.3l-6.4,0.9c-0.1,0.2-0.1,0.5-0.1,0.5c0.6,0.1,0.7,0.2,0.7,0.6l1.6,11.5c0,0.4,0,0.5-0.4,0.6
	c-0.1,0.2,0,0.5,0,0.5c0.2,0.1,3.9-0.4,3.9-0.4l0.1,0l-0.1-0.5c-0.6-0.1-0.7-0.2-0.7-0.6c0,0-0.6-4.5-0.6-4.6c0,0.1,2.2-0.2,2.2-0.2
	l0,0c0,0.1,2.6,3.8,2.6,3.8l0.4,0.7v0c0,0.1,0,0.2-0.4,0.2c-0.1,0.1-0.1,0.2-0.1,0.3c0,0.1,0,0.2,0,0.2c0.2,0.1,4-0.4,4-0.4
	c0.1-0.2,0.1-0.5,0.1-0.5C284.7,424.8,284.5,424.6,284,423.8z M280.5,417.4c-0.3,0.4-0.8,0.6-1.6,0.8c0,0-2.9,0.4-2.9,0.4
	c0,0,0-0.1,0-0.1c0-0.6-0.3-2.8-0.4-3.2c0.3,0,2.8-0.4,2.8-0.4c1.4-0.2,2.2,0.3,2.3,1.4L280.5,417.4z M296,422.9h-6
	c0,0,0.1-3.2,0.1-3.5c0.2,0,3.2,0,3.2,0c0.6,0,0.7,0.1,0.7,0.3l0.5,0.1l0.1-3.2l-0.5-0.1c-0.2,0.4-0.3,0.5-0.9,0.5H290l0.1-3.3
	l5.5,0.1c0.6,0,0.7,0.1,0.7,0.3l0.5,0.1l0.1-3.2l-0.5-0.1c-0.2,0.4-0.3,0.5-0.9,0.5h-9.1l-0.1,0.5c0.9,0.2,0.9,0.4,0.9,0.7v11.6
	c0,0.3,0,0.5-0.7,0.5l-0.1,0.5l9.6,0.1c0.6,0,0.7,0.1,0.7,0.3l0.5,0.1l0.1-3.3l-0.5-0.1C296.7,422.8,296.6,422.9,296,422.9z
	 M307.9,416.9c0.2,0,2.5-3,2.5-3l-0.1-0.1v0l0,0l-0.3-0.2c-0.2,0.1-0.3,0.2-0.5,0.2l-0.6-0.3l-0.7-0.4c-0.9-0.5-1.9-0.8-3.1-1
	c-3.7-0.5-5.3,1.5-5.6,3.4c-0.4,2.8,2.3,3.8,4.5,4.6c1.6,0.6,3.1,1.1,2.9,2.2l-0.6,1.1c-0.5,0.4-1.4,0.5-2.7,0.4
	c-1.1-0.1-2.6-0.7-3.1-1.4l-0.2-0.5l0-0.3l-0.3-0.2c-0.2,0-2.2,3-2.2,3l-0.1,0.1l0.4,0.3c0.2,0,0.6-0.3,0.6-0.3c0,0,0.7,0.3,0.7,0.3
	l0.7,0.4c0,0,3,1,3,1c2.6,0.3,4.2-0.3,5.1-1c0.9-0.7,1.4-1.6,1.5-2.6c0.4-3.2-2.4-4.2-4.6-5c-1.5-0.6-2.9-1.1-2.7-2.1l0.5-0.9
	c0.4-0.3,0.9-0.4,1.6-0.3c1.8,0.3,2.6,1,2.7,1.3l0.2,0.5c-0.1,0.3-0.1,0.4-0.1,0.4C307.5,416.7,307.9,416.9,307.9,416.9z
	 M320.9,428.6c0.2,0.1,0.5-0.1,0.5-0.1c0.1-0.2-1.3-3.5-1.3-3.5c-0.1-0.1-0.5-0.1-0.5-0.1c-0.1,0.2-0.2,0.6-0.2,0.6
	c0,0-0.6,0.7-0.6,0.7c-0.6,0.4-1.5,0.5-2.3,0.2c-2.1-0.6-3.1-2.8-2.4-5.4c0.5-1.7,1.2-2.9,2.2-3.4c0.8-0.4,1.7-0.5,2.8-0.2
	c0.8,0.2,1.5,0.7,1.8,1.3l0.2,1l-0.1,0.3l0.2,0.2c0.2,0,2.7-2.6,2.7-2.6l0.3-0.3l-0.5-0.1l-0.5,0.1c0,0-0.4-0.4-0.4-0.4l-0.5-0.5
	c-0.7-0.7-1.5-1.1-2.5-1.4c-1.8-0.5-3.5-0.3-5,0.5c-1.6,0.9-2.8,2.5-3.3,4.7c-1.1,4,0.7,7.4,4.3,8.4c2.3,0.6,3.6,0,4.4-0.3l0.6-0.2
	C320.7,428.4,320.8,428.5,320.9,428.6z M331.8,433.5l0.8-11.7l0.1-0.7c0-0.1,0.1-0.3,0.5-0.1c0.2-0.1,0.3-0.4,0.3-0.4
	c-0.1-0.2-4.1-1.9-4.1-1.9c-0.2,0.1-0.3,0.4-0.3,0.4c0.4,0.3,0.4,0.4,0.4,0.5c0,0,0,0,0,0c0,0-0.5,0.7-0.5,0.7c0,0-7.9,8.8-7.9,8.8
	c-0.2,0.2-0.4,0.4-0.6,0.3c-0.2,0.1-0.3,0.4-0.3,0.4c0.1,0.2,3.2,1.5,3.2,1.5l0.1,0.1l0.2-0.5c-0.3-0.2-0.4-0.4-0.4-0.5
	c0-0.1,0-0.1,0-0.1l0.2-0.3c0,0,1.5-1.7,1.5-1.7c0,0.1,4.1,1.9,4.1,1.9c-0.1,0-0.2,2.4-0.2,2.4c0,0-0.1,0.4-0.1,0.4c0,0,0,0.1-0.4,0
	c-0.2,0.1-0.3,0.4-0.3,0.4c0.1,0.2,3.3,1.6,3.3,1.6c0.2-0.1,0.3-0.4,0.3-0.4C331.8,434.1,331.8,434,331.8,433.5z M330.1,422.6
	c-0.2,1-0.6,5.2-0.6,5.3l-0.1,0c-0.3-0.3-2.3-1.1-2.7-1.3c0.2-0.3,3.1-3.7,3.5-4.1L330.1,422.6z M344.6,441.5c0,0,6.3-10.1,6.3-10.1
	c0.1-0.2,0.3-0.3,0.6-0.1c0.2,0,0.4-0.4,0.4-0.4c0-0.2-3.9-2.6-3.9-2.6c-0.2,0-0.4,0.4-0.4,0.4c0.1,0.2,0.2,0.4,0.2,0.4
	c0,0.1,0,0.1,0,0.1c-0.1,0.2-1.5,1.1-3,2.2c0,0-3.1,2.2-3.6,2.6c0-0.1,0-0.1,0-0.2c0.3-0.8,0.7-3.1,0.7-3.1c0.3-1.9,0.7-4.4,0.9-4.7
	c0-0.1,0.1-0.1,0.4-0.1c0.1-0.1,0.3-0.4,0.3-0.4c0-0.2-3.9-2.6-3.9-2.6c-0.2,0-0.4,0.4-0.4,0.4c0.3,0.4,0.3,0.5,0.2,0.7l-6.3,10.1
	c-0.1,0.2-0.3,0.2-0.5,0.1c-0.2,0-0.4,0.4-0.4,0.4c0,0.2,3.1,2.1,3.1,2.1l0.1,0.1l0.3-0.4c-0.3-0.3-0.3-0.4-0.3-0.6
	c0-0.1,0-0.1,0.1-0.2c0,0,4.3-6.9,4.9-7.9c0,0.1,0,0.2-0.1,0.3c-0.4,1.5-1.5,6.7-1.5,6.7l-0.7,3.8c0.1,0.1,0.4,0.3,0.4,0.3
	c0.2,0,3.6-2.5,3.6-2.5s4.7-3.5,5.5-4.1l-0.2,0.4c-1.2,1.7-4.9,7.5-4.9,7.5c-0.1,0.2-0.2,0.3-0.6,0.1c-0.2,0.1-0.4,0.3-0.4,0.3
	c0,0.2,3.1,2.1,3.1,2.1c0.2,0,0.4-0.4,0.4-0.4C344.4,441.8,344.5,441.6,344.6,441.5z M360.9,449.8c-0.5,0.4-0.6,0.4-1.1,0
	c0,0-4.8-3.1-4.8-3.1c0.2,0,5.8-8.5,5.8-8.5c0.2-0.3,0.3-0.4,0.9,0c0.2,0,0.4-0.4,0.4-0.4c0-0.2-3.6-2.5-3.6-2.5
	c-0.2,0-0.4,0.3-0.4,0.3c0.5,0.6,0.5,0.7,0.3,1l-6.4,9.7c-0.2,0.3-0.3,0.4-0.8,0.1c-0.2,0.1-0.4,0.4-0.4,0.4c0,0.2,7.6,5.2,7.6,5.2
	c0.5,0.3,0.5,0.5,0.4,0.7c0.1,0.2,0.4,0.4,0.4,0.4c0.2,0,2-2.8,2-2.8C361.2,450,360.9,449.8,360.9,449.8z M370.3,443.3
	c0.4,0.4,0.4,0.5,0.4,0.5l-0.5,0.6c0,0-8.2,8.5-8.2,8.5c-0.2,0.2-0.4,0.4-0.6,0.3c-0.2,0.1-0.3,0.4-0.3,0.4c0.1,0.2,3.2,1.7,3.2,1.7
	l0.1,0.1l0.2-0.5c-0.2-0.2-0.3-0.4-0.3-0.5c0-0.1,0-0.1,0-0.2c0,0,0.3-0.3,0.3-0.3c0,0,1.6-1.6,1.6-1.6c0,0.1,4.1,2,4.1,2
	c-0.1,0-0.3,2.4-0.3,2.4c0,0-0.1,0.4-0.1,0.4c0,0,0,0.1-0.4,0c-0.2,0.1-0.3,0.4-0.3,0.4c0.1,0.2,3.3,1.7,3.3,1.7
	c0.2-0.1,0.3-0.4,0.3-0.4c-0.2-0.3-0.3-0.4-0.2-0.8c0,0,1.2-11.4,1.2-11.4l0.2-1.1c0-0.1,0.1-0.2,0.5-0.1c0.2-0.1,0.3-0.4,0.3-0.4
	c-0.1-0.2-4-2-4-2C370.4,443,370.3,443.3,370.3,443.3z M371.1,446.9c-0.3,1-0.8,5.1-0.9,5.3l-0.1,0c-0.3-0.3-2.2-1.2-2.7-1.4
	c0.2-0.2,3.3-3.6,3.6-4L371.1,446.9z M385.7,448.8c0.5,0.3,0.5,0.5,0.5,0.8l-1.9,7.5c-0.4,1.7-1.6,2.5-3.4,2
	c-0.8-0.2-1.5-0.6-1.8-1.2c-0.3-0.6-0.4-1.3-0.2-2.2l1.8-7.5c0.1-0.3,0.2-0.4,0.6-0.4c0.1-0.1,0.2-0.5,0.2-0.5
	c-0.1-0.2-3.9-1.1-3.9-1.1l-0.1,0l0,0.1l-0.1,0.4c0.6,0.4,0.6,0.5,0.5,0.8l-1.8,7.4c-0.8,3.4,0.6,5.6,4.1,6.5
	c1.8,0.5,3.3,0.3,4.4-0.3c1.1-0.6,1.8-1.8,2.2-3.4l1.8-7.4c0.1-0.3,0.2-0.4,0.7-0.4c0.2-0.1,0.2-0.5,0.2-0.5
	c-0.1-0.2-3.7-1.1-3.7-1.1C385.8,448.4,385.7,448.8,385.7,448.8z M396.1,449.4l-5.7,0c-0.1,0.1-0.2,0.5-0.2,0.5
	c0.6,0.2,0.6,0.3,0.6,0.7c0,0,0,11.6,0,11.6c0,0.4-0.1,0.5-0.5,0.5l-0.1,0.5c0.1,0.1,5.3,0.2,5.3,0.2c2.3,0,4-0.6,5.2-1.7
	c1.2-1.2,1.8-2.9,1.8-5.2C402.6,452,400.2,449.4,396.1,449.4z M399.7,456.4c0,3.4-1.1,4.5-4.6,4.5c0,0-1.5,0-1.5,0v0
	c0.1,0,0.2-8.3,0.2-9c0.2,0,1.4,0,1.4,0C398.6,451.9,399.7,452.9,399.7,456.4L399.7,456.4L399.7,456.4z M416.2,457.4
	c-0.2-0.1-0.5,0-0.5,0c-0.1,0.4-0.1,0.5-0.7,0.7c0,0-5.8,1.5-5.8,1.5c0,0,0,0,0,0c0-0.4-0.7-3-0.8-3.3c0.3-0.1,3.1-0.8,3.1-0.8
	c0.6-0.2,0.7-0.1,0.8,0.1c0.2,0.1,0.5,0,0.5,0c0.1-0.2-0.7-3.1-0.7-3.1c-0.2-0.1-0.5,0-0.5,0c-0.1,0.4-0.1,0.5-0.7,0.7
	c0,0-3.2,0.8-3.2,0.8c0,0,0,0,0-0.1c0-0.4-0.7-3.1-0.7-3.1c0,0.1,5.3-1.2,5.3-1.2c0.6-0.1,0.7-0.1,0.8,0.1c0.2,0.1,0.5,0,0.5,0
	c0.1-0.2-0.7-3.1-0.7-3.1c-0.2-0.1-0.5,0-0.5,0c-0.1,0.4-0.1,0.5-0.7,0.7l-8.8,2.3c-0.1,0.2,0,0.5,0,0.5c0.9,0,0.9,0.1,1,0.4
	l2.9,11.2c0.1,0.3,0.1,0.5-0.5,0.7c-0.1,0.2,0,0.5,0,0.5c0.2,0.1,9.3-2.3,9.3-2.3c0.6-0.1,0.7-0.1,0.8,0.2c0.2,0.1,0.5,0,0.5,0
	C417,460.4,416.2,457.4,416.2,457.4z M256.3,431.8l-8.3-7.8c-0.2-0.2-0.7-0.8-0.7-0.8c-0.1-0.1-0.1-0.3,0.2-0.5
	c0.1-0.2-0.1-0.5-0.1-0.5c-0.2-0.1-4,2-4,2c-0.1,0.2,0.1,0.5,0.1,0.5c0.6-0.1,0.6,0,0.6,0c0,0,0.2,0.8,0.2,0.8
	c0,0.1,1.8,11.7,1.8,11.7c0,0.3,0.1,0.5-0.1,0.7c-0.1,0.2,0.1,0.5,0.1,0.5c0.2,0.1,3.2-1.5,3.2-1.5l0.1-0.1l-0.2-0.4
	c-0.5,0.1-0.6,0-0.7-0.2c0,0-0.1-0.4-0.1-0.4c0,0-0.4-2.3-0.4-2.3c0.1,0.1,4-2,4.1-2c0,0.1,1.7,1.7,1.7,1.7c0,0,0.3,0.3,0.3,0.3
	c0,0,0,0,0,0c0,0,0,0.1-0.2,0.2c0,0,0,0,0,0.1c0,0.2,0.1,0.4,0.1,0.4c0.2,0.1,3.3-1.6,3.3-1.6c0.1-0.2-0.1-0.5-0.1-0.5
	C256.7,432.1,256.6,432.1,256.3,431.8z M250.4,430.1c-0.4,0.1-2.3,1-2.7,1.3c-0.1-0.3-0.9-4.9-1-5.3l0.1,0.1
	c0.6,0.8,3.6,3.8,3.7,3.9L250.4,430.1z"/>
<g>
	<path fill="#FFFFFF" d="M92,505.3c0.6,0,0.7-0.5,0.8-0.7c0.1-0.2,0.2-0.5,0.6-1.1c0.4-0.6,1-0.9,3.4-1c0.9,0,1.8,0,2.7,0
		c0.8,0,1.5,0,2.3,0v15.1c0,3.5,0,6.4-0.2,7.9c-0.2,1.1-0.3,1.6-0.7,1.6c-0.4,0.1-0.8,0.1-1,0.1c-0.5,0-0.8,0.3-0.8,0.7
		c0,0.3,0.2,0.8,1.1,0.8c0.8,0,2.2-0.1,3-0.1c0.3,0,0.5,0,0.6,0c0,0,0.2,0,0.4,0c0.8,0,2.5,0.1,4.1,0.1c1,0,1.1-0.6,1.1-0.8
		c0-0.3-0.3-0.7-0.8-0.7c-0.3,0-1.1-0.1-1.6-0.1c-0.7-0.1-0.9-0.5-1-1.6c-0.2-1.5-0.2-4.5-0.2-8v-15.1c0.6,0,1.2,0,1.9,0
		c0.8,0,1.5,0,2.3,0c3.9,0.1,4,1.1,4.1,1.6c0,0.1,0,0.2,0,0.3c0,0,0,0.1,0,0.2c0,0.3,0.1,1.1,0.8,1.1c0.3,0,0.7-0.2,0.7-0.9
		c0-0.2,0-0.6,0-1.2c0-0.9,0.1-2.2,0.1-2.9c0-0.6-0.2-0.9-0.7-0.9c-0.1,0-0.2,0-0.4,0.1c-0.2,0-0.4,0.1-0.7,0.1
		c-0.6,0.1-1.5,0.2-2.5,0.2H97.5c-0.4,0-1.8-0.1-2.9-0.2c-0.6,0-0.9-0.2-1.1-0.3c-0.2-0.1-0.3-0.2-0.5-0.2c-0.5,0-0.7,0.5-0.8,1.1
		c0,0-0.8,3.5-0.8,4C91.3,505,91.6,505.3,92,505.3z"/>
	<path fill="#FFFFFF" d="M118.2,501.4c0.4,0,0.9,0,1.2,0.1c0.9,0.2,1.1,0.5,1.2,1.7c0.1,1.2,0.1,2.2,0.1,7.9v6.5
		c0,3.5,0,6.4-0.2,7.9c-0.2,1.1-0.3,1.6-0.7,1.6c-0.4,0.1-0.8,0.1-1,0.1c-0.5,0-0.8,0.3-0.8,0.7c0,0.3,0.2,0.8,1.1,0.8
		c0.8,0,2.2-0.1,3-0.1c0.3,0,0.5,0,0.6,0c0,0,0.2,0,0.4,0c0.8,0,2.5,0.1,4.1,0.1c1,0,1.1-0.6,1.1-0.8c0-0.3-0.3-0.7-0.8-0.7
		c-0.3,0-1.1-0.1-1.6-0.1c-0.7-0.1-0.9-0.5-1-1.6c-0.2-1.5-0.2-4.5-0.2-8V514h15.2v3.6c0,3.5,0,6.4-0.2,7.9
		c-0.2,1.1-0.3,1.6-0.7,1.6c-0.4,0.1-0.8,0.1-1,0.1c-0.5,0-0.8,0.3-0.8,0.7c0,0.3,0.2,0.8,1.1,0.8c0.8,0,2.2-0.1,3-0.1
		c0.3,0,0.5,0,0.6,0c0,0,0.2,0,0.4,0c0.8,0,2.5,0.1,4.1,0.1c1,0,1.1-0.6,1.1-0.8c0-0.3-0.3-0.7-0.8-0.7c-0.3,0-1.1-0.1-1.6-0.1
		c-0.7-0.1-0.9-0.5-1-1.6c-0.2-1.5-0.2-4.5-0.2-8v-6.5c0-5.7,0-6.8,0.1-7.9c0.1-1.3,0.4-1.6,1-1.7c0.4-0.1,0.6-0.1,0.8-0.1
		c0.4,0,0.8-0.3,0.8-0.7c0-0.3-0.2-0.8-1.1-0.8c-0.8,0-2.2,0.1-3,0.1c-0.3,0-0.5,0-0.6,0c0,0-0.2,0-0.5,0c-0.8,0-2.4-0.1-3.7-0.1
		c-0.9,0-1.1,0.4-1.1,0.8c0,0.4,0.3,0.7,0.8,0.7c0.4,0,0.9,0,1.2,0.1c0.9,0.2,1.1,0.5,1.2,1.7c0.1,1.2,0.1,2.2,0.1,7.9v0.5h-15.2
		v-0.5c0-5.7,0-6.8,0.1-7.9c0.1-1.3,0.4-1.6,1-1.7c0.4-0.1,0.6-0.1,0.8-0.1c0.4,0,0.8-0.3,0.8-0.7c0-0.3-0.2-0.8-1.1-0.8
		c-0.8,0-2.2,0.1-3,0.1c-0.3,0-0.5,0-0.6,0c0,0-0.2,0-0.5,0c-0.8,0-2.4-0.1-3.7-0.1c-0.9,0-1.1,0.4-1.1,0.8
		C117.4,501.1,117.8,501.4,118.2,501.4z"/>
	<path fill="#FFFFFF" d="M151.4,501.4c0.1,0,0.3,0,0.4,0c0.2,0,0.5,0,0.6,0.1c0.9,0.2,1.1,0.5,1.2,1.7c0.1,1.2,0.1,2.2,0.1,7.9v6.5
		c0,3.3,0,5.2-0.1,6.6c-0.1,2.8-0.6,2.9-1,3c-0.2,0-0.3,0.1-0.5,0.1l-0.3,0c-0.7,0.1-0.8,0.5-0.8,0.7c0,0.3,0.2,0.8,1,0.8l0,0
		c0.6,0,1.1,0,1.6-0.1c0.4,0,0.8-0.1,1.1-0.1c1,0,2.1,0,3.1,0.1c0.5,0,1,0,1.5,0l1.1,0c1.1,0,2.3,0.1,4.3,0.1c1.4,0,2.1,0,2.4-1.3
		c0.2-0.8,0.5-3.3,0.5-3.7c0-0.3,0-1-0.7-1c-0.6,0-0.7,0.6-0.8,0.9c-0.3,1.6-0.6,2.1-1.6,2.4c-0.9,0.3-2.1,0.3-3.2,0.3
		c-1.5,0-2.4-0.1-2.9-0.3c-0.6-0.3-0.8-0.8-0.9-2.3c0-0.5,0-2.9,0-4.7l0-4.7c1,0,4.1,0.1,5,0.2c1.3,0.1,1.5,0.7,1.5,0.9
		c0.1,0.2,0.1,0.5,0.1,0.9c0,0.9,0.5,1.1,0.7,1.1c0.6,0,0.7-0.7,0.7-1c0-0.2,0-0.4,0-0.6c0-0.5,0-1.1,0.1-1.9
		c0.1-0.7,0.2-1.3,0.2-1.6c0-0.2,0.1-0.4,0.1-0.5c0-0.6-0.4-0.8-0.7-0.8c-0.4,0-0.6,0.2-0.8,0.5c-0.2,0.3-0.6,0.4-1.5,0.5
		c-0.6,0.1-3.2,0.1-5.6,0.1l0-10c1,0,4.2,0,4.8,0.1c1.7,0.2,2.1,0.5,2.3,1.1c0.1,0.3,0.2,0.7,0.2,1.1c0,0.9,0.6,0.9,0.8,0.9
		c0.2,0,0.7-0.1,0.8-1.1c0.1-0.7,0.1-1.2,0.1-1.6l0-0.6c0-0.6,0.1-1,0.2-1.3c0-0.2,0.1-0.3,0.1-0.5c0-0.8-0.5-0.8-0.6-0.8
		c-0.2,0-0.4,0.1-0.6,0.2c0,0-0.3,0.1-1.5,0.2c-0.7,0-5.6,0-8.4,0c-2.3-0.1-3.3-0.1-4.2-0.1c-0.9,0-1.1,0.4-1.1,0.8
		C150.5,501.3,151.1,501.4,151.4,501.4z"/>
	<path fill="#FFFFFF" d="M183.7,501.4c0.4,0,0.9,0,1.2,0.1c0.9,0.2,1.1,0.5,1.2,1.7c0.1,1.2,0.1,2.2,0.1,7.9v5.4c0,4.7,1,7.8,3.4,10
		c2.5,2.4,6.1,2.7,7.9,2.7c2,0,5-0.3,7.9-2.9c3.1-2.8,3.6-7.6,3.6-11.4v-3.9c0-5.7,0-6.8,0.1-7.9c0.1-1.3,0.4-1.5,1-1.7
		c0.4-0.1,0.6-0.1,0.8-0.1c0.4,0,0.8-0.3,0.8-0.7c0-0.3-0.2-0.8-1.1-0.8c-0.8,0-1.8,0.1-2.5,0.1c-0.3,0-0.5,0-0.6,0
		c-0.1,0-0.2,0-0.5,0c-0.8,0-2.2-0.1-3.4-0.1c-0.9,0-1.1,0.4-1.1,0.8c0,0.4,0.3,0.7,0.8,0.7c0.4,0,0.9,0,1.2,0.1
		c0.9,0.2,1.1,0.5,1.2,1.7c0.1,1.2,0.1,2.2,0.1,7.9v4.6c0,4.4-0.6,7-2,8.7c-1.3,1.5-3.4,2.5-5.4,2.5c-2,0-3.6-0.3-5.2-1.9
		c-1.3-1.2-2.6-3.2-2.6-8.8v-5.2c0-5.7,0-6.8,0.1-7.9c0.1-1.3,0.4-1.6,1-1.7c0.4-0.1,0.6-0.1,0.8-0.1c0.4,0,0.8-0.3,0.8-0.7
		c0-0.3-0.2-0.8-1.1-0.8c-0.7,0-1.9,0-2.7,0.1c-0.4,0-0.8,0-0.9,0c-0.1,0-0.4,0-0.8,0c-0.9,0-2.3-0.1-3.5-0.1
		c-0.9,0-1.1,0.4-1.1,0.8C182.9,501.1,183.2,501.4,183.7,501.4z"/>
	<path fill="#FFFFFF" d="M215.5,528.8c1.2,0,2.3-0.1,2.9-0.1c0.3,0,0.5,0,0.6,0c0.1,0,0.3,0,0.5,0c0.7,0,1.9,0.1,3.4,0.1
		c0.9,0,1.1-0.4,1.1-0.8c0-0.3-0.2-0.7-0.8-0.7c-0.1,0-1,0-1.7-0.2c-0.7-0.2-1-0.9-1.1-3.8l-0.4-16.4c1.8,2,5.2,5.8,8.8,9.6
		c4,4.3,9.3,9.7,9.6,10c2.2,2.2,2.5,2.5,3,2.5c0.8,0,0.8-0.7,0.8-3.1l0.1-21.6c0-2.7,0.3-2.7,0.9-2.9c0.4-0.1,0.7-0.1,0.9-0.1
		c0.7-0.1,0.8-0.5,0.8-0.7c0-0.7-0.9-0.7-1.1-0.7c-1,0-1.9,0-2.5,0.1c-0.3,0-0.5,0-0.7,0c-0.1,0-0.4,0-0.8,0c-0.8,0-1.9-0.1-3.1-0.1
		c-0.3,0-1.2,0-1.2,0.7c0,0.2,0.1,0.7,1,0.7c0.2,0,0.8,0,1.5,0.2c0.7,0.2,1,0.5,1.1,3.1l0.4,17.5c-0.6-0.7-1.4-1.6-2.4-2.6
		c-1.7-1.8-3.7-4.1-5.6-6.1c-5.7-6.1-11.2-12-11.7-12.7c-0.1-0.1-0.2-0.2-0.3-0.3c-0.5-0.6-0.9-1-1.3-1c-0.9,0-0.9,1.2-0.9,2.3
		c0,3.4,0,4.1,0,5.3c0,1.4,0,3.3,0,10.4v5.5c0,3.1-0.2,4.1-0.8,4.2c-0.4,0.1-1,0.2-1.4,0.2c-0.5,0-0.8,0.4-0.8,0.7
		C214.5,528.5,214.8,528.8,215.5,528.8z"/>
	<path fill="#FFFFFF" d="M250.9,501.4c0.3,0,0.7,0,1,0.1c0.4,0.1,0.8,0.3,0.9,1.6c0.1,1.2,0.1,2.2,0.1,7.9v6.5c0,3.5,0,6.4-0.2,7.9
		c-0.2,1.1-0.4,1.6-0.7,1.7c-0.3,0.1-0.7,0.1-0.9,0.1c-0.8,0-0.9,0.6-0.9,0.7c0,0.3,0.2,0.8,1.1,0.8c0.8,0,2.2-0.1,3-0.1
		c0.3,0,0.5,0,0.6,0c0,0,0.2,0,0.4,0c0.8,0,2.6,0.1,4.1,0.1c0.9,0,1-0.6,1-0.8c0-0.1,0-0.7-0.9-0.7c-0.2,0-0.9-0.1-1.5-0.1
		c-0.7-0.1-0.9-0.5-1-1.6c-0.2-1.5-0.2-4.5-0.2-8v-6.5c0-5.7,0-6.8,0.1-7.9c0.1-1.3,0.4-1.6,1-1.7c0.4-0.1,0.6-0.1,0.8-0.1
		c0.4,0,0.8-0.3,0.8-0.7c0-0.3-0.2-0.8-1.1-0.8c-0.8,0-2.2,0.1-3,0.1c-0.3,0-0.5,0-0.6,0c-0.1,0-0.3,0-0.6,0c-0.8,0-2.3-0.1-3.2-0.1
		c-0.9,0-1.1,0.4-1.1,0.8C250.1,501.1,250.4,501.4,250.9,501.4z"/>
	<path fill="#FFFFFF" d="M262.1,501.4c0.2,0,0.8,0,1.3,0.1c1.1,0.3,1.6,0.6,2.4,2.6l9,22.6l0.1,0.2c0.7,1.8,0.9,2.4,1.7,2.4
		c0.6,0,0.8-0.4,1.4-1.7c0.2-0.4,0.4-0.8,0.6-1.3c0.8-1.7,2.4-5.4,4.5-10.5l1.6-3.8c1.4-3.3,2.5-6.1,2.8-6.9c0.9-2.4,1.5-3,1.8-3.2
		c0.6-0.4,1.3-0.4,1.5-0.4c0.8,0,0.9-0.6,0.9-0.7c0-0.3-0.1-0.7-1.1-0.7c-0.7,0-1.8,0.1-2.4,0.1c-0.3,0-0.5,0-0.5,0
		c-0.2,0-0.5,0-0.9,0c-0.7,0-1.8-0.1-2.8-0.1c-0.4,0-1.3,0-1.3,0.8c0,0.2,0.1,0.7,0.9,0.7c0.4,0,0.9,0,1.2,0.1
		c0.2,0.1,0.2,0.3,0.2,0.4c0,0.3-0.2,1-0.3,1.3c-0.7,2.4-5.1,13.8-7.4,19.4l-7.1-18.5c-0.5-1.3-0.7-2-0.7-2.2c0-0.2,0-0.2,0.2-0.3
		c0.2-0.1,0.7-0.1,1.2-0.1c0.8,0,0.8-0.6,0.8-0.7c0-0.7-1-0.7-1.5-0.7c-0.9,0-2,0-2.6,0.1c-0.3,0-0.6,0-0.7,0c-0.1,0-0.5,0-0.9,0
		c-0.9,0-2.1-0.1-3.3-0.1c-0.5,0-1.4,0-1.4,0.7C261.4,501.1,261.7,501.4,262.1,501.4z"/>
	<path fill="#FFFFFF" d="M294.1,501.4c0.1,0,0.3,0,0.4,0c0.2,0,0.5,0,0.6,0.1c0.9,0.2,1.1,0.5,1.2,1.7c0.1,1.2,0.1,2.2,0.1,7.9v6.5
		c0,3.3,0,5.2-0.1,6.6c-0.1,2.8-0.6,2.9-1,3c-0.2,0-0.3,0.1-0.5,0.1l-0.3,0c-0.7,0.1-0.8,0.5-0.8,0.7c0,0.3,0.2,0.8,1,0.8l0,0
		c0.6,0,1.1,0,1.6-0.1c0.4,0,0.8-0.1,1.1-0.1c1,0,2.1,0,3.1,0.1c0.5,0,1,0,1.5,0l1.1,0c1.1,0,2.3,0.1,4.3,0.1c1.4,0,2.1,0,2.4-1.3
		c0.2-0.8,0.5-3.3,0.5-3.7c0-0.3,0-1-0.7-1c-0.6,0-0.7,0.6-0.8,0.9c-0.3,1.6-0.6,2.1-1.6,2.4c-0.9,0.3-2.1,0.3-3.2,0.3
		c-1.5,0-2.4-0.1-2.9-0.3c-0.6-0.3-0.8-0.8-0.9-2.3c0-0.5,0-2.9,0-4.7l0-4.7c1,0,4.1,0.1,5,0.2c1.3,0.1,1.5,0.7,1.5,0.9
		c0.1,0.2,0.1,0.5,0.1,0.9c0,0.9,0.5,1.1,0.7,1.1c0.6,0,0.7-0.7,0.7-1c0-0.2,0-0.4,0-0.6c0-0.5,0-1.1,0.1-1.9
		c0.1-0.7,0.2-1.3,0.2-1.6c0-0.2,0.1-0.4,0.1-0.5c0-0.6-0.4-0.8-0.7-0.8c-0.4,0-0.6,0.2-0.8,0.5c-0.2,0.3-0.6,0.4-1.5,0.5
		c-0.6,0.1-3.2,0.1-5.6,0.1l0-10c1,0,4.2,0,4.8,0.1c1.7,0.2,2.1,0.5,2.3,1.1c0.1,0.3,0.2,0.7,0.2,1.1c0,0.9,0.6,0.9,0.8,0.9
		c0.2,0,0.7-0.1,0.8-1.1c0-0.7,0.1-1.2,0.1-1.6l0-0.6c0-0.6,0.1-1,0.2-1.3c0-0.2,0.1-0.3,0.1-0.5c0-0.8-0.5-0.8-0.6-0.8
		c-0.2,0-0.4,0.1-0.6,0.2c0,0-0.3,0.1-1.5,0.2c-0.7,0-5.6,0-8.4,0c-2.3-0.1-3.3-0.1-4.2-0.1c-0.9,0-1.1,0.4-1.1,0.8
		C293.2,501.3,293.8,501.4,294.1,501.4z"/>
	<path fill="#FFFFFF" d="M315.5,501.4c0.4,0,0.9,0,1.2,0.1c0.9,0.2,1.1,0.5,1.2,1.7c0.1,1.2,0.1,2.2,0.1,7.9v6.5
		c0,3.5,0,6.4-0.2,7.9c-0.2,1.1-0.3,1.6-0.7,1.6c-0.4,0.1-0.8,0.1-1,0.1c-0.5,0-0.8,0.3-0.8,0.7c0,0.3,0.2,0.8,1.1,0.8
		c0.9,0,2.7-0.1,3.3-0.1l0.1,0c0,0,0.2,0,0.4,0c0.8,0,2.5,0.1,4.1,0.1c1,0,1.1-0.6,1.1-0.8c0-0.3-0.3-0.7-0.8-0.7
		c-0.3,0-1.1-0.1-1.6-0.1c-0.7-0.1-0.9-0.5-1-1.6c-0.2-1.5-0.2-4.5-0.2-8v-0.7l4.3,0.1c0.1,0,0.1,0,0.1,0c0.3,0.4,0.8,1.1,1.4,1.9
		c0.8,1.1,1.8,2.4,2.6,3.6l0.5,0.6c1.9,2.5,3.1,4.1,4.7,4.9c1.1,0.6,2.1,0.8,4.2,0.8h2.6c0.5,0,1.4,0,1.4-0.8c0-0.4-0.4-0.7-0.8-0.7
		c-0.2,0-0.7,0-1.4-0.1c-0.9-0.1-2.4-0.6-4.2-2.5c-1.9-2-4-4.8-6.6-8l-0.8-1.1c2.9-2.8,4.3-5.5,4.3-8.6c0-2.7-1.7-4.7-2.7-5.4
		c-2.1-1.5-4.7-1.7-7-1.7c-0.7,0-2.1,0-3.1,0.1c-0.6,0-1.1,0-1.2,0c0,0-0.2,0-0.5,0c-0.8,0-2.4-0.1-3.7-0.1c-0.9,0-1.1,0.4-1.1,0.8
		C314.7,501.1,315.1,501.4,315.5,501.4z M321.8,502.3c0.3-0.1,1.2-0.2,2.3-0.2c3.7,0,5.9,2.6,5.9,6.9c0,2.4-0.8,4.4-2.1,5.3
		c-0.8,0.6-1.8,0.6-2.5,0.6c-1.7,0-3.2-0.3-3.7-0.6L321.8,502.3z"/>
	<path fill="#FFFFFF" d="M344.9,528.3c1.4,0.7,3.1,1,5.2,1c2.3,0,4.3-0.6,5.8-1.6c2.5-1.7,3.3-4.5,3.3-6.5c0-2.9-0.9-5.4-5.6-9
		l-1-0.8c-3.4-2.7-4.3-3.9-4.3-5.8c0-2.3,1.6-3.8,4.1-3.8c2.9,0,3.9,1.2,4.2,1.7c0.2,0.3,0.4,1.2,0.4,1.7c0,0.2,0.1,0.9,0.8,0.9
		c0.7,0,0.7-0.9,0.7-1.3c0-2,0.1-3.1,0.1-3.6c0-0.2,0-0.3,0-0.3c0-0.2-0.1-0.7-0.8-0.7c-0.2,0-0.5,0-1.2-0.2
		c-1.1-0.3-2.2-0.4-3.5-0.4c-4.9,0-8.1,2.9-8.1,7.1c0,2.6,0.8,5,5,8.4l1.7,1.4c3.2,2.6,4.1,4,4.1,6.3c0,2.2-1.7,4.4-4.8,4.4
		c-1.3,0-4.4-0.3-5-3.4c-0.1-0.5-0.1-0.9-0.1-1.3c0-0.7-0.4-0.9-0.7-0.9c-0.7,0-0.7,0.8-0.8,1l0,0.4c-0.1,0.7-0.2,2-0.2,3.5
		C344.1,527.5,344.2,527.9,344.9,528.3z"/>
	<path fill="#FFFFFF" d="M365.6,501.4c0.3,0,0.7,0,1,0.1c0.4,0.1,0.8,0.3,0.9,1.6c0.1,1.2,0.1,2.2,0.1,7.9v6.5c0,3.5,0,6.4-0.2,7.9
		c-0.2,1.1-0.4,1.6-0.7,1.7c-0.3,0.1-0.7,0.1-0.9,0.1c-0.8,0-0.9,0.6-0.9,0.7c0,0.3,0.2,0.8,1.1,0.8c0.8,0,2.2-0.1,3-0.1
		c0.3,0,0.5,0,0.6,0c0,0,0.2,0,0.4,0c0.8,0,2.6,0.1,4.1,0.1c0.9,0,1-0.6,1-0.8c0-0.1,0-0.7-0.9-0.7c-0.2,0-0.9-0.1-1.5-0.1
		c-0.7-0.1-0.9-0.5-1-1.6c-0.2-1.5-0.2-4.5-0.2-8v-6.5c0-5.7,0-6.8,0.1-7.9c0.1-1.3,0.4-1.6,1-1.7c0.4-0.1,0.6-0.1,0.8-0.1
		c0.4,0,0.8-0.3,0.8-0.7c0-0.3-0.2-0.8-1.1-0.8c-0.8,0-2.2,0.1-3,0.1c-0.3,0-0.5,0-0.6,0c-0.1,0-0.3,0-0.6,0c-0.8,0-2.3-0.1-3.2-0.1
		c-0.9,0-1.1,0.4-1.1,0.8C364.8,501.1,365.1,501.4,365.6,501.4z"/>
	<path fill="#FFFFFF" d="M378,505.3c0.6,0,0.7-0.5,0.8-0.7c0.1-0.2,0.2-0.5,0.6-1.1c0.4-0.6,1-0.9,3.4-1c0.9,0,1.8,0,2.7,0
		c0.8,0,1.5,0,2.3,0v15.1c0,3.5,0,6.4-0.2,7.9c-0.2,1.1-0.3,1.6-0.7,1.6c-0.4,0.1-0.8,0.1-1,0.1c-0.5,0-0.8,0.3-0.8,0.7
		c0,0.3,0.2,0.8,1.1,0.8c0.8,0,2.2-0.1,3-0.1c0.3,0,0.5,0,0.6,0c0,0,0.2,0,0.4,0c0.8,0,2.5,0.1,4.1,0.1c1,0,1.1-0.6,1.1-0.8
		c0-0.3-0.3-0.7-0.8-0.7c-0.3,0-1.1-0.1-1.6-0.1c-0.7-0.1-0.9-0.5-1-1.6c-0.2-1.5-0.2-4.5-0.2-8v-15.1c0.6,0,1.2,0,1.9,0
		c0.8,0,1.5,0,2.3,0c3.9,0.1,4,1.1,4.1,1.6c0,0.1,0,0.2,0,0.3c0,0,0,0.1,0,0.2c0,0.3,0.1,1.1,0.8,1.1c0.3,0,0.7-0.2,0.7-0.9
		c0-0.2,0-0.6,0-1.2c0-0.9,0.1-2.2,0.1-2.9c0-0.6-0.2-0.9-0.7-0.9c-0.1,0-0.2,0-0.4,0.1c-0.2,0-0.4,0.1-0.7,0.1
		c-0.6,0.1-1.5,0.2-2.5,0.2h-13.8c-0.4,0-1.8-0.1-2.9-0.2c-0.6,0-0.9-0.2-1.1-0.3c-0.2-0.1-0.3-0.2-0.5-0.2c-0.5,0-0.7,0.5-0.8,1.1
		c0,0-0.8,3.5-0.8,4C377.3,505,377.6,505.3,378,505.3z"/>
	<path fill="#FFFFFF" d="M403,501.4c0.2,0,0.8,0.2,1.3,0.5c0.7,0.5,1.6,1.4,2.4,2.6c1.3,2,6.2,10,6.5,10.6c0.5,1,0.8,1.8,0.8,3.7
		v3.2c0,0.6,0,2.1-0.1,3.7c0,0.7-0.2,1.5-0.8,1.6c-0.4,0.1-0.8,0.1-1,0.1c-0.5,0-0.8,0.3-0.8,0.7c0,0.3,0.2,0.8,1.1,0.8
		c0.8,0,2.2-0.1,3-0.1c0.3,0,0.5,0,0.6,0c0,0,0.2,0,0.4,0c0.8,0,2.5,0.1,4.1,0.1c1,0,1.1-0.6,1.1-0.8c0-0.3-0.3-0.7-0.8-0.7
		c-0.3,0-1.1-0.1-1.6-0.1c-0.6-0.1-1-0.4-1.1-1.6c-0.1-1.5-0.1-3.1-0.1-3.7v-3.2c0-1.2,0-2.3,0.5-3.5c0.6-1.5,5.8-10.1,7-11.6
		c0.8-1,1.2-1.4,1.8-1.8c0.5-0.3,1.1-0.4,1.4-0.4c0.7,0,0.9-0.4,0.9-0.8c0-0.3-0.2-0.7-0.9-0.7c-0.5,0-1.7,0-2.6,0.1
		c-0.5,0-0.9,0-1,0c-0.1,0-0.3,0-0.6,0c-0.5,0-1.2-0.1-1.9-0.1c-1,0-1.1,0.5-1.1,0.7c0,0.5,0.5,0.7,0.9,0.8c0.1,0,0.2,0.1,0.2,0.6
		c0,0.5-0.2,1-0.6,1.6c-0.6,1.1-4.4,7.5-5.8,10.1c-1.5-2.5-5.8-10-6.3-10.9c-0.3-0.5-0.4-0.9-0.4-1.2c0,0,0-0.1,0.2-0.2
		c0.1,0,0.1-0.1,0.2-0.1c0.2-0.1,0.6-0.2,0.6-0.7c0-0.3-0.1-0.7-0.9-0.7c-1,0-2,0.1-2.6,0.1c-0.2,0-0.4,0-0.5,0c-0.1,0-0.4,0-0.9,0
		c-0.9,0-2.3-0.1-2.8-0.1c-0.7,0-0.9,0.4-0.9,0.7C402.2,501.1,402.5,501.4,403,501.4z"/>
	<path fill="#FFFFFF" d="M456.6,529.3c8.8,0,15.2-6.5,15.2-15.6c0-8.6-6-14.3-15-14.3c-10.9,0-15,9.1-15,14.9
		C441.8,521.6,446.4,529.3,456.6,529.3z M446.3,513.3c0-7.3,3.9-11.7,10.3-11.7c5.2,0,10.8,4.1,10.8,13.2c0,11.6-8.1,12.2-9.7,12.2
		C450.9,527,446.3,521.4,446.3,513.3z"/>
	<path fill="#FFFFFF" d="M491.1,499.7c-0.2,0-0.4,0.1-0.6,0.2c-0.2,0.1-0.7,0.1-1.2,0.1l-0.3,0c-0.8,0-7.7,0-9.1,0
		c-0.6,0-1.3,0-2-0.1c-0.7,0-1.4-0.1-2.2-0.1c-0.9,0-1.1,0.4-1.1,0.8c0,0.6,0.7,0.7,1,0.7c0.2,0,0.3,0,0.5,0c0.2,0,0.3,0,0.4,0
		c0.9,0.2,1.1,0.5,1.2,1.7c0.1,1.2,0.1,2.2,0.1,7.9v6.5c0,3.8,0,6.2-0.1,7.6c-0.1,1.7-0.4,1.9-0.8,2c-0.2,0.1-0.5,0.1-0.9,0.1
		c-0.5,0.1-0.8,0.3-0.8,0.7c0,0.3,0.2,0.8,1.1,0.8c1,0,2.9-0.1,3.3-0.1h0.3c0,0,0.2,0,0.4,0c0.8,0,2.5,0.1,4.1,0.1
		c0.9,0,1.1-0.4,1.1-0.7c0-0.4-0.3-0.7-0.9-0.7l-0.4,0c-0.4,0-0.8-0.1-1.1-0.1c-0.5-0.1-1-0.3-1.1-2.1c-0.1-1.7-0.1-4.3-0.1-7.4l0-3
		c2.8,0,4.8,0,5.3,0.1c1.5,0.2,1.6,1.1,1.7,1.9c0,0.3,0.1,1,0.8,1c0.6,0,0.7-0.7,0.7-1.1c0-0.2,0-0.4,0-0.7c0-0.5,0-1.1,0.1-1.9
		c0.1-0.7,0.2-1.3,0.2-1.6c0-0.2,0.1-0.4,0.1-0.5c0-0.7-0.5-0.8-0.7-0.8c-0.3,0-0.5,0.2-0.7,0.4l-0.1,0.1c-0.4,0.4-0.6,0.5-2.6,0.5
		c-1.4,0-3.4,0-4.9,0l0-10l5.5,0.1c0.8,0,1.4,0.2,1.9,0.6c0.3,0.2,0.5,0.8,0.5,1.5c0,0.3,0.1,0.9,0.7,0.9c0.5,0,0.8-0.5,0.8-1.2
		c0-0.3,0-0.6,0.1-0.8c0-0.6,0.1-1.1,0.2-1.8c0-0.2,0.1-0.4,0.1-0.6c0.1-0.3,0.1-0.5,0.1-0.7C491.8,499.9,491.4,499.7,491.1,499.7z"
		/>
	<path fill="#FFFFFF" d="M148.3,612.2c-0.5,0-1.7,0-3.1-0.4c-1.5-0.5-1.8-2.7-2.1-4.7l-3.8-33.9c-0.1-0.8-0.3-2.7-2.1-2.7
		c-1.3,0-1.9,1.2-2.1,1.7l-15.3,32.1l-15.9-32.1c-0.2-0.4-0.8-1.6-2.1-1.6c-0.8,0-1.9,0.6-2,2.4l-4,35.9l-0.1,0.4
		c-0.3,2.1-0.4,2.8-1.1,2.9c-0.7,0.1-1,0.1-1.4,0.1c-1.1,0-2,0.7-2,1.7c0,0.6,0.2,1.9,2.4,1.9c1,0,2.5-0.1,3.5-0.1c0.6,0,1,0,1.2,0
		c0.1,0,0.5,0,1,0c1.2,0.1,3,0.1,4.4,0.1c2.1,0,2.3-1.6,2.3-1.9c0-0.8-0.7-1.7-2-1.7c-0.3,0-0.9,0-1.8-0.2c-0.2,0-0.3-0.1-0.3-0.1
		s-0.1-0.1-0.1-0.5c0-0.8,0-1.5,0.1-2.3l1.9-20.9c2.1,4.6,5.1,10.7,5.4,11.4l0.3,0.5c3.3,6.6,5.5,10.7,6.3,12.3l0.1,0.2
		c1.2,2.2,1.6,3.1,2.9,3.1c1.3,0,1.8-0.9,2.7-2.9l12.2-25.3l2.2,23.8c0,0.4,0.1,0.6,0.1,0.8c-0.3,0.2-0.7,0.7-0.7,1.4
		c0,1.7,1.9,1.9,2.9,2c2.1,0.2,8.6,0.3,9.9,0.3c2,0,2.3-1.3,2.3-1.9C150.3,613.1,149.7,612.2,148.3,612.2z"/>
	<path fill="#FFFFFF" d="M180.9,605.6c-1,0-1.6,0.7-1.9,2c-0.4,2.3-0.9,2.7-1.9,3c-1.3,0.4-3,0.4-4.7,0.4c-1.5,0-3.3,0-4.2-0.4
		c-0.5-0.2-0.9-0.5-1-2.8c0-0.8,0-4.5,0-6.9c0-1,0-1.9,0-2.4v-3.8c2,0,5.8,0.1,6.9,0.3c1.6,0.2,1.7,0.6,1.7,0.9
		c0.1,0.3,0.2,0.7,0.2,1.1c0,2.2,1.5,2.3,1.8,2.3c0.5,0,1.6-0.2,1.8-2.1c0-0.3,0-0.6,0-1c0-0.7,0.1-1.6,0.2-2.7
		c0.1-1.1,0.2-1.8,0.3-2.3c0.1-0.4,0.1-0.6,0.1-0.9c0-1.2-0.8-1.9-1.7-1.9c-0.9,0-1.4,0.6-1.8,1c-0.2,0.2-0.4,0.3-1.9,0.4
		c-0.8,0.1-4.5,0.1-7.8,0.1v-13.5c2,0,5.9,0.1,6.5,0.2c2.6,0.2,2.7,0.8,2.9,1.1c0.1,0.2,0.2,0.7,0.2,1.3c0,1.7,1.2,2.1,1.9,2.1
		c0.4,0,1.6-0.2,1.9-2.2c0.1-1,0.1-1.8,0.2-2.5l0-0.8c0.1-0.8,0.2-1.4,0.3-1.8c0.1-0.3,0.2-0.6,0.2-0.9c0-1.3-0.8-1.9-1.6-1.9
		c-0.5,0-0.8,0.2-1.2,0.3c-0.1,0-0.8,0.2-2.1,0.2c-1,0-8.5,0.1-12.8,0.1c-3.6-0.2-5.1-0.2-6.4-0.2c-2.1,0-2.3,1.4-2.3,1.9
		c0,0.7,0.3,1.5,2,1.7c0.2,0,0.4,0,0.6,0c0.2,0,0.6,0,0.8,0.1l0.1,0c1,0.2,1.2,0.3,1.3,1.9c0.1,1.7,0.1,3.3,0.1,11.8v9.7
		c0,4.9-0.1,7.7-0.1,9.8c-0.1,3.7-0.7,3.8-1,3.9c-0.2,0-0.3,0.1-0.6,0.1l-0.5,0c-1.7,0.3-1.8,1.4-1.8,1.7c0,0.4,0.2,1.8,2.3,1.8
		c0,0,0,0,0,0c0.9,0,1.7,0,2.5-0.1c0.6,0,1.1-0.1,1.7-0.1c1.5,0,3.2,0.1,4.8,0.1c0.7,0,1.5,0,2.2,0.1c0.6,0,1.1,0,1.7,0.1
		c1.6,0.1,3.5,0.1,6.6,0.1c2.2,0,3.7,0,4.4-2.5c0.3-1.2,0.8-5.1,0.8-5.7C182.7,605.8,181.4,605.6,180.9,605.6z"/>
	<path fill="#FFFFFF" d="M218.8,605.3c-0.4,0-1.7,0.1-1.9,1.9c-0.1,0.9-0.6,2-1.1,2.6c-0.9,1.1-2.9,1.2-5.7,1.2
		c-4.1,0-5.2-0.3-5.8-0.9c-0.8-0.9-0.8-8.2-0.8-11.6v-9.8c0-8.6,0-10.1,0.1-11.8c0.1-1.7,0.4-1.7,1-1.8c0.6-0.1,1.3-0.1,1.6-0.1
		c1,0,1.9-0.8,1.9-1.7c0-0.4-0.2-1.9-2.3-1.9c-1.2,0-3.6,0.1-5.1,0.1c-0.5,0-0.9,0-1,0c-0.1,0-0.3,0-0.7,0c-1.2,0-3.7-0.1-5.7-0.1
		c-2.1,0-2.3,1.4-2.3,1.9c0,1,0.8,1.7,1.9,1.7c0.5,0,1.3,0.1,1.6,0.1c1,0.2,1.2,0.3,1.3,1.9c0.1,1.7,0.1,3.3,0.1,11.8v9.7
		c0,5.1,0,9.6-0.3,11.8c-0.2,1.4-0.4,1.8-0.5,1.9c-0.5,0.1-1.1,0.2-1.4,0.2c-1.2,0-1.9,0.9-1.9,1.7c0,0.4,0.2,1.9,2.3,1.9
		c1.1,0,2.1,0,3.1-0.1c3.7-0.2,7.1,0,10.4,0.1c2.5,0.1,4.8,0.2,7.1,0.2c3,0,4.2-0.2,4.9-2.5c0.5-1.7,0.9-5.2,0.9-5.9
		C220.6,605.6,219.5,605.3,218.8,605.3z"/>
	<path fill="#FFFFFF" d="M248.5,590.3c2.2-2.4,4.2-5.2,4.2-9.4c0-3.6-2.7-9.7-12.7-9.7c-1.5,0-2.9,0.1-4.1,0.1
		c-0.8,0-1.5,0.1-2.1,0.1c-0.1,0-0.3,0-0.7,0c-1.2,0-3.7-0.1-5.7-0.1c-2.1,0-2.3,1.4-2.3,1.9c0,0.2,0.1,1.7,2.1,1.7
		c0.2,0,1,0.1,1.3,0.1c1,0.2,1.2,0.3,1.3,1.9c0.1,1.7,0.1,3.3,0.1,11.8v9.7c0,5.1,0,9.6-0.3,11.8c-0.1,0.5-0.2,1.7-0.5,1.9
		c-0.4,0.1-0.7,0.1-1,0.1c-2.2,0-2.3,1.6-2.3,1.8c0,0.4,0.2,1.8,2.3,1.8c1,0,2,0,2.9-0.1c0.9,0,1.7-0.1,2.6-0.1
		c0.2,0,1.7,0.1,3.4,0.2c0.7,0,1.5,0.1,2.2,0.1c0.8,0,1.5,0.1,1.9,0.1c10.4,0,15.8-6.8,15.8-13.4
		C257.2,596.7,253.1,592.4,248.5,590.3z M244,588.4c-0.7,0.8-0.9,1-4.1,1c-1.1,0-1.9,0-2.4-0.1v-13.4c0.6-0.1,1.4-0.2,2-0.2
		c5.9,0,6.2,6.7,6.2,8.1C245.6,585.5,245,587.2,244,588.4z M237.5,593.6c2.3,0,3,0.1,3.2,0.1c1.3,0.2,2.4,0.3,4,1.4
		c4.4,2.9,4.8,7.9,4.8,9.9c0,6.1-5.4,6.4-6.5,6.4c-1.3,0-3.3-0.2-4.3-0.7c-0.9-0.4-0.9-0.4-1.1-2.9l0-0.2c-0.1-0.8-0.1-8-0.1-11.8
		L237.5,593.6L237.5,593.6z"/>
	<path fill="#FFFFFF" d="M286.4,570.5c-17.2,0-23.6,14.1-23.6,23c0,11.1,7.3,23.1,23.3,23.1c13.8,0,23.9-10.1,23.9-24
		C310,579.4,300.5,570.5,286.4,570.5z M286,575.2c7.6,0,15.7,5.9,15.7,19c0,16.7-11.8,17.5-14.1,17.5c-9.8,0-16.6-8.1-16.6-19.7
		C271,581.5,276.6,575.2,286,575.2z"/>
	<path fill="#FFFFFF" d="M356.7,571.3c-1.2,0-2.8,0.1-3.8,0.1c-0.5,0-0.8,0-0.9,0c-0.1,0-0.4,0-0.7,0c-1.2,0-3.3-0.1-5.2-0.1
		c-2.1,0-2.3,1.4-2.3,1.9c0,1,0.8,1.7,1.9,1.7c0.5,0,1.3,0.1,1.6,0.1c1,0.2,1.2,0.3,1.3,1.9c0.1,1.7,0.1,3.3,0.1,11.8v6.9
		c0,6.3-0.9,10.1-2.9,12.6c-1.8,2.1-4.9,3.5-7.8,3.5c-2.9,0-5.1-0.4-7.5-2.7c-1.9-1.7-3.8-4.6-3.8-12.6v-7.7c0-8.6,0-10.1,0.1-11.8
		c0.1-1.7,0.4-1.8,0.9-1.8c0.7-0.1,0.9-0.1,1.2-0.1c1,0,1.9-0.8,1.9-1.7c0-0.4-0.2-1.9-2.3-1.9c-1.1,0-2.9,0.1-4.2,0.1
		c-0.7,0-1.2,0-1.4,0c-0.1,0-0.6,0-1.1,0c-1.3,0-3.6-0.1-5.3-0.1c-2.1,0-2.3,1.4-2.3,1.9c0,1,0.8,1.7,1.9,1.7c0.5,0,1.3,0.1,1.6,0.1
		c1,0.2,1.2,0.3,1.3,1.9c0.1,1.7,0.1,3.3,0.1,11.8v8.1c0,7.3,1.6,12.1,5.4,15.5c4,3.7,9.6,4.3,12.6,4.3c3.2,0,8-0.5,12.5-4.4
		c5-4.4,5.7-11.7,5.7-17.6v-5.9c0-8.6,0-10.1,0.1-11.8c0.1-1.7,0.4-1.7,0.9-1.8c0.7-0.1,0.9-0.1,1.2-0.1c1,0,1.9-0.8,1.9-1.7
		C359,572.7,358.8,571.3,356.7,571.3z"/>
	<path fill="#FFFFFF" d="M408.7,612.2c-0.3,0-1,0-2-0.1c-1.3-0.2-3.4-0.8-6.1-3.6c-2.8-3-6.1-7.1-10-11.9l-0.9-1.1
		c4.3-4.2,6.3-8.3,6.3-12.9c0-4.1-2.4-7.2-4.5-8.7c-3.4-2.4-7.5-2.7-11.1-2.7c-1.1,0-3.2,0.1-4.8,0.1c-0.9,0-1.6,0.1-1.9,0.1
		c-0.1,0-0.3,0-0.7,0c-1.2,0-3.7-0.1-5.7-0.1c-2.1,0-2.3,1.4-2.3,1.9c0,1,0.8,1.7,1.9,1.7c0.5,0,1.3,0.1,1.6,0.1
		c1,0.2,1.2,0.3,1.3,1.9c0.1,1.7,0.1,3.3,0.1,11.8v9.7c0,5.1,0,9.6-0.3,11.8c-0.2,1.4-0.4,1.8-0.5,1.9c-0.5,0.1-1.1,0.2-1.4,0.2
		c-1.2,0-1.9,0.9-1.9,1.7c0,0.4,0.2,1.9,2.3,1.9c1.5,0,4.2-0.1,5.1-0.2l0.2,0c0.1,0,0.3,0,0.6,0c1.3,0,3.9,0.1,6.3,0.1
		c2.2,0,2.3-1.7,2.3-1.9c0-0.8-0.7-1.7-1.9-1.7c-0.4,0-1.6-0.1-2.4-0.2c-0.5-0.1-0.8-0.1-1-1.8c-0.3-2.2-0.3-6.7-0.3-11.8v-0.3
		l5.7,0.1c0.5,0.6,1.1,1.5,1.9,2.6c1.2,1.6,2.7,3.6,4,5.4l0.7,0.9c2.9,3.8,4.8,6.3,7.3,7.6c1.7,0.9,3.4,1.2,6.7,1.2h4
		c0.7,0,2.8,0,2.8-1.9C410.6,613,409.7,612.2,408.7,612.2z M377.4,576c0.6-0.1,1.6-0.2,2.8-0.2c5.3,0,8.3,3.5,8.3,9.6
		c0,4-1.5,6.4-2.8,7.3c-1.1,0.7-2.5,0.8-3.4,0.8c-2.3,0-4.1-0.3-4.9-0.6V576z"/>
	<path fill="#FFFFFF" d="M457.1,571.3c-1.6,0-2.9,0.1-3.8,0.1c-0.4,0-0.8,0-1,0c-0.2,0-0.6,0-1.2,0c-1.2,0-3-0.1-4.7-0.1
		c-2.1,0-2.5,1-2.5,1.8c0,0.2,0.1,1.8,2.2,1.8c0.2,0,1.1,0,2.1,0.2c0.6,0.2,1.1,0.3,1.1,3.9l0.5,24.4c-0.7-0.8-1.5-1.6-2.4-2.6
		c-2.5-2.7-5.6-6.1-8.6-9.2c-8.8-9.2-17.1-18-17.9-19c-0.1-0.1-0.3-0.3-0.5-0.5c-0.8-0.9-1.6-1.7-2.5-1.7c-2,0-2,2.4-2,4.2
		c0,5.1,0,6.1,0,7.9c0,2-0.1,5-0.1,15.5v8.2c0,1.6,0,5.5-0.7,5.7c-0.6,0.2-1.5,0.3-1.9,0.3c-1.2,0-1.9,0.9-1.9,1.7
		c0,0.6,0.2,1.9,2.3,1.9c1.8,0,3.5-0.1,4.5-0.1c0.4,0,0.7,0,0.9,0c0.1,0,0.4,0,0.8,0c1,0,2.9,0.1,5.2,0.1c2.2,0,2.4-1.4,2.4-1.9
		c0-0.9-0.6-1.7-1.9-1.7c-0.5,0-1.6-0.1-2.4-0.3c-0.5-0.1-1.1-0.7-1.2-5.1l-0.6-22.7c2.9,3.2,7.5,8.2,12.2,13.1
		c5.8,6.1,14.1,14.4,14.7,15c3.3,3.3,4,3.9,5.1,3.9c1.9,0,1.9-1.7,1.9-5.3l0.1-32.2c0-3.4,0.3-3.5,0.9-3.6c0.6-0.1,0.9-0.1,1.3-0.2
		c1.7-0.2,1.8-1.4,1.8-1.8C459.5,572.4,459.2,571.3,457.1,571.3z"/>
	<path fill="#FFFFFF" d="M489.1,605.6c-1,0-1.6,0.7-1.9,2c-0.4,2.3-0.9,2.7-1.9,3c-1.3,0.4-3,0.4-4.7,0.4c-1.5,0-3.3,0-4.2-0.4
		c-0.5-0.2-0.9-0.5-1-2.8c0-0.8,0-4.5,0-6.9c0-1,0-1.9,0-2.4v-3.8c2,0,5.8,0.1,6.9,0.3c1.6,0.2,1.7,0.6,1.7,0.9
		c0.1,0.3,0.2,0.7,0.2,1.1c0,2.2,1.5,2.3,1.8,2.3c0.5,0,1.6-0.2,1.8-2.1c0-0.3,0-0.6,0-1c0-0.7,0.1-1.6,0.2-2.7
		c0.1-1.1,0.2-1.8,0.3-2.3c0.1-0.4,0.1-0.6,0.1-0.9c0-1.2-0.8-1.9-1.7-1.9c-0.9,0-1.4,0.6-1.7,1c-0.2,0.2-0.4,0.3-1.9,0.4
		c-0.8,0.1-4.5,0.1-7.8,0.1v-13.5c2,0,5.9,0.1,6.5,0.2c2.6,0.2,2.7,0.8,2.9,1.1c0.1,0.2,0.2,0.7,0.2,1.3c0,1.7,1.2,2.1,1.9,2.1
		c0.4,0,1.6-0.2,1.9-2.2c0.1-1,0.1-1.8,0.2-2.5l0.1-0.8c0.1-0.8,0.2-1.4,0.3-1.8c0.1-0.3,0.2-0.6,0.2-0.9c0-1.3-0.8-1.9-1.6-1.9
		c-0.5,0-0.8,0.2-1.2,0.3c-0.1,0-0.8,0.2-2.1,0.2c-1,0-8.5,0.1-12.8,0.1c-3.6-0.2-5.1-0.2-6.4-0.2c-2.1,0-2.3,1.4-2.3,1.9
		c0,0.7,0.3,1.5,2,1.7c0.2,0,0.4,0,0.6,0c0.2,0,0.6,0,0.8,0.1l0.1,0c1,0.2,1.2,0.3,1.3,1.9c0.1,1.7,0.1,3.3,0.1,11.8v9.7
		c0,4.9-0.1,7.7-0.1,9.8c-0.1,3.7-0.7,3.8-1,3.9c-0.2,0-0.3,0.1-0.6,0.1l-0.5,0c-1.7,0.3-1.8,1.4-1.8,1.7c0,0.4,0.2,1.8,2.3,1.8l0,0
		c0.9,0,1.7,0,2.5-0.1c0.6,0,1.1-0.1,1.7-0.1c1.5,0,3.2,0.1,4.8,0.1c0.7,0,1.5,0,2.2,0.1c0.6,0,1.1,0,1.7,0.1
		c1.6,0.1,3.5,0.1,6.6,0.1c2.2,0,3.7,0,4.4-2.5c0.3-1.2,0.8-5.1,0.8-5.7C490.9,605.8,489.7,605.6,489.1,605.6z"/>
	<rect x="96.1" y="548.1" fill="#FFFFFF" width="393.6" height="3.8"/>
</g>
</svg>
