<?xml version="1.0" encoding="UTF-8" standalone="no"?>
<svg width="467px" height="360px" viewBox="0 0 467 360" version="1.1" xmlns="http://www.w3.org/2000/svg" xmlns:xlink="http://www.w3.org/1999/xlink" xmlns:sketch="http://www.bohemiancoding.com/sketch/ns">
    <!-- Generator: Sketch 3.0.4 (8053) - http://www.bohemiancoding.com/sketch -->
    <title>home_content_creators</title>
    <desc>Created with Sketch.</desc>
    <defs></defs>
    <g id="Page-1" stroke="none" stroke-width="1" fill="none" fill-rule="evenodd" sketch:type="MSPage">
        <path d="M303.577105,349.913977 C303.577105,349.913977 295.564272,343.068445 291.156532,338.624082 C286.747426,334.174211 285.553009,328.719264 285.553009,328.719264 L282.065311,291 L184.895725,291 L181.393011,328.735786 C181.393011,328.735786 180.189039,334.504647 175.779934,338.949011 C171.370828,343.400258 163.3539,350.123253 163.3539,350.123253 C163.3539,350.123253 156.142351,355.256025 166.964453,356.872407 C173.163136,357.799005 200.802631,358.464007 223.013329,358.464007 L243.981833,358.464007 C266.644363,358.464007 293.810186,357.721903 300.007504,356.795306 C310.830971,355.178923 303.577105,349.913977 303.577105,349.913977" id="Fill-1" stroke="#00457C" stroke-width="2" sketch:type="MSShapeGroup"></path>
        <path d="M453.886773,1 L12.8981165,1 C6.57946649,1 1,6.8349892 1,13.2192344 L1,272.36398 C1,278.748226 6.57946649,284.531166 12.8981165,284.531166 L453.886773,284.531166 C460.206792,284.531166 465.042969,278.748226 465.042969,272.36398 L465.042969,13.2192344 C465.042969,6.8349892 460.206792,1 453.886773,1 L453.886773,1 Z" id="Fill-2" stroke="#00457C" stroke-width="2" sketch:type="MSShapeGroup"></path>
        <path d="M19,21 L446.575938,21 L446.575938,263.505756 L19,263.505756 L19,21 Z M94.6690892,72.0538433 L94.6690892,95.9443398 L246.163168,95.9443398 L246.163168,72.0538433 L94.6690892,72.0538433 Z M263.956096,72.0538433 L263.956096,174.223839 L368.171821,174.223839 L368.171821,72.0538433 L263.956096,72.0538433 Z M94.6690892,111.193593 L94.6690892,135.084089 L246.163168,135.084089 L246.163168,111.193593 L94.6690892,111.193593 Z M94.6690892,150.333342 L94.6690892,174.223839 L246.163168,174.223839 L246.163168,150.333342 L94.6690892,150.333342 Z M94.6690892,189.473092 L94.6690892,213.363588 L368.171821,213.363588 L368.171821,189.473092 L94.6690892,189.473092 Z" id="Path" stroke="#00457C" stroke-width="2" fill="#00457C" sketch:type="MSShapeGroup"></path>
    </g>
</svg>