<?xml version="1.0" encoding="utf-8"?>
<!-- Generator: Adobe Illustrator 17.0.2, SVG Export Plug-In . SVG Version: 6.00 Build 0)  -->
<!DOCTYPE svg PUBLIC "-//W3C//DTD SVG 1.1//EN" "http://www.w3.org/Graphics/SVG/1.1/DTD/svg11.dtd">
<svg version="1.1" id="Layer_1" xmlns="http://www.w3.org/2000/svg" xmlns:xlink="http://www.w3.org/1999/xlink" x="0px" y="0px"
	 width="100px" height="110px" viewBox="0 0 100 110" enable-background="new 0 0 100 110" xml:space="preserve">
<path fill="#004576" d="M100,94.328L75.187,69.363c4.37-6.559,6.924-14.442,6.924-22.929
	c0-22.791-18.381-41.268-41.056-41.268S0,23.644,0,46.435c0,22.791,18.381,41.268,41.056,41.268c8.668,0,16.697-2.716,23.323-7.325
	l24.743,24.894L100,94.328z M41.002,72.275c-14.135,0-25.592-11.569-25.592-25.84c0-14.27,11.458-25.839,25.592-25.839
	c14.134,0,25.592,11.569,25.592,25.839C66.594,60.706,55.136,72.275,41.002,72.275z"/>
</svg>
