<?xml version="1.0" encoding="utf-8"?>
<!-- Generator: Adobe Illustrator 17.1.0, SVG Export Plug-In . SVG Version: 6.00 Build 0)  -->
<!DOCTYPE svg PUBLIC "-//W3C//DTD SVG 1.1//EN" "http://www.w3.org/Graphics/SVG/1.1/DTD/svg11.dtd">
<svg version="1.1" id="Layer_1" xmlns="http://www.w3.org/2000/svg" xmlns:xlink="http://www.w3.org/1999/xlink" x="0px" y="0px"
   viewBox="5 5 20 20" enable-background="new 5 5 20 20" xml:space="preserve">
  <g>
    <path d="M19.7,12.2c0,0.1-0.1,0.2-0.2,0.2h-0.6v6.4c0,0.7-0.5,1.4-1.1,1.4h-5.6c-0.6,0-1.1-0.6-1.1-1.3v-6.4h-0.6 c-0.1,0-0.2-0.1-0.2-0.2v-0.4c0-0.1,0.1-0.2,0.2-0.2h2.1l0.5-1.1c0.1-0.3,0.5-0.6,0.9-0.6h2.1c0.4,0,0.8,0.3,0.9,0.6l0.5,1.1h2.1 c0.1,0,0.2,0.1,0.2,0.2V12.2z M18,12.4h-6v6.4c0,0.3,0.2,0.5,0.2,0.5h5.6c0,0,0.2-0.2,0.2-0.5V12.4z M13.7,17.8 c0,0.1-0.1,0.2-0.2,0.2h-0.4c-0.1,0-0.2-0.1-0.2-0.2v-3.9c0-0.1,0.1-0.2,0.2-0.2h0.4c0.1,0,0.2,0.1,0.2,0.2V17.8z M16.5,11.6 l-0.3-0.8c0,0-0.1-0.1-0.1-0.1h-2.1c0,0-0.1,0-0.1,0.1l-0.3,0.8H16.5z M15.4,17.8c0,0.1-0.1,0.2-0.2,0.2h-0.4 c-0.1,0-0.2-0.1-0.2-0.2v-3.9c0-0.1,0.1-0.2,0.2-0.2h0.4c0.1,0,0.2,0.1,0.2,0.2V17.8z M17.1,17.8c0,0.1-0.1,0.2-0.2,0.2h-0.4 c-0.1,0-0.2-0.1-0.2-0.2v-3.9c0-0.1,0.1-0.2,0.2-0.2h0.4c0.1,0,0.2,0.1,0.2,0.2V17.8z"/>
  </g>
</svg>
