<?xml version="1.0" encoding="utf-8"?>
<!-- Generator: Adobe Illustrator 17.1.0, SVG Export Plug-In . SVG Version: 6.00 Build 0)  -->
<!DOCTYPE svg PUBLIC "-//W3C//DTD SVG 1.1//EN" "http://www.w3.org/Graphics/SVG/1.1/DTD/svg11.dtd">
<svg version="1.1" id="Layer_1" xmlns="http://www.w3.org/2000/svg" xmlns:xlink="http://www.w3.org/1999/xlink" x="0px" y="0px"
	 viewBox="-44 -2 600 600" enable-background="new -44 -2 600 600" xml:space="preserve">
<path fill="#FFFFFF" d="M512,126v340c0,47.3-38.7,86-86,86H86c-47.3,0-86-38.7-86-86l0-340c0-47.3,38.7-86,86-86h340
	C473.3,40,512,78.7,512,126z M192,232h-64v224h64V232z M192,168c0-17.7-14.3-32-32-32s-32,14.3-32,32s14.3,32,32,32
	S192,185.7,192,168z M416,312c0-44.2-32.2-80-72-80c-22.6,0-42.8,21.6-56,39.7V232h-64v224h64V328c0-17.7,14.3-32,32-32
	s32,14.3,32,32v128h64V312z"/>
</svg>
