<?xml version="1.0" encoding="utf-8"?>
<!-- Generator: Adobe Illustrator 17.0.2, SVG Export Plug-In . SVG Version: 6.00 Build 0)  -->
<!DOCTYPE svg PUBLIC "-//W3C//DTD SVG 1.1//EN" "http://www.w3.org/Graphics/SVG/1.1/DTD/svg11.dtd">
<svg version="1.1" id="Layer_1" xmlns="http://www.w3.org/2000/svg" xmlns:xlink="http://www.w3.org/1999/xlink" x="0px" y="0px"
	 width="504.15px" height="353.613px" viewBox="0 0 504.15 353.613" enable-background="new 0 0 504.15 353.613"
	 xml:space="preserve">
<path fill="#004576" d="M505.681,70.581c0,5.302-4.298,9.6-9.6,9.6H9.281c-5.302,0-9.6-4.298-9.6-9.6v-60.8
	c0-5.302,4.298-9.6,9.6-9.6h486.8c5.302,0,9.6,4.298,9.6,9.6V70.581z"/>
<path fill="#004576" d="M505.681,207.581c0,5.302-4.298,9.6-9.6,9.6H9.281c-5.302,0-9.6-4.298-9.6-9.6v-60.8
	c0-5.302,4.298-9.6,9.6-9.6h486.8c5.302,0,9.6,4.298,9.6,9.6V207.581z"/>
<path fill="#004576" d="M505.681,344.581c0,5.302-4.298,9.6-9.6,9.6H9.281c-5.302,0-9.6-4.298-9.6-9.6v-60.8
	c0-5.302,4.298-9.6,9.6-9.6h486.8c5.302,0,9.6,4.298,9.6,9.6V344.581z"/>
</svg>
