<?xml version="1.0" encoding="UTF-8" standalone="no"?>
<svg width="491px" height="281px" viewBox="0 0 491 281" version="1.1" xmlns="http://www.w3.org/2000/svg" xmlns:xlink="http://www.w3.org/1999/xlink" xmlns:sketch="http://www.bohemiancoding.com/sketch/ns">
    <!-- Generator: Sketch 3.0.4 (8053) - http://www.bohemiancoding.com/sketch -->
    <title>home_developers</title>
    <desc>Created with Sketch.</desc>
    <defs></defs>
    <g id="Page-1" stroke="none" stroke-width="1" fill="none" fill-rule="evenodd" sketch:type="MSPage">
        <path d="M433.318949,246.960526 L433.318949,14.4886633 C433.318949,7.31507568 426.758188,1 419.588179,1 L71.4104743,1 C64.2342005,1 59,7.31507568 59,14.4886633 L59,246.960526 L433.318949,246.960526 L433.318949,246.960526 Z" id="Fill-1" stroke="#00457C" stroke-width="2" sketch:type="MSShapeGroup"></path>
        <path d="M77,25 L410.95122,25 L410.95122,233.332237 L77,233.332237 L77,25 Z M198.578937,124.199084 L198.578937,124.548623 L232.18138,136.374682 L232.18138,152.220436 L181.981542,130.840319 L181.981542,117.616105 L232.18138,96.2942441 L232.18138,112.139999 L198.578937,124.199084 Z M289.808608,124.315597 L289.808608,123.966058 L255.682036,111.965229 L255.682036,96.2942441 L306.464239,117.616105 L306.464239,130.840319 L255.682036,152.220436 L255.682036,136.491195 L289.808608,124.315597 Z" id="Path" stroke="#00457C" stroke-width="2" fill="#00457C" sketch:type="MSShapeGroup"></path>
        <path d="M438.567231,255 L1,255 L1,279.779605 L490,279.779605 L490,255 L438.567231,255" id="Fill-2" stroke="#00457C" stroke-width="2" sketch:type="MSShapeGroup"></path>
    </g>
</svg>