<?xml version="1.0" encoding="utf-8"?>
<!-- Generator: Adobe Illustrator 18.1.1, SVG Export Plug-In . SVG Version: 6.00 Build 0)  -->
<svg version="1.1" id="Layer_1" xmlns="http://www.w3.org/2000/svg" xmlns:xlink="http://www.w3.org/1999/xlink" x="0px" y="0px"
	 viewBox="0 0 960 560" enable-background="new 0 0 960 560" xml:space="preserve">
<g id="Layer_1_1_">
	<g>
		<g>
			<rect x="59.5" y="68.6" fill="none" width="847.3" height="423.3"/>
		</g>
		<line fill="none" stroke="#004379" x1="481.1" y1="127.3" x2="481.1" y2="432.2"/>
		<g>
			<rect x="541.2" y="127.3" fill="#A50343" width="305" height="305"/>
			<g>
				<path fill="#FFFFFF" d="M562.8,203.1c0.1-0.7,0.4-1,0.7-1s0.6,0.2,1.1,1.2l10.7,22.1l10.7-22.4c0.3-0.6,0.5-0.9,0.9-0.9
					c0.4,0,0.6,0.4,0.7,1.2l3.6,24.3c0.4,2.5,0.8,3.6,1.9,4c1.1,0.4,1.9,0.4,2.5,0.4c0.4,0,0.6,0.1,0.6,0.3c0,0.3-0.5,0.4-1,0.4
					c-1,0-6.4-0.1-8-0.3c-0.9-0.1-1.1-0.2-1.1-0.4c0-0.2,0.2-0.3,0.4-0.4c0.2-0.1,0.4-0.6,0.2-1.7l-2.4-17.3h-0.2l-8.6,17.8
					c-0.9,1.8-1.1,2.2-1.4,2.2c-0.4,0-0.8-0.8-1.4-1.9c-0.9-1.8-4-7.8-4.5-8.9c-0.4-0.8-2.7-5.8-4.1-8.7H564l-2,15.6
					c-0.1,0.7-0.1,1.2-0.1,1.8c0,0.8,0.5,1.1,1.2,1.3c0.7,0.2,1.3,0.2,1.6,0.2c0.3,0,0.6,0.1,0.6,0.3c0,0.4-0.4,0.4-1,0.4
					c-1.6,0-3.4-0.1-4.1-0.1s-2.7,0.1-3.9,0.1c-0.4,0-0.7-0.1-0.7-0.4c0-0.2,0.2-0.3,0.6-0.3c0.3,0,0.6,0,1.2-0.1
					c1.1-0.3,1.4-1.8,1.6-3.1L562.8,203.1z"/>
				<path fill="#FFFFFF" d="M602.3,214.3c0-6,0-7.1-0.1-8.3c-0.1-1.3-0.4-1.9-1.7-2.2c-0.3-0.1-1-0.1-1.5-0.1
					c-0.4,0-0.7-0.1-0.7-0.4c0-0.3,0.3-0.4,0.9-0.4c1.1,0,2.2,0.1,3.2,0.1c1,0.1,1.9,0.1,2.5,0.1c1.2,0,9,0,9.8-0.1
					c0.8-0.1,1.4-0.2,1.7-0.3c0.2-0.1,0.4-0.2,0.6-0.2c0.2,0,0.2,0.2,0.2,0.4c0,0.3-0.2,0.8-0.3,2.6c-0.1,0.4-0.1,2.1-0.2,2.6
					c-0.1,0.2-0.1,0.4-0.4,0.4c-0.3,0-0.4-0.2-0.4-0.6c0-0.3-0.1-0.9-0.3-1.4c-0.3-0.7-0.7-1.2-2.7-1.4c-0.7-0.1-4.8-0.2-5.6-0.2
					c-0.2,0-0.3,0.1-0.3,0.4v9.9c0,0.3,0.1,0.4,0.3,0.4c0.9,0,5.4,0,6.3-0.1c0.9-0.1,1.5-0.2,1.9-0.6c0.3-0.3,0.4-0.5,0.6-0.5
					c0.2,0,0.3,0.1,0.3,0.3c0,0.3-0.2,0.9-0.3,2.9c-0.1,0.8-0.2,2.4-0.2,2.6c0,0.3,0,0.8-0.4,0.8c-0.3,0-0.4-0.2-0.4-0.4
					c-0.1-0.4-0.1-0.9-0.2-1.4c-0.2-0.8-0.7-1.4-2.2-1.5c-0.8-0.1-4.6-0.1-5.6-0.1c-0.2,0-0.3,0.2-0.3,0.4v3.1c0,1.3-0.1,5,0,6.1
					c0.1,2.7,0.7,3.3,4.7,3.3c1,0,2.7,0,3.7-0.5c1-0.5,1.5-1.3,1.7-2.9c0.1-0.4,0.2-0.6,0.4-0.6c0.3,0,0.3,0.3,0.3,0.7
					c0,0.9-0.3,3.6-0.5,4.3c-0.3,1-0.6,1-2.1,1c-3,0-5.1-0.1-6.8-0.1c-1.7-0.1-2.9-0.1-4.1-0.1c-0.4,0-1.3,0-2.2,0.1
					c-0.9,0-1.9,0.1-2.7,0.1c-0.5,0-0.8-0.1-0.8-0.4c0-0.2,0.2-0.3,0.6-0.3c0.6,0,1.1-0.1,1.4-0.2c0.8-0.2,1-1,1.1-2.1
					c0.2-1.6,0.2-4.8,0.2-8.4v-6.8H602.3z"/>
				<path fill="#FFFFFF" d="M632,221.2c0,5,0,7.7,0.8,8.4c0.7,0.6,1.7,0.9,4.8,0.9c2.1,0,3.6-0.1,4.6-1.1c0.5-0.5,0.9-1.6,1-2.4
					c0.1-0.4,0.1-0.6,0.4-0.6c0.3,0,0.3,0.2,0.3,0.7c0,0.4-0.3,3.4-0.6,4.5c-0.3,0.9-0.4,1.1-2.5,1.1c-2.8,0-4.9-0.1-6.6-0.1
					c-1.8-0.1-3.2-0.1-4.8-0.1c-0.4,0-1.3,0-2.2,0.1c-0.9,0-1.9,0.1-2.7,0.1c-0.5,0-0.8-0.1-0.8-0.4c0-0.2,0.2-0.3,0.6-0.3
					c0.6,0,1.1-0.1,1.4-0.2c0.8-0.2,1-1,1.1-2.1c0.2-1.6,0.2-4.8,0.2-8.4v-6.9c0-6,0-7.1-0.1-8.3c-0.1-1.3-0.4-1.9-1.7-2.2
					c-0.3-0.1-0.8-0.1-1.3-0.1c-0.4,0-0.7-0.1-0.7-0.4c0-0.3,0.3-0.4,0.9-0.4c1.8,0,4.3,0.1,5.4,0.1c1,0,3.8-0.1,5.3-0.1
					c0.6,0,0.8,0.1,0.8,0.4c0,0.3-0.2,0.4-0.7,0.4c-0.4,0-1.1,0.1-1.5,0.1c-1.1,0.2-1.4,0.9-1.4,2.2c-0.1,1.3-0.1,2.4-0.1,8.3v6.8
					H632z"/>
				<path fill="#FFFFFF" d="M650.8,214.3c0-6,0-7.1-0.1-8.3c-0.1-1.3-0.4-1.9-1.7-2.2c-0.3-0.1-1-0.1-1.5-0.1
					c-0.4,0-0.7-0.1-0.7-0.4c0-0.3,0.3-0.4,0.9-0.4c2.1,0,4.5,0.1,5.3,0.1c1.9,0,3.5-0.1,4.8-0.1c7.1,0,8.4,3.8,8.4,5.9
					c0,3.2-1.8,5.2-4,6.8c3.2,1.1,7.2,3.9,7.2,8.5c0,4.2-3.3,8.5-10.5,8.5c-0.5,0-1.6-0.1-2.8-0.1c-1.2-0.1-2.4-0.1-3-0.1
					c-0.4,0-1.3,0-2.2,0.1c-0.9,0-1.9,0.1-2.7,0.1c-0.5,0-0.8-0.1-0.8-0.4c0-0.2,0.2-0.3,0.6-0.3c0.6,0,1.1-0.1,1.4-0.2
					c0.8-0.2,1-1,1.1-2.1c0.2-1.6,0.2-4.8,0.2-8.4L650.8,214.3L650.8,214.3z M660.7,218.1c-0.8-0.6-1.7-0.9-3.3-0.9
					c-0.7-0.1-1.1-0.1-1.7-0.1c-0.2,0-0.3,0.1-0.3,0.3v9.3c0,2.6,0.1,3.3,1.4,3.8c1.1,0.4,1.9,0.5,2.9,0.5c1.8,0,4.8-0.9,4.8-5
					C664.5,223.5,663.7,220.2,660.7,218.1z M655.5,215c0,0.3,0.1,0.4,0.3,0.4c0.4,0.1,0.9,0.1,1.8,0.1c1.3,0,2.1-0.2,2.8-0.8
					c1-0.8,1.6-2.2,1.6-4.1c0-2.6-1.5-6.1-4.9-6.1c-0.6,0-0.9,0-1.3,0.1c-0.3,0.1-0.4,0.3-0.4,0.7L655.5,215L655.5,215z"/>
				<path fill="#FFFFFF" d="M673.5,217.8c0-6.7,4.4-15.4,16.2-15.4c9.8,0,15.8,5.7,15.8,14.7c0,9-6.3,16.1-16.2,16.1
					C678,233.2,673.5,224.7,673.5,217.8z M700.1,218.5c0-8.8-5.1-14.3-11.5-14.3c-4.5,0-9.7,2.5-9.7,12.3c0,8.2,4.5,14.7,12.1,14.7
					C693.7,231.2,700.1,229.9,700.1,218.5z"/>
				<path fill="#FFFFFF" d="M712.5,214.3c0-6,0-7.1-0.1-8.3c-0.1-1.3-0.4-1.9-1.7-2.2c-0.3-0.1-1-0.1-1.5-0.1
					c-0.4,0-0.7-0.1-0.7-0.4c0-0.3,0.3-0.4,0.9-0.4c2.1,0,4.5,0.1,5.7,0.1c0.9,0,3.4-0.1,4.8-0.1c0.6,0,0.9,0.1,0.9,0.4
					c0,0.3-0.3,0.4-0.6,0.4c-0.4,0-0.7,0.1-1.1,0.1c-1.1,0.2-1.4,0.9-1.5,2.2c-0.1,1.3-0.1,2.4-0.1,8.3v5.5c0,5.7,1.1,8.1,3.1,9.7
					c1.7,1.4,3.6,1.6,4.9,1.6c1.7,0,3.8-0.6,5.4-2.1c2.1-2.1,2.3-5.7,2.3-9.8v-4.9c0-6,0-7.1-0.1-8.3c-0.1-1.3-0.4-1.9-1.7-2.2
					c-0.3-0.1-1-0.1-1.4-0.1c-0.4,0-0.7-0.1-0.7-0.4c0-0.3,0.3-0.4,0.8-0.4c2,0,4.5,0.1,4.5,0.1c0.5,0,3-0.1,4.5-0.1
					c0.6,0,0.8,0.1,0.8,0.4c0,0.3-0.3,0.4-0.7,0.4c-0.4,0-0.7,0.1-1.1,0.1c-1.1,0.2-1.4,0.9-1.4,2.2c-0.1,1.3-0.1,2.4-0.1,8.3v4.2
					c0,4.3-0.4,9-3.7,11.8c-2.8,2.4-5.6,2.8-8.2,2.8c-2.1,0-5.8-0.1-8.7-2.7c-2-1.8-3.5-4.7-3.5-10.4v-5.7H712.5z"/>
				<path fill="#FFFFFF" d="M747.6,214.3c0-6,0-7.1-0.1-8.3c-0.1-1.3-0.4-1.9-1.7-2.2c-0.3-0.1-1-0.1-1.5-0.1
					c-0.4,0-0.7-0.1-0.7-0.4c0-0.3,0.3-0.4,0.9-0.4c2.1,0,4.5,0.1,5.4,0.1c1.3,0,4.3-0.1,5.5-0.1c2.5,0,5.1,0.3,7.2,1.7
					c1.1,0.8,2.7,2.8,2.7,5.4c0,2.9-1.2,5.6-5.2,8.8c3.5,4.4,6.2,7.9,8.5,10.3c2.2,2.3,3.8,2.6,4.4,2.7c0.4,0.1,0.8,0.1,1.1,0.1
					c0.3,0,0.5,0.1,0.5,0.3c0,0.3-0.3,0.4-0.8,0.4h-3.7c-2.2,0-3.2-0.2-4.2-0.8c-1.7-0.9-3.2-2.8-5.4-5.8c-1.6-2.1-3.4-4.9-3.9-5.4
					c-0.2-0.3-0.4-0.3-0.7-0.3l-3.4-0.1c-0.2,0-0.3,0.1-0.3,0.3v0.6c0,3.6,0,6.7,0.2,8.4c0.1,1.1,0.4,2,1.5,2.1
					c0.6,0.1,1.4,0.2,1.9,0.2c0.3,0,0.5,0.1,0.5,0.3c0,0.3-0.3,0.4-0.8,0.4c-2.3,0-5.2-0.1-5.8-0.1c-0.8,0-3.2,0.1-4.8,0.1
					c-0.5,0-0.8-0.1-0.8-0.4c0-0.2,0.2-0.3,0.6-0.3c0.6,0,1.1-0.1,1.4-0.2c0.8-0.2,1-1,1.1-2.1c0.2-1.6,0.2-4.8,0.2-8.4L747.6,214.3
					L747.6,214.3z M752.2,217.4c0,0.4,0.1,0.6,0.4,0.7c0.8,0.3,2,0.4,3,0.4c1.6,0,2.1-0.2,2.8-0.7c1.2-0.9,2.3-2.7,2.3-5.9
					c0-5.6-3.7-7.2-6-7.2c-1,0-1.7,0.1-2.1,0.2c-0.3,0.1-0.4,0.3-0.4,0.6L752.2,217.4L752.2,217.4z"/>
				<path fill="#FFFFFF" d="M779.5,227.3c0.1,3.1,0.6,4.1,1.4,4.3c0.7,0.3,1.4,0.3,2,0.3c0.4,0,0.7,0.1,0.7,0.3
					c0,0.3-0.4,0.4-0.9,0.4c-2.6,0-4.1-0.1-4.9-0.1c-0.4,0-2.2,0.1-4.2,0.1c-0.5,0-0.9-0.1-0.9-0.4c0-0.3,0.2-0.3,0.6-0.3
					c0.5,0,1.2-0.1,1.7-0.2c1-0.3,1.2-1.4,1.2-4.9l0.4-23.2c0-0.8,0.1-1.3,0.5-1.3s0.8,0.5,1.4,1.2c0.5,0.5,6.4,6.9,12.2,12.6
					c2.7,2.7,8,8.3,8.6,8.9h0.2l-0.4-17.6c-0.1-2.4-0.4-3.1-1.3-3.5c-0.6-0.3-1.5-0.3-2.1-0.3c-0.5,0-0.6-0.1-0.6-0.4
					c0-0.3,0.4-0.4,1-0.4c2,0,3.9,0.1,4.8,0.1c0.4,0,1.9-0.1,3.8-0.1c0.5,0,0.9,0.1,0.9,0.4c0,0.3-0.2,0.4-0.7,0.4
					c-0.4,0-0.7,0-1.2,0.1c-1.1,0.3-1.4,1.1-1.4,3.3l-0.4,24.8c0,0.9-0.2,1.2-0.5,1.2c-0.4,0-0.9-0.4-1.3-0.9
					c-2.5-2.4-7.5-7.5-11.6-11.5c-4.3-4.2-8.6-9.1-9.3-9.9H779L779.5,227.3z"/>
				<path fill="#FFFFFF" d="M814.4,214.3c0-6,0-7.1-0.1-8.3c-0.1-1.3-0.4-1.9-1.7-2.2c-0.3-0.1-1-0.1-1.5-0.1
					c-0.4,0-0.7-0.1-0.7-0.4c0-0.3,0.3-0.4,0.9-0.4c1.1,0,2.2,0.1,3.2,0.1c1,0.1,1.9,0.1,2.5,0.1c1.3,0,9,0,9.8-0.1
					c0.8-0.1,1.4-0.2,1.7-0.3c0.2-0.1,0.4-0.2,0.6-0.2s0.3,0.2,0.3,0.4c0,0.3-0.2,0.8-0.3,2.6c-0.1,0.4-0.1,2.1-0.2,2.6
					c-0.1,0.2-0.1,0.4-0.4,0.4c-0.3,0-0.4-0.2-0.4-0.6c0-0.3-0.1-0.9-0.3-1.4c-0.3-0.7-0.7-1.2-2.6-1.4c-0.7-0.1-4.8-0.2-5.6-0.2
					c-0.2,0-0.3,0.1-0.3,0.4v9.9c0,0.3,0.1,0.4,0.3,0.4c0.9,0,5.4,0,6.3-0.1c0.9-0.1,1.5-0.2,1.9-0.6c0.3-0.3,0.4-0.5,0.6-0.5
					c0.2,0,0.3,0.1,0.3,0.3c0,0.3-0.2,0.9-0.3,2.9c-0.1,0.8-0.2,2.4-0.2,2.6c0,0.3,0,0.8-0.4,0.8c-0.3,0-0.4-0.2-0.4-0.4
					c-0.1-0.4-0.1-0.9-0.2-1.4c-0.2-0.8-0.8-1.4-2.2-1.5c-0.7-0.1-4.6-0.1-5.6-0.1c-0.2,0-0.3,0.2-0.3,0.4v3.1c0,1.3-0.1,5,0,6.1
					c0.1,2.7,0.7,3.3,4.7,3.3c1,0,2.7,0,3.7-0.5c1-0.5,1.5-1.3,1.8-2.9c0.1-0.4,0.2-0.6,0.4-0.6c0.3,0,0.3,0.3,0.3,0.7
					c0,0.9-0.3,3.6-0.5,4.3c-0.3,1-0.6,1-2.1,1c-3,0-5.1-0.1-6.8-0.1c-1.7-0.1-2.9-0.1-4.1-0.1c-0.4,0-1.3,0-2.2,0.1
					c-0.9,0-1.9,0.1-2.7,0.1c-0.5,0-0.8-0.1-0.8-0.4c0-0.2,0.2-0.3,0.6-0.3c0.6,0,1.1-0.1,1.4-0.2c0.8-0.2,1-1,1.1-2.1
					c0.2-1.6,0.2-4.8,0.2-8.4v-6.8H814.4z"/>
			</g>
			<g>
				<path fill="#FFFFFF" d="M560.5,272.2c0-7.5,0-8.9-0.1-10.5c-0.1-1.7-0.5-2.5-2.1-2.8c-0.4-0.1-1.2-0.2-1.9-0.2
					c-0.6,0-0.8-0.1-0.8-0.5s0.4-0.5,1.1-0.5c2.6,0,5.7,0.2,6.7,0.2c2.4,0,4.3-0.2,6-0.2c8.9,0,10.5,4.8,10.5,7.4c0,4-2.3,6.5-5,8.6
					c4,1.4,9,4.9,9,10.7c0,5.3-4.1,10.7-13.2,10.7c-0.6,0-2-0.1-3.5-0.2c-1.5-0.1-3-0.2-3.7-0.2c-0.6,0-1.6,0-2.8,0.1
					c-1.1,0-2.4,0.1-3.4,0.1c-0.6,0-1-0.2-1-0.5c0-0.3,0.2-0.4,0.8-0.4c0.7,0,1.3-0.1,1.8-0.2c1-0.2,1.2-1.3,1.4-2.7
					c0.3-2.1,0.3-6,0.3-10.5L560.5,272.2L560.5,272.2z M566.4,273c0,0.4,0.2,0.5,0.4,0.6c0.5,0.1,1.2,0.2,2.3,0.2
					c1.6,0,2.7-0.2,3.6-0.9c1.3-1,2-2.8,2-5.2c0-3.3-1.9-7.7-6.2-7.7c-0.7,0-1.1,0-1.6,0.1c-0.4,0.1-0.5,0.3-0.5,0.8L566.4,273
					L566.4,273z M572.9,277c-1-0.7-2.2-1.1-4.1-1.2c-0.9-0.1-1.4-0.1-2.1-0.1c-0.2,0-0.3,0.1-0.3,0.4v11.7c0,3.3,0.2,4.1,1.7,4.8
					c1.3,0.6,2.5,0.6,3.6,0.6c2.2,0,6-1.2,6-6.3C577.7,283.7,576.7,279.6,572.9,277z"/>
				<path fill="#FFFFFF" d="M593.2,272.2c0-7.5,0-8.9-0.1-10.5c-0.1-1.7-0.5-2.5-2.1-2.8c-0.4-0.1-1.2-0.2-1.9-0.2
					c-0.6,0-0.8-0.1-0.8-0.5s0.4-0.5,1.1-0.5c2.6,0,5.7,0.2,7.2,0.2c1.2,0,4.3-0.2,6.1-0.2c0.7,0,1.1,0.1,1.1,0.5s-0.3,0.5-0.8,0.5
					c-0.6,0-0.8,0.1-1.4,0.2c-1.3,0.3-1.7,1.1-1.8,2.8c-0.1,1.6-0.1,3-0.1,10.5v6.9c0,7.2,1.4,10.2,3.8,12.1c2.2,1.8,4.5,2,6.2,2
					c2.1,0,4.9-0.7,6.8-2.7c2.7-2.7,2.9-7.2,2.9-12.2v-6.2c0-7.5,0-8.9-0.1-10.5c-0.1-1.7-0.5-2.5-2.1-2.8c-0.4-0.1-1.2-0.2-1.8-0.2
					c-0.6,0-0.8-0.1-0.8-0.5s0.4-0.5,1-0.5c2.5,0,5.6,0.2,5.7,0.2c0.6,0,3.7-0.2,5.6-0.2c0.7,0,1,0.1,1,0.5s-0.3,0.5-0.9,0.5
					c-0.6,0-0.8,0.1-1.4,0.2c-1.3,0.3-1.7,1.1-1.8,2.8c-0.1,1.6-0.1,3-0.1,10.5v5.3c0,5.5-0.6,11.3-4.7,14.9
					c-3.5,3-7.1,3.5-10.3,3.5c-2.6,0-7.4-0.2-10.9-3.4c-2.5-2.2-4.4-5.9-4.4-13.1L593.2,272.2L593.2,272.2z"/>
				<path fill="#FFFFFF" d="M634.7,294.5c-0.8-0.4-0.9-0.6-0.9-1.7c0-2.7,0.2-5.7,0.3-6.4c0.1-0.7,0.2-1.3,0.6-1.3
					c0.5,0,0.5,0.5,0.5,0.8c0,0.6,0.2,1.7,0.5,2.5c1.1,3.6,4,5,7.1,5c4.4,0,6.6-3,6.6-5.6c0-2.4-0.7-4.7-4.9-7.9l-2.3-1.8
					c-5.4-4.2-7.3-7.7-7.3-11.7c0-5.4,4.5-9.3,11.4-9.3c3.2,0,5.3,0.5,6.5,0.8c0.5,0.1,0.7,0.3,0.7,0.6c0,0.7-0.2,2.1-0.2,5.9
					c0,1.1-0.2,1.5-0.6,1.5c-0.4,0-0.5-0.3-0.5-0.9c0-0.5-0.3-2-1.3-3.3c-0.7-0.9-2.1-2.4-5.4-2.4c-3.6,0-5.9,2.1-5.9,5.1
					c0,2.2,1.1,4,5.2,7.1l1.4,1c6,4.5,8.1,7.9,8.1,12.6c0,2.9-1.1,6.3-4.6,8.6c-2.5,1.6-5.2,2-7.8,2
					C639,295.9,636.8,295.5,634.7,294.5z"/>
				<path fill="#FFFFFF" d="M666.1,272.2c0-7.5,0-8.9-0.1-10.5c-0.1-1.7-0.6-2.5-1.7-2.8c-0.6-0.2-1.2-0.2-1.8-0.2
					c-0.5,0-0.8-0.1-0.8-0.5c0-0.3,0.4-0.4,1.2-0.4c1.9,0,5,0.2,6.4,0.2c1.2,0,4.1-0.2,6-0.2c0.6,0,1,0.1,1,0.4
					c0,0.4-0.3,0.5-0.8,0.5c-0.5,0-0.9,0.1-1.5,0.2c-1.3,0.3-1.7,1.1-1.8,2.8c-0.1,1.6-0.1,3-0.1,10.5v8.7c0,4.8,0,8.7,0.2,10.8
					c0.2,1.3,0.5,2.2,2,2.4c0.7,0.1,1.8,0.2,2.5,0.2c0.6,0,0.8,0.2,0.8,0.4c0,0.4-0.4,0.5-0.9,0.5c-3.3,0-6.4-0.2-7.7-0.2
					c-1.1,0-4.2,0.2-6.2,0.2c-0.6,0-1-0.2-1-0.5c0-0.3,0.2-0.4,0.8-0.4c0.7,0,1.3-0.1,1.8-0.2c1-0.2,1.3-1,1.4-2.5
					c0.3-2.1,0.3-6,0.3-10.7L666.1,272.2L666.1,272.2z"/>
				<path fill="#FFFFFF" d="M691.1,288.5c0.1,3.8,0.7,5.1,1.7,5.5c0.8,0.3,1.8,0.4,2.6,0.4c0.6,0,0.8,0.1,0.8,0.4
					c0,0.4-0.5,0.5-1.1,0.5c-3.2,0-5.2-0.2-6.1-0.2c-0.5,0-2.8,0.2-5.3,0.2c-0.6,0-1.1-0.1-1.1-0.5c0-0.3,0.3-0.4,0.8-0.4
					c0.7,0,1.5-0.1,2.2-0.3c1.3-0.4,1.5-1.8,1.5-6.1l0.5-29.2c0-1,0.2-1.7,0.6-1.7c0.6,0,1,0.7,1.8,1.5c0.6,0.7,8.1,8.7,15.3,15.8
					c3.4,3.4,10,10.5,10.8,11.2h0.3l-0.5-22.1c-0.1-3-0.5-3.9-1.7-4.4c-0.7-0.3-1.9-0.3-2.6-0.3c-0.6,0-0.8-0.2-0.8-0.5
					c0-0.4,0.6-0.5,1.3-0.5c2.6,0,5,0.2,6,0.2c0.6,0,2.4-0.2,4.8-0.2c0.6,0,1.1,0.1,1.1,0.5c0,0.3-0.3,0.5-0.9,0.5
					c-0.5,0-0.9,0-1.5,0.2c-1.4,0.4-1.8,1.4-1.8,4.2l-0.6,31.1c0,1.1-0.2,1.5-0.6,1.5c-0.6,0-1.1-0.6-1.7-1.1
					c-3.1-3-9.4-9.4-14.6-14.5c-5.4-5.3-10.8-11.5-11.8-12.4h-0.2L691.1,288.5z"/>
				<path fill="#FFFFFF" d="M735.1,272.2c0-7.5,0-8.9-0.1-10.5c-0.1-1.7-0.5-2.5-2.1-2.8c-0.4-0.1-1.2-0.2-1.9-0.2
					c-0.6,0-0.8-0.1-0.8-0.5s0.4-0.5,1.1-0.5c1.3,0,2.8,0.1,4,0.1c1.3,0.1,2.4,0.1,3.1,0.1c1.6,0,11.4,0,12.3-0.1
					c0.9-0.1,1.7-0.2,2.1-0.3c0.3-0.1,0.6-0.2,0.8-0.2c0.3,0,0.3,0.2,0.3,0.5c0,0.4-0.3,0.9-0.4,3.2c-0.1,0.5-0.2,2.7-0.3,3.3
					c-0.1,0.3-0.2,0.6-0.5,0.6c-0.4,0-0.5-0.3-0.5-0.7c0-0.4-0.1-1.2-0.3-1.8c-0.4-0.9-0.8-1.5-3.3-1.8c-0.8-0.1-6-0.2-7-0.2
					c-0.3,0-0.4,0.2-0.4,0.5v12.5c0,0.4,0.1,0.6,0.4,0.6c1.1,0,6.7,0,7.9-0.1c1.2-0.1,1.9-0.3,2.4-0.7c0.4-0.4,0.6-0.6,0.8-0.6
					c0.2,0,0.4,0.1,0.4,0.4s-0.2,1.1-0.4,3.6c-0.1,1-0.2,3-0.2,3.3c0,0.4,0,0.9-0.5,0.9c-0.4,0-0.5-0.2-0.5-0.5
					c-0.1-0.5-0.1-1.1-0.2-1.8c-0.3-1-0.9-1.7-2.8-1.9c-0.9-0.1-5.8-0.2-7-0.2c-0.3,0-0.3,0.2-0.3,0.5v3.9c0,1.7-0.1,6.2,0,7.7
					c0.1,3.4,0.9,4.1,5.9,4.1c1.3,0,3.4,0,4.6-0.6s1.9-1.6,2.2-3.6c0.1-0.6,0.2-0.8,0.6-0.8c0.4,0,0.4,0.4,0.4,0.9
					c0,1.1-0.4,4.5-0.7,5.5c-0.4,1.3-0.8,1.3-2.7,1.3c-3.7,0-6.4-0.1-8.5-0.2c-2.1-0.1-3.6-0.2-5.1-0.2c-0.6,0-1.6,0-2.8,0.1
					c-1.1,0-2.4,0.1-3.4,0.1c-0.7,0-1-0.2-1-0.5c0-0.3,0.2-0.4,0.8-0.4c0.7,0,1.3-0.1,1.8-0.2c1-0.2,1.2-1.3,1.4-2.7
					c0.3-2.1,0.3-6,0.3-10.5v-8.6H735.1z"/>
				<path fill="#FFFFFF" d="M763.5,294.5c-0.8-0.4-0.9-0.6-0.9-1.7c0-2.7,0.2-5.7,0.3-6.4c0.1-0.7,0.2-1.3,0.6-1.3
					c0.5,0,0.5,0.5,0.5,0.8c0,0.6,0.2,1.7,0.5,2.5c1.1,3.6,4,5,7.1,5c4.4,0,6.6-3,6.6-5.6c0-2.4-0.7-4.7-4.9-7.9l-2.2-1.8
					c-5.4-4.2-7.3-7.7-7.3-11.7c0-5.4,4.5-9.3,11.4-9.3c3.2,0,5.3,0.5,6.5,0.8c0.5,0.1,0.7,0.3,0.7,0.6c0,0.7-0.2,2.1-0.2,5.9
					c0,1.1-0.2,1.5-0.6,1.5c-0.4,0-0.5-0.3-0.5-0.9c0-0.5-0.3-2-1.3-3.3c-0.7-0.9-2.1-2.4-5.4-2.4c-3.6,0-5.9,2.1-5.9,5.1
					c0,2.2,1.1,4,5.2,7.1l1.4,1c6,4.5,8.1,7.9,8.1,12.6c0,2.9-1.1,6.3-4.6,8.6c-2.5,1.6-5.2,2-7.8,2
					C767.9,295.9,765.7,295.5,763.5,294.5z"/>
				<path fill="#FFFFFF" d="M792.2,294.5c-0.8-0.4-0.9-0.6-0.9-1.7c0-2.7,0.2-5.7,0.3-6.4c0.1-0.7,0.2-1.3,0.6-1.3
					c0.5,0,0.5,0.5,0.5,0.8c0,0.6,0.2,1.7,0.5,2.5c1.1,3.6,4,5,7.1,5c4.4,0,6.6-3,6.6-5.6c0-2.4-0.8-4.7-4.9-7.9l-2.2-1.8
					c-5.4-4.2-7.3-7.7-7.3-11.7c0-5.4,4.5-9.3,11.4-9.3c3.2,0,5.3,0.5,6.5,0.8c0.5,0.1,0.7,0.3,0.7,0.6c0,0.7-0.2,2.1-0.2,5.9
					c0,1.1-0.2,1.5-0.6,1.5c-0.4,0-0.5-0.3-0.5-0.9c0-0.5-0.3-2-1.3-3.3c-0.7-0.9-2.1-2.4-5.4-2.4c-3.6,0-5.9,2.1-5.9,5.1
					c0,2.2,1.1,4,5.2,7.1l1.4,1c6,4.5,8.1,7.9,8.1,12.6c0,2.9-1.1,6.3-4.6,8.6c-2.5,1.6-5.2,2-7.9,2
					C796.6,295.9,794.4,295.5,792.2,294.5z"/>
			</g>
			<g>
				<path fill="#FFFFFF" d="M556.4,352.8c-0.8-0.4-0.9-0.6-0.9-1.6c0-2.7,0.2-5.5,0.3-6.3c0.1-0.7,0.2-1.2,0.6-1.2
					c0.4,0,0.5,0.4,0.5,0.8c0,0.6,0.2,1.6,0.4,2.5c1.1,3.6,3.9,4.9,6.9,4.9c4.3,0,6.4-2.9,6.4-5.5c0-2.4-0.7-4.5-4.7-7.7l-2.2-1.7
					c-5.3-4.1-7.1-7.5-7.1-11.4c0-5.3,4.4-9.1,11.1-9.1c3.1,0,5.2,0.5,6.4,0.8c0.4,0.1,0.7,0.3,0.7,0.6c0,0.6-0.2,2-0.2,5.8
					c0,1.1-0.2,1.4-0.5,1.4c-0.4,0-0.5-0.3-0.5-0.9c0-0.4-0.3-1.9-1.2-3.2c-0.7-0.9-2.1-2.4-5.2-2.4c-3.6,0-5.7,2-5.7,5
					c0,2.2,1.1,3.9,5.1,6.9l1.3,1c5.8,4.3,7.9,7.7,7.9,12.3c0,2.8-1.1,6.1-4.5,8.4c-2.4,1.5-5.1,1.9-7.6,1.9
					C560.6,354.1,558.5,353.8,556.4,352.8z"/>
				<path fill="#FFFFFF" d="M587.7,348.9c-4.7-4.1-6-9.5-6-14.2c0-3.3,1-8.9,5.6-13.2c3.5-3.2,8-5.1,15.2-5.1c3,0,4.8,0.2,6.9,0.5
					c1.8,0.3,3.4,0.7,4.8,0.8c0.5,0.1,0.7,0.3,0.7,0.6c0,0.4-0.2,1-0.3,2.7c-0.1,1.6-0.1,4.2-0.2,5.2c-0.1,0.7-0.2,1.1-0.6,1.1
					c-0.4,0-0.5-0.4-0.5-1.1c-0.1-1.5-0.7-3.2-1.9-4.4c-1.6-1.7-5.3-3-9.8-3c-4.2,0-6.9,1.1-9,3c-3.5,3.2-4.4,7.8-4.4,12.4
					c0,11.4,8.7,17.1,15.1,17.1c4.3,0,6.8-0.5,8.8-2.7c0.8-0.9,1.4-2.3,1.6-3.2c0.2-0.8,0.3-1,0.6-1c0.4,0,0.4,0.4,0.4,0.7
					c0,0.6-0.6,4.8-1.1,6.4c-0.3,0.8-0.4,1.1-1.2,1.4c-1.9,0.8-5.6,1.1-8.6,1.1C597.6,354.1,592.1,352.6,587.7,348.9z"/>
				<path fill="#FFFFFF" d="M650,332.4c0.2,0,0.3-0.1,0.3-0.4v-1c0-7.3,0-8.6-0.1-10.2c-0.1-1.6-0.5-2.4-2-2.8
					c-0.4-0.1-1.2-0.2-1.9-0.2c-0.5,0-0.8-0.1-0.8-0.4c0-0.4,0.4-0.4,1-0.4c2.6,0,5.6,0.2,6.9,0.2c1.2,0,4.2-0.2,6-0.2
					c0.7,0,1,0.1,1,0.4c0,0.4-0.3,0.4-0.9,0.4c-0.4,0-0.8,0.1-1.4,0.2c-1.3,0.3-1.7,1.1-1.8,2.8c-0.1,1.5-0.1,2.9-0.1,10.2v8.4
					c0,4.4,0,8.2,0.3,10.3c0.2,1.3,0.4,2.4,1.9,2.6c0.7,0.1,1.7,0.2,2.5,0.2c0.5,0,0.8,0.2,0.8,0.4c0,0.4-0.4,0.5-1,0.5
					c-3.1,0-6.1-0.2-7.5-0.2c-1.1,0-4.1,0.2-6,0.2c-0.7,0-1-0.2-1-0.5c0-0.3,0.2-0.4,0.8-0.4c0.7,0,1.3-0.1,1.7-0.2
					c1-0.2,1.2-1.2,1.4-2.7c0.3-2,0.3-5.8,0.3-10.2v-4.2c0-0.2-0.2-0.3-0.3-0.3h-18.3c-0.2,0-0.3,0.1-0.3,0.3v4.2
					c0,4.4,0,8.2,0.3,10.3c0.2,1.3,0.4,2.4,1.9,2.6c0.7,0.1,1.7,0.2,2.5,0.2c0.5,0,0.8,0.2,0.8,0.4c0,0.4-0.4,0.5-1,0.5
					c-3.1,0-6.1-0.2-7.5-0.2c-1.1,0-4.1,0.2-6.1,0.2c-0.6,0-1-0.2-1-0.5c0-0.3,0.2-0.4,0.8-0.4c0.7,0,1.3-0.1,1.7-0.2
					c1-0.2,1.2-1.2,1.4-2.7c0.3-2,0.3-5.8,0.3-10.2V331c0-7.3,0-8.6-0.1-10.2c-0.1-1.6-0.5-2.4-2-2.8c-0.4-0.1-1.2-0.2-1.9-0.2
					c-0.5,0-0.8-0.1-0.8-0.4c0-0.4,0.4-0.4,1-0.4c2.6,0,5.6,0.2,6.9,0.2c1.2,0,4.2-0.2,6-0.2c0.7,0,1,0.1,1,0.4
					c0,0.4-0.3,0.4-0.9,0.4c-0.4,0-0.8,0.1-1.4,0.2c-1.3,0.3-1.7,1.1-1.8,2.8c-0.1,1.5-0.1,2.9-0.1,10.2v1c0,0.3,0.2,0.4,0.3,0.4
					H650z"/>
				<path fill="#FFFFFF" d="M666.4,335.3c0-8.2,5.4-18.9,19.8-18.9c12,0,19.4,6.9,19.4,18c0,11-7.7,19.7-19.9,19.7
					C672,354.1,666.4,343.7,666.4,335.3z M698.9,336.2c0-10.8-6.2-17.4-14.1-17.4c-5.5,0-11.8,3.1-11.8,15c0,10,5.5,17.9,14.8,17.9
					C691.1,351.7,698.9,350,698.9,336.2z"/>
				<path fill="#FFFFFF" d="M710.9,335.3c0-8.2,5.4-18.9,19.8-18.9c12,0,19.4,6.9,19.4,18c0,11-7.7,19.7-19.9,19.7
					C716.5,354.1,710.9,343.7,710.9,335.3z M743.4,336.2c0-10.8-6.2-17.4-14.1-17.4c-5.5,0-11.8,3.1-11.8,15
					c0,10,5.5,17.9,14.8,17.9C735.6,351.7,743.4,350,743.4,336.2z"/>
				<path fill="#FFFFFF" d="M766.2,339.5c0,6.1,0,9.5,1,10.3c0.8,0.7,2,1.1,5.8,1.1c2.6,0,4.4-0.1,5.6-1.3c0.6-0.6,1.2-2,1.2-2.9
					c0.1-0.4,0.2-0.7,0.5-0.7s0.4,0.3,0.4,0.8c0,0.5-0.4,4.1-0.7,5.5c-0.3,1.1-0.5,1.3-3,1.3c-3.5,0-6-0.1-8.1-0.2
					c-2.1-0.1-3.9-0.2-5.9-0.2c-0.5,0-1.6,0-2.8,0.1c-1.1,0-2.4,0.1-3.3,0.1c-0.6,0-1-0.2-1-0.5c0-0.3,0.2-0.4,0.8-0.4
					c0.7,0,1.3-0.1,1.7-0.2c1-0.2,1.2-1.2,1.4-2.7c0.3-2,0.3-5.8,0.3-10.2v-8.4c0-7.3,0-8.6-0.1-10.2c-0.1-1.6-0.5-2.4-2-2.8
					c-0.4-0.1-1-0.2-1.6-0.2c-0.5,0-0.8-0.1-0.8-0.4c0-0.4,0.4-0.4,1.1-0.4c2.2,0,5.3,0.2,6.6,0.2c1.2,0,4.6-0.2,6.5-0.2
					c0.7,0,1,0.1,1,0.4c0,0.4-0.3,0.4-0.9,0.4c-0.5,0-1.3,0.1-1.9,0.2c-1.3,0.3-1.7,1.1-1.8,2.8c-0.1,1.5-0.1,2.9-0.1,10.2
					L766.2,339.5L766.2,339.5z"/>
			</g>
		</g>
	</g>
</g>
<g id="Layer_2">
	<g>
		<path fill="#002E6D" d="M273.3,317.9c-7.3-6.7-16.2-10.5-24.1-13.8l-0.4-0.2l0,0l-2.4-0.9c0,0-3.7-1.4-3.8-1.4
			c-28.6-9.8-46.1-33.1-46.8-62.4l-0.1-3.7c0-4.4,0.3-9,0.8-13.7v-0.1c0.9-7,1.2-8.9,1.3-9.5l0,0c0.1-0.6,0.6-3.4,3-18v-0.1
			c0.2-2.2,0.4-5.2,0.4-8.1c0-6.2-0.8-15.2-7.9-21.3l-1.1-0.9c0,0,9.1-11.9,9.6-12.5l-0.5-1.2l7.2-9.1l0.9,0.3l9.8-12.6l1.2,1.3
			c2.8,3,7.1,4.5,12.8,4.5c3.7,0,7.1-0.6,9.3-1c0.1,0,12.7-1.9,12.7-1.9c0.3-0.1,10.5-1.2,10.5-1.2c2.7-0.3,5.5-0.5,8.6-0.5
			c6.7,0,13.2,0.7,17.4,1.4l9.1,1.3l0,0l11,1.8h0.1c1.5,0.2,3.6,0.3,5.6,0.3c5.3,0,8.9-1.2,11.6-3.7l1.8-2l1.1,1.4
			c1.2,1.5,1.6,2,1.8,2.2l0,0l6.1,8.1l1.1-0.3l16.6,21.9l-0.4,2.6l-0.4,0.4c-5.1,4.6-7.7,11.1-8,19.8l0,0l-0.1,3.3
			c0,2.4,0.2,4.9,0.5,7.6c1.3,8,1.5,9.6,1.5,9.6c0.2,1,1.6,9.9,1.6,9.9l1.1,10.6c0,0,0.3,6.9,0.4,9.1l0,0v1.9
			c0,15.6-5.2,31.5-13.6,41.3l-0.2,0.2c-5.5,6.7-13,15.9-33.7,23.1c-11.6,4.2-22,8.4-31.1,16.2l-1,0.9L273.3,317.9z"/>
		<path fill="#004379" d="M219.3,131c3.7,3.9,9,5,13.9,5c3.8,0,7.3-0.6,9.6-1c0,0,12.4-1.9,12.6-1.9c0.3-0.1,10.5-1.2,10.5-1.2
			c2.8-0.3,5.6-0.4,8.4-0.4c6.4,0,12.6,0.7,17.2,1.3l9.1,1.3h-0.2l11.1,1.8h0.1c1.8,0.2,3.8,0.3,5.7,0.3c4.6,0,9.2-0.9,12.7-4.2
			c0,0,0.3-0.4,0.7-0.8c1.2,1.5,1.6,2,1.8,2.3c-0.1-0.1-0.1-0.1-0.1-0.1l6.8,9l1.1-0.3l15.5,20.6l-0.2,1.4
			c-5.7,5.1-8.5,12.4-8.5,22.3v0.2l0,0l-0.1,1.7c0,2.4,0.2,5,0.5,7.8c0,0,1.5,9.6,1.5,9.7c0,0,1.6,9.7,1.6,9.8s1.1,10.1,1.1,10.6
			c0,0.4,0.4,9.8,0.4,9.8l0,0v1.1c0,15.3-5.1,30.7-13.3,40.4l-0.2,0.2l0,0c-5.4,6.5-12.8,15.5-33,22.7c-11.8,4.3-22.3,8.5-31.6,16.6
			c-7.4-6.8-16.1-10.5-24.5-14.2l-0.7-0.3l0.2,0.1l-2.4-0.9c0,0-3.7-1.4-3.9-1.4c-27.9-9.6-45.1-32.4-45.8-61l-0.1-3.7
			c0-4.3,0.3-8.9,0.8-13.5c0.9-7,1.2-8.9,1.3-9.5l3-18v-0.2c0.2-2.2,0.4-5.3,0.4-8.2c0-6.7-1-16-8.4-22.5c2.7-3.5,9.2-12,9.2-12.1
			l-0.5-1.2l6.1-7.7l0.9,0.3C211.8,140.7,217.2,133.6,219.3,131 M219.1,126.3l-2.2,2.9c-1.3,1.7-4.1,5.4-6.4,8.3l-1.5,2l-0.9-0.3
			l-1.3,1.7l-6,7.6l-1.1,1.3l0.5,1.2c-0.5,0.7-1.2,1.5-1.9,2.5l-6.3,8.2l-1.7,2.3l2.2,1.9c6.5,5.7,7.3,14.2,7.3,20.1
			c0,2.9-0.2,5.8-0.4,8l0,0c-2.4,13.8-2.9,17.1-3,18l0,0c-0.1,0.6-0.3,2.5-1.3,9.5v0.1v0.1c-0.5,4.7-0.8,9.3-0.8,13.8v0.1v0.1
			l0.1,3.7c0.8,29.9,18.6,53.8,47.8,63.8c0.4,0.1,3.8,1.4,3.8,1.4l2.4,0.9l0,0l0.4,0.2c8.1,3.5,16.5,7.1,23.7,13.6l2,1.8l2-1.8
			c8.9-7.7,19.1-11.8,30.6-15.9c21-7.4,28.7-16.8,34.3-23.6l-2.2-2l0.1-0.1l2.2,1.9c-0.1,0.1-0.1,0.1-0.1,0.1l0.1-0.2
			c8.7-10.1,14.1-26.3,14.1-42.3l0,0l0,0v-1.1v-1.4l-0.1-0.1c-0.1-2.6-0.3-8.1-0.4-8.5v-0.1v-0.1c-0.1-0.3-0.4-3.4-0.7-6.2
			c-0.3-2.2-0.5-4.3-0.5-4.3v-0.1v-0.1c0-0.1-1.2-6.9-1.6-9.8c-0.1-0.3-0.3-1.7-1.5-9.6c-0.3-2.6-0.5-5.1-0.5-7.4l0.1-1.7l-1.8-0.3
			h1.8v0.1v-0.1c0-8.9,2.5-15.5,7.5-20l0.8-0.7l0.2-1.1l0.2-1.4l0.2-1.3l-0.8-1l-15.5-20.6l-1.3-1.7l-1.1,0.3l-5.5-7.3l0,0
			c-0.2-0.2-0.7-0.9-1.8-2.2l-2.2-2.9l-2.5,2.7l-0.6,0.7c-2.4,2.2-5.7,3.3-10.5,3.3c-1.9,0-3.9-0.2-5.4-0.3l0,0l-10.9-1.8l0,0
			l-9.1-1.3c-4.3-0.6-10.8-1.4-17.6-1.4c-3.1,0-6,0.2-8.7,0.5c-3.6,0.4-10.3,1.2-10.5,1.2H255H255c-0.2,0.1-12.6,1.9-12.6,1.9h-0.1
			h-0.1c-2.2,0.4-5.5,1-9,1c-5.3,0-9.2-1.3-11.7-4L219.1,126.3L219.1,126.3z"/>
	</g>
	<g>
		<g>
			<path fill="#FFFFFF" d="M234.7,135l3.9-0.4l16.6-2.6l11.2-1.3c10.8-1.2,21.6,0.5,31.8,1.9L313,135c6.2,0.5,13,0.3,17.2-4.3
				l0.8-0.9l9.5,12.4c-1.5,0.6-3.5,1.3-5.3,2l-0.2-0.1l-4.8-6.3c-5,2.8-11.2,3.2-17.2,2.8l-8.6-1.3l-10.7-1.8l-11.4-1.3
				c-6.8-0.6-13.8-0.3-20.4,0.5l-9.4,1.3l-15.7,2.4c-6,0.5-11.9-0.2-16.8-2.9l-5.3,6.9c-2.1-0.4-3.8-1-5.7-1.6l10.3-13.4
				C223,134.4,228.9,134.8,234.7,135z"/>
		</g>
	</g>
	<g enable-background="new    ">
		<g>
			<path fill="#FFFFFF" d="M298.7,298.1c-8.4,3.3-16.7,7.1-24.2,12.6c-7.5-5.5-15.7-9.5-24.1-12.8c-32.3-9.7-49.8-39.2-48.6-62.2
				l0.4-9.5l1.2-10.2l3-18l0.8-6.3c0.3-10.2-0.1-20.9-6.8-28.6l5.6-7.5c0,0-1.6-1.9-2.8-5.4c-3.3,4.2-6.9,9.1-10.1,13.3
				c2.9,2.6,5.2,5.5,6.5,8.8c2.6,7.2,2.6,15.9,1.5,23.7l-2.4,13.9l-1.4,10.3c-0.8,6.7-1.1,14-0.8,20.7c0.6,20.1,12.8,49.3,47.4,60.2
				c10.9,4.1,21.6,8.6,30.8,16.8c6.5-5.9,14.1-9.6,21.8-13l9.1-3.5c37.7-12.4,48.7-43.1,48.1-66.1l-0.4-10l-0.9-8.5l-3.1-19.4
				c-1.1-6.1-0.9-13.2,0.1-19.4c0.4-2.1,2.1-9.2,8.1-13.9c-2.1-3.4-0.3-0.6-8.2,5.2c0,0-0.7,4.1-5.2,7.3c-1.2,6.4-1.4,14.5-0.3,21
				l1.9,11.9l1.4,9.6c0.7,6.7,1.3,13.6,0.9,20.6C347.3,258.8,336,287.5,298.7,298.1z"/>
		</g>
	</g>

		<linearGradient id="SVGID_1_" gradientUnits="userSpaceOnUse" x1="-40.6854" y1="-168.131" x2="-23.0923" y2="-140.1093" gradientTransform="matrix(3.3103 0 0 3.3103 378.0776 712.4291)">
		<stop  offset="0.436" style="stop-color:#1C4585"/>
		<stop  offset="1" style="stop-color:#091E36"/>
	</linearGradient>
	<path fill="url(#SVGID_1_)" d="M343.7,176.9c-1.2,6.4-1.4,14.5-0.3,21l1.9,11.9l1.4,9.6c0.7,6.7,1.3,13.6,0.9,20.6
		c-0.5,19-11.8,47.8-49,58.3c-8.4,3.3-16.7,7.1-24.2,12.6c-7.5-5.5-15.7-9.5-24.1-12.8c-32.2-9.7-49.8-39.2-48.6-62.2l0.4-9.5
		l1.2-10.2l3-18l0.8-6.3c0.3-10.2-0.1-20.9-6.8-28.6l14.6-18.9l5.3-6.9c4.9,2.7,10.7,3.4,16.8,2.9l15.7-2.4l9.4-1.3
		c6.6-0.8,13.6-1,20.4-0.5l11.4,1.3l10.6,1.7l8.6,1.3c6,0.4,12.2,0,17.2-2.8l4.8,6.3l17.9,22c-0.9,1-2.2,2.1-3.9,3.3
		C348.9,169.6,348.2,173.7,343.7,176.9z"/>
	<g>
		<g>
			<g>
				<path fill="#FFFFFF" d="M220.3,198.9l-1.2,2.8l-3.9-1.4l2,3.8l-3.7,2.6l1.7,0.4l2.5,0.6l-0.3,4.2l0.8-0.7l2.7-2.2l3.2,2.9
					l-0.2-4.4l4.3-0.4l-3.6-2.8l2-3.7l-4.2,1.2l-0.8-1.9l-0.8-2.1L220.3,198.9z M220.3,198.9l0.4-1.2l0.8,2.1l0.8,1.9l4.2-1.2
					l-2,3.7l3.6,2.8l-4.3,0.4l0.2,4.4l-3.2-2.9l-2.7,2.2l-0.8,0.7l0.3-4.2l-2.5-0.6l-1.7-0.4l3.7-2.6l-2-3.8l3.9,1.4L220.3,198.9z"
					/>
				<path fill="#FFFFFF" d="M217.6,233.4c1.4-0.3,2.8-0.8,4.2-1.2l-2,3.7c1.1,1,2.4,1.8,3.6,2.8l-4.3,0.4c0,1.4,0.2,3,0.2,4.4
					c-1-1-2.1-1.9-3.2-2.9c-1.1,0.9-2.3,1.8-3.4,2.9l0.4-4.2c-1.3-0.5-2.9-0.5-4.1-0.9c1.2-0.8,2.5-1.6,3.6-2.6l-2-3.7
					c1.2,0.3,2.6,0.8,3.9,1.3c0.6-1.2,1-2.7,1.6-4L217.6,233.4z"/>
				<path fill="#FFFFFF" d="M245,232.7c0-0.1,0.5-1.4,0.5-1.3c0,0,0.5,1.4,0.9,2.5c-0.4-1.1-0.9-2.5-0.9-2.6
					C245.5,231.3,245.1,232.7,245,232.7z M245,232.7l-0.9,2.2l-3.7,0.1l3.1,2.4l-1.1,3.8l3.2-2.3l3.2,2.3l-1.2-3.8l3.1-2.4h-3.8
					c0,0-0.2-0.6-0.4-1.1c0.2,0.6,0.4,1.1,0.4,1.1h3.8l-3.1,2.4l1.2,3.8l-3.2-2.3l-3.2,2.3l1.1-3.8l-3.1-2.4l3.7-0.1L245,232.7
					L245,232.7z"/>
				<path fill="#FFFFFF" d="M247,261.1c1.4-0.3,2.8-0.9,4.2-1.2l-2,3.7l3.6,2.8c-1.4,0.3-3,0.3-4.4,0.5l0.3,4.3l-3.2-3l-3.4,2.9
					c0-1.3,0.2-2.8,0.3-4.2c-1.4-0.3-2.8-0.6-4.2-0.9c1.2-0.9,2.5-1.6,3.7-2.6l-2-3.7l3.9,1.3l1.6-4L247,261.1z"/>
				<path fill="#FFFFFF" d="M245.6,204.1c-0.6,1.3-0.9,2.8-1.6,3.9l-3.9-1.3l2,3.7l-3.7,2.6c1.3,0.4,2.9,0.5,4.2,0.9
					c-0.3,1.4-0.4,3-0.4,4.2c1.1-1,2.3-1.9,3.4-2.9l3.3,2.9c0-1.5-0.3-3-0.3-4.4l4.3-0.4c-1.2-0.9-2.3-1.9-3.6-2.8l2-3.8
					c-1.4,0.4-2.9,1-4.2,1.1L245.6,204.1z"/>
			</g>
		</g>
	</g>
	<g opacity="0.3">

			<linearGradient id="SVGID_2_" gradientUnits="userSpaceOnUse" x1="-55.2244" y1="-159.1832" x2="-9.0986" y2="-142.3947" gradientTransform="matrix(3.3103 0 0 3.3103 378.0776 712.4291)">
			<stop  offset="0" style="stop-color:#FFFFFF"/>
			<stop  offset="0.5375" style="stop-color:#FFFFFF;stop-opacity:0"/>
		</linearGradient>
		<path fill="url(#SVGID_2_)" d="M333.2,145.6L333.2,145.6L333.2,145.6l-3.6-4.8c-3.5,1.5-7.7,2.3-12.7,2.3c-1.2,0-2.6-0.1-3.9-0.2
			h-0.1h-0.1l-8.6-1.3l-10.6-1.7l-11.3-1.3c-2.4-0.2-4.9-0.3-7.4-0.3c-4,0-8.2,0.3-12.5,0.8l-9.4,1.3l-15.5,2.3h-0.1h-0.1
			c-1.3,0.1-2.5,0.2-3.7,0.2c-4.7,0-8.9-0.8-12.6-2.5l-4.1,5.3l-13.3,17.4c6.2,8.2,6.4,19.1,6.1,28.7v0.1v0.1l-0.8,6.3v0.1v0.1
			l-3,17.9l-1.2,10.1l-0.4,9.3c-0.6,11.2,3.6,23.9,11.3,34.6c6.1,8.4,17.2,19.7,35.6,25.2l0.1,0.1l0.1,0.1
			c9.6,3.9,16.9,7.6,23.2,12.1c6.3-4.4,13.6-8.1,23.3-11.9l0.1-0.1l0.1-0.1c16.2-4.5,28.7-13,37-25c8.6-12.4,10.1-24.8,10.3-31v-0.1
			v-0.1c0.4-6.9-0.2-13.8-0.9-20.2L343,210l-1.9-11.9c-1.2-6.5-1.1-14.7,0.3-21.9l0.2-1l0.8-0.6c3.6-2.6,4.2-5.7,4.2-5.7l0.2-1
			l0.8-0.6c0.7-0.6,1.4-1.1,2-1.6L333.2,145.6z"/>
	</g>
	<path fill="#FFFFFF" d="M244.9,205.8l-1,2.2l-3.9-1.3l2,3.7l-3.7,2.6l2,0.4l2.2,0.5l-0.4,4.2l2.1-1.8l1.2-1l3.3,2.9l-0.3-4.4
		l4.3-0.4l-1-0.8l-2.6-1.9l2-3.8l-1.6,0.5l-2.6,0.7l-1.5-3.9L244.9,205.8z M245,205.8l0.7-1.6l1.5,3.9l2.6-0.7l1.6-0.5l-2,3.8
		l2.6,1.9l1,0.8l-4.3,0.4l0.3,4.4l-3.3-2.9l-1.2,1l-2.1,1.8l0.4-4.2l-2.2-0.5l-2-0.4l3.7-2.6l-2-3.7l3.9,1.3L245,205.8z"/>
	<g>
		<path fill="#FFFFFF" d="M222.3,201.7l4.2-1.2l-2,3.7l3.6,2.8l-4.3,0.4c0,1.4,0.2,2.9,0.2,4.4l-3.2-2.9c-1.1,0.8-2.3,1.8-3.4,2.9
			l0.3-4.2c-1.3-0.5-2.8-0.6-4.1-0.9l3.7-2.6l-2-3.8l3.9,1.4c0.9-1.5,1.2-3,1.6-4C221.3,198.9,221.7,200.3,222.3,201.7z"/>
		<path fill="#FFFFFF" d="M247.2,208c1.4-0.2,2.8-0.8,4.2-1.1l-2,3.8c1.2,0.8,2.4,1.8,3.6,2.8l-4.3,0.4c0,1.4,0.3,2.9,0.3,4.4
			l-3.3-2.9c-1.1,0.9-2.3,1.8-3.4,2.9c0.1-1.3,0.2-2.9,0.4-4.2c-1.4-0.5-2.9-0.5-4.2-0.9l3.7-2.6l-2-3.7l3.9,1.3
			c0.7-1.2,1-2.7,1.6-3.9L247.2,208z"/>
		<path fill="#FFFFFF" d="M215.4,231.2l-0.9,2.2l-0.3-0.1l-3.6-1.2l2,3.7l-2.5,1.7l-1.1,0.8l1.8,0.4l2.3,0.6l-0.4,4.2l3.2-2.8
			l0.2-0.2l1.8,1.7l1.3,1.2l-0.2-4.4l4.3-0.4l-1.5-1.1l-2.1-1.6l2-3.7l-1.4,0.4l-2.9,0.8l-1.5-4L215.4,231.2z M215.4,231.2l0.7-1.8
			l1.5,4l2.9-0.8l1.4-0.4l-2,3.7l2.1,1.6l1.5,1.1l-4.3,0.4l0.2,4.4l-1.3-1.2l-1.8-1.7l-0.2,0.2l-3.2,2.8l0.4-4.2l-2.3-0.6l-1.8-0.4
			l1.1-0.8l2.5-1.7l-2-3.7l3.6,1.2l0.3,0.1L215.4,231.2z"/>
		<path fill="#FFFFFF" d="M246.8,235h3.8l-3.1,2.4l1.2,3.8l-3.2-2.3l-3.2,2.3l1.1-3.8c-1-0.8-2-1.5-3.1-2.4l3.7-0.1
			c0.7-1,0.9-2.5,1.4-3.7C245.9,232.6,246.3,233.8,246.8,235z"/>
		<path fill="#FFFFFF" d="M243.8,261.1l-3.9-1.3l2,3.7l-2.2,1.6l-1.4,1l4.2,0.9l-0.2,1.6l-0.2,2.7l3.4-2.9l3.2,3l-0.3-4.3l4.4-0.5
			l-3.6-2.8l2-3.7l-2,0.6l-2.2,0.6l-1.5-4L243.8,261.1z M245.5,257l1.5,4l2.2-0.6l2-0.6l-2,3.7l3.6,2.8l-4.4,0.5l0.3,4.3l-3.2-3
			l-3.4,2.9l0.2-2.7l0.2-1.6l-4.2-0.9l1.4-1l2.2-1.6l-2-3.7l3.9,1.3L245.5,257z"/>
	</g>
	<g opacity="0.4">
	</g>
	<g>
		<g>
			<g>

					<linearGradient id="SVGID_3_" gradientUnits="userSpaceOnUse" x1="-27.8163" y1="-165.2614" x2="-3.8067" y2="-137.2234" gradientTransform="matrix(3.3103 0 0 3.3103 378.0776 712.4291)">
					<stop  offset="0.4162" style="stop-color:#1C4585"/>
					<stop  offset="1" style="stop-color:#091E36"/>
				</linearGradient>
				<path fill="url(#SVGID_3_)" d="M363.9,141.2l-1,0.5c1-1.3,1.9-3,2.9-5.3l1.3-3.1l-3.3,0.7c-5.6,1.2-11.1,3.3-16.5,5.4
					c-1.5,0.6-3,1.2-4.5,1.7c-2,0.7-3.9,1.4-5.9,2.1c-1.7,0.6-3.4,1.3-5.2,1.8c-4.6,1.4-9.4,2.5-14.3,3c-1.3,0.2-2.7,0.2-4.1,0.3
					c-2.1,0.2-4.2,0.4-6.3,0.6c-2.6,0.3-5.1,0.8-7.6,1.5c-2.2,0.7-4.4,1.6-6.2,3.2c-1,0.9-2,2.1-2.6,3.3c-1,2.1-1.4,4.3-1.8,6.3
					c-0.6,3.3-2.9,7.6-4.9,6.9c-1.9-0.7-2.4-2-2.3-3.6c0.1-1.6,1.6-3.4,1.6-3.4s1.3,0.9,2.9-0.6c0.7-0.7,1.1-1.8,1.3-2.8
					c0.2-0.6,0.3-1.1,0.4-1.7c0.1-0.5,0.4-1,0.3-1.5c-0.1-0.3-0.4-0.5-0.6-0.6c-0.3-0.8-0.9-1.2-1.7-1.4c-0.2-0.4-0.4-0.8-0.8-1.1
					c-0.4-0.3-0.8-0.4-1.2-0.5c-0.5-0.9-1.6-2.5-4.1-3.2c-1.4-0.5-2.9-0.5-4.1-0.3l-0.7-0.3c-2.4-0.8-6.1-0.4-7.6,1.9
					c-0.4,0.7-0.9,2-0.8,2.8c0.1,0.2,0.1,0.4,0.2,0.5c-0.2,0.3-0.2,0.6-0.2,0.9c0,0.2,0,0.3,0.1,0.5l0.1,0.2c0.1,0.2-0.5,0.8-0.6,1
					c-0.2,0.3-0.3,0.7-0.4,1c-0.2,0.5-0.3,0.9-0.3,1.4c0,0.6,0.3,0.8,0.5,1.3c-0.1,0.3-0.4,1.2-0.4,1.2l-0.6,2.1
					c-0.3,1.2,0.1,1.8,1.3,1.9c-0.1,0,0.7,1.7,0.8,1.9c0.4,0.5,0.4,1,0.7,1.5c0.2,0.3,0.5,0.6,0.8,0.8c0.8,0.5,1.7,0.4,2.6,0.2
					c-0.1,0.5-0.2,1.3-0.2,1.3c0-0.1-0.5,0.1-0.5,0.1c-0.3,0.1-0.8,0.2-1.2,0.4l-1.1-0.9c-2.5-1.8-4.8-4-4.9-7.3
					c-0.1-0.6,0.1-1.2-0.2-1.7c-0.2-0.6-0.8-0.9-1-1.4c-0.2-0.6-0.2-1.2-0.3-1.8c-0.2-0.7-0.4-1.5-0.6-2.2c-0.5-1.5-1.2-2.9-2.2-4.1
					c-2.1-2.6-6.3-2.9-9.3-3.3c-1.1-0.2-2.3-0.3-3.4-0.3c-1-0.1-2-0.2-3.1-0.2c-4.2-0.3-8.2-0.5-11.9-1.6c-0.2-0.1-5.4-1.6-9.1-2.4
					c-1.8-0.4-3.6-0.7-5.3-1.1c-1.2-0.3-2.4-0.5-3.6-0.7c-2.1-0.5-4.2-1.1-6.2-1.6c-2-0.5-4-1-6-1.5c-0.1,0-1.3-0.3-1.3-0.4
					c0,0,0.4,2.1,0.9,3.8c0.5,1.7,2.6,5.8,2.6,5.8c1.4,3,3.9,8.7,9.2,12.8l1.1,0.6c0.3,0.7,0.5,1.3,0.8,2c0.7,1.8,1.9,3.3,3.4,4.5
					c1.1,0.9,2.2,1.6,3.4,2.2c0.9,0.5,2.7,1.4,3.7,1.2c-0.3,0.1-0.6,0.2-0.8,0.2c-0.5,0.2-1,0.4-1.5,0.5c-0.6,0.2,0.3,0.7-0.3,1
					c-0.8,0.4-2.7,0.7-3.2,1.2c-0.7,0.6-0.4,0.8-0.9,1.5c-0.4,0.5-1.7,1.3-2,1.8c-0.2,0.3-0.3,0.5-0.4,0.8c-0.1,0.2-0.2,0.8-0.4,0.8
					c-1,0.6-2,1.3-2.6,2.4c-0.4,0.7-0.3,1.4,0,2c0.2,0.4,0.4,0.8,0.6,1.1c0.4,0.5,0.7,0.4,1.1,0.1c0.2-0.2,0.4-0.3,0.7-0.4
					c0.3-0.2,0.6-0.3,0.8-0.4c-0.2,0.1-0.2,1.3-0.2,1.4c0.1,0.4,0.2,0.8,0.3,1.2c0.3,0.7,0.8,1.2,1.3,1.7c0.3,0.3,0.6,0.7,0.9,0.9
					c0.2,0.2,0.5,0.4,0.7,0.2c0.2-0.2,0.2-0.6,0.3-0.9c0.1-0.3,0.7-2.6,1-2.5c0.2,0.1,1.6,1.6,1.9,1.8c0.2,0.1,0.3,0.3,0.5,0.2
					c0.2-0.1,0.3-0.4,0.4-0.6c0.3-0.5,0.5-1,0.6-1.5c0.3-0.7,0.2-1.7,0.3-1.8c0.1-0.1,0.9,0.1,1,0.1c0.6,0,0.8,0.2,1-0.4
					c0.1-0.4,0.2-1.3,0.6-1.5c0.5-0.3,0.7,0.4,1.1,0.2c0.6-0.3,1.4-1.6,1.9-1.8c0.6-0.3,1.1,0.1,1.5,0.2c0.4,0.1,0.7-0.1,0.8,0.1
					c0.3,0.4-0.2,0.8-0.6,1.6c-0.2,0.3,1.1,0.6,1,0.8c-0.2,0.3-1.4,1-1.7,1.2c-0.4,0.4-0.7,0.8-1,1.3c-0.2,0.4,0.7,0.5,0.6,0.8
					c-0.5,1.2-2.3,2.1-3.6,2.5c-0.4,0.1-0.8,0.2-1.2,0.3c-0.6,0.2-0.2,1.2-0.1,1.6c0.1,0.6,0.5,1.1,1,1.5c0.2,0.1,0.4,0.2,0.6,0.3
					c0,0-0.5,0.6-0.6,0.7c-0.2,0.2-0.5,0.4-0.7,0.6c-0.3,0.2-1.4,0.8-1.3,1.2c0.1,0.2,0.8,0.4,1,0.5c0.4,0.2,0.7,0.5,1.1,0.6
					c0.8,0.3,1.6,0.2,2.4-0.1c0.4-0.1,0.8-0.3,1.2-0.4c0.3-0.1,0.8-0.4,1.1-0.4c0.5-0.1,1.1,0.3,1.6,0.3c1.1-0.2,2.6-1.8,3.6-2.4
					c1-0.6,1.7-0.2,2.5-1c0.9-0.9,0.6-1.5,1.3-2.6c0.7-1,2.1-2.4,2.4-3.6c0.2-0.8,0.3-1.5,0.5-2.2c1.1,0.7,2.2,1.2,3.4,1.8
					c0.5,0.3,1,0.9,1.5,1.3c0.9,0.7,1.8,1.5,3,1.7c0.5,0.1,1,0,1.5-0.2c0.2-0.1,1-0.5,1.1-0.4c0.4,0.3,0.9,0.5,1.5,0.5
					c-0.1,0-0.3,0.9-0.3,1c0,0.2,0.1,2.6,0.3,2.6c0,0,2.2-0.3,2.5-0.3c-0.2,0.5-0.3,1-0.3,1.5c0.1,0.7,0.4,1.4,0.7,2
					c0.1,0.3,2.8-0.5,2.8-0.6c0.3,1,0.7,1.8,1.1,2.5c0.6,0.9,1.1,1.9,1.8,2.8c0-0.1-0.1,0.4-0.1,0.4s-3.7,12.9-3.1,15.8l0.4,1.8
					c-0.4,1-0.4,2.3,0.1,4c-0.6,0.5-0.8,1.1-0.8,1.8c0,1.4,0.6,2.8,1,4.1c0.8,2.5,0.3,6.5,0.4,7.7c0.1,1,0.1,1.9,0.2,2.9
					c0.2,2.8,0.1,5.5,1.1,8.2c0.4,1,0.9,1.8,1.5,2.6c-0.1,0.5-0.2,1.3-0.2,1.3c-0.2,1.2-0.3,2.4-0.3,3.7c0,4.3,0.9,8.5,2.5,12.5
					c1,2.5,3.1,4.4,5.8,5.1c0.7,0.2,1.4,0.3,2.1,0.4c2.2,0.2,4.3-0.1,6.5-0.6c1.3-0.3,2.4-0.6,3.4-1.6c0.9-0.9,1.5-2.2,2-3.4
					c-0.1,0.4-0.1,0.7-0.1,1c0,0.7,0.1,1.3,0.4,1.9c1,2.8,3.9,3.5,4.2,3.6c2.6,0.5,4.2,0.1,5.4-0.7c0.1,0.2,0.1,0.3,0.1,0.5
					c0.6,1.3,1.7,1.7,6.2,0.5c-0.2,0.4-0.3,0.8-0.3,1.1c0,0.7,0.3,1.3,0.7,1.8c1.8,1.8,6.2,0.7,7.3,0.2c1.6-0.9,2.8-1.6,3.5-2.4
					c-0.3,0.2,1.9,1.3,2,1.3c1.5,0.4,3.1,0.3,4.5,0c2-0.4,4.1-1,5.8-2.3c1.3-1,2.1-2.2,2.9-3.6c0.4-0.8,0.7-1.7,1.1-2.5l0.9-2.2
					c0.2-0.6,0.4-1.1,2.8-0.8l4.9,0.6l-3.5-3.5c-1.8-1.8-3.9-4.6-5.9-7.3c-2.3-3.1-4.6-6.2-6.8-8.3l-7.2-8.6
					c0.3-0.2,0.6-0.4,0.9-0.7c0,0,1.5-0.2,1.5-0.2c1.8-0.2,4.1-1.8,4.5-3.7c0.3-1.2-0.4-2.1-0.8-3.2c-0.2-0.4-0.3-0.9-0.6-1.3
					c-0.4-0.5-1.1-0.8-1.6-1.1c-0.7-0.4-1.3-0.9-2-1.3c-1.4-0.9-2.9-1.8-4.3-2.7c-2.9-1.8-5.8-3.6-8.7-5.3c-1.5-0.9-3.8-1.1-4.9-2.6
					c-0.8-1-1.2-2.2-1.9-3.3c-0.7-1.1-1.5-2.2-2.1-3.4c-0.6-0.9-1.1-1.8-1.5-2.8c-0.8-1.5-1.3-3.1-1.9-4.6c0,0.1,1-0.8,1.1-0.8
					c0.2-0.2,1.6-2.1,1.4-2.3c0.3,0.3,0.7,0.5,1,0.7l2.7,1.8c0.3,0.2,1.1-0.8,1.3-1c0.3-0.3,1.5-2.1,1.1-2.5
					c0.3,0.3,0.5,0.5,0.8,0.7l1.2,0.9l1-1.1c1-1,1.3-2.2,1.3-3.4c0-0.5-0.1-1-0.2-1.5c0.6,0.2,1.1,0.3,1.4,0.5l2.1,1.6l0.6-2.5
					c0.1-0.4,0.2-0.8,0.2-1.1c0-0.4-0.2-0.9-0.3-1.3c0.1,0.1,2.6,1,2.6,1l0.3-2.1c0.1-0.2,0.1-0.4,0.1-0.6c0-1.2-0.5-2.2-0.9-3.2
					c0.2-0.2,0.3-0.4,0.5-0.6c1.7,1.1,3.9,2,6.5,1.4l2-0.5c0,0-0.1-0.2-0.1-0.2c2.4,0.9,4.9,1.4,8.5-0.4l1.5-0.7c0,0-0.3-0.6-0.4-1
					c2.7,0.5,5.6,0.8,7.8-0.6l1.4-0.9l-0.9-1.4c-0.1-0.1-0.2-0.2-0.3-0.3c1.8-0.2,3.7-0.8,4.6-2.6c0.3-0.6,0.3-1,0-1.6
					c0.8-0.1,1.5-0.2,2.2-0.5c2.7-1,4.6-3.3,5.8-7l0.2-0.5c2.2-1.3,4.3-3.3,6.2-6l1.8-4c0.9-1,1.7-2.2,2.1-3.3c0.3-0.5,1-1.9,0.1-3
					c-0.1-0.1-0.1-0.1-0.2-0.2c2.7-2,5.8-6.5,6.9-8.7l2.4-4.5L363.9,141.2z"/>
			</g>
		</g>
	</g>
	<path fill="#FFFFFF" d="M353.6,139.3l-12.5,4.6l-8.6,3.1l-5.6,1.5c-6.5,2-13.9,1.7-20.8,2.7c-5.3,1-11.2,1.8-14,7.1
		c-2.8,4.3-1.1,11.3-6.9,13.4c0.8,0,1.9,0,2.7,0.2c1-0.3,2.8,0.2,3.8,0.6c4,1.2,5.3,2.7,9.5,3.5c2,0.5,4.2,1.5,6.2,0.4
		c-1-1.1-3.1-1.7-4.5-1.6c1.4-0.8,3.4-1.6,2.5-3.2c-1.6-1.1-3.3,0.3-4.6,0.5c0.7-1.1,3.4-3.4,1.6-4.9c-2-0.8-3.7,0.1-5.2,1.3
		c0.5-1.2,2.5-2.9,1.1-4.1c-1.4-1.3-3.4-0.2-3.9,0c-0.2-0.9-0.9-2.9-1.8-3.5l0.1-0.1c0.7,0.1,1.4,0.4,2,1c4.2-3,8.4-5.7,13.6-7.5
		c3.6-1.4,12-4.5,23.3-0.4c3-1.1,5.5-2.9,8.2-3.8l16-5c4-1.4,6-3,8.6-8.9C360.6,136.8,357,138.2,353.6,139.3z M357,146.3
		c-9.5,2.6-16.7,4.6-25.4,8.9l2.2,0.3c3.7,0.7,4.4,1.1,8.2,0.5c5.4-0.9,11.1-2,15.5-4.4c2.4-1.3,5.8-6.2,7-8.5
		C362.7,143.9,362,144.6,357,146.3z M269.3,152.2c-0.5,0.5-1.5,2-0.6,2.6c1.5-3,3.8-2.8,5.8-3.3C273,150.9,270.8,151,269.3,152.2z
		 M357.2,153.7c-7,2.7-11.8,3.2-16.1,3.7c-1.2,0.7-0.9,2.5-6.4,4.7c0.7,1.5,8,0.9,11.9,0.4c5.2-0.9,6-1.7,7.9-3.4
		c1.2-1.1,2.7-3.1,3.1-4.1C358.1,154,358.1,153.5,357.2,153.7z M323.7,153.6c-11.9-0.6-17,2.7-27.8,8.6c0.7-0.1,2.8,0.5,3.2,0.9
		c0.4,0.4,1.3,1.8,1.2,2.1c15.7-6.3,20.7-7.3,30-9.3c1.1-0.4-0.5-1.2-3.3-1.9C326.1,153.8,324.7,153.6,323.7,153.6z M279.4,152
		c-2.1-0.7-4.4-0.2-6,0.3c-1.3,0.5-3.3,1.6-3.9,2.6c2.5,0.7,5.6,0.2,8.2,0.6c1.4,0.4,2.4,2.1,4.1,1.4c1-1,1-1.7,0.9-2.2
		C282.3,154,281.5,152.6,279.4,152z M283.6,155.3c-0.7,0.4-1,1.1-1,1.8c0.8,0.2,1-0.3,1.4-0.5c0.2-0.3,0.3-0.4,0.3-0.8
		S283.9,155.2,283.6,155.3z M323,159.3l-19.6,6.3c1.9,1.1,1.6,2.7,0.7,4.4c4.7-0.7,8.8-1.7,11.8-2.4l11.1-3.2
		c3.8-0.8,4.2-1.6,7.8-3.6c0.5-0.6,3.4-1.3,3.6-2.6C334.8,156,329.3,157.5,323,159.3z M269.1,155.6c-0.3-0.2-0.9-0.1-0.8,0.4
		c0.6,0.5,2.4,2.1,3,2.5l7.2,0.3c0.9,0.1,1.9,0.2,2.5,1c0.2,0.4,0.1,0.9-0.4,1.1c-0.7,0.2-1.5,0.1-1.9-0.6c0.1-0.1,0.3,0,0.5-0.1
		c0.2-0.1,0.4-0.1,0.4-0.3c-1.1-0.4-2.3-0.4-3.5-0.6c-0.7,0.2-3.7-0.5-4.1,0.1c0.2,1.9,4,1.9,6.5,1.9c0.3,0.7,0.8,1.3,1.4,1.6
		c0.4,0.5,0.5,1,0.4,1.6c0.2-0.6,0.8-1.1,1.3-1.3c0.6-0.7,1-1.6,0.8-2.6c-0.6-1.2-3-3.5-4.2-3.9
		C275.5,156.4,271.6,156.4,269.1,155.6z M285,156.7c-1,0.5-2.6,1.1-2.6,2.4c0,0,0.7,0.2,1,0.4c0.6,0.5,1.4,0.3,1.9-0.1
		c0.6-0.4,1.1-0.9,1.1-1.7c-0.4-0.4-0.6-0.3-0.5-0.7C286,156.7,285.4,156.7,285,156.7z M204.7,149.1c2.1,4.9,6.8,14.9,19.3,16.3
		l10.4,0.7c-1.6-3.9-1.8-5.9-7.9-7.7C223.4,157.8,213.3,155.3,204.7,149.1z M332.7,163.7c-2.7,0.9-0.4,2.9,4.5,5.8
		c2.7,1.4,4.5,0.4,6.8-0.2c3.9-0.9,7-3.2,9.9-7.2C350,163.5,341.1,165.8,332.7,163.7z M283,159.6c-0.6,0.4,0,1,0,1.5
		c0.2,0.4,0.5,0.9,1,0.8c0.6-0.5,2-0.6,1.6-1.7c-0.3-0.1-0.5,0.1-0.8,0.2C284.1,160.6,283.4,160.2,283,159.6z M227.1,167.2
		c-1.5-0.1-5.9-0.4-11.1-1.8c1.6,2,7.1,6.1,10.5,6.3l11.4-0.1l-1.6-1.6C233.5,166.9,230.6,167.4,227.1,167.2z M239.4,167.6
		c-1.1-0.4-2.5-0.6-4.3-0.6c2.8,4.6,8.3,5.9,13.2,6.2c1.8,0.5,0.6-0.8,1-1.6C245.8,169.6,243.3,168.8,239.4,167.6z M333.4,169
		c-3.4-3.5-2-4.5-11.2-1.5l-15.2,3.7c1.2,2-0.9,3-0.9,3c1.6,1.3,5.1,1.3,7.1,1.2l8.6-1.2c1.2-1.9,3.4-2.1,5.2-2.9
		c0.6-0.1,0.9-0.8,1.5-0.8c0.2,0,0.4,0.3,0.5,0.4c0.4,0.6,0.1,1.7-0.4,2.2c0.9-0.2,1.3-0.4,2.6-0.4c1.5,0.1,2,0.7,2,1.1
		c1.5-0.4,3.2-0.6,4-2.2L333.4,169z M327.9,171.7c-0.9,0.6-1.7,1.4-2.9,1.4c-1.8,0.2-2.1,2.9-4.2,2.5l-11.7,1.5
		c-1.7,0.2-3.4,0.8-5.1,1c-3.9-1.5-8.2-1.7-11.8-3.9c-1.9-0.6-3.8-1.6-6-1c-3.8,2.7-1.9,8.2-1.3,11.9c0.1,0.3,0.2,0.7,0.6,0.7
		c1-1.1,1.1-2.8,1.3-4.3c-0.5-0.4-1.2-0.1-1.7,0c0.3-0.7,1-0.9,1.6-1.1c4.8-0.3,9.2,0.9,13.8,1.7c2.9,1,6.4,0.4,9.2-0.4l8.2-2.4
		c1.6-0.4,3.2-0.8,4.9-0.8c3,0.5,5.8-0.8,8.3-2.1c0.7-0.4,1.5-1.5,1.3-2.3c-0.2-0.8-4.1,0.1-5.3,0.5c-0.5,0.7-1.3,1.1-2,1.1l0.9-0.6
		c0.6-1.2,2.4-1.6,2.6-3.1C328.4,171.6,328.1,171.7,327.9,171.7z M339.1,171.4c0,0-0.2,1.8-3,2.7c2.6,1.6,8.6,3.2,11.1-5
		C344.8,170.3,343,171.6,339.1,171.4z M238.1,172.5c0,0-1.8,0.7-4.4,0.8c-1.9,0-3.3-0.2-7.3-0.5c1.8,1.1,6.4,2.8,8.8,3.1
		c4-0.1,6.6,1.2,9.9,2.9c1,0.7,1.1-1.2,1.8-1.6c0,0-0.5-0.3-0.7-0.9c-0.2-0.6-0.3-1.1,0.7-1.4C243.7,173.9,241.4,173.1,238.1,172.5z
		 M231.7,177.5c1.4,0.1,3.2,0.4,4.2,1.3c-1.3,0.3-1.6,1.4-2.4,1.9l-0.2,0.5c0.5,0.5,1.3,0.1,1.9-0.2c1.3-0.4,2.4-0.9,3.8-1.1
		c0.4,0.4-0.4,0.2-0.4,0.6c2.6,2.4,5.6,3.9,8.5,5.4c2.5,1.7,3.7,3.9,6.2,1.9l9.6-5.6l3.7-1.6c0.3-1.9,1.8-3.4,1.6-5.5l-0.6-0.6
		c-3-0.5-5.4,1.7-7.3,3.8c-2.9,1.2-5.5,3-8,4.9c0.2,0.3,0.8,0.6,0.6,0.9c-4.1-1.3-7.3-4-11.3-5.4c-2-1.4-3.6-1.6-6.1-2
		c-1.5-0.5-3-0.1-3.5,0.4L231.7,177.5z M334.6,175.2c-0.6,0-1.1-0.5-1.9,0.7c-1.7,2.5-6.6,3.8-10.7,3.1c-4.5,0.8-8.5,3-12.9,3.9
		c2,1.6,4.3,3.4,7.2,2.7c-0.8-1.5-2-0.9-2.5-2.5c0.8,0.3,0.7,0.1,1.5,0.3c4.2,1.5,6.5,3.4,11,1.2c-0.7-1.5-3.9-1.5-2.9-2.4
		c1.1-0.9,8.3,2.2,11.5,0.2c-1.1-1.8-4.3-1.6-3.6-2.5s6.4,0.8,8-2C339,176.2,334.6,175.2,334.6,175.2z M293.6,182.3
		c-2.3-0.1-5.2-0.8-6.4,1.5c-0.4,2.6-0.9,5.3-3.4,6.6c0,0-2.2,1.1-0.4,1.7c1.6,1.2,3.2,1.4,4.2,2.6c0.2,0.9-0.6,0.9-1,1.3
		c1.8,1,3,3.3,4.1,4.9c1.1-0.7,2-4.4,2.4-4.3c-0.1,1.2,3.3,2.5,4.1,3.5c1.2-1.6,0.9-4.4,0.6-6.2c1.3,1.2,2,3,3.6,4.1
		c1.6-1.8,0.4-4.5-0.1-6.4c1,0.8,3.7,0.9,4.9,1.8c0.4-1.6-0.7-3.8-1.4-5c0,0,3.1,1.2,4.1,1.6c0.2-1.4-0.9-2.9-1.3-4.1
		c0.9,0.4,1.9-2.1,0.9-2.7c-2,0.2-3.6,1.1-5.8,0.9C299.7,183.4,296.6,182.7,293.6,182.3z M263.6,183.9c-2.7,1-6.8,3-9.2,4.7
		c0.2,0.4,3.1,0.2,3.2,0.7c-0.7,0.9-1.6,1.7-1.4,2.9c0.7-0.2,3.2-0.4,3.2-0.4c0.1,0.9-1,2.9-0.7,3.6c0.9-0.1,2.3-1.1,2.9-1.6
		c0,1.3,0.7,3.3,1.3,4.4c0.4-0.9,1.8-4,4.4-6.1c-0.8-0.4-1.7-0.9-2.5-1.5c-1.5-1.2-2.4-3.1-1.7-5c0.3-0.6,1-1,0.9-1.7L263.6,183.9
		L263.6,183.9z M280.6,192.8c-1-0.7-3.9-0.8-5.3-0.8c-2.6,0.4-5.4-0.1-7.6,1c0,0-0.3,0.2-0.5,0.4c-0.6,0.7-0.6,0.6-1,1.4
		c-0.1,0.3-1.8,2.6-1.7,2.9c-0.4,0.8-0.6,1.5-0.5,2c0.5,1,1.3,0.5,2.1,0.9c-0.7-0.5-0.7-0.9-0.8-1.4c-0.3-1.2,1.6-3.6,2.2-4.7
		c0.4-0.4,0.8-0.7,1.1-0.7h0.2c-1.1,1.3-1.8,2.7-2.4,4.3c-0.3,0.6-0.1,1.2,0.3,1.7c0.4,0.4,2.2,0.6,2.8,0.6
		c-0.2-1.7,0.8-2.4,0.3-4.1c0.3-0.1,0.7-0.1,0.8,0.2c0.7,1.7-0.4,3.2,0.9,4.6c1.9,0.5,2.6-0.7,3.9-1.6c0.5-2.1,0.2-4.2-0.4-6.1
		c1.4,0.4,1.6,3.5,2.4,4.4c0.6,0.2,1.1-0.2,1.5-0.6c1.3-1.3-0.2-3.3-1.1-4.6c0.2-0.1,1.3,0.1,2.2,1.9c0.9,1.9,0.1,1.6,0.7,2.7
		c0.4-0.2,2-0.1,2.4-0.4c1.9-1.5,1.4-1.9,2.2-1.9C284.3,194,282.2,193.4,280.6,192.8z M262.3,226.5h-0.1c-0.9,0.5,0.1,2.2,0.3,2.9
		c0.6,1.6,0.5,3.4,0.6,5.1c0.2,3.1,0.1,6.2,0.4,9.3c0.2,1.8,0.4,4.2,1.6,5.7c2.9,3.7,5.7,7.4,7.8,11.5l-0.1,0.1
		c-2-1.1-5-4.9-6.9-8.2c-0.8,5.6,0.5,12.6,3,17c3.4,4.3,12.8,1.4,12.8,1.4c3.1-1.9,1.6-5.4,4.9-7.8c-1-1.6-1.9-1.9-3.9-4.4
		c-1.9-3.2-3.9-5.5-5.2-8.2c-2.7-4.3-5.5-8.5-7.8-13l-4-6.4L262.3,226.5z M317.3,232.4c-1.4,0.7-1.3,2.5-1.4,3.8l0.5-0.1
		c1.1-0.6,3.1-1,3.1-2.7C319,232.8,318.2,232.3,317.3,232.4z M301.3,220.2c2.4,3,4.3,5.6,4.3,5.6c-0.8-0.6-3.4-1.5-8-6.5
		c-1.2-1.5-3.2-3.7-3.5-3.3c-0.2,0.6,1.2,1.7,1.4,2.1c0,0,5.6,7.5,4.8,7.5c-0.8,0.1-4-3-5.9-5.9c-2-3.3-5.8-9-6.4-12.9
		c0,0,6.2,7.9,7.9,8.8c0,0-4.5-7-5.3-9.1c-0.8-2.1-3.2-8.3-5.2-10c0,0,0.3,0.5-1.8,1.5c-1.8,1-2.4-0.1-4.3,0.6s-1.6,1.1-2.7,2
		c-1.4,1.2-4.6,3.7-6.3,0.6c0,0-2.7,1.6-4.9,0.6c0,0-3.9,13.1-3.4,15.9c0,0,1.6-1.3,2.9-0.6c1.2,0.7,2.5-1.5,4.1-0.8
		c1.7,0.8-0.5,4.5,0.2,5.1c0.8,0.7,1.3-1.2,2.8-0.4c1.5,0.8,0.3,3,1.7,3s-0.1-6.5,1.6-6.5c0,0,0.1,4.2,1.9,5.5c0,0-2.1-9.9,1-18
		c0,0-0.5,11.5,0.5,16.5c0,0,2-4.3,4.3-2.7c2.4,1.6,0,5,1.4,5.4s3.5-2,4.3-2.8c0.9-0.8,2.3-1.1,2.7-0.1c1.2,2.8-1.5,2-0.8,3.6
		c0.6,1.4,1.8,0.7,3.1,1.3c2.2,1.3-3.4,2.2-1.1,3.8c2,1.3,6,1.7,9.2,1.5c0,0.1,6.6,2.4,8.7,4c-0.6-1.2-1.4-1.8-1.5-3.2h0.1
		c2.5,1.2,3.5,3,4.1,5.1c0.4,0,0.9-0.2,1.2-1.3c0.6-1.7-0.8-3,0.9-4.2c1-0.8,2.4-0.9,3.7-0.6C315.6,228.7,303,221,301.3,220.2z
		 M237.4,181.9c-1.2-0.1-3.2,1.6-3.9,2.3c2.6-0.8,3.5-0.3,4.1-1C237.6,182.8,237.7,182.1,237.4,181.9z M238.9,182.6
		c-0.4,1.6,0.7,3.2,1.9,4l0.3-1.2C241,184.2,239.8,183.2,238.9,182.6z M238.1,185.6c-0.2,0.5-0.6,1-0.5,1.5c0.2,0.9,1.5,1.3,1.9,2.6
		C240.4,188.5,239.5,186,238.1,185.6z M237.1,188.2l-0.7,1.1c-1.1,1.5,0.8,2.9,0.7,3.8c0.6-0.6,1.3-2.2,1-3.4
		C237.9,189.2,237.6,188.6,237.1,188.2z M233.2,188.4c-0.7,0.3-2.4,1.3-3.2,1.2c0.4,0.6,2.2,0.5,2.9,0.6c1.1,0.1,1.9-1.2,2.6-2
		L233.2,188.4z M235,191.2c-2.2,0.5-0.9,3.2-2.9,4.6c1.3-0.2,1.9-0.2,2.8-1.7C235.2,193.3,235.5,192,235,191.2z M217.6,185.7
		c-0.5,1.7-0.1,2.1,0.7,3.2c-0.3-2.5,2.6-3.4,1.3-5.3C218.6,183.8,217.8,184.9,217.6,185.7z M227,192.6c0.1,0.6,2.2,0.5,3.2,0.1
		c0.5-0.1,2.2-0.7,2.4-1.3C228.7,190.4,230,191.9,227,192.6z M231.7,187.1c0.2,0.5,2.2,0.1,3.2-0.5c0.5-0.2,2-1.1,2.1-1.7
		C233,184.6,234.6,185.8,231.7,187.1z M218.9,181.6c-0.6-0.3-2.2,0.5-2.6,0.8c-1,0.4-2.6,1.9-2.2,2.4
		C216.8,183,216.9,185,218.9,181.6z M224.5,174.9c1.3,0.4,1.9,1.2,2.8,1.4c1.1,0.1,1.4-0.2,1.6-0.6
		C228.5,174.4,225.9,174.4,224.5,174.9z M230.5,181.1c-0.1-1.4,0.5-2.2,0.4-3.1c-0.3-1-0.7-1.3-1.1-1.3
		C228.6,177.4,229.6,179.9,230.5,181.1z M224.2,176.1c-1.1-0.4-3.1,0.3-3.7,0.9c1.4-0.1,2.3,1.5,4,0.9l1.1-0.6
		C225.4,176.7,224.9,176.3,224.2,176.1z M226.4,179c-0.4,1.1,0.4,3.1,1,3.7c-0.2-1.4,1.5-2.4,0.8-4.1l-0.6-1.1
		C227,177.9,226.6,178.4,226.4,179z M231.6,193.9l-1.2,0.1c-1.8,0.2-1.8,2-3.2,2.7c0.8,0.2,2.9-0.1,3.7-1
		C231.3,195.2,231.6,194.6,231.6,193.9z M219.4,178.4c-1.7,0.6-1.8,1.1-2.2,2.4c1.8-1.6,4.2,0.2,5.1-1.9
		C221.6,178.2,220.2,178.1,219.4,178.4z M223.2,181.7c0.1,1.8,0.6,2,1.7,2.8c-1.1-2.2,1.3-4-0.5-5.4
		C223.6,179.6,223.2,180.9,223.2,181.7z M221.1,181.5c-0.2,2.4-0.2,4.3,0.8,5.5c0.7-1.9,0.8-2.8,0.3-4
		C222.1,182.4,221.6,181.5,221.1,181.5z M282.4,171.7c-3.2-1.2-2.1-4.9-2.6-7.5c-0.2-0.5-0.7-0.7-1.2-0.6c-1,0.3-2,1.4-3.1,0.7
		c0.7-0.1,1.2-0.2,1.7-0.6c0.3-0.4,0.7-0.8,0.6-1.4c-0.2-0.3-0.6-0.3-0.9-0.3c-0.3,0.1-0.5,0.4-0.5,0.7c-1.3,0.1-2-1.3-3.4-0.8
		c-0.7,0-1.1-0.7-1.5-1.1c-0.4-1.7-2.1-2.6-3.3-3.6c-0.6,0.9-1.1,1.8-1.1,2.9c0.1,0.8,1.5,0.4,2,0.5c1.2,0.4-1,1.2-0.9,1.8
		c-0.1-0.2-0.2-0.6,0.1-0.8c0.4-0.5-0.4-0.5-0.6-0.7c-0.1,1.3-0.9,2.5-1,3.7l1.2,0.2c0.3,0.3,0.1,0.8,0.2,1.2l0.1,0.1
		c0.3,0.1,0.5,0.1,0.6,0.1c0.1,0,0.2,0.1,0.2,0.2s-0.1,0.2-0.2,0.2c0,0-0.2,0-0.4-0.1c0.1,0.4,0.1,0.7,0.6,0.9
		c0.4,0.5-0.1,1.4,0.7,1.6c2.4,0.1,3.9-1.8,5.9-3c-0.3,1.1-1.8,1.6-2.3,2.7c-0.3,1.2-0.2,2.6-0.6,3.8c-0.6,1.7-2.7,0.8-3.3,2.1
		c0.2,1.5-0.5,3.6,1,4.4c2.1,0.3,4-0.4,5.7-1.3c3-1,5.2-3.9,7.8-5.8C283.3,171.9,282.8,171.9,282.4,171.7z M267.1,173.1
		c-2.9-0.1-5.3,1.2-7.2,4.4c-2.9,0.6-4.9,1.8-7.6,4.6c-1.9-0.5-5.4-2.5-5.4-2.5s1.7-2,2.1-2.1c-0.5-0.7-1.7-0.5-1.4-2.2
		c0.4-1.8,3-0.5,4.8-1.3c-0.8-0.7-2-1.4-1.5-2.8c0.5-1.4,3.1-0.7,4.1-0.7c-0.1-1-1.2-2.6-0.2-3.2c1-0.7,3.5-0.5,3.5-0.5
		c0.1-1.2,0.7-2.2,1.3-3.2c-0.2-0.2-2.5,1.2-2.8,2c-3.2-0.3-3.7,1.1-3.8,3.1c-0.8,1.2-3,0.3-3.4,1.5c-3.9-2.4-6-2.7-12.3-4.4
		c-2-0.9-3.8-3.1-4-6c2.6,0.3,3.9,0.8,5.6,0.9l12,3.3c0.1,0,0.1-0.1,0.1-0.1c-5.2-4.5-12.1-4.2-18.5-5.9c-3.5-0.7-5.7-1.1-6.7-1.5
		c-4.2-0.8-20.8-5.7-23.4-13.9c3.9,0.9,7.1,1.8,10.6,2.8c2.8,0.7,5,0.9,8.9,1.8c3.7,0.8,9,2.4,9,2.4c8.3,2.4,17.6,0.9,25.7,3.6
		c2.9,2.4,3.5,5.9,4,9.2l0.9,0.9C261.5,167.9,263.3,170.2,267.1,173.1z M255.7,162.4c-0.6-2.7-1.7-5.5-4.3-6.4
		c-5.9-2.1-13.6-2.4-20-3.5l4.4,1.5C244.3,155.8,250.8,155.8,255.7,162.4z M333.3,264.2c-2-0.3-3.8-0.1-4.5,1.8
		c-2.3,5.2-2.3,7.4-7.6,9.3c-3,0.7-6.4,0.9-6.8-0.7c0.7-3.3,5.2-3.7,7-4.6c3-1.6,3.8-4.8,3.9-8c-0.2-0.7-1.8-1.9-2.5-2.3l-5-3.4
		l-7.3-5.3c-0.1-0.1-0.1-0.1-0.2-0.1l-0.1,0.1c0,0,8.6,8.4,12.3,10.9c0.5,5.5-3.2,5.7-7.6,8c-2.8,1.5-1,4.3-6.1,6.9
		c-1.5,0.7-6.5,1.4-5.4-1.1c1.7-2.6-0.1-2.6-0.1-2.6c-1.9,0.6-9.8,2.7-4.3-0.9c0.7-0.5,1.4-1.8,1.4-1.8c0.8-2.1-1.6-2.6-2.5-1.6
		c-1.9,2.1-2,5.6-7.5,4.6c0,0-6.4-1.5-1.2-8.7c2.4-1.6-3.8-4.6-4.9-7.1l-3.2-5.2l-7.9-12.3l-6-9.2c-1.3-1.9-3-3.9-4.3-6
		c-1.7-4.5-0.5-5.3,1.2-5.6c2.1,1.2,2.3,0.6,3.3,0.3c1.1-0.4,1,1.2,0,2c-0.6,1.1-0.5,1.5,0.2,2.5c1.4,0.6,1.4-0.6,2.7-0.3
		s2.7,4.2,5,4.9c0.5-0.1,0.9,0.1,1.1-0.3c-0.1-1.1-0.9-3-1-4c1.2,1.3,5.6,5.4,5,3.1s-0.5-3.8-0.5-3.8c0.5-0.6,0.4-1.6,1.2-1.6
		c0.5,0,0.8,0.1,1.1,0.3c1,1.8,0.4,4.2,2.1,5.6c0.4,0.1,1,0.6,1.2,0.2c3.8,7.1,9.9,13,16.2,18.1c0.5,0.3,1.2,0.8,1.7,0.8
		c0.2-1-2.7-3.2-3.7-5l-7.9-7.7c-1.2-1.4-5.5-5.7-4.7-7.7c0.4-1.5,2.1-2.7,2.9-2.8c-0.2,0.6-1.3,1.2-0.9,2.6c0.6,1.1,1,1.4,2.1,1.9
		c-3,3,1.8,5.4,6.9,6c5.3-1.1,8.4,2.8,13.4,3.5c0,0,0.4,1.6,1.5,1.8l7.5,9C324.6,252.5,329.4,260.4,333.3,264.2z M301.3,258.6
		c0,0-15.4-20.9-19.5-23.9l13.1,19.6c1.7,2.3,4.8,5.6,6,7.8C301.3,261.6,301.9,260.7,301.3,258.6z M284.6,173.7
		c-4.2,4,1.7,15.2-3.8,17.7c-9.5-1.3-11.2,0.3-12.6-0.1c-0.1-0.2,0.4-0.5,0.5-0.8c-1.5-0.3-2.8-0.4-3.6-1.8c-1.9-2.6,1-4.6,2-6.7
		c0,0,0.8-1.6,1.3-3.1c0.2-0.6,0.6,1.7,2.4,1.6c1.8-0.1,2.8-0.3,5.5-1.3c-2.3,2.3-3,2.4-5.9,3.2c1.2,0.3,3.5,0,5.8-1.2
		c2.8-1.5,6.4-6.2,6.4-6.2C283.3,174.2,284.9,173.5,284.6,173.7z M280.7,188.1c-0.7,0.9-1.6,1.4-4.3,1.4c-3.2,0-4.8-2-4.8-2
		c0.2,0.9,0.7,2.2,2.4,2.7c1.3,0.4,1.8,0.5,4,0.3C280.1,190.3,280.7,188.1,280.7,188.1z"/>

		<linearGradient id="SVGID_4_" gradientUnits="userSpaceOnUse" x1="-32.064" y1="-131.1054" x2="-30.1692" y2="-117.4629" gradientTransform="matrix(3.3103 0 0 3.3103 378.0776 712.4291)">
		<stop  offset="0.4162" style="stop-color:#1C4585"/>
		<stop  offset="1" style="stop-color:#091E36"/>
	</linearGradient>
	<path fill="url(#SVGID_4_)" d="M159.8,265.3h-0.9l0.3,0.9c2.2,8.6-0.2,17-6.2,22.4l-1.9,1.7l2.6-0.5c1.9-0.4,4.5-0.7,7.3-0.5
		c6.4,0.4,10.9,1.7,14.6,4.2c-0.2,1-3.8,19-3.8,19c-0.1,0.3-0.1,0.6-0.1,0.8c0,1.2,0.6,2.2,1.2,3.2l0.1,0.1l0.1,0.1
		c2.8,3,6.3,3.9,9.8,4.9l0.3,0.1c15,3.5,30.9,0.4,44.7-8.8l7.4-4.9l3.3-2l3.9-2.4c7.6-4.5,13.8-6.9,20.8-8.2
		c14.6-2.6,30.1,0.6,41.7,8.3c0.1,0.1,1.5,0.9,1.5,0.9c-0.1,0,9.8,6.4,9.8,6.4l6.1,3.8c13.4,8.4,30.9,10.9,45.4,6.5
		c2.5-0.8,7.6-2.5,8.3-7v-0.2c0,0-3.7-19.1-3.8-19.9l0.5-0.4l-0.2,0.2c6.1-3.4,14.2-4.6,21.5-3.2l2.7,0.5l-2-1.8
		c-6.1-5.4-8.4-13.8-6.1-22.5l0.3-0.9h-0.9c-9.3-0.1-18,1.2-25.8,3.8c-3.9,1.5-9.7,3.7-11.4,9l-0.1,0.1l-0.2,15.3c0,0-0.1,4.3-0.1,6
		c-9-0.2-16.6-4.8-22.9-9l-2.2-1.5l-9-5.9c-10.7-6.6-21.4-10.6-32.5-12.1c-19.1-2.5-38.1,2.1-55.1,13.4l-8.5,5.8
		c-6.7,4.4-14,8.7-22.8,8.8c0-1.1,0.1-20.2,0.1-20.2c-0.1-3-2.4-5.8-6.9-8.4C181.5,267.2,171.7,265.2,159.8,265.3z"/>
	<path fill="#FFFFFF" d="M187.8,287.2c2.5-0.7,4.9-1.5,6.9-3.4c0,1-0.1,15.4-0.1,15.9c-5.3-0.2-11.2-0.9-15.7-4.9l-0.2-0.3
		c-0.5-0.7-0.9-1.2-0.9-1.8c0-0.3,0.1-0.5,0.2-0.8c1.3-2.4,3.9-3.1,6.3-3.8l2-0.6C186.4,287.6,187.8,287.2,187.8,287.2z"/>
	<path fill="#FFFFFF" d="M352.1,284.7c2.5,2.1,5.4,3,8.3,3.8c2.6,0.7,5.2,1.5,7.4,3.1c0.7,0.6,1,1.1,1,1.6c0,0.3-0.1,0.5-0.2,0.7
		c-1.4,2.7-4.7,4-7.1,4.8c-3.1,0.9-6.2,1.3-9.5,1.4C352.1,299.7,352.1,285.7,352.1,284.7z"/>
	<g>
		<path fill="#FFFFFF" d="M161.9,272.4c0-1.7-0.2-3.4-0.5-5.2c9,0.4,19.5,1.4,28.6,6.3c2.2,1.4,4.8,3.4,4.8,6.1c0,0.1,0,0.2,0,0.2
			c-0.4,3.4-3.8,4.4-6.8,5.3l-3.9,1.2c-3.2,0.9-6.5,1.8-8,5.2c-5.2-3.1-11.6-4.5-19.3-4.2C160.1,283.4,161.9,278.1,161.9,272.4z"/>
	</g>
	<path fill="#FFFFFF" d="M365,287.8l-0.3-0.1l-3.8-1.1c-3.1-0.8-6-1.6-8.2-4c-0.4-0.6-0.6-1.3-0.6-2c0-0.7,0.2-1.3,0.4-1.8
		c2.9-4.4,7.7-5.9,12.4-7.4l1.2-0.4c5.8-1.6,12.2-2.4,19.6-2.6c-0.3,1.9-0.5,3.7-0.5,5.5c0,5.7,1.7,10.7,5,14.6
		c-7.5-0.3-14,1.1-19.4,4.1C370,289.6,367.3,288.6,365,287.8z"/>
	<path fill="#FFFFFF" d="M218.3,294.3l13.2-8.5c15.9-10.2,33.1-14.2,51-11.9c10.3,1.3,20.2,4.9,30.1,10.7l8.5,5.3l8.7,5.7
		c8.3,5.7,18.4,7.9,28.5,6.3c4-0.9,8.6-1.9,11.6-5.6c0.2,0.9,3.5,18,3.5,18c-0.5,2.4-3.1,3.5-5.2,4.4l-0.5,0.3
		c-15.1,5-33.5,2-47.9-7.9l-13.1-8.6c-13.6-8.8-29.8-11.9-45.8-8.9c-7.8,1.5-15.5,4.8-24.1,10.3l-12.1,7.8
		c-11.8,7.6-25.6,10.5-38.9,8.2c-4.1-0.8-8.3-1.6-11.5-4.6c-0.7-0.7-1-1.3-1.1-2c0,0,3.1-15.6,3.6-17.8c4.4,4.9,10.7,5.9,17,6.2
		C202,302.3,209.7,299.9,218.3,294.3z M184.4,305l-4.7-0.7c-0.1,0.1-0.2,0.4-0.2,0.4c0.5,0.3,0.5,0.3,0.5,0.6l-1.3,8.7
		c-0.1,0.3-0.1,0.4-0.5,0.3c-0.1,0.1-0.2,0.4-0.2,0.4c0.1,0.1,3.1,0.6,3.1,0.6h0.1l0.1-0.4c-0.4-0.2-0.5-0.3-0.5-0.5
		c0-0.1,0-0.1,0-0.2l0.5-3.5c0,0.1,2.1,0.4,2.1,0.4c2.7,0.4,3.9-1.1,4.1-2.6C187.9,307.1,187.2,305.4,184.4,305z M183.5,309.3
		l-1.8-0.3c0.1,0,0.4-2.2,0.5-2.5c0.2,0.1,1.7,0.3,1.7,0.3c0.8,0.1,1.3,0.3,1.5,0.6l0.2,0.9C185.3,309.2,184.8,309.5,183.5,309.3z
		 M193.4,306c-1.3-0.1-2.5,0.4-3.4,1.2c-1,1-1.6,2.4-1.6,4.1c-0.1,3.2,1.8,5.5,4.6,5.6c1.3,0.1,2.5-0.4,3.4-1.2c1-1,1.6-2.4,1.6-4.1
		c0.1-1.7-0.5-3.2-1.4-4.2C195.9,306.6,194.8,306.1,193.4,306z M194.9,314.4c-0.5,0.4-1.1,0.6-1.8,0.6c-1.7-0.1-2.6-1.3-2.6-3.6
		c0.1-1.3,0.4-2.3,1-2.9c0.5-0.4,1-0.6,1.7-0.6c0.7,0,1.3,0.3,1.7,0.7c0.6,0.6,0.9,1.6,0.8,2.9C195.9,312.8,195.5,313.8,194.9,314.4
		z M204.2,309.2c-1.3,0-2.4,0-2.5-0.8c-0.2-0.7,0.3-1.2,1.2-1.4c1.6-0.3,2.5,0.2,2.6,0.6l0.1,0.3c0.1,0.2,0.4,0.3,0.4,0.3
		c0.1-0.1,1.1-2.8,1.1-2.8l0.1-0.4l-0.5,0.3l-0.3,0.3l-0.5-0.1l-0.6-0.1c-0.8-0.2-1.6-0.1-2.5,0.1c-2.8,0.6-3.4,2.5-3.1,3.8
		c0.5,2.1,2.6,2.1,4.4,2.2c1.3,0,2.5,0.1,2.7,0.9l-0.2,1c-0.3,0.4-0.9,0.7-1.8,0.9c-0.8,0.2-2,0.2-2.6-0.2l-0.3-0.3l-0.1-0.3
		l-0.3-0.1c-0.2,0.1-0.8,2.7-0.8,2.7s0.1,0,0.1,0l0,0l0.2,0.1c0-0.1,0.1,0,0.1-0.1c0.1,0,0.1,0,0.1,0c0.1-0.1,0.1-0.2,0.2-0.2
		l0.6,0.1l0.6,0.1l2.4-0.1c3.1-0.7,4.1-2.7,3.8-4.3C208.3,309.2,206,309.2,204.2,309.2z M216.6,310.8c0,0-3.3-7.2-3.3-7.2
		c0.1,0.1,2.1-0.9,2.1-0.9c0.4-0.2,0.5-0.2,0.7,0.1c0.2,0.1,0.4-0.1,0.4-0.1c0.1-0.2-1-2.4-1-2.4c-0.2-0.1-0.4,0.1-0.4,0.1
		c0,0.4-0.1,0.4-0.5,0.6l-6.1,2.8c-0.4,0.2-0.5,0.2-0.6,0c-0.2-0.1-0.4,0.1-0.4,0.1c-0.1,0.2,1,2.4,1,2.4c0.2,0.1,0.4-0.1,0.4-0.1
		c0-0.1,0-0.1,0-0.2c0-0.3,0.1-0.4,0.4-0.5l2.1-1l0,0c0,0.3,3.2,7.2,3.2,7.2c0.1,0.1,0.1,0.2,0.1,0.3c0,0.1-0.1,0.2-0.2,0.3v0.1
		c0,0.2,0.1,0.3,0.1,0.3c0.2,0.1,2.8-1.1,2.8-1.1l0.1-0.1l-0.2-0.4C216.8,311.1,216.7,311.1,216.6,310.8z M227.5,302.7
		c0,0.1,0,0.1,0,0.2c0,0.2-0.1,0.3-0.4,0.5c0,0-3.8,2.5-3.8,2.5l0,0c0-0.2-1.2-2-1.3-2.2c0.2-0.1,2-1.3,2-1.3
		c0.4-0.3,0.5-0.2,0.6-0.1c0.2,0,0.4-0.2,0.4-0.2c0.1-0.2-1.2-2.1-1.2-2.1c-0.2-0.1-0.4,0.1-0.4,0.1c0,0.1,0,0.1,0,0.2
		c0,0.2-0.1,0.3-0.4,0.5c0,0-2.1,1.4-2.1,1.4l0,0c0-0.2-1.2-2.1-1.3-2.1c0.1,0.1,3.6-2.2,3.6-2.2c0.4-0.3,0.5-0.3,0.6-0.1
		c0.2,0,0.4-0.2,0.4-0.2c0.1-0.2-1.2-2.1-1.2-2.1c-0.2-0.1-0.4,0.1-0.4,0.1c0.1,0.3,0.1,0.4-0.4,0.7l-5.8,3.8
		c-0.1,0.2,0.1,0.4,0.1,0.4c0.7-0.2,0.7-0.2,0.9,0.1l4.8,7.4c0.2,0.2,0.2,0.3-0.3,0.6c0,0.2,0.2,0.4,0.2,0.4
		c0.2,0.1,6.2-3.8,6.2-3.8c0.4-0.3,0.5-0.2,0.6-0.1c0.2,0,0.4-0.2,0.4-0.2c0.1-0.2-1.3-2.1-1.3-2.1
		C227.8,302.6,227.5,302.7,227.5,302.7z M236.4,298l-0.4-0.2l-2.9-1.7c0.1-0.1,0.1-0.1,0.1-0.1c1-0.9,1.1-2.2,0.2-3.6
		c-1-1.5-2.8-1.8-4.6-0.6l-4.1,2.7c-0.1,0.2,0.1,0.4,0.1,0.4c0.5-0.1,0.5-0.1,0.7,0.2l4.8,7.4c0.2,0.3,0.2,0.3-0.1,0.5
		c0,0.2,0.2,0.4,0.2,0.4c0.2,0.1,2.6-1.5,2.6-1.5l0.1-0.1l-0.2-0.3c-0.5,0.1-0.5,0.1-0.7-0.2c0,0-1.9-2.9-1.9-3
		c0.1,0.1,1.5-0.8,1.5-0.8c0,0.1,3,1.8,3,1.8l0.5,0.4c0,0,0,0,0,0.1s-0.1,0.1-0.2,0.3v0.1c0,0.2,0.2,0.4,0.2,0.4
		c0.2,0.1,2.6-1.6,2.6-1.6c0.1-0.2-0.1-0.4-0.1-0.4C237.2,298.4,237,298.3,236.4,298z M231,295.7l-1.9,1.2l0,0
		c0-0.2-1.1-1.9-1.3-2.2c0.2-0.1,1.8-1.2,1.8-1.2c0.9-0.6,1.6-0.5,2,0.2l0.2,0.9C231.9,295,231.6,295.4,231,295.7z M256.1,286.9
		c-0.1,0-0.3,0.2-0.3,0.2c-0.1,0.2,0.2,0.5,0.2,0.5l-0.1,0.7c-0.3,0.5-0.8,0.9-1.4,1.1c-0.7,0.2-1.4,0.2-2-0.2
		c-0.8-0.4-1.4-1.2-1.7-2.3c-0.4-1.3-0.4-2.4,0-3.1c0.3-0.6,0.9-1,1.7-1.3c0.9-0.3,1.9,0,2.1,0.6v0.1l0.1,0.2h0.2
		c0.1-0.1,0.7-2.8,0.7-2.8l0.1-0.3l-0.4,0.2l-0.3,0.3l-0.5-0.1l-0.5-0.1c-0.7-0.2-1.4-0.1-2.1,0.1c-2.4,0.8-4.4,3.1-3.3,6.8
		c0.9,3,3.5,4.5,6.2,3.7c1.7-0.5,2.4-1.4,2.7-2l0.3-0.4c0.1,0,0.2,0,0.3,0.1c0.2-0.1,0.3-0.3,0.3-0.3
		C258.3,288.5,256.1,286.9,256.1,286.9z M266.9,287.3l-0.2-0.3c0,0-1.9-2.7-1.9-2.8c0.1,0,0.1-0.1,0.1-0.1c1.3-0.4,1.9-1.5,1.7-3.1
		c-0.3-1.8-1.8-2.8-4-2.5l-4.9,0.7c-0.1,0.1-0.1,0.4-0.1,0.4c0.5,0.1,0.5,0.2,0.6,0.5l1.2,8.7c0.1,0.3,0,0.4-0.3,0.5
		c-0.1,0.1-0.1,0.4-0.1,0.4c0.1,0.1,3-0.3,3-0.3h0.1l-0.1-0.4c-0.5-0.1-0.5-0.2-0.6-0.5c0,0-0.5-3.4-0.5-3.5c0,0.1,1.7-0.2,1.7-0.2
		l0,0c0,0.1,2,2.9,2,2.9l0.3,0.5l0,0c0,0.1-0.1,0.1-0.3,0.2c-0.1,0.1-0.1,0.2-0.1,0.3c0,0.1,0,0.2,0,0.2c0.1,0.1,3-0.3,3-0.3
		c0.1-0.1,0.1-0.4,0.1-0.4C267.4,288.1,267.3,288,266.9,287.3z M264.2,282.4c-0.2,0.3-0.7,0.5-1.2,0.6l-2.2,0.3c0,0,0-0.1,0-0.1
		c0-0.5-0.3-2.1-0.3-2.5c0.2-0.1,2.1-0.3,2.1-0.3c1.1-0.2,1.7,0.2,1.8,1L264.2,282.4z M276,286.7h-4.5c0,0,0.1-2.5,0.1-2.7
		c0.2,0,2.5,0,2.5,0c0.5,0,0.5,0.1,0.6,0.3l0.4,0.1l0.1-2.5l-0.4-0.1c-0.2,0.3-0.2,0.4-0.7,0.4h-2.6l0.1-2.5l4.2,0.1
		c0.5,0,0.5,0.1,0.6,0.3l0.4,0.1l0.1-2.5l-0.4-0.1c-0.2,0.3-0.2,0.4-0.7,0.4h-6.9l-0.1,0.4c0.7,0.2,0.7,0.3,0.7,0.5v8.8
		c0,0.3-0.1,0.4-0.6,0.4l-0.1,0.4l7.3,0.1c0.5,0,0.5,0.1,0.6,0.3l0.4,0.1l0.1-2.5l-0.4-0.1C276.5,286.6,276.4,286.7,276,286.7z
		 M285,282.1c0.2-0.1,1.9-2.2,1.9-2.2l-0.1-0.1l0,0l0,0l-0.2-0.2c-0.1,0.1-0.2,0.2-0.4,0.2l-0.5-0.3l-0.5-0.3
		c-0.7-0.4-1.4-0.6-2.4-0.8c-2.8-0.4-4,1.2-4.2,2.6c-0.3,2.1,1.7,2.9,3.4,3.5c1.2,0.5,2.4,0.9,2.2,1.7l-0.5,0.9
		c-0.4,0.3-1.1,0.4-2,0.3c-0.8-0.1-1.9-0.6-2.4-1.1l-0.2-0.4l0.1-0.3l-0.3-0.2c-0.2,0.1-1.6,2.3-1.6,2.3l-0.1,0.1l0.3,0.2
		c0.2-0.1,0.4-0.2,0.4-0.2l0.6,0.3l0.6,0.3l2.3,0.8c2,0.3,3.2-0.3,3.8-0.8c0.7-0.5,1.1-1.2,1.2-2c0.3-2.5-1.8-3.2-3.5-3.8
		c-1.2-0.4-2.2-0.8-2.1-1.6l0.4-0.7c0.3-0.2,0.7-0.3,1.2-0.2c1.4,0.2,1.9,0.8,2.1,1l0.2,0.4c-0.1,0.2-0.1,0.3-0.1,0.3
		C284.7,281.9,285,282.1,285,282.1z M294.9,291c0.2,0.1,0.4-0.1,0.4-0.1c0.1-0.2-1-2.7-1-2.7c-0.1-0.1-0.4-0.1-0.4-0.1
		c-0.1,0.1-0.2,0.5-0.2,0.5l-0.5,0.5c-0.5,0.3-1.2,0.4-1.8,0.2c-1.6-0.5-2.4-2.1-1.8-4.1c0.4-1.3,0.9-2.2,1.6-2.6
		c0.6-0.3,1.3-0.4,2.1-0.2c0.6,0.2,1.1,0.5,1.4,1l0.2,0.8l-0.1,0.3l0.2,0.1c0.2,0,2-1.9,2-1.9l0.2-0.2l-0.4-0.1l-0.4,0.1l-0.3-0.3
		l-0.4-0.4c-0.5-0.5-1.1-0.8-1.9-1c-1.3-0.4-2.7-0.2-3.8,0.4c-1.2,0.7-2.1,1.9-2.6,3.6c-0.8,3,0.5,5.7,3.3,6.4
		c1.8,0.5,2.8,0.1,3.4-0.3l0.5-0.2C294.8,290.8,294.9,290.9,294.9,291z M303.2,294.7l0.6-8.9l0.1-0.6c0.1-0.1,0.1-0.2,0.4-0.1
		c0.2-0.1,0.3-0.3,0.3-0.3c-0.1-0.2-3.1-1.4-3.1-1.4c-0.2,0.1-0.3,0.3-0.3,0.3c0.3,0.3,0.3,0.3,0.3,0.4l0,0l-0.4,0.5l-6,6.7
		c-0.2,0.2-0.3,0.3-0.5,0.3c-0.2,0.1-0.3,0.3-0.3,0.3c0.1,0.2,2.5,1.2,2.5,1.2l0.1,0.1l0.2-0.4c-0.2-0.2-0.3-0.3-0.3-0.4
		c0-0.1,0-0.1,0-0.1l0.2-0.3c0,0,1.1-1.3,1.2-1.3c0,0.1,3.1,1.4,3.2,1.4c-0.1,0-0.2,1.8-0.2,1.8l-0.1,0.3c0,0.1-0.1,0.1-0.3,0
		c-0.1,0.1-0.3,0.3-0.3,0.3c0.1,0.2,2.6,1.2,2.6,1.2c0.2-0.1,0.3-0.3,0.3-0.3C303.2,295.1,303.2,295.1,303.2,294.7z M301.9,286.4
		c-0.2,0.8-0.5,3.9-0.5,4l-0.1-0.1c-0.3-0.2-1.7-0.9-2-1c0.2-0.2,2.4-2.8,2.7-3.1V286.4z M312.9,300.7l4.8-7.7
		c0.1-0.2,0.2-0.2,0.4-0.1c0.2-0.1,0.3-0.3,0.3-0.3c-0.1-0.2-3-2-3-2c-0.2,0.1-0.3,0.3-0.3,0.3c0.1,0.2,0.2,0.3,0.2,0.3
		c0,0.1,0,0.1-0.1,0.1c-0.1,0.2-1.1,0.9-2.2,1.6c0,0-2.4,1.7-2.8,1.9c0-0.1,0-0.1,0.1-0.2c0.2-0.6,0.5-2.3,0.5-2.3
		c0.3-1.4,0.6-3.4,0.7-3.5c0.1-0.1,0.1-0.1,0.3-0.1c0.1-0.1,0.3-0.3,0.3-0.3c-0.1-0.2-3-2-3-2c-0.2,0.1-0.3,0.3-0.3,0.3
		c0.2,0.3,0.2,0.4,0.1,0.6l-4.8,7.7c-0.1,0.2-0.2,0.2-0.4,0.1c-0.2,0.1-0.3,0.3-0.3,0.3c0.1,0.2,2.3,1.6,2.3,1.6l0.1,0.1l0.2-0.3
		c-0.2-0.2-0.3-0.4-0.3-0.4s0.1-0.1,0.1-0.2c0,0,3.3-5.3,3.7-6c0,0.1-0.1,0.2-0.1,0.2c-0.4,1.2-1.1,5.1-1.1,5.1l-0.5,2.9
		c0.1,0.1,0.3,0.3,0.3,0.3c0.1,0,2.8-1.9,2.8-1.9s3.6-2.7,4.2-3.1l-0.2,0.3c-0.9,1.3-3.7,5.7-3.7,5.7c-0.1,0.2-0.2,0.2-0.5,0.1
		c-0.2,0.1-0.3,0.3-0.3,0.3c0.1,0.2,2.4,1.6,2.4,1.6c0.2-0.1,0.3-0.3,0.3-0.3C312.8,301,312.8,300.9,312.9,300.7z M325.3,307.1
		c-0.4,0.3-0.5,0.3-0.8,0.1l-3.6-2.4c0.1,0,4.4-6.5,4.4-6.5c0.2-0.2,0.2-0.3,0.7-0.1c0.2-0.1,0.3-0.3,0.3-0.3
		c-0.1-0.2-2.8-1.9-2.8-1.9c-0.2,0.1-0.3,0.3-0.3,0.3c0.4,0.5,0.4,0.6,0.2,0.8l-4.9,7.4c-0.2,0.2-0.2,0.3-0.6,0.1
		c-0.2,0.1-0.3,0.3-0.3,0.3c0.1,0.2,5.8,3.9,5.8,3.9c0.4,0.3,0.4,0.4,0.3,0.5c0.1,0.2,0.3,0.3,0.3,0.3c0.2-0.1,1.5-2.1,1.5-2.1
		C325.6,307.3,325.3,307.1,325.3,307.1z M332.5,302.2c0.3,0.3,0.3,0.4,0.3,0.4l-0.4,0.5c-0.1,0.1-6.2,6.4-6.2,6.4
		c-0.2,0.2-0.3,0.3-0.5,0.3c-0.2,0.1-0.3,0.3-0.3,0.3c0.1,0.2,2.4,1.3,2.4,1.3l0.1,0.1l0.2-0.4c-0.2-0.2-0.3-0.3-0.3-0.4
		c0-0.1,0-0.1,0.1-0.1l0.2-0.3l1.2-1.2c0,0.1,3.1,1.5,3.1,1.5c-0.1,0-0.3,1.8-0.3,1.8l-0.1,0.3c0,0.1-0.1,0.1-0.3,0
		c-0.1,0.1-0.3,0.3-0.3,0.3c0.1,0.2,2.5,1.3,2.5,1.3c0.2-0.1,0.3-0.3,0.3-0.3c-0.2-0.2-0.2-0.3-0.2-0.6l0.9-8.6l0.2-0.8
		c0.1-0.1,0.1-0.2,0.4-0.1c0.2-0.1,0.3-0.3,0.3-0.3c-0.1-0.2-3.1-1.5-3.1-1.5C332.6,301.9,332.5,302.2,332.5,302.2z M333.1,304.9
		c-0.2,0.8-0.6,3.9-0.7,4l-0.1-0.1c-0.2-0.2-1.7-0.9-2-1.1c0.2-0.2,2.5-2.7,2.8-3L333.1,304.9z M344.2,306.3
		c0.4,0.3,0.4,0.4,0.4,0.6l-1.4,5.7c-0.3,1.3-1.2,1.8-2.6,1.5c-0.7-0.2-1.1-0.5-1.4-0.9c-0.3-0.5-0.3-1-0.2-1.6l1.4-5.7
		c0.1-0.3,0.2-0.3,0.5-0.3c0.1-0.1,0.2-0.4,0.2-0.4c-0.1-0.2-3-0.9-3-0.9l-0.1-0.1l-0.1,0.1l-0.1,0.3c0.5,0.3,0.5,0.4,0.4,0.6
		l-1.4,5.7c-0.6,2.6,0.4,4.2,3.1,4.9c1.4,0.4,2.5,0.3,3.4-0.3c0.8-0.5,1.4-1.4,1.7-2.6l1.4-5.7c0.1-0.3,0.1-0.4,0.5-0.3
		c0.1-0.1,0.2-0.4,0.2-0.4c-0.1-0.2-2.8-0.8-2.8-0.8C344.3,306,344.2,306.3,344.2,306.3z M352.1,306.8h-4.3
		c-0.1,0.1-0.1,0.4-0.1,0.4c0.4,0.2,0.5,0.3,0.5,0.5l-0.1,8.8c0,0.3-0.1,0.4-0.4,0.4l-0.1,0.4c0.1,0.1,4.1,0.1,4.1,0.1
		c1.7,0,3.1-0.4,3.9-1.3c0.9-0.9,1.3-2.2,1.4-3.9C357,308.7,355.1,306.8,352.1,306.8z M354.8,312.1c0,2.6-0.9,3.4-3.5,3.4h-1.1l0,0
		c0.1-0.1,0.2-6.3,0.2-6.8c0.2,0,1,0,1,0C353.9,308.6,354.8,309.5,354.8,312.1L354.8,312.1L354.8,312.1z M367.4,312.8
		c-0.2-0.1-0.4,0-0.4,0c-0.1,0.3-0.1,0.4-0.6,0.5l-4.4,1.1c0,0,0,0,0-0.1c0-0.3-0.5-2.2-0.6-2.6c0.2-0.1,2.4-0.6,2.4-0.6
		c0.5-0.1,0.5-0.1,0.6,0.1c0.1,0.1,0.4,0,0.4,0c0.1-0.2-0.5-2.4-0.5-2.4c-0.2-0.1-0.4,0-0.4,0c-0.1,0.3-0.1,0.4-0.6,0.5l-2.5,0.6
		c0,0,0,0,0-0.1c0-0.3-0.5-2.4-0.5-2.4c0.1,0.1,4-1,4-1c0.5-0.1,0.5-0.1,0.6,0.1c0.1,0.1,0.4,0,0.4,0c0.1-0.2-0.5-2.4-0.5-2.4
		c-0.2-0.1-0.4,0-0.4,0c-0.1,0.3-0.1,0.4-0.6,0.5l-6.7,1.7c-0.1,0.2,0,0.4,0,0.4c0.7,0,0.7,0.1,0.8,0.3l2.2,8.5
		c0.1,0.3,0.1,0.4-0.4,0.5c-0.1,0.1,0,0.4,0,0.4c0.2,0.1,7.1-1.7,7.1-1.7c0.5-0.1,0.5-0.1,0.6,0.1c0.1,0.1,0.4,0,0.4,0
		C368,315.1,367.4,312.8,367.4,312.8z M245.8,293.4l-6.3-6c-0.2-0.2-0.6-0.6-0.6-0.6c-0.1-0.1-0.1-0.2,0.2-0.4
		c0.1-0.2-0.1-0.4-0.1-0.4c-0.2-0.1-3.1,1.5-3.1,1.5c-0.1,0.2,0.1,0.4,0.1,0.4c0.5-0.1,0.5,0,0.5,0l0.2,0.6c0,0.1,1.4,8.9,1.4,8.9
		c0.1,0.2,0.1,0.4-0.1,0.5c-0.1,0.2,0.1,0.4,0.1,0.4c0.2,0.1,2.5-1.2,2.5-1.2l0.1-0.1l-0.2-0.4c-0.4,0.1-0.5,0-0.6-0.1l-0.1-0.3
		l-0.3-1.7c0.1,0.1,3.1-1.5,3.1-1.5c0,0.1,1.3,1.3,1.3,1.3l0.2,0.2v0.1c0,0.1-0.1,0.1-0.2,0.2v0.1c0,0.2,0.1,0.4,0.1,0.4
		c0.2,0.1,2.6-1.2,2.6-1.2c0.1-0.2-0.1-0.4-0.1-0.4C246.1,293.6,246.1,293.6,245.8,293.4z M241.3,292.1c-0.3,0.1-1.7,0.8-2.1,1
		c-0.1-0.3-0.7-3.7-0.8-4l0.1,0.1C239,289.7,241.2,292,241.3,292.1L241.3,292.1z"/>
	<g>
		<path fill="#004379" d="M120.8,349.3c0.4,0,0.6-0.4,0.6-0.5c0.1-0.2,0.2-0.4,0.5-0.8c0.3-0.5,0.8-0.7,2.6-0.7c0.7,0,1.4,0,2.1-0.1
			c0.6,0,1.1,0,1.7,0v11.5c0,2.6,0,4.9-0.2,6c-0.1,0.9-0.3,1.2-0.5,1.2c-0.3,0.1-0.6,0.1-0.8,0.1c-0.4,0-0.6,0.3-0.6,0.5
			s0.2,0.6,0.8,0.6c0.6,0,1.7-0.1,2.3-0.1c0.3,0,0.4,0,0.5,0s0.2,0,0.3,0c0.6,0,1.9,0.1,3.1,0.1c0.8,0,0.8-0.5,0.8-0.6
			c0-0.3-0.2-0.5-0.6-0.5c-0.2,0-0.8-0.1-1.2-0.1c-0.5-0.1-0.7-0.4-0.8-1.2c-0.2-1.2-0.2-3.4-0.2-6v-11.5c0.5,0,0.9,0,1.4,0
			c0.6,0,1.2,0,1.8,0.1c3,0.1,3.1,0.9,3.1,1.2c0,0.1,0,0.2,0,0.2c0,0.1,0,0.1,0,0.2c0,0.3,0.1,0.8,0.6,0.8c0.3,0,0.6-0.2,0.6-0.7
			c0-0.1,0-0.5,0.1-0.9c0-0.7,0.1-1.7,0.1-2.2c0-0.5-0.2-0.7-0.5-0.7c-0.1,0-0.2,0-0.3,0.1c-0.1,0.1-0.3,0.1-0.5,0.1
			c-0.5,0.1-1.1,0.2-1.9,0.2h-10.6c-0.4,0-1.4-0.1-2.2-0.2c-0.4-0.1-0.7-0.2-0.9-0.2c-0.2-0.1-0.3-0.1-0.4-0.1
			c-0.4,0-0.5,0.4-0.6,0.8c0,0.1-0.6,2.7-0.6,3C120.4,349.1,120.6,349.3,120.8,349.3z"/>
		<path fill="#004379" d="M140.8,346.3c0.3,0,0.7,0.1,0.9,0.1c0.7,0.2,0.9,0.4,0.9,1.3c0.1,0.9,0.1,1.7,0.1,6v5c0,2.6,0,4.9-0.2,6
			c-0.1,0.9-0.3,1.2-0.5,1.2c-0.3,0.1-0.6,0.1-0.8,0.1c-0.4,0-0.6,0.3-0.6,0.5c0,0.3,0.2,0.6,0.8,0.6c0.6,0,1.7-0.1,2.3-0.1
			c0.3,0,0.4,0,0.5,0s0.2,0,0.3,0c0.6,0,1.9,0.1,3.1,0.1c0.8,0,0.8-0.5,0.8-0.6c0-0.3-0.2-0.5-0.6-0.5c-0.2,0-0.8-0.1-1.2-0.1
			c-0.5-0.1-0.7-0.4-0.8-1.2c-0.2-1.2-0.2-3.4-0.2-6v-2.8h11.5v2.8c0,2.6,0,4.9-0.2,6c-0.1,0.9-0.3,1.2-0.5,1.2
			c-0.3,0.1-0.6,0.1-0.8,0.1c-0.4,0-0.6,0.3-0.6,0.5c0,0.3,0.2,0.6,0.8,0.6c0.6,0,1.7-0.1,2.3-0.1c0.3,0,0.4,0,0.5,0
			c0.1,0,0.2,0,0.3,0c0.6,0,1.9,0.1,3.1,0.1c0.8,0,0.8-0.5,0.8-0.6c0-0.3-0.2-0.5-0.6-0.5c-0.2,0-0.8-0.1-1.2-0.1
			c-0.5-0.1-0.7-0.4-0.8-1.2c-0.2-1.2-0.2-3.4-0.2-6v-4.9c0-4.3,0-5.2,0.1-6c0.1-1,0.3-1.2,0.8-1.3c0.3-0.1,0.5-0.1,0.6-0.1
			c0.3,0,0.6-0.2,0.6-0.5c0-0.3-0.2-0.6-0.8-0.6c-0.6,0-1.7,0.1-2.3,0.1c-0.3,0-0.4,0-0.5,0c-0.1,0-0.2,0-0.4,0
			c-0.6,0-1.8-0.1-2.8-0.1c-0.7,0-0.8,0.3-0.8,0.6c0,0.3,0.3,0.5,0.6,0.5c0.3,0,0.7,0.1,0.9,0.1c0.7,0.2,0.9,0.4,0.9,1.3
			s0.1,1.7,0.1,6v0.4h-11.5v-0.4c0-4.3,0-5.2,0.1-6c0.1-1,0.3-1.2,0.8-1.3c0.3-0.1,0.5-0.1,0.6-0.1c0.3,0,0.6-0.2,0.6-0.5
			c0-0.3-0.2-0.6-0.8-0.6c-0.6,0-1.7,0.1-2.3,0.1c-0.3,0-0.4,0-0.5,0c-0.1,0-0.2,0-0.4,0c-0.6,0-1.8-0.1-2.8-0.1
			c-0.7,0-0.8,0.3-0.8,0.6C140.3,346.1,140.5,346.3,140.8,346.3z"/>
		<path fill="#004379" d="M166.1,346.3c0.1,0,0.2,0,0.3,0c0.2,0,0.4,0,0.5,0.1c0.7,0.2,0.9,0.4,0.9,1.3c0.1,0.9,0.1,1.7,0.1,6v5
			c0,2.5-0.1,3.9-0.1,5c-0.1,2.1-0.4,2.2-0.8,2.3c-0.1,0.1-0.3,0.1-0.4,0.1h-0.2c-0.5,0.1-0.6,0.4-0.6,0.5c0,0.3,0.2,0.6,0.8,0.6
			l0,0c0.4,0,0.8,0,1.2-0.1c0.3,0,0.6-0.1,0.9-0.1c0.8,0,1.6,0.1,2.4,0.1c0.4,0,0.8,0,1.1,0.1l0.9,0.1c0.8,0.1,1.7,0.1,3.3,0.1
			c1.1,0,1.6,0,1.8-1c0.2-0.6,0.4-2.5,0.4-2.8c0-0.2,0-0.8-0.5-0.8c-0.5,0-0.6,0.5-0.6,0.7c-0.2,1.2-0.5,1.6-1.2,1.8
			c-0.7,0.2-1.6,0.3-2.4,0.3c-1.2,0-1.8-0.1-2.2-0.2c-0.5-0.2-0.7-0.6-0.7-1.7c0-0.4,0-2.2,0-3.5v-3.5c0.8,0,3.1,0.1,3.8,0.2
			c1,0.1,1.1,0.5,1.2,0.7c0.1,0.2,0.1,0.4,0.1,0.7c0,0.7,0.4,0.8,0.6,0.8c0.5,0,0.5-0.6,0.6-0.8c0-0.2,0-0.3,0-0.5
			c0-0.4,0.1-0.8,0.1-1.4c0.1-0.6,0.1-1,0.2-1.2c0.1-0.2,0.1-0.3,0.1-0.4c0-0.4-0.3-0.6-0.5-0.6c-0.3,0-0.4,0.2-0.6,0.4
			c-0.2,0.2-0.4,0.3-1.2,0.4c-0.5,0.1-2.5,0.1-4.2,0.1v-7.6c0.8,0,3.2,0.1,3.6,0.1c1.3,0.1,1.6,0.4,1.7,0.8c0.1,0.2,0.1,0.5,0.1,0.8
			c0,0.7,0.5,0.7,0.6,0.7c0.2,0,0.5-0.1,0.6-0.8c0.1-0.5,0.1-0.9,0.1-1.2l0.1-0.5c0.1-0.5,0.1-0.8,0.2-1c0.1-0.2,0.1-0.3,0.1-0.4
			c0-0.6-0.4-0.6-0.5-0.6c-0.2,0-0.3,0.1-0.5,0.2c0,0-0.2,0.1-1.1,0.2c-0.5,0-4.3,0.1-6.4,0.1c-1.8-0.1-2.5-0.1-3.2-0.1
			c-0.7,0-0.8,0.3-0.8,0.6C165.4,346.2,165.9,346.3,166.1,346.3z"/>
		<path fill="#004379" d="M190.6,346.3c0.3,0,0.7,0.1,0.9,0.1c0.7,0.2,0.9,0.4,0.9,1.3c0.1,0.9,0.1,1.7,0.1,6v4.1
			c0,3.6,0.8,5.9,2.6,7.6c1.9,1.8,4.6,2.1,6,2.1c1.5,0,3.8-0.2,6-2.1c2.4-2.1,2.7-5.7,2.7-8.6v-3c0-4.3,0-5.2,0.1-6
			c0.1-1,0.3-1.2,0.8-1.3c0.3-0.1,0.5-0.1,0.6-0.1c0.3,0,0.6-0.2,0.6-0.5c0-0.3-0.2-0.6-0.8-0.6c-0.6,0-1.4,0.1-1.9,0.1
			c-0.3,0-0.4,0-0.5,0s-0.2,0-0.4,0c-0.6,0-1.6-0.1-2.6-0.1c-0.7,0-0.8,0.3-0.8,0.6c0,0.3,0.3,0.5,0.6,0.5c0.3,0,0.7,0.1,0.9,0.1
			c0.7,0.2,0.9,0.4,0.9,1.3c0.1,0.9,0.1,1.7,0.1,6v3.5c0,3.3-0.5,5.3-1.5,6.6c-1,1.2-2.6,1.9-4.1,1.9c-1.5,0-2.7-0.3-4-1.4
			c-1-0.9-2-2.5-2-6.7v-3.9c0-4.3,0-5.2,0.1-6c0.1-1,0.3-1.2,0.8-1.3c0.3-0.1,0.5-0.1,0.6-0.1c0.3,0,0.6-0.2,0.6-0.5
			c0-0.3-0.2-0.6-0.8-0.6c-0.6,0-1.4,0.1-2.1,0.1c-0.4,0-0.6,0-0.7,0c-0.1,0-0.3,0-0.6,0c-0.7,0-1.8-0.1-2.7-0.1
			c-0.7,0-0.8,0.3-0.8,0.6C190,346.1,190.2,346.3,190.6,346.3z"/>
		<path fill="#004379" d="M214.8,367.1c0.9,0,1.7-0.1,2.2-0.1c0.2,0,0.4,0,0.5,0c0.1,0,0.2,0,0.4,0c0.5,0.1,1.4,0.1,2.6,0.1
			c0.7,0,0.9-0.3,0.9-0.6c0-0.3-0.2-0.5-0.6-0.5c-0.1,0-0.7,0-1.3-0.2c-0.5-0.2-0.8-0.7-0.8-2.9l-0.4-12.5c1.3,1.5,4,4.4,6.7,7.4
			c3,3.2,7.1,7.4,7.4,7.6c1.7,1.7,1.9,1.9,2.3,1.9c0.6,0,0.6-0.6,0.6-2.4l0.1-16.4c0-2,0.3-2.1,0.7-2.2c0.3-0.1,0.5-0.1,0.7-0.1
			c0.5-0.1,0.6-0.4,0.6-0.6c0-0.6-0.7-0.6-0.9-0.6c-0.8,0-1.4,0.1-1.9,0.1c-0.2,0-0.4,0-0.5,0s-0.3,0-0.6,0
			c-0.6-0.1-1.5-0.1-2.4-0.1c-0.3,0-0.9,0-0.9,0.6c0,0.2,0.1,0.6,0.8,0.6c0.1,0,0.6,0,1.1,0.2s0.8,0.4,0.8,2.4l0.3,13.3
			c-0.5-0.5-1.1-1.2-1.8-2c-1.3-1.4-2.8-3.1-4.3-4.6c-4.3-4.6-8.5-9.1-8.9-9.7c-0.1-0.1-0.2-0.2-0.3-0.3c-0.4-0.5-0.7-0.8-1-0.8
			c-0.7,0-0.7,0.9-0.7,1.7c0,2.6,0,3.1,0,4c0,1-0.1,2.6-0.1,7.9v4.1c0,2.4-0.2,3.1-0.6,3.2c-0.3,0.1-0.8,0.2-1,0.2
			c-0.4,0-0.6,0.3-0.6,0.5C214,366.9,214.3,367.1,214.8,367.1z"/>
		<path fill="#004379" d="M241.7,346.3c0.2,0,0.5,0.1,0.8,0.1c0.3,0.1,0.6,0.2,0.7,1.2c0.1,0.9,0.1,1.7,0.1,6v5c0,2.6,0,4.9-0.2,6
			c-0.1,0.9-0.3,1.2-0.6,1.3c-0.2,0.1-0.5,0.1-0.7,0.1c-0.6,0-0.7,0.5-0.7,0.5c0,0.3,0.2,0.6,0.8,0.6c0.6,0,1.7-0.1,2.3-0.1
			c0.3,0,0.4,0,0.5,0c0.1,0,0.2,0,0.3,0c0.6,0,1.9,0.1,3.2,0.1c0.7,0,0.8-0.5,0.8-0.6c0-0.1,0-0.5-0.7-0.5c-0.2,0-0.7-0.1-1.1-0.1
			c-0.5-0.1-0.7-0.4-0.8-1.2c-0.2-1.2-0.2-3.4-0.2-6v-4.9c0-4.3,0-5.2,0.1-6c0.1-1,0.3-1.2,0.8-1.3c0.3-0.1,0.5-0.1,0.6-0.1
			c0.3,0,0.6-0.2,0.6-0.5c0-0.3-0.2-0.6-0.8-0.6c-0.6,0-1.7,0.1-2.3,0.1c-0.3,0-0.4,0-0.5,0c-0.1,0-0.2,0-0.4,0
			c-0.6,0-1.7-0.1-2.4-0.1s-0.8,0.3-0.8,0.6C241.1,346.1,241.3,346.3,241.7,346.3z"/>
		<path fill="#004379" d="M250.3,346.3c0.2,0,0.6,0,1,0.1c0.9,0.3,1.2,0.5,1.8,1.9l6.9,17.2l0.1,0.2c0.5,1.3,0.7,1.8,1.3,1.8
			c0.5,0,0.6-0.4,1-1.3c0.1-0.3,0.3-0.6,0.5-1c0.6-1.3,1.8-4.1,3.4-8l1.2-2.9c1-2.5,1.9-4.6,2.1-5.2c0.7-1.8,1.1-2.2,1.4-2.5
			c0.5-0.3,1-0.3,1.2-0.3c0.7,0,0.7-0.4,0.7-0.6c0-0.2-0.1-0.6-0.8-0.6c-0.6,0-1.3,0.1-1.8,0.1c-0.2,0-0.4,0-0.4,0
			c-0.1,0-0.4,0-0.7,0c-0.6-0.1-1.4-0.1-2.1-0.1c-0.3,0-1,0-1,0.6c0,0.1,0.1,0.5,0.7,0.5c0.3,0,0.7,0,0.9,0.1
			c0.2,0.1,0.2,0.2,0.2,0.3c0,0.3-0.2,0.8-0.3,1c-0.6,1.8-3.9,10.5-5.7,14.7l-5.4-13.9c-0.4-1-0.5-1.5-0.5-1.7c0-0.1,0-0.2,0.2-0.3
			c0.2-0.1,0.5-0.1,0.9-0.1c0.6,0,0.7-0.5,0.7-0.6c0-0.6-0.8-0.6-1.1-0.6c-0.7,0-1.5,0.1-2,0.1c-0.3,0-0.5,0-0.6,0s-0.4,0-0.7,0
			c-0.7-0.1-1.6-0.1-2.6-0.1c-0.4,0-1.1,0-1.1,0.6C249.6,346.1,249.9,346.3,250.3,346.3z"/>
		<path fill="#004379" d="M274.6,346.3c0.1,0,0.2,0,0.3,0c0.2,0,0.4,0,0.5,0.1c0.7,0.2,0.9,0.4,0.9,1.3s0.1,1.7,0.1,6v5
			c0,2.5-0.1,3.9-0.1,5c-0.1,2.1-0.4,2.2-0.8,2.3c-0.1,0.1-0.3,0.1-0.4,0.1h-0.2c-0.5,0.1-0.6,0.4-0.6,0.5c0,0.3,0.2,0.6,0.8,0.6
			l0,0c0.4,0,0.8,0,1.2-0.1c0.3,0,0.6-0.1,0.9-0.1c0.8,0,1.6,0.1,2.4,0.1c0.4,0,0.8,0,1.1,0.1l0.9,0.1c0.8,0.1,1.7,0.1,3.3,0.1
			c1.1,0,1.6,0,1.8-1c0.2-0.6,0.4-2.5,0.4-2.8c0-0.2,0-0.8-0.5-0.8c-0.5,0-0.6,0.5-0.6,0.7c-0.2,1.2-0.5,1.6-1.2,1.8
			c-0.7,0.2-1.6,0.3-2.4,0.3c-1.2,0-1.8-0.1-2.2-0.2c-0.5-0.2-0.7-0.6-0.7-1.7c0-0.4,0-2.2,0-3.5v-3.5c0.8,0,3.1,0.1,3.8,0.2
			c1,0.1,1.1,0.5,1.2,0.7c0.1,0.2,0.1,0.4,0.1,0.7c0,0.7,0.4,0.8,0.6,0.8c0.5,0,0.5-0.6,0.6-0.8c0-0.2,0-0.3,0-0.5
			c0-0.4,0.1-0.8,0.1-1.4c0.1-0.6,0.1-1,0.2-1.2c0.1-0.2,0.1-0.3,0.1-0.4c0-0.4-0.3-0.6-0.5-0.6s-0.4,0.2-0.6,0.4
			c-0.2,0.2-0.4,0.3-1.2,0.4c-0.5,0.1-2.5,0.1-4.2,0.1v-7.6c0.8,0,3.2,0.1,3.6,0.1c1.3,0.1,1.6,0.4,1.7,0.8c0.1,0.2,0.1,0.5,0.1,0.8
			c0,0.7,0.5,0.7,0.6,0.7c0.2,0,0.5-0.1,0.6-0.8c0.1-0.5,0.1-0.9,0.1-1.2l0.1-0.5c0.1-0.5,0.1-0.8,0.2-1c0.1-0.2,0.1-0.3,0.1-0.4
			c0-0.6-0.4-0.6-0.5-0.6c-0.2,0-0.3,0.1-0.5,0.2c0,0-0.2,0.1-1.1,0.2c-0.5,0-4.3,0.1-6.4,0.1c-1.8-0.1-2.5-0.1-3.2-0.1
			c-0.7,0-0.8,0.3-0.8,0.6C273.9,346.2,274.3,346.3,274.6,346.3z"/>
		<path fill="#004379" d="M290.8,346.3c0.3,0,0.7,0.1,0.9,0.1c0.7,0.2,0.9,0.4,0.9,1.3s0.1,1.7,0.1,6v5c0,2.6,0,4.9-0.2,6
			c-0.1,0.9-0.3,1.2-0.5,1.2c-0.3,0.1-0.6,0.1-0.8,0.1c-0.4,0-0.6,0.3-0.6,0.5c0,0.3,0.2,0.6,0.8,0.6c0.7,0,2.1-0.1,2.5-0.1h0.1
			c0.1,0,0.2,0,0.3,0c0.6,0,1.9,0.1,3.1,0.1c0.8,0,0.8-0.5,0.8-0.6c0-0.3-0.2-0.5-0.6-0.5c-0.2,0-0.8-0.1-1.2-0.1
			c-0.5-0.1-0.7-0.4-0.8-1.2c-0.2-1.2-0.2-3.4-0.2-6V358l3.3,0.1c0.1,0,0.1,0,0.1,0.1c0.3,0.3,0.6,0.8,1,1.4c0.6,0.8,1.3,1.8,2,2.7
			l0.4,0.5c1.4,1.9,2.4,3.1,3.5,3.7c0.8,0.5,1.6,0.6,3.2,0.6h2c0.4,0,1,0,1-0.6c0-0.3-0.3-0.5-0.6-0.5c-0.2,0-0.5,0-1-0.1
			c-0.7-0.1-1.8-0.5-3.2-1.9c-1.4-1.5-3.1-3.6-5-6.1l-0.6-0.8c2.2-2.1,3.3-4.2,3.3-6.5c0-2-1.3-3.5-2.1-4.1
			c-1.6-1.1-3.6-1.3-5.4-1.3c-0.6,0-1.6,0.1-2.4,0.1c-0.5,0-0.8,0.1-0.9,0.1c-0.1,0-0.2,0-0.4,0c-0.6,0-1.8-0.1-2.8-0.1
			c-0.7,0-0.8,0.3-0.8,0.6C290.2,346.1,290.5,346.3,290.8,346.3z M295.6,347c0.2-0.1,0.9-0.2,1.8-0.2c2.8,0,4.5,1.9,4.5,5.3
			c0,1.8-0.6,3.4-1.6,4c-0.6,0.4-1.4,0.5-1.9,0.5c-1.3,0-2.5-0.2-2.8-0.4L295.6,347z"/>
		<path fill="#004379" d="M313.2,366.7c1.1,0.5,2.4,0.8,3.9,0.8c1.7,0,3.3-0.4,4.4-1.2c1.9-1.3,2.6-3.4,2.6-5c0-2.2-0.7-4.1-4.2-6.9
			l-0.8-0.6c-2.6-2-3.3-3-3.3-4.4c0-1.7,1.2-2.9,3.1-2.9c2.2,0,3,0.9,3.2,1.3c0.2,0.3,0.3,0.9,0.3,1.3c0,0.2,0.1,0.7,0.6,0.7
			c0.6,0,0.6-0.7,0.6-1c0-1.5,0.1-2.4,0.1-2.8c0-0.1,0-0.2,0-0.2c0-0.2-0.1-0.6-0.7-0.6c-0.2,0-0.4,0-0.9-0.2
			c-0.8-0.2-1.7-0.3-2.7-0.3c-3.7,0-6.2,2.2-6.2,5.4c0,1.9,0.7,3.8,3.8,6.4l1.3,1c2.5,2,3.1,3,3.1,4.8c0,1.7-1.3,3.4-3.7,3.4
			c-1,0-3.3-0.3-3.8-2.6c-0.1-0.4-0.1-0.7-0.1-1c0-0.6-0.3-0.7-0.6-0.7c-0.5,0-0.6,0.6-0.6,0.8v0.4c-0.1,0.6-0.1,1.5-0.1,2.7
			C312.6,366.1,312.6,366.4,313.2,366.7z"/>
		<path fill="#004379" d="M328.9,346.3c0.2,0,0.5,0.1,0.8,0.1c0.3,0.1,0.6,0.2,0.7,1.2c0.1,0.9,0.1,1.7,0.1,6v5c0,2.6,0,4.9-0.2,6
			c-0.1,0.9-0.3,1.2-0.6,1.3c-0.2,0.1-0.5,0.1-0.7,0.1c-0.6,0-0.7,0.5-0.7,0.5c0,0.3,0.2,0.6,0.8,0.6c0.6,0,1.7-0.1,2.3-0.1
			c0.3,0,0.4,0,0.5,0s0.2,0,0.3,0c0.6,0,1.9,0.1,3.2,0.1c0.7,0,0.8-0.5,0.8-0.6c0-0.1,0-0.5-0.7-0.5c-0.2,0-0.7-0.1-1.1-0.1
			c-0.5-0.1-0.7-0.4-0.8-1.2c-0.2-1.2-0.2-3.4-0.2-6v-4.9c0-4.3,0-5.2,0.1-6c0.1-1,0.3-1.2,0.8-1.3c0.3-0.1,0.5-0.1,0.6-0.1
			c0.3,0,0.6-0.2,0.6-0.5c0-0.3-0.2-0.6-0.8-0.6c-0.6,0-1.7,0.1-2.3,0.1c-0.3,0-0.4,0-0.5,0c-0.1,0-0.2,0-0.4,0
			c-0.6,0-1.7-0.1-2.4-0.1s-0.8,0.3-0.8,0.6C328.3,346.1,328.5,346.3,328.9,346.3z"/>
		<path fill="#004379" d="M338.3,349.3c0.4,0,0.6-0.4,0.6-0.5c0.1-0.2,0.2-0.4,0.5-0.8c0.3-0.5,0.8-0.7,2.6-0.7c0.7,0,1.4,0,2.1-0.1
			c0.6,0,1.1,0,1.7,0v11.5c0,2.6,0,4.9-0.2,6c-0.1,0.9-0.3,1.2-0.5,1.2c-0.3,0.1-0.6,0.1-0.8,0.1c-0.4,0-0.6,0.3-0.6,0.5
			s0.2,0.6,0.8,0.6c0.6,0,1.7-0.1,2.3-0.1c0.3,0,0.4,0,0.5,0c0.1,0,0.2,0,0.3,0c0.6,0,1.9,0.1,3.1,0.1c0.8,0,0.8-0.5,0.8-0.6
			c0-0.3-0.2-0.5-0.6-0.5c-0.2,0-0.8-0.1-1.2-0.1c-0.5-0.1-0.7-0.4-0.8-1.2c-0.2-1.2-0.2-3.4-0.2-6v-11.5c0.5,0,0.9,0,1.4,0
			c0.6,0,1.2,0,1.8,0.1c3,0.1,3.1,0.9,3.1,1.2c0,0.1,0,0.2,0,0.2c0,0.1,0,0.1,0,0.2c0,0.3,0.1,0.8,0.6,0.8c0.3,0,0.6-0.2,0.6-0.7
			c0-0.1,0-0.5,0.1-0.9c0-0.7,0.1-1.7,0.1-2.2c0-0.5-0.2-0.7-0.5-0.7c-0.1,0-0.2,0-0.3,0.1c-0.1,0.1-0.3,0.1-0.5,0.1
			c-0.5,0.1-1.1,0.2-1.9,0.2h-10.5c-0.4,0-1.4-0.1-2.2-0.2c-0.4-0.1-0.7-0.2-0.9-0.2c-0.2-0.1-0.3-0.1-0.4-0.1
			c-0.4,0-0.5,0.4-0.6,0.8c0,0.1-0.6,2.7-0.6,3C337.8,349.1,338,349.3,338.3,349.3z"/>
		<path fill="#004379" d="M357.3,346.3c0.2,0,0.6,0.2,1,0.4c0.6,0.4,1.2,1.1,1.8,2c1,1.5,4.8,7.6,4.9,8c0.4,0.8,0.6,1.4,0.6,2.8v2.4
			c0,0.5,0,1.6-0.1,2.8c-0.1,0.5-0.2,1.1-0.6,1.2c-0.3,0.1-0.6,0.1-0.8,0.1c-0.4,0-0.6,0.3-0.6,0.5s0.2,0.6,0.8,0.6
			c0.6,0,1.7-0.1,2.3-0.1c0.3,0,0.4,0,0.5,0c0.1,0,0.2,0,0.3,0c0.6,0,1.9,0.1,3.1,0.1c0.8,0,0.8-0.5,0.8-0.6c0-0.3-0.2-0.5-0.6-0.5
			c-0.2,0-0.8-0.1-1.2-0.1c-0.5-0.1-0.8-0.3-0.8-1.2c-0.1-1.2-0.1-2.4-0.1-2.8v-2.4c0-0.9,0-1.7,0.4-2.7c0.5-1.2,4.4-7.7,5.3-8.8
			c0.6-0.8,0.9-1.1,1.4-1.3c0.4-0.3,0.8-0.4,1.1-0.4c0.5,0,0.7-0.3,0.7-0.6s-0.2-0.5-0.7-0.5c-0.4,0-1.3,0.1-2,0.1
			c-0.4,0-0.7,0-0.7,0c-0.1,0-0.3,0-0.5,0c-0.4-0.1-0.9-0.1-1.4-0.1c-0.7,0-0.8,0.4-0.8,0.5c0,0.4,0.4,0.5,0.7,0.6
			c0.1,0,0.2,0.1,0.2,0.5c0,0.4-0.2,0.8-0.4,1.2c-0.5,0.8-3.4,5.7-4.4,7.7c-1.1-1.9-4.4-7.6-4.8-8.3c-0.2-0.4-0.3-0.7-0.3-0.9
			c0-0.1,0-0.1,0.2-0.2c0.1-0.1,0.1-0.1,0.2-0.1c0.2-0.1,0.5-0.2,0.5-0.5c0-0.2-0.1-0.6-0.7-0.6c-0.8,0-1.5,0.1-2,0.1
			c-0.2,0-0.3,0-0.4,0c-0.1,0-0.3,0-0.7,0c-0.7-0.1-1.7-0.1-2.1-0.1c-0.5,0-0.7,0.3-0.7,0.6C356.7,346.1,356.9,346.3,357.3,346.3z"
			/>
		<path fill="#004379" d="M398.1,367.6c6.7,0,11.5-5,11.5-11.9c0-6.5-4.6-10.9-11.4-10.9c-8.3,0-11.4,6.9-11.4,11.3
			C386.8,361.6,390.3,367.6,398.1,367.6z M390.2,355.3c0-5.6,2.9-8.9,7.8-8.9c3.9,0,8.2,3.1,8.2,10c0,8.8-6.1,9.2-7.4,9.2
			C393.8,365.8,390.2,361.5,390.2,355.3z"/>
		<path fill="#004379" d="M424.3,345c-0.2,0-0.4,0.1-0.5,0.2c-0.1,0.1-0.6,0.1-1,0.1h-0.3c-0.6,0.1-5.8,0.1-6.9,0.1
			c-0.5,0-1,0-1.5-0.1c-0.6,0-1.1-0.1-1.7-0.1c-0.7,0-0.8,0.3-0.8,0.6c0,0.5,0.5,0.5,0.8,0.6c0.1,0,0.3,0,0.4,0.1c0.1,0,0.3,0,0.3,0
			c0.7,0.2,0.9,0.4,0.9,1.3c0.1,0.9,0.1,1.7,0.1,6v5c0,2.9-0.1,4.7-0.1,5.8c-0.1,1.3-0.3,1.4-0.6,1.5c-0.2,0.1-0.4,0.1-0.7,0.1
			c-0.4,0.1-0.6,0.2-0.6,0.5c0,0.3,0.2,0.6,0.8,0.6c0.8,0,2.2-0.1,2.5-0.1h0.3c0.1,0,0.2,0,0.3,0c0.6,0,1.9,0.1,3.1,0.1
			c0.7,0,0.8-0.3,0.8-0.6c0-0.3-0.2-0.5-0.7-0.6h-0.3c-0.3,0-0.6-0.1-0.9-0.1c-0.4-0.1-0.7-0.2-0.8-1.6c-0.1-1.3-0.1-3.3-0.1-5.6
			v-2.3c2.1,0,3.6,0.1,4,0.1c1.2,0.2,1.2,0.9,1.3,1.5c0.1,0.3,0.1,0.8,0.6,0.8c0.5,0,0.5-0.5,0.6-0.8c0-0.2,0-0.3,0-0.5
			c0-0.4,0.1-0.9,0.1-1.4c0.1-0.6,0.1-1,0.2-1.2c0.1-0.2,0.1-0.3,0.1-0.4c0-0.6-0.4-0.6-0.5-0.6c-0.3,0-0.4,0.2-0.5,0.3l0,0.3
			c-0.3,0.4-0.5,0.4-2,0.4c-1.1,0.1-2.6,0.1-3.7,0.1v-7.6l4.2,0.1c0.6,0,1.1,0.2,1.4,0.5c0.2,0.2,0.4,0.6,0.4,1.2
			c0,0.2,0.1,0.7,0.6,0.7c0.4,0,0.6-0.4,0.6-0.9c0-0.2,0.1-0.4,0.1-0.6c0.1-0.5,0.1-0.8,0.1-1.4c0-0.2,0.1-0.3,0.1-0.4
			c0.1-0.3,0.1-0.4,0.1-0.5C424.8,345.2,424.5,345,424.3,345z"/>
		<path fill="#004379" d="M163.7,430.5c-0.4,0-1.3,0-2.4-0.3c-1.1-0.4-1.4-2-1.6-3.5l-2.9-25.7c-0.1-0.6-0.2-2.1-1.6-2.1
			c-1,0-1.5,0.9-1.6,1.3L142,424.5l-12.1-24.4c-0.2-0.4-0.6-1.2-1.6-1.2c-0.6,0-1.4,0.5-1.5,1.8l-3.1,27.3l-0.1,0.4
			c-0.2,1.6-0.3,2.1-0.8,2.2c-0.6,0.1-0.8,0.1-1.1,0.1c-0.9,0-1.5,0.6-1.5,1.3c0,0.4,0.2,1.4,1.8,1.4c0.8,0,1.9-0.1,2.7-0.1
			c0.5,0,0.8-0.1,0.9-0.1c0.1,0,0.4,0,0.8,0.1c0.9,0.1,2.2,0.1,3.4,0.1c1.6,0,1.7-1.2,1.7-1.4c0-0.6-0.5-1.3-1.5-1.3
			c-0.2,0-0.7,0-1.3-0.2c-0.2-0.1-0.2-0.1-0.2-0.1s-0.1-0.1-0.1-0.4c0-0.6,0.1-1.1,0.1-1.7l1.4-15.9c1.6,3.5,3.8,8.1,4.1,8.6
			l0.2,0.4c2.6,5,4.2,8.2,4.8,9.3l0.1,0.2c0.9,1.7,1.2,2.3,2.2,2.3c1,0,1.3-0.7,2.1-2.2l9.2-19.2l1.7,18.1c0.1,0.3,0.1,0.5,0.1,0.6
			c-0.3,0.2-0.5,0.5-0.5,1.1c0,1.3,1.5,1.4,2.2,1.5c1.6,0.2,6.5,0.3,7.5,0.3c1.5,0,1.7-1,1.7-1.4
			C165.2,431.3,164.7,430.5,163.7,430.5z"/>
		<path fill="#004379" d="M188.5,425.5c-0.8,0-1.2,0.5-1.4,1.5c-0.4,1.7-0.7,2-1.4,2.3c-1,0.3-2.3,0.4-3.6,0.4
			c-1.1,0-2.5-0.1-3.2-0.3c-0.4-0.2-0.7-0.4-0.7-2.1c-0.1-0.6,0-3.4,0-5.3c0-0.8,0-1.4,0-1.8v-2.9c1.5,0.1,4.4,0.1,5.2,0.2
			c1.2,0.2,1.3,0.5,1.3,0.7c0.1,0.2,0.1,0.5,0.1,0.8c0,1.6,1.1,1.7,1.4,1.7c0.4,0,1.2-0.2,1.4-1.6c0-0.2,0.1-0.5,0.1-0.8
			c0-0.6,0.1-1.2,0.2-2.1c0.1-0.8,0.2-1.4,0.3-1.8c0.1-0.3,0.1-0.5,0.1-0.7c0-0.9-0.7-1.4-1.3-1.4c-0.7,0-1,0.5-1.3,0.8
			c-0.2,0.2-0.3,0.3-1.4,0.4c-0.6,0.1-3.4,0.1-5.9,0.1v-10.3c1.5,0,4.4,0.1,5,0.1c1.9,0.2,2.1,0.6,2.2,0.9c0.1,0.2,0.2,0.6,0.2,1
			c0,1.3,0.9,1.6,1.4,1.6c0.3,0,1.2-0.1,1.4-1.7c0.1-0.8,0.1-1.4,0.2-1.9l0.1-0.6c0.1-0.7,0.2-1.1,0.2-1.3c0.1-0.3,0.1-0.5,0.1-0.7
			c0-1-0.7-1.4-1.2-1.4c-0.4,0-0.6,0.1-0.9,0.3c-0.1,0.1-0.6,0.1-1.6,0.2c-0.8,0.1-6.5,0.1-9.7,0.1c-2.7-0.2-3.9-0.2-4.9-0.2
			c-1.6,0-1.7,1.1-1.7,1.4c0,0.5,0.3,1.1,1.5,1.3c0.2,0,0.3,0.1,0.5,0.1s0.5,0.1,0.6,0.1h0.1c0.8,0.2,0.9,0.3,1,1.4
			c0.1,1.3,0.1,2.5,0.1,9v7.4c0,3.7-0.1,5.9-0.1,7.5c-0.1,2.8-0.5,2.9-0.8,3c-0.1,0.1-0.3,0.1-0.5,0.1l-0.4,0.1
			c-1.3,0.2-1.4,1.1-1.4,1.3c0,0.3,0.1,1.4,1.7,1.4l0,0c0.7,0.1,1.3,0,1.9-0.1c0.5-0.1,0.9-0.1,1.3-0.1c1.1,0,2.4,0.1,3.7,0.1
			c0.6,0,1.1,0.1,1.6,0.1c0.4,0,0.9,0,1.3,0.1c1.2,0.1,2.7,0.1,5,0.1c1.7,0,2.8,0,3.4-1.9c0.3-1,0.6-3.9,0.6-4.3
			C189.8,425.6,188.9,425.5,188.5,425.5z"/>
		<path fill="#004379" d="M217.3,425.3c-0.3,0-1.3,0.1-1.4,1.4c-0.1,0.7-0.5,1.5-0.9,2c-0.7,0.8-2.2,0.9-4.3,0.9
			c-3.1,0-4-0.3-4.4-0.7c-0.6-0.7-0.6-6.2-0.6-8.8v-7.5c0-6.5,0-7.7,0.1-9c0.1-1.3,0.3-1.3,0.8-1.4c0.5-0.1,1-0.1,1.2-0.1
			c0.8,0,1.4-0.6,1.4-1.3c0-0.3-0.1-1.4-1.7-1.4c-0.9,0-2.8,0.1-3.8,0.1c-0.4,0-0.7,0-0.8,0.1c-0.1,0-0.3,0-0.6,0
			c-0.9-0.1-2.9-0.1-4.3-0.1c-1.6,0-1.7,1.1-1.7,1.4c0,0.8,0.6,1.3,1.4,1.3c0.4,0,1,0.1,1.2,0.1c0.8,0.2,0.9,0.3,1,1.4
			c0.1,1.3,0.1,2.5,0.1,9v7.4c0,3.9,0,7.3-0.2,8.9c-0.2,1-0.3,1.3-0.4,1.4c-0.4,0.1-0.8,0.2-1.1,0.2c-0.9,0-1.4,0.7-1.4,1.3
			c0,0.3,0.1,1.4,1.7,1.4c0.9,0,1.6-0.1,2.4-0.1c2.8-0.2,5.4,0,7.9,0.1c1.8,0.1,3.6,0.1,5.4,0.1c2.3,0,3.2-0.2,3.7-1.9
			c0.4-1.3,0.7-3.9,0.7-4.5C218.6,425.5,217.8,425.3,217.3,425.3z"/>
		<path fill="#004379" d="M239.9,413.9c1.7-1.8,3.2-3.9,3.2-7.1c0-2.8-2-7.4-9.6-7.4c-1.2,0-2.2,0.1-3.1,0.1
			c-0.6,0.1-1.1,0.1-1.6,0.1c-0.1,0-0.3,0-0.6,0c-0.9-0.1-2.9-0.1-4.3-0.1c-1.6,0-1.7,1.1-1.7,1.4c0,0.2,0.1,1.3,1.6,1.3
			c0.2,0,0.8,0.1,1,0.1c0.8,0.2,0.9,0.3,1,1.4c0.1,1.3,0.1,2.5,0.1,9v7.4c0,3.9,0,7.3-0.2,8.9c-0.1,0.4-0.2,1.3-0.4,1.4
			c-0.4,0.1-0.6,0.1-0.8,0.1c-1.7,0-1.7,1.2-1.7,1.4c0,0.3,0.1,1.4,1.7,1.4c0.8,0,1.5-0.1,2.2-0.1c0.7-0.1,1.3-0.1,1.9-0.1
			c0.2,0,1.3,0.1,2.6,0.1c0.6,0,1.2,0.1,1.7,0.1c0.6,0.1,1.2,0.1,1.4,0.1c7.9,0,12-5.2,12-10.2C246.4,418.7,243.4,415.5,239.9,413.9
			z M236.4,412.4c-0.6,0.6-0.7,0.7-3.1,0.7c-0.9,0-1.4-0.1-1.8-0.1v-10.2c0.5-0.1,1.1-0.1,1.5-0.1c4.5,0,4.7,5.1,4.7,6.1
			C237.7,410.2,237.2,411.5,236.4,412.4z M231.5,416.4c1.8,0,2.2,0.1,2.4,0.1c1,0.1,1.8,0.2,3.1,1c3.3,2.2,3.7,6,3.7,7.5
			c0,4.6-4.1,4.9-5,4.9c-1,0-2.5-0.2-3.3-0.5c-0.7-0.4-0.7-0.4-0.8-2.2v-0.2c-0.1-0.6-0.1-6.1-0.1-9V416.4L231.5,416.4z"/>
		<path fill="#004379" d="M268.7,398.8c-13.1,0-17.9,10.7-17.9,17.5c0,8.5,5.5,17.6,17.7,17.6c10.5,0,18.1-7.7,18.1-18.2
			C286.6,405.6,279.4,398.8,268.7,398.8z M268.4,402.4c5.8,0,12,4.5,12,14.4c0,12.7-8.9,13.3-10.7,13.3c-7.5,0-12.6-6.2-12.6-15
			C257,407.1,261.2,402.4,268.4,402.4z"/>
		<path fill="#004379" d="M322.1,399.4c-0.9,0-2.1,0.1-2.9,0.1c-0.4,0-0.6,0.1-0.7,0.1c-0.1,0-0.3,0-0.6,0c-0.9-0.1-2.6-0.1-4-0.1
			c-1.6,0-1.7,1.1-1.7,1.4c0,0.8,0.6,1.3,1.4,1.3c0.4,0,1,0.1,1.2,0.1c0.8,0.2,0.9,0.3,1,1.4c0.1,1.3,0.1,2.5,0.1,9v5.3
			c0,4.8-0.7,7.7-2.2,9.6c-1.4,1.6-3.7,2.7-5.9,2.7c-2.2,0-3.9-0.3-5.7-2c-1.4-1.3-2.9-3.5-2.9-9.6v-5.9c0-6.5,0-7.7,0.1-9
			c0.1-1.3,0.3-1.3,0.7-1.4c0.5-0.1,0.7-0.1,0.9-0.1c0.8,0,1.4-0.6,1.4-1.3c0-0.3-0.1-1.4-1.7-1.4c-0.9,0-2.2,0.1-3.2,0.1
			c-0.5,0-0.9,0.1-1,0.1c-0.1,0-0.4,0-0.9-0.1c-1-0.1-2.7-0.1-4-0.1c-1.6,0-1.7,1.1-1.7,1.4c0,0.8,0.6,1.3,1.4,1.3
			c0.4,0,1,0.1,1.2,0.1c0.8,0.2,0.9,0.3,1,1.4c0.1,1.3,0.1,2.5,0.1,9v6.1c0,5.5,1.2,9.2,4.1,11.8c3.1,2.9,7.3,3.3,9.6,3.3
			c2.4,0,6.1-0.4,9.5-3.4c3.8-3.3,4.3-8.9,4.3-13.3v-4.5c0-6.5,0-7.7,0.1-9c0.1-1.3,0.3-1.3,0.7-1.4c0.5-0.1,0.7-0.1,0.9-0.1
			c0.8,0,1.4-0.6,1.4-1.3C323.9,400.5,323.8,399.4,322.1,399.4z"/>
		<path fill="#004379" d="M361.6,430.5c-0.3,0-0.8,0-1.5-0.1c-1-0.2-2.6-0.6-4.6-2.7c-2.1-2.2-4.6-5.4-7.6-9.1l-0.7-0.8
			c3.3-3.2,4.8-6.3,4.8-9.8c0-3.1-1.8-5.5-3.4-6.6c-2.6-1.8-5.7-2-8.4-2c-0.9,0-2.5,0.1-3.6,0.1c-0.7,0-1.2,0.1-1.4,0.1
			c-0.1,0-0.3,0-0.6,0c-0.9-0.1-2.9-0.1-4.3-0.1c-1.6,0-1.7,1.1-1.7,1.4c0,0.8,0.6,1.3,1.4,1.3c0.4,0,1,0.1,1.2,0.1
			c0.8,0.2,0.9,0.3,1,1.4c0.1,1.3,0.1,2.5,0.1,9v7.4c0,3.9,0,7.3-0.2,8.9c-0.2,1-0.3,1.3-0.4,1.4c-0.4,0.1-0.8,0.2-1.1,0.2
			c-0.9,0-1.4,0.7-1.4,1.3c0,0.3,0.1,1.4,1.7,1.4c1.1,0,3.2-0.1,3.9-0.1h0.2c0.1,0,0.2,0,0.5,0c1,0.1,3,0.1,4.8,0.1
			c1.7,0,1.7-1.3,1.7-1.4c0-0.7-0.5-1.3-1.4-1.3c-0.3,0-1.2-0.1-1.8-0.2c-0.4-0.1-0.6-0.1-0.8-1.4c-0.2-1.7-0.2-5.1-0.2-9v-0.3
			l4.3,0.1c0.4,0.5,0.9,1.2,1.5,1.9c0.9,1.2,2,2.8,3.1,4.1l0.6,0.7c2.2,2.9,3.7,4.8,5.6,5.8c1.3,0.7,2.6,0.9,5.1,0.9h3
			c0.5,0,2.1,0,2.1-1.4C363.1,431.2,362.4,430.5,361.6,430.5z M337.9,403.1c0.5-0.1,1.2-0.2,2.1-0.2c4,0,6.3,2.7,6.3,7.3
			c0,3.1-1.1,4.9-2.1,5.6c-0.8,0.6-1.9,0.6-2.6,0.6c-1.7,0-3.1-0.3-3.7-0.4V403.1z"/>
		<path fill="#004379" d="M398.5,399.4c-1.2,0-2.2,0.1-2.9,0.1c-0.3,0-0.6,0.1-0.7,0.1c-0.2,0-0.5,0-0.9-0.1
			c-0.9-0.1-2.2-0.1-3.6-0.1c-1.6,0-1.9,0.8-1.9,1.4c0,0.2,0.1,1.4,1.7,1.4c0.2,0,0.8,0,1.6,0.2c0.5,0.1,0.8,0.2,0.9,3l0.4,18.5
			c-0.6-0.6-1.2-1.2-1.8-1.9c-1.9-2-4.3-4.6-6.5-7c-6.6-7-13-13.7-13.6-14.4c-0.1-0.1-0.2-0.2-0.4-0.4c-0.6-0.7-1.2-1.3-1.9-1.3
			c-1.5,0-1.5,1.8-1.5,3.2c0,3.8,0,4.6,0,6c0,1.5-0.1,3.8-0.1,11.8v6.2c0,1.2,0,4.1-0.6,4.3c-0.5,0.2-1.1,0.2-1.4,0.2
			c-0.9,0-1.4,0.7-1.4,1.3c0,0.4,0.2,1.4,1.7,1.4c1.4,0,2.7-0.1,3.4-0.1c0.3,0,0.6-0.1,0.7-0.1c0.1,0,0.3,0,0.6,0
			c0.8,0.1,2.2,0.1,3.9,0.1c1.7,0,1.8-1.1,1.8-1.4c0-0.7-0.5-1.3-1.4-1.3c-0.4,0-1.2-0.1-1.8-0.2c-0.4-0.1-0.8-0.5-0.9-3.9
			l-0.5-17.2c2.2,2.4,5.7,6.2,9.2,9.9c4.4,4.6,10.7,10.9,11.2,11.4c2.5,2.5,3.1,3,3.9,3c1.5,0,1.5-1.3,1.5-4l0.1-24.5
			c0-2.6,0.3-2.7,0.7-2.7c0.5-0.1,0.7-0.1,1-0.2c1.3-0.2,1.4-1.1,1.4-1.3C400.3,400.3,400.1,399.4,398.5,399.4z"/>
		<path fill="#004379" d="M422.8,425.5c-0.8,0-1.2,0.5-1.4,1.5c-0.4,1.7-0.7,2-1.4,2.3c-1,0.3-2.3,0.4-3.6,0.4
			c-1.1,0-2.5-0.1-3.2-0.3c-0.4-0.2-0.7-0.4-0.7-2.1c-0.1-0.6,0-3.4,0-5.3c0-0.8,0-1.4,0-1.8v-2.9c1.5,0.1,4.4,0.1,5.2,0.2
			c1.2,0.2,1.3,0.5,1.3,0.7c0.1,0.2,0.1,0.5,0.1,0.8c0,1.6,1.1,1.7,1.4,1.7c0.4,0,1.2-0.2,1.4-1.6c0-0.2,0.1-0.5,0.1-0.8
			c0-0.6,0.1-1.2,0.2-2.1c0.1-0.8,0.2-1.4,0.3-1.8c0.1-0.3,0.1-0.5,0.1-0.7c0-0.9-0.7-1.4-1.3-1.4c-0.7,0-1,0.5-1.3,0.8
			c-0.2,0.2-0.3,0.3-1.4,0.4c-0.6,0.1-3.4,0.1-5.9,0.1v-10.3c1.5,0,4.4,0.1,5,0.1c1.9,0.2,2.1,0.6,2.2,0.9c0.1,0.2,0.2,0.6,0.2,1
			c0,1.3,0.9,1.6,1.4,1.6c0.3,0,1.2-0.1,1.4-1.7c0.1-0.8,0.1-1.4,0.2-1.9l0.1-0.6c0.1-0.7,0.2-1.1,0.2-1.3c0.1-0.3,0.1-0.5,0.1-0.7
			c0-1-0.7-1.4-1.2-1.4c-0.4,0-0.6,0.1-0.9,0.3c-0.1,0.1-0.6,0.1-1.6,0.2c-0.8,0.1-6.5,0.1-9.7,0.1c-2.7-0.2-3.9-0.2-4.9-0.2
			c-1.6,0-1.7,1.1-1.7,1.4c0,0.5,0.3,1.1,1.5,1.3c0.2,0,0.3,0.1,0.5,0.1c0.2,0,0.5,0.1,0.6,0.1h0.1c0.8,0.2,0.9,0.3,1,1.4
			c0.1,1.3,0.1,2.5,0.1,9v7.4c0,3.7-0.1,5.9-0.1,7.5c-0.1,2.8-0.5,2.9-0.8,3c-0.1,0.1-0.3,0.1-0.5,0.1l-0.4,0.1
			c-1.3,0.2-1.4,1.1-1.4,1.3c0,0.3,0.1,1.4,1.7,1.4l0,0c0.7,0,1.3,0,1.9-0.1c0.5-0.1,0.9-0.1,1.3-0.1c1.1,0,2.4,0.1,3.7,0.1
			c0.6,0,1.1,0.1,1.6,0.1c0.4,0,0.9,0,1.3,0.1c1.2,0.1,2.7,0.1,5,0.1c1.7,0,2.8,0,3.4-1.9c0.2-1,0.6-3.9,0.6-4.3
			C424.1,425.6,423.2,425.5,422.8,425.5z"/>
		<rect x="124" y="381.8" fill="#004379" width="299.2" height="2.9"/>
	</g>
</g>
</svg>
