<svg xmlns="http://www.w3.org/2000/svg" xmlns:xlink="http://www.w3.org/1999/xlink" version="1.1" x="0px" y="0px" viewBox="0 0 150 100" enable-background="new 0 0 100 100" xml:space="preserve"><g><path d="M69.167,63.201c0-0.828-0.672-1.5-1.5-1.5H29.622l14.764-16.017L57.11,57.152c0.612,0.554,1.563,0.507,2.118-0.11   c0.555-0.615,0.505-1.563-0.11-2.118l-4.088-3.684l7.495-8.467L87.75,64.239c0.282,0.24,0.627,0.357,0.971,0.357   c0.425,0,0.847-0.18,1.144-0.528c0.537-0.631,0.461-1.577-0.171-2.114L63.348,39.534c-0.621-0.531-1.555-0.463-2.095,0.148   l-8.452,9.548l-7.509-6.768c-0.611-0.55-1.551-0.507-2.107,0.098l-5.817,6.31l-7.037-7.037c-0.586-0.586-1.535-0.586-2.121,0   L12.937,57.107c-0.586,0.586-0.586,1.535,0,2.121c0.293,0.293,0.677,0.439,1.061,0.439s0.768-0.146,1.061-0.439l14.212-14.212   l6.063,6.063L25.096,62.185c-0.404,0.438-0.51,1.073-0.271,1.619c0.239,0.545,0.778,0.897,1.374,0.897h41.468   C68.495,64.701,69.167,64.03,69.167,63.201z"/><path d="M13.1,34.99v2.301c0,0.829,0.671,1.5,1.5,1.5s1.5-0.671,1.5-1.5V34.99h2.301c0.829,0,1.5-0.671,1.5-1.5s-0.671-1.5-1.5-1.5   H16.1v-2.301c0-0.829-0.671-1.5-1.5-1.5s-1.5,0.671-1.5,1.5v2.301h-2.301c-0.829,0-1.5,0.671-1.5,1.5s0.671,1.5,1.5,1.5H13.1z"/><path d="M23.888,11.724h2.301v2.301c0,0.829,0.671,1.5,1.5,1.5s1.5-0.671,1.5-1.5v-2.301h2.301c0.829,0,1.5-0.671,1.5-1.5   s-0.671-1.5-1.5-1.5h-2.301V6.423c0-0.829-0.671-1.5-1.5-1.5s-1.5,0.671-1.5,1.5v2.301h-2.301c-0.829,0-1.5,0.671-1.5,1.5   S23.059,11.724,23.888,11.724z"/><path d="M76.718,38.768h2.301v2.301c0,0.829,0.672,1.5,1.5,1.5s1.5-0.671,1.5-1.5v-2.301h2.301c0.828,0,1.5-0.671,1.5-1.5   s-0.672-1.5-1.5-1.5h-2.301v-2.301c0-0.829-0.672-1.5-1.5-1.5s-1.5,0.671-1.5,1.5v2.301h-2.301c-0.828,0-1.5,0.671-1.5,1.5   S75.889,38.768,76.718,38.768z"/><path d="M41.512,23.314h2.301v2.301c0,0.829,0.671,1.5,1.5,1.5s1.5-0.671,1.5-1.5v-2.301h2.301c0.829,0,1.5-0.671,1.5-1.5   s-0.671-1.5-1.5-1.5h-2.301v-2.301c0-0.829-0.671-1.5-1.5-1.5s-1.5,0.671-1.5,1.5v2.301h-2.301c-0.829,0-1.5,0.671-1.5,1.5   S40.684,23.314,41.512,23.314z"/><path d="M58.143,31.389c1.437,0.622,2.958,0.937,4.523,0.937c6.284,0,11.397-5.113,11.397-11.397S68.951,9.531,62.667,9.531   c-0.898,0-1.822,0.116-2.748,0.346c-0.624,0.155-1.08,0.691-1.134,1.332c-0.053,0.641,0.309,1.245,0.899,1.5   c3.077,1.333,5.065,4.358,5.065,7.708c0,3.862-2.62,7.209-6.372,8.14c-0.624,0.155-1.08,0.691-1.134,1.333   C57.191,30.53,57.552,31.134,58.143,31.389z M67.75,20.417c0-2.862-1.069-5.549-2.902-7.599c3.576,0.962,6.217,4.234,6.217,8.11   c0,4.345-3.317,7.93-7.553,8.355C66.13,27.176,67.75,23.955,67.75,20.417z"/><path d="M81.428,67.433c0.293,0.293,0.677,0.439,1.061,0.439s0.768-0.146,1.061-0.439c0.586-0.586,0.586-1.535,0-2.121   l-4.863-4.863c-0.586-0.586-1.535-0.586-2.121,0l-4.863,4.863c-0.586,0.586-0.586,1.535,0,2.121s1.535,0.586,2.121,0l2.217-2.217   v2.754l-4.338,4.338c-0.586,0.586-0.586,1.535,0,2.121s1.535,0.586,2.121,0l2.217-2.217v2.925l-4.338,4.339   c-0.586,0.586-0.586,1.535,0,2.121s1.535,0.586,2.121,0l2.217-2.217v5.593c0,0.828,0.672,1.5,1.5,1.5s1.5-0.672,1.5-1.5v-5.765   l2.389,2.389c0.293,0.293,0.677,0.439,1.061,0.439s0.768-0.146,1.061-0.439c0.586-0.586,0.586-1.535,0-2.121l-4.51-4.511V72.04   l2.389,2.389c0.293,0.293,0.677,0.439,1.061,0.439s0.768-0.146,1.061-0.439c0.586-0.586,0.586-1.535,0-2.121l-4.51-4.51v-2.754   L81.428,67.433z"/><path d="M20.115,70.211c0.292,0.293,0.677,0.439,1.061,0.439s0.768-0.146,1.061-0.439c0.586-0.586,0.586-1.535,0-2.121   l-4.863-4.864c-0.281-0.281-0.663-0.439-1.061-0.439s-0.779,0.158-1.061,0.439l-4.864,4.864c-0.586,0.586-0.586,1.535,0,2.121   s1.536,0.586,2.121,0l2.218-2.218v2.755l-4.339,4.338c-0.586,0.586-0.586,1.535,0,2.121s1.535,0.586,2.121,0l2.218-2.217v2.925   l-4.339,4.338c-0.586,0.586-0.586,1.535,0,2.121s1.535,0.586,2.121,0l2.218-2.217v5.594c0,0.828,0.671,1.5,1.5,1.5   s1.5-0.672,1.5-1.5v-5.765l2.388,2.388c0.293,0.293,0.677,0.439,1.061,0.439s0.768-0.146,1.061-0.439   c0.586-0.586,0.586-1.535,0-2.121l-4.509-4.509v-2.925l2.388,2.388c0.293,0.293,0.677,0.439,1.061,0.439s0.768-0.146,1.061-0.439   c0.586-0.586,0.586-1.535,0-2.121l-4.509-4.509v-2.755L20.115,70.211z"/><path d="M43.227,76.036c0.586,0.586,1.536,0.586,2.121,0c0.586-0.586,0.586-1.535,0-2.121l-4.864-4.863   c-0.586-0.586-1.535-0.586-2.121,0L33.5,73.915c-0.586,0.586-0.586,1.535,0,2.121c0.293,0.293,0.677,0.439,1.061,0.439   s0.768-0.146,1.061-0.439l2.218-2.218v2.755L33.5,80.912c-0.586,0.586-0.586,1.535,0,2.121c0.293,0.293,0.677,0.439,1.061,0.439   s0.768-0.146,1.061-0.439l2.218-2.218v2.925L33.5,88.079c-0.586,0.586-0.586,1.535,0,2.121c0.293,0.293,0.677,0.439,1.061,0.439   s0.768-0.146,1.061-0.439l2.218-2.218v5.595c0,0.828,0.671,1.5,1.5,1.5s1.5-0.672,1.5-1.5v-5.765l2.388,2.388   c0.586,0.586,1.536,0.586,2.121,0c0.586-0.586,0.586-1.535,0-2.121l-4.509-4.509v-2.925l2.388,2.388   c0.586,0.586,1.536,0.586,2.121,0c0.586-0.586,0.586-1.535,0-2.121l-4.509-4.509v-2.755L43.227,76.036z"/><path d="M49.772,72.551h16.724c0.828,0,1.5-0.672,1.5-1.5s-0.672-1.5-1.5-1.5H49.772c-0.829,0-1.5,0.672-1.5,1.5   S48.944,72.551,49.772,72.551z"/><path d="M66.059,79.998H54.626c-0.828,0-1.5,0.672-1.5,1.5s0.672,1.5,1.5,1.5h11.434c0.828,0,1.5-0.672,1.5-1.5   S66.887,79.998,66.059,79.998z"/><path d="M89.201,90.446H50.038c-0.829,0-1.5,0.672-1.5,1.5s0.671,1.5,1.5,1.5h39.163c0.828,0,1.5-0.672,1.5-1.5   S90.029,90.446,89.201,90.446z"/></g><text x="0" y="0" fill="transparent" font-size="5px">Created by Cezary Lopacinski from the Noun Project</text></svg>