<?xml version="1.0" encoding="utf-8"?>
<!-- Generator: Adobe Illustrator 18.1.0, SVG Export Plug-In . SVG Version: 6.00 Build 0)  -->
<!DOCTYPE svg PUBLIC "-//W3C//DTD SVG 1.1//EN" "http://www.w3.org/Graphics/SVG/1.1/DTD/svg11.dtd">
<svg version="1.1" id="Layer_1" xmlns="http://www.w3.org/2000/svg" xmlns:xlink="http://www.w3.org/1999/xlink" x="0px" y="0px"
	 viewBox="0 0 100 100" style="enable-background:new 0 0 100 100;" xml:space="preserve">
<style type="text/css">
	.st0{fill:none;stroke:#FFFFFF;stroke-miterlimit:10;}
	.st1{fill:#FFFFFF;}
</style>
<circle class="st0" cx="50.1" cy="50" r="40"/>
<path class="st0" d="M49.1,60.6c0,0.7-0.6,1.3-1.3,1.3c-0.3,0-0.7-0.1-0.9-0.4l-6.8-6.8h-5.3c-0.7,0-1.3-0.6-1.3-1.3v-7.8
	c0-0.7,0.6-1.3,1.3-1.3h5.3l6.8-6.8c0.2-0.2,0.6-0.4,0.9-0.4c0.7,0,1.3,0.6,1.3,1.3V60.6z"/>
<path class="st1" d="M56.1,49.6c0-1.8-1.1-3.5-2.7-4.1c-0.1,0-0.1,0-0.2,0c-0.3,0-0.5,0.2-0.5,0.5c0,0.2,0.1,0.3,0.6,0.7
	c0.7,0.4,1.7,1.1,1.7,2.9c0,1.8-1,2.4-1.7,2.9c-0.5,0.3-0.6,0.4-0.6,0.7c0,0.3,0.2,0.5,0.5,0.5c0.1,0,0.2,0,0.2,0
	C55,53,56.1,51.3,56.1,49.6z"/>
<path class="st1" d="M61.3,49.6c0-3.8-2.3-7.4-5.8-8.9c-0.1,0-0.2,0-0.2,0c-0.3,0-0.5,0.3-0.5,0.5c0,0.1,0,0.3,0.4,0.5l0.2,0.1
	c0.5,0.2,1,0.5,1.4,0.9c2.2,1.6,3.5,4.2,3.5,6.9c0,2.7-1.3,5.3-3.5,6.9c-0.5,0.3-1,0.6-1.4,0.8L55,57.4c-0.4,0.2-0.4,0.4-0.4,0.5
	c0,0.3,0.3,0.5,0.6,0.5c0,0,0.1,0,0.2-0.1C58.9,57,61.3,53.4,61.3,49.6z"/>
<path class="st1" d="M57.5,63.2c5.4-2.3,8.9-7.7,8.9-13.6c0-5.9-3.5-11.3-9-13.6c-0.1,0-0.2,0-0.2,0c-0.3,0-0.5,0.3-0.5,0.5
	c0,0.2,0,0.3,0.4,0.5c0.1,0.1,0.3,0.1,0.4,0.2c0.2,0.1,0.3,0.1,0.5,0.2c0.7,0.3,1.2,0.7,1.8,1.1c3.5,2.6,5.6,6.7,5.6,11.1
	s-2.1,8.5-5.6,11.1c-0.5,0.4-1.1,0.7-1.8,1.1c-0.2,0.1-0.3,0.2-0.5,0.2c-0.1,0.1-0.3,0.1-0.4,0.2c-0.4,0.2-0.4,0.4-0.4,0.5
	C56.7,63.1,57.1,63.3,57.5,63.2z"/>
</svg>
