<svg xmlns="http://www.w3.org/2000/svg">
   <symbol id="icon-add" viewBox="0 0 48 48"><path d="M38,26 L26,26 L26,38 L22,38 L22,26 L10,26 L10,22 L22,22 L22,10 L26,10 L26,22 L38,22 L38,26 L38,26 Z"></path></symbol>
   <symbol id="icon-bar" viewBox="0 0 48 48"><path d="M22,26 L22,38 L12,38 L12,42 L36,42 L36,38 L26,38 L26,26 L42,10 L42,6 L6,6 L6,10 L22,26 L22,26 Z M15,14 L11,10 L37,10 L33,14 L15,14 L15,14 Z"></path></symbol>
   <symbol id="icon-bike" viewBox="0 0 48 48"><path d="M31,12 C33.2,12 35,10.2 35,8 C35,5.8 33.2,4 31,4 C28.8,4 27,5.8 27,8 C27,10.2 28.8,12 31,12 L31,12 Z M10,25 C4.5,25 0,29.5 0,35 C0,40.5 4.5,45 10,45 C15.5,45 20,40.5 20,35 C20,29.5 15.5,25 10,25 L10,25 Z M10,42 C6.1,42 3,38.9 3,35 C3,31.1 6.1,28 10,28 C13.9,28 17,31.1 17,35 C17,38.9 13.9,42 10,42 L10,42 Z M21.6,22.1 L26.3,17.3 L27.8,18.8 C30.3,21.4 33.8,22.9 37.9,22.9 L37.9,18.9 C34.9,18.9 32.4,17.8 30.6,16 L26.7,12.2 C26.1,11.5 25.1,11 24,11 C22.9,11 21.9,11.4 21.2,12.2 L15.7,17.7 C15,18.4 14.5,19.4 14.5,20.5 C14.5,21.6 15,22.6 15.7,23.4 L22,29 L22,39 L26,39 L26,26.5 L21.6,22.1 L21.6,22.1 Z M38,25 C32.5,25 28,29.5 28,35 C28,40.5 32.5,45 38,45 C43.5,45 48,40.5 48,35 C48,29.5 43.5,25 38,25 L38,25 Z M38,42 C34.1,42 31,38.9 31,35 C31,31.1 34.1,28 38,28 C41.9,28 45,31.1 45,35 C45,38.9 41.9,42 38,42 L38,42 Z"></path></symbol>
   <symbol id="icon-bus" viewBox="0 0 48 48"><path d="M8,33 C8,34.77 8.78,36.34 10,37.44 L10,41 C10,42.1 10.9,43 12,43 L14,43 C15.11,43 16,42.1 16,41 L16,39 L32,39 L32,41 C32,42.1 32.89,43 34,43 L36,43 C37.1,43 38,42.1 38,41 L38,37.44 C39.22,36.34 40,34.77 40,33 L40,13 C40,6 32.84,5 24,5 C15.16,5 8,6 8,13 L8,33 L8,33 Z M15,35 C13.34,35 12,33.66 12,32 C12,30.34 13.34,29 15,29 C16.66,29 18,30.34 18,32 C18,33.66 16.66,35 15,35 L15,35 Z M33,35 C31.34,35 30,33.66 30,32 C30,30.34 31.34,29 33,29 C34.66,29 36,30.34 36,32 C36,33.66 34.66,35 33,35 L33,35 Z M36,23 L12,23 L12,13 L36,13 L36,23 L36,23 Z"></path></symbol>
   <symbol id="icon-cafe" viewBox="0 0 48 48"><path d="M40,6 L8,6 L8,26 C8,30.42 11.58,34 16,34 L28,34 C32.42,34 36,30.42 36,26 L36,20 L40,20 C42.21,20 44,18.21 44,16 L44,10 C44,7.79 42.21,6 40,6 L40,6 Z M40,16 L36,16 L36,10 L40,10 L40,16 L40,16 Z M4,42 L40,42 L40,38 L4,38 L4,42 L4,42 Z"></path></symbol>
   <symbol id="icon-campaign" viewBox="0 0 48 48"><path d="M9,21 L9,35 L15,35 L15,21 L9,21 L9,21 Z M21,21 L21,35 L27,35 L27,21 L21,21 L21,21 Z M5,45 L43,45 L43,39 L5,39 L5,45 L5,45 Z M33,21 L33,35 L39,35 L39,21 L33,21 L33,21 Z M24,3 L5,13 L5,17 L43,17 L43,13 L24,3 L24,3 Z"></path></symbol>
   <symbol id="icon-car" viewBox="0 0 48 48"><path d="M37.84,10.02 C37.43,8.84 36.31,8 35,8 L13,8 C11.69,8 10.57,8.84 10.16,10.02 L6,22 L6,38 C6,39.1 6.9,40 8,40 L10,40 C11.11,40 12,39.1 12,38 L12,36 L36,36 L36,38 C36,39.1 36.9,40 38,40 L40,40 C41.11,40 42,39.1 42,38 L42,22 L37.84,10.02 L37.84,10.02 Z M13,30 C11.34,30 10,28.66 10,27 C10,25.34 11.34,24 13,24 C14.66,24 16,25.34 16,27 C16,28.66 14.66,30 13,30 L13,30 Z M35,30 C33.34,30 32,28.66 32,27 C32,25.34 33.34,24 35,24 C36.66,24 38,25.34 38,27 C38,28.66 36.66,30 35,30 L35,30 Z M10,20 L13,11 L35,11 L38,20 L10,20 L10,20 Z"></path></symbol>
   <symbol id="icon-cart" viewBox="0 0 48 48"><path d="M16,36 C13.79,36 12.02,37.79 12.02,40 C12.02,42.21 13.79,44 16,44 C18.21,44 20,42.21 20,40 C20,37.79 18.21,36 16,36 L16,36 Z M4,4 L4,8 L8,8 L15.19,23.17 L12.49,28.07 C12.18,28.65 12,29.3 12,30 C12,32.21 13.79,34 16,34 L40,34 L40,30 L16.85,30 C16.57,30 16.35,29.78 16.35,29.5 C16.35,29.41 16.37,29.33 16.41,29.26 L18.2,26 L33.1,26 C34.6,26 35.91,25.17 36.6,23.94 L43.75,10.96 C43.91,10.68 44,10.35 44,10 C44,8.89 43.1,8 42,8 L12.43,8 L10.53,4 L4,4 L4,4 Z M36,36 C33.79,36 32.02,37.79 32.02,40 C32.02,42.21 33.79,44 36,44 C38.21,44 40,42.21 40,40 C40,37.79 38.21,36 36,36 L36,36 Z"></path></symbol>
   <symbol id="icon-chat" viewBox="0 0 48 48"><path d="M40,4 L8,4 C5.79,4 4.02,5.79 4.02,8 L4,44 L12,36 L40,36 C42.21,36 44,34.21 44,32 L44,8 C44,5.79 42.21,4 40,4 L40,4 Z M12,18 L36,18 L36,22 L12,22 L12,18 L12,18 Z M28,28 L12,28 L12,24 L28,24 L28,28 L28,28 Z M36,16 L12,16 L12,12 L36,12 L36,16 L36,16 Z"></path></symbol>
  <symbol id="icon-check" viewBox="0 0 24 24"> <path d="M21,7L9,19L3.5,13.5L4.91,12.09L9,16.17L19.59,5.59L21,7Z" /> </symbol>
  <symbol id="icon-check-circle" viewBox="0 0 24 24"> <path d="M0 0h24v24H0z" fill="none"/> <path d="M12 2C6.48 2 2 6.48 2 12s4.48 10 10 10 10-4.48 10-10S17.52 2 12 2zm-2 15l-5-5 1.41-1.41L10 14.17l7.59-7.59L19 8l-9 9z"/> </symbol>
   <symbol id="icon-city" viewBox="0 0 48 48"><path d="M30,23 L30,11 L24,5 L18,11 L18,15 L6,15 L6,43 L42,43 L42,23 L30,23 L30,23 Z M14,39 L10,39 L10,35 L14,35 L14,39 L14,39 Z M14,31 L10,31 L10,27 L14,27 L14,31 L14,31 Z M14,23 L10,23 L10,19 L14,19 L14,23 L14,23 Z M26,39 L22,39 L22,35 L26,35 L26,39 L26,39 Z M26,31 L22,31 L22,27 L26,27 L26,31 L26,31 Z M26,23 L22,23 L22,19 L26,19 L26,23 L26,23 Z M26,15 L22,15 L22,11 L26,11 L26,15 L26,15 Z M38,39 L34,39 L34,35 L38,35 L38,39 L38,39 Z M38,31 L34,31 L34,27 L38,27 L38,31 L38,31 Z"></path></symbol>
   <symbol id="icon-clock" viewBox="0 0 48 48"><path d="M23.99,4 C12.94,4 4,12.95 4,24 C4,35.05 12.94,44 23.99,44 C35.04,44 44,35.05 44,24 C44,12.95 35.04,4 23.99,4 L23.99,4 Z M24,40 C15.16,40 8,32.84 8,24 C8,15.16 15.16,8 24,8 C32.84,8 40,15.16 40,24 C40,32.84 32.84,40 24,40 L24,40 Z M25,14 L22,14 L22,26 L32.49,32.3 L34,29.84 L25,24.5 L25,14 Z"></path></symbol>
   <symbol id="icon-close" viewBox="0 0 48 48"><path d="M38,12.83 L35.17,10 L24,21.17 L12.83,10 L10,12.83 L21.17,24 L10,35.17 L12.83,38 L24,26.83 L35.17,38 L38,35.17 L26.83,24 L38,12.83 Z"></path></symbol>
   <symbol id="icon-computer" viewBox="0 0 48 48"><path d="M40,36 C42.21,36 43.98,34.21 43.98,32 L44,12 C44,9.79 42.21,8 40,8 L8,8 C5.79,8 4,9.79 4,12 L4,32 C4,34.21 5.79,36 8,36 L0,36 L0,40 L48,40 L48,36 L40,36 L40,36 Z M8,12 L40,12 L40,32 L8,32 L8,12 L8,12 Z"></path></symbol>
   <symbol id="icon-cutlery" viewBox="0 0 49 48"><path d="M15.71,26.4168728 L21.37,20.7568728 L7.34,6.7268728 C4.22,9.8468728 4.22,14.9168728 7.34,18.0368728 L15.71,26.4168728 L15.71,26.4168728 Z M29.28,22.7868728 C32.33,24.2168728 36.64,23.2068728 39.82,20.0268728 C43.65,16.1968728 44.38,10.7268728 41.45,7.7968728 C38.51,4.8668728 33.03,5.5968728 29.21,9.4268728 C26.03,12.6068728 25.03,16.9168728 26.45,19.9668728 C22,24.4068728 6.92,39.4868728 6.92,39.4868728 L9.75,42.3168728 L23.51,28.5568728 L37.27,42.3168728 L40.1,39.4868728 L26.34,25.7268728 L29.28,22.7868728 L29.28,22.7868728 Z"></path></symbol>
   <symbol id="icon-delete" viewBox="0 0 48 48"><path d="M38,26 L10,26 L10,22 L38,22 L38,26 L38,26 Z"></path></symbol>
   <symbol id="icon-devices" viewBox="0 0 48 48"><path d="M8,12 L44,12 L44,8 L8,8 C5.79,8 4,9.79 4,12 L4,34 L0,34 L0,40 L28,40 L28,34 L8,34 L8,12 L8,12 Z M46,16 L34,16 C32.9,16 32,16.9 32,18 L32,38 C32,39.1 32.9,40 34,40 L46,40 C47.1,40 48,39.1 48,38 L48,18 C48,16.9 47.1,16 46,16 L46,16 Z M44,34 L36,34 L36,20 L44,20 L44,34 L44,34 Z"></path></symbol>
   <symbol id="icon-download" viewBox="0 0 48 48"><path d="M38,19 L30,19 L30,7 L18,7 L18,19 L10,19 L24,33 L38,19 L38,19 Z M10,37 L10,41 L38,41 L38,37 L10,37 L10,37 Z"></path></symbol>
   <symbol id="icon-edit" viewBox="0 0 49 48"><path d="M6,34.495 L6,41.995 L13.5,41.995 L35.63,19.865 L28.13,12.365 L6,34.495 L6,34.495 Z M41.41,14.085 C42.19,13.305 42.19,12.035 41.41,11.255 L36.74,6.585 C35.96,5.805 34.69,5.805 33.91,6.585 L30.25,10.245 L37.75,17.745 L41.41,14.085 L41.41,14.085 Z"></path></symbol>
   <symbol id="icon-ellipsis" viewBox="0 0 48 48"><path d="M12,20 C9.79,20 8,21.79 8,24 C8,26.21 9.79,28 12,28 C14.21,28 16,26.21 16,24 C16,21.79 14.21,20 12,20 L12,20 Z M36,20 C33.79,20 32,21.79 32,24 C32,26.21 33.79,28 36,28 C38.21,28 40,26.21 40,24 C40,21.79 38.21,20 36,20 L36,20 Z M24,20 C21.79,20 20,21.79 20,24 C20,26.21 21.79,28 24,28 C26.21,28 28,26.21 28,24 C28,21.79 26.21,20 24,20 L24,20 Z"></path></symbol>
   <symbol id="icon-face" viewBox="0 0 49 48"><path d="M18,23.5 C16.62,23.5 15.5,24.62 15.5,26 C15.5,27.38 16.62,28.5 18,28.5 C19.38,28.5 20.5,27.38 20.5,26 C20.5,24.62 19.38,23.5 18,23.5 L18,23.5 Z M30,23.5 C28.62,23.5 27.5,24.62 27.5,26 C27.5,27.38 28.62,28.5 30,28.5 C31.38,28.5 32.5,27.38 32.5,26 C32.5,24.62 31.38,23.5 30,23.5 L30,23.5 Z M24,4 C12.95,4 4,12.95 4,24 C4,35.05 12.95,44 24,44 C35.05,44 44,35.05 44,24 C44,12.95 35.05,4 24,4 L24,4 Z M24,40 C15.18,40 8,32.82 8,24 C8,23.42 8.04,22.85 8.1,22.29 C12.81,20.2 16.57,16.34 18.52,11.55 C22.14,16.65 28.09,20 34.83,20 C36.38,20 37.89,19.81 39.33,19.47 C39.76,20.91 40,22.43 40,24 C40,32.82 32.82,40 24,40 L24,40 Z"></path></symbol>
   <symbol id="icon-facebook" viewBox="0 0 48 48"><path d="M41.792382,4 L6.20761801,4 C4.98810764,4 4,4.98810764 4,6.20761801 L4,41.792382 C4,43.0115926 4.98810764,44 6.20761801,44 L25.3651862,44 L25.3651862,28.5099553 L20.15248,28.5099553 L20.15248,22.4731017 L25.3651862,22.4731017 L25.3651862,18.021147 C25.3651862,12.8546015 28.5207461,10.0413497 33.129617,10.0413497 C35.337235,10.0413497 37.2347674,10.2057596 37.787646,10.279197 L37.787646,15.6784941 L34.591171,15.6799928 C32.0845579,15.6799928 31.5992716,16.8710274 31.5992716,18.6188374 L31.5992716,22.4731017 L37.5772254,22.4731017 L36.798789,28.5099553 L31.5992716,28.5099553 L31.5992716,44 L41.792382,44 C43.0115926,44 44,43.0115926 44,41.792382 L44,6.20761801 C44,4.98810764 43.0115926,4 41.792382,4"></path></symbol>
   <symbol id="icon-faculty" viewBox="0 0 48 48"><path d="M24,14 L24,6 L4,6 L4,42 L44,42 L44,14 L24,14 L24,14 Z M12,38 L8,38 L8,34 L12,34 L12,38 L12,38 Z M12,30 L8,30 L8,26 L12,26 L12,30 L12,30 Z M12,22 L8,22 L8,18 L12,18 L12,22 L12,22 Z M12,14 L8,14 L8,10 L12,10 L12,14 L12,14 Z M20,38 L16,38 L16,34 L20,34 L20,38 L20,38 Z M20,30 L16,30 L16,26 L20,26 L20,30 L20,30 Z M20,22 L16,22 L16,18 L20,18 L20,22 L20,22 Z M20,14 L16,14 L16,10 L20,10 L20,14 L20,14 Z M40,38 L24,38 L24,34 L28,34 L28,30 L24,30 L24,26 L28,26 L28,22 L24,22 L24,18 L40,18 L40,38 L40,38 Z M36,22 L32,22 L32,26 L36,26 L36,22 L36,22 Z M36,30 L32,30 L32,34 L36,34 L36,30 L36,30 Z"></path></symbol>
   <symbol id="icon-flight" viewBox="0 0 49 48"><path d="M43,32 L43,28 L27,18 L27,7 C27,5.34 25.66,4 24,4 C22.34,4 21,5.34 21,7 L21,18 L5,28 L5,32 L21,27 L21,38 L17,41 L17,44 L24,42 L31,44 L31,41 L27,38 L27,27 L43,32 L43,32 Z"></path></symbol>
   <symbol id="icon-group" viewBox="0 0 48 48"><path d="M32,22 C35.31,22 37.98,19.31 37.98,16 C37.98,12.69 35.31,10 32,10 C28.69,10 26,12.69 26,16 C26,19.31 28.69,22 32,22 L32,22 Z M16,22 C19.31,22 21.98,19.31 21.98,16 C21.98,12.69 19.31,10 16,10 C12.69,10 10,12.69 10,16 C10,19.31 12.69,22 16,22 L16,22 Z M16,26 C11.33,26 2,28.34 2,33 L2,38 L30,38 L30,33 C30,28.34 20.67,26 16,26 L16,26 Z M32,26 C31.42,26 30.77,26.04 30.07,26.11 C32.39,27.78 34,30.03 34,33 L34,38 L46,38 L46,33 C46,28.34 36.67,26 32,26 L32,26 Z"></path></symbol>
   <symbol id="icon-home" viewBox="0 0 48 48"><path d="M20,41 L20,29 L28,29 L28,41 L38,41 L38,25 L44,25 L24,7 L4,25 L10,25 L10,41 L20,41 Z"></path></symbol>
   <symbol id="icon-hr" viewBox="0 0 48 48"><path d="M24,4 C12.95,4 4,12.95 4,24 C4,35.05 12.95,44 24,44 C35.05,44 44,35.05 44,24 C44,12.95 35.05,4 24,4 L24,4 Z M24,10 C27.31,10 30,12.69 30,16 C30,19.32 27.31,22 24,22 C20.69,22 18,19.32 18,16 C18,12.69 20.69,10 24,10 L24,10 Z M24,38.4 C18.99,38.4 14.59,35.84 12,31.96 C12.05,27.99 20.01,25.8 24,25.8 C27.99,25.8 35.94,27.99 36,31.96 C33.41,35.84 29.01,38.4 24,38.4 L24,38.4 Z"></path></symbol>
   <symbol id="icon-instagram" viewBox="0 0 48 48"><path d="M23.9937302,4.01261905 C18.5637302,4.01261905 17.8828571,4.03563492 15.7503175,4.13293651 C13.6222222,4.23 12.1688095,4.56801587 10.8970635,5.06230159 C9.58230159,5.5731746 8.46730159,6.2568254 7.35571429,7.36833333 C6.24420635,8.47992063 5.56055556,9.59492063 5.04968254,10.9096825 C4.55539683,12.1814286 4.21738095,13.6348413 4.12031746,15.7629365 C4.02301587,17.8954762 4,18.5763492 4,24.0063492 C4,29.4362698 4.02301587,30.1171429 4.12031746,32.2496825 C4.21738095,34.3777778 4.55539683,35.8311905 5.04968254,37.1029365 C5.56055556,38.4176984 6.24420635,39.5326984 7.35571429,40.6442857 C8.46730159,41.7557937 9.58230159,42.4394444 10.8970635,42.9503968 C12.1688095,43.4446032 13.6222222,43.782619 15.7503175,43.8796825 C17.8828571,43.9769841 18.5637302,44 23.9937302,44 C29.4236508,44 30.1045238,43.9769841 32.2370635,43.8796825 C34.3651587,43.782619 35.8185714,43.4446032 37.0903175,42.9503968 C38.4050794,42.4394444 39.5200794,41.7557937 40.6316667,40.6442857 C41.7431746,39.5326984 42.4268254,38.4176984 42.9377778,37.1029365 C43.4319841,35.8311905 43.77,34.3777778 43.8670635,32.2496825 C43.9643651,30.1171429 43.987381,29.4362698 43.987381,24.0063492 C43.987381,18.5763492 43.9643651,17.8954762 43.8670635,15.7629365 C43.77,13.6348413 43.4319841,12.1814286 42.9377778,10.9096825 C42.4268254,9.59492063 41.7431746,8.47992063 40.6316667,7.36833333 C39.5200794,6.2568254 38.4050794,5.5731746 37.0903175,5.06230159 C35.8185714,4.56801587 34.3651587,4.23 32.2370635,4.13293651 C30.1045238,4.03563492 29.4236508,4.01261905 23.9937302,4.01261905 L23.9937302,4.01261905 L23.9937302,4.01261905 L23.9937302,4.01261905 L23.9937302,4.01261905 L23.9937302,4.01261905 Z M23.9937302,7.61507937 C29.3322222,7.61507937 29.9646032,7.63547619 32.0728571,7.73166667 C34.0222222,7.82055556 35.080873,8.14626984 35.7853968,8.42007937 C36.7186508,8.78277778 37.3846825,9.21603175 38.0842857,9.91571429 C38.7839683,10.6153175 39.2172222,11.2813492 39.5799206,12.2146032 C39.8537302,12.919127 40.1794444,13.9777778 40.2683333,15.9271429 C40.3645238,18.0353968 40.3849206,18.6677778 40.3849206,24.0063492 C40.3849206,29.3448413 40.3645238,29.9772222 40.2683333,32.0854762 C40.1794444,34.0348413 39.8537302,35.0934921 39.5799206,35.7980159 C39.2172222,36.7312698 38.7839683,37.3973016 38.0842857,38.0969048 C37.3846825,38.7965873 36.7186508,39.2298413 35.7853968,39.5925397 C35.080873,39.8663492 34.0222222,40.1920635 32.0728571,40.2809524 C29.9649206,40.3771429 29.332619,40.3975397 23.9937302,40.3975397 C18.6547619,40.3975397 18.0225397,40.3771429 15.9145238,40.2809524 C13.9651587,40.1920635 12.9065079,39.8663492 12.2019841,39.5925397 C11.2687302,39.2298413 10.6026984,38.7965873 9.90309524,38.0969048 C9.20349206,37.3973016 8.77015873,36.7312698 8.40746032,35.7980159 C8.13365079,35.0934921 7.80793651,34.0348413 7.71904762,32.0854762 C7.62285714,29.9772222 7.60246032,29.3448413 7.60246032,24.0063492 C7.60246032,18.6677778 7.62285714,18.0353968 7.71904762,15.9271429 C7.80793651,13.9777778 8.13365079,12.919127 8.40746032,12.2146032 C8.77015873,11.2813492 9.2034127,10.6153175 9.90309524,9.91571429 C10.6026984,9.21603175 11.2687302,8.78277778 12.2019841,8.42007937 C12.9065079,8.14626984 13.9651587,7.82055556 15.9145238,7.73166667 C18.0227778,7.63547619 18.6551587,7.61507937 23.9937302,7.61507937 L23.9937302,7.61507937 L23.9937302,7.61507937 L23.9937302,7.61507937 L23.9937302,7.61507937 L23.9937302,7.61507937 Z"></path> <path d="M23.9937302,30.670873 C20.3129365,30.670873 17.329127,27.6870635 17.329127,24.0063492 C17.329127,20.3255556 20.3129365,17.341746 23.9937302,17.341746 C27.6744444,17.341746 30.658254,20.3255556 30.658254,24.0063492 C30.658254,27.6870635 27.6744444,30.670873 23.9937302,30.670873 L23.9937302,30.670873 L23.9937302,30.670873 L23.9937302,30.670873 L23.9937302,30.670873 L23.9937302,30.670873 L23.9937302,30.670873 Z M23.9937302,13.7392857 C18.3233333,13.7392857 13.7266667,18.3359524 13.7266667,24.0063492 C13.7266667,29.6766667 18.3233333,34.2733333 23.9937302,34.2733333 C29.6640476,34.2733333 34.2607143,29.6766667 34.2607143,24.0063492 C34.2607143,18.3359524 29.6640476,13.7392857 23.9937302,13.7392857 L23.9937302,13.7392857 L23.9937302,13.7392857 L23.9937302,13.7392857 L23.9937302,13.7392857 L23.9937302,13.7392857 L23.9937302,13.7392857 Z"></path> <path d="M37.0656349,13.3336508 C37.0656349,14.6587302 35.9914286,15.7328571 34.6663492,15.7328571 C33.3413492,15.7328571 32.2671429,14.6587302 32.2671429,13.3336508 C32.2671429,12.0085714 33.3413492,10.9343651 34.6663492,10.9343651 C35.9914286,10.9343651 37.0656349,12.0085714 37.0656349,13.3336508"></path></symbol>
   <symbol id="icon-jobs" viewBox="0 0 48 48"><path d="M38.4,14.2 L31.2,14.2 L31.2,10.6 C31.2,8.602 29.598,7 27.6,7 L20.4,7 C18.402,7 16.8,8.602 16.8,10.6 L16.8,14.2 L9.6,14.2 C7.602,14.2 6.018,15.802 6.018,17.8 L6,37.6 C6,39.598 7.602,41.2 9.6,41.2 L38.4,41.2 C40.398,41.2 42,39.598 42,37.6 L42,17.8 C42,15.802 40.398,14.2 38.4,14.2 L38.4,14.2 Z M27.6,14.2 L20.4,14.2 L20.4,10.6 L27.6,10.6 L27.6,14.2 L27.6,14.2 Z"></path></symbol>
   <symbol id="icon-library" viewBox="0 0 48 48"><path d="M36,4 L12,4 C9.79,4 8,5.79 8,8 L8,40 C8,42.21 9.79,44 12,44 L36,44 C38.21,44 40,42.21 40,40 L40,8 C40,5.79 38.21,4 36,4 L36,4 Z M12,8 L22,8 L22,24 L17,21 L12,24 L12,8 L12,8 Z"></path></symbol>
   <symbol id="icon-linkedin" viewBox="0 0 48 48"><path d="M44,36.5 C44,40.6 40.6,44 36.5,44 L11.5,44 C7.4,44 4,40.6 4,36.5 L4,11.5 C4,7.4 7.4,4 11.5,4 L36.5,4 C40.6,4 44,7.4 44,11.5 L44,36.5 L44,36.5 Z M13.2,10.7 C11.1,10.7 9.8,12.1 9.8,13.8 C9.8,15.5 11.1,16.9 13.1,16.9 L13.1,16.9 C15.2,16.9 16.5,15.5 16.5,13.8 C16.6,12.1 15.3,10.7 13.2,10.7 L13.2,10.7 L13.2,10.7 Z M16.2,37.5 L16.2,19.4 L10.2,19.4 L10.2,37.5 L16.2,37.5 L16.2,37.5 Z M37.8,37.5 L37.8,27.1 C37.8,21.6 34.8,19 30.9,19 C27.7,19 26.2,20.8 25.5,22 L25.6,22 L25.6,19.4 L19.6,19.4 C19.6,19.4 19.7,21.1 19.6,37.5 L25.6,37.5 L25.6,27.4 C25.6,26.9 25.6,26.3 25.8,25.9 C26.2,24.8 27.2,23.7 28.9,23.7 C31.1,23.7 31.9,25.3 31.9,27.8 L31.9,37.5 L37.8,37.5 L37.8,37.5 Z"></path></symbol>
   <symbol id="icon-location" viewBox="0 0 48 48"><path d="M24,4 C16.27,4 10,10.27 10,18 C10,28.5 24,44 24,44 C24,44 38,28.5 38,18 C38,10.27 31.73,4 24,4 L24,4 Z M24,23 C21.24,23 19,20.76 19,18 C19,15.24 21.24,13 24,13 C26.76,13 29,15.24 29,18 C29,20.76 26.76,23 24,23 L24,23 Z"></path></symbol>
  <symbol id="icon-lock" viewBox="0 0 24 24"> <path d="M0 0h24v24H0z" fill="none"/> <path d="M18 8h-1V6c0-2.76-2.24-5-5-5S7 3.24 7 6v2H6c-1.1 0-2 .9-2 2v10c0 1.1.9 2 2 2h12c1.1 0 2-.9 2-2V10c0-1.1-.9-2-2-2zm-6 9c-1.1 0-2-.9-2-2s.9-2 2-2 2 .9 2 2-.9 2-2 2zm3.1-9H8.9V6c0-1.71 1.39-3.1 3.1-3.1 1.71 0 3.1 1.39 3.1 3.1v2z"/> </symbol>
   <symbol id="icon-mail" viewBox="0 0 49 48"><path d="M40,8 L8,8 C5.79,8 4.02,9.79 4.02,12 L4,36 C4,38.21 5.79,40 8,40 L40,40 C42.21,40 44,38.21 44,36 L44,12 C44,9.79 42.21,8 40,8 L40,8 Z M40,16 L24,26 L8,16 L8,12 L24,22 L40,12 L40,16 L40,16 Z"></path></symbol>
   <symbol id="icon-map" viewBox="0 0 49 48"><path d="M41,6 C40.89,6 40.79,6.01 40.69,6.05 L30,10.2 L18,6 L6.73,9.8 C6.31,9.94 6,10.3 6,10.76 L6,41 C6,41.55 6.45,42 7,42 C7.11,42 7.21,41.99 7.31,41.95 L18,37.8 L30,42 L41.28,38.21 C41.7,38.06 42,37.7 42,37.24 L42,7 C42,6.45 41.55,6 41,6 L41,6 Z M30,38 L18,33.79 L18,10 L30,14.21 L30,38 L30,38 Z"></path></symbol>
   <symbol id="icon-menu" viewBox="0 0 49 48"><path d="M6,36 L42,36 L42,32 L6,32 L6,36 L6,36 Z M6,26 L42,26 L42,22 L6,22 L6,26 L6,26 Z M6,12 L6,16 L42,16 L42,12 L6,12 L6,12 Z"></path></symbol>
   <symbol id="icon-money" viewBox="0 0 48 48"><path d="M24.97,21.8 C20.43,20.62 18.97,19.41 18.97,17.51 C18.97,15.33 20.98,13.8 24.37,13.8 C27.93,13.8 29.25,15.5 29.37,18 L33.79,18 C33.66,14.55 31.55,11.41 27.37,10.38 L27.37,6 L21.37,6 L21.37,10.32 C17.49,11.17 14.37,13.67 14.37,17.54 C14.37,22.16 18.2,24.46 23.77,25.8 C28.78,27 29.77,28.75 29.77,30.63 C29.77,32 28.8,34.2 24.37,34.2 C20.25,34.2 18.62,32.35 18.41,30 L14,30 C14.25,34.38 17.52,36.83 21.37,37.66 L21.37,42 L27.37,42 L27.37,37.7 C31.26,36.95 34.37,34.7 34.37,30.59 C34.37,24.93 29.51,22.99 24.97,21.8 L24.97,21.8 Z"></path></symbol>
   <symbol id="icon-pharmacy" viewBox="0 0 48 48"><path d="M38,6 L10,6 C7.79,6 6.02,7.79 6.02,10 L6,38 C6,40.21 7.79,42 10,42 L38,42 C40.21,42 42,40.21 42,38 L42,10 C42,7.79 40.21,6 38,6 L38,6 Z M36,28 L28,28 L28,36 L20,36 L20,28 L12,28 L12,20 L20,20 L20,12 L28,12 L28,20 L36,20 L36,28 L36,28 Z"></path></symbol>
   <symbol id="icon-phone" viewBox="0 0 48 48"><path d="M13.25,21.59 C16.13,27.25 20.76,31.88 26.43,34.76 L30.83,30.35 C31.38,29.8 32.17,29.64 32.86,29.86 C35.1,30.6 37.51,31 40,31 C41.11,31 42,31.89 42,33 L42,40 C42,41.11 41.11,42 40,42 C21.22,42 6,26.78 6,8 C6,6.89 6.9,6 8,6 L15,6 C16.11,6 17,6.89 17,8 C17,10.49 17.4,12.9 18.14,15.14 C18.36,15.83 18.2,16.62 17.65,17.17 L13.25,21.59 L13.25,21.59 Z"></path></symbol>
   <symbol id="icon-print" viewBox="0 0 49 48"><path d="M38,16 L10,16 C6.69,16 4,18.69 4,22 L4,34 L12,34 L12,42 L36,42 L36,34 L44,34 L44,22 C44,18.69 41.31,16 38,16 L38,16 Z M32,38 L16,38 L16,28 L32,28 L32,38 L32,38 Z M38,24 C36.89,24 36,23.11 36,22 C36,20.89 36.89,20 38,20 C39.11,20 40,20.89 40,22 C40,23.11 39.11,24 38,24 L38,24 Z M36,6 L12,6 L12,14 L36,14 L36,6 L36,6 Z"></path></symbol>
   <symbol id="icon-profile" viewBox="0 0 48 48"><path d="M24,24 C28.42,24 32,20.41 32,16 C32,11.58 28.42,8 24,8 C19.58,8 16,11.58 16,16 C16,20.41 19.58,24 24,24 L24,24 Z M24,28 C18.67,28 8,30.67 8,36 L8,40 L40,40 L40,36 C40,30.67 29.33,28 24,28 L24,28 Z"></path></symbol>
   <symbol id="icon-rss" viewBox="0 0 49 48"><path d="M9.6,44 L9.6,44 C6.6,44 4,41.4 4,38.4 L4,38.4 C4,35.4 6.6,32.8 9.6,32.8 L9.6,32.8 C12.6,32.8 15.2,35.4 15.2,38.4 L15.2,38.4 C15.2,41.4 12.8,44 9.6,44 L9.6,44 L9.6,44 Z M4,4 L4,10 C22.8,10 38,25.2 38,44 L44,44 C44,21.9 26.1,4 4,4 L4,4 L4,4 Z M4,16.2 L4,22.2 C16,22.2 25.8,32 25.8,44 L31.8,44 C31.8,28.6 19.4,16.2 4,16.2 L4,16.2 L4,16.2 Z"></path></symbol>
   <symbol id="icon-search" viewBox="0 0 49 48"><path d="M32.6,29.2 L30.8,29.2 L30.2,28.6 C32.4,26 33.8,22.6 33.8,18.9 C33.8,10.7 27.1,4 18.9,4 C10.7,4 4,10.7 4,18.9 C4,27.1 10.7,33.8 18.9,33.8 C22.6,33.8 26,32.5 28.6,30.2 L29.2,30.8 L29.2,32.6 L40.6,44 L44,40.6 L32.6,29.2 L32.6,29.2 Z M18.9,29.2 C13.2,29.2 8.6,24.6 8.6,18.9 C8.6,13.2 13.2,8.6 18.9,8.6 C24.6,8.6 29.2,13.2 29.2,18.9 C29.2,24.6 24.6,29.2 18.9,29.2 L18.9,29.2 L18.9,29.2 Z"></path></symbol>
   <symbol id="icon-select" viewBox="0 0 48 48"><path d="M24,4 C12.95,4 4,12.95 4,24 C4,35.05 12.95,44 24,44 C35.05,44 44,35.05 44,24 C44,12.95 35.05,4 24,4 L24,4 Z M24,28 L16,20 L32,20 L24,28 L24,28 Z"></path></symbol>
   <symbol id="icon-send" viewBox="0 0 49 48"><path d="M3.02,42 L45,24 L3.02,6 L3,20 L33,24 L3,28 L3.02,42 Z"></path></symbol>
   <symbol id="icon-share" viewBox="0 0 48 48"><path d="M36,32.18 C34.48,32.18 33.11,32.77 32.07,33.72 L17.82,25.41 C17.93,24.96 18,24.49 18,24.01 C18,23.53 17.93,23.06 17.82,22.61 L31.92,14.38 C32.99,15.38 34.42,16 36,16 C39.31,16 42,13.31 42,10 C42,6.69 39.31,4 36,4 C32.69,4 30,6.69 30,10 C30,10.48 30.07,10.95 30.18,11.4 L16.08,19.63 C15.01,18.63 13.58,18.01 12,18.01 C8.69,18.01 6,20.7 6,24.01 C6,27.32 8.69,30.01 12,30.01 C13.58,30.01 15.01,29.39 16.08,28.39 L30.33,36.7 C30.23,37.12 30.17,37.56 30.17,38.01 C30.17,41.23 32.78,43.84 36,43.84 C39.22,43.84 41.83,41.23 41.83,38.01 C41.83,34.79 39.22,32.18 36,32.18 L36,32.18 Z"></path></symbol>
  <symbol id="icon-smartphone" viewBox="0 0 24 24"> <path d="M15.5 1h-8C6.12 1 5 2.12 5 3.5v17C5 21.88 6.12 23 7.5 23h8c1.38 0 2.5-1.12 2.5-2.5v-17C18 2.12 16.88 1 15.5 1zm-4 21c-.83 0-1.5-.67-1.5-1.5s.67-1.5 1.5-1.5 1.5.67 1.5 1.5-.67 1.5-1.5 1.5zm4.5-4H7V4h9v14z"/> <path d="M0 0h24v24H0z" fill="none"/> </symbol>
   <symbol id="icon-student" viewBox="0 0 49 48"><path d="M10,26.36 L10,34.36 L24,42 L38,34.36 L38,26.36 L24,34 L10,26.36 L10,26.36 Z M24,6 L2,18 L24,30 L42,20.18 L42,34 L46,34 L46,18 L24,6 L24,6 Z"></path></symbol>
   <symbol id="icon-tag" viewBox="0 0 49 48"><path d="M42.82,23.16 L24.83,5.17 C24.1,4.45 23.1,4 22,4 L8,4 C5.79,4 4,5.79 4,8 L4,22 C4,23.11 4.45,24.11 5.18,24.83 L23.18,42.83 C23.9,43.55 24.9,44 26,44 C27.1,44 28.11,43.55 28.83,42.83 L42.83,28.83 C43.55,28.1 44,27.1 44,26 C44,24.89 43.55,23.89 42.82,23.16 L42.82,23.16 Z M11,14 C9.34,14 8,12.66 8,11 C8,9.34 9.34,8 11,8 C12.66,8 14,9.34 14,11 C14,12.66 12.66,14 11,14 L11,14 Z"></path></symbol>
   <symbol id="icon-train" viewBox="0 0 48 48"><path d="M8,33 C8,36.87 11.14,40 15,40 L12,43 L12,44 L36,44 L36,43 L33,40 C36.87,40 40,36.87 40,33 L40,12 C40,5 32.84,4 24,4 C15.16,4 8,5 8,12 L8,33 L8,33 Z M24,36 C21.79,36 20,34.21 20,32 C20,29.79 21.79,28 24,28 C26.21,28 28,29.79 28,32 C28,34.21 26.21,36 24,36 L24,36 Z M36,22 L12,22 L12,12 L36,12 L36,22 L36,22 Z"></path></symbol>
   <symbol id="icon-twitter" viewBox="0 0 48 48"><path d="M39.9,16.1 L39.9,17.2 C39.9,28 31.6,40.5 16.6,40.5 C12,40.5 7.6,39.2 4,36.8 C4.7,36.9 5.3,36.9 6,36.9 C9.8,36.9 13.4,35.6 16.2,33.4 C12.6,33.3 9.6,31 8.5,27.7 C9,27.8 9.5,27.8 10,27.8 C10.7,27.8 11.5,27.7 12.2,27.5 C8.4,26.7 5.6,23.4 5.6,19.5 L5.6,19.4 C6.7,20 8,20.4 9.3,20.4 C7.1,18.9 5.6,16.4 5.6,13.6 C5.6,12.1 6,10.7 6.7,9.5 C10.7,14.5 16.8,17.7 23.6,18.1 C23.5,17.5 23.4,16.9 23.4,16.2 C23.4,11.7 27.1,8 31.6,8 C34,8 36.1,9 37.6,10.6 C39.5,10.2 41.2,9.6 42.8,8.6 C42.2,10.5 40.9,12.1 39.2,13.1 C40.9,12.9 42.4,12.5 43.9,11.8 C42.9,13.4 41.5,14.9 39.9,16.1 L39.9,16.1 L39.9,16.1 Z"></path></symbol>
   <symbol id="icon-walk" viewBox="0 0 49 48"><path d="M26,11 C28.2,11 30,9.2 30,7 C30,4.8 28.2,3 26,3 C23.8,3 22,4.8 22,7 C22,9.2 23.8,11 26,11 L26,11 Z M18.5,17.8 L13,46 L17.2,46 L20.7,30 L25,34 L25,46 L29,46 L29,30.9 L24.9,26.8 L26.1,20.8 C28.7,24 32.6,26 37,26 L37,22 C33.3,22 30.1,20 28.3,17.1 L26.4,13.9 C25.7,12.7 24.4,12 23,12 C22.5,12 22,12.1 21.5,12.3 L11,16.6 L11,26 L15,26 L15,19.3 L18.5,17.8 L18.5,17.8 Z"></path></symbol>
   <symbol id="icon-world" viewBox="0 0 48 48"><path d="M24,4 C12.95,4 4,12.95 4,24 C4,35.05 12.95,44 24,44 C35.05,44 44,35.05 44,24 C44,12.95 35.05,4 24,4 L24,4 Z M22,39.86 C14.11,38.88 8,32.16 8,24 C8,22.77 8.15,21.57 8.42,20.42 L18,30 L18,32 C18,34.21 19.79,36 22,36 L22,39.86 L22,39.86 Z M35.79,34.79 C35.28,33.17 33.78,32 32,32 L30,32 L30,26 C30,24.9 29.1,24 28,24 L16,24 L16,20 L20,20 C21.1,20 22,19.1 22,18 L22,14 L26,14 C28.21,14 30,12.21 30,10 L30,9.17 C35.86,11.54 40,17.28 40,24 C40,28.16 38.4,31.94 35.79,34.79 L35.79,34.79 Z"></path></symbol>
   <symbol id="icon-youtube" viewBox="0 0 48 35"><path d="M43.609375,9.09375 C43.609375,9.09375 43.6744785,9.7643162 43.8046875,11.1054688 C43.9348965,12.4466213 44,13.9114504 44,15.5 L44,18.546875 C44,20.1875082 43.9348965,21.6783787 43.8046875,23.0195312 L43.609375,25.03125 L43.2578125,26.5546875 C43.0234363,27.5703176 42.6197945,28.3906219 42.046875,29.015625 C41.2656211,29.7968789 40.4908892,30.2721346 39.7226562,30.4414062 C38.9544232,30.6106779 38.375002,30.7083332 37.984375,30.734375 C36.6041598,30.8385422 35.0937582,30.9166664 33.453125,30.96875 C31.8385336,31.0208336 30.328132,31.0598957 28.921875,31.0859375 C27.515618,31.1119793 26.3437547,31.125 25.40625,31.125 L22.3203125,31.125 C21.2005152,31.0989582 19.8919346,31.0729168 18.3945312,31.046875 C16.8971279,31.0208332 15.3932367,30.9817711 13.8828125,30.9296875 C12.3723883,30.8776039 11.2135457,30.8125004 10.40625,30.734375 C9.96353944,30.6562496 9.30599396,30.5455736 8.43359376,30.4023438 C7.56119356,30.2591139 6.73437891,29.7968789 5.953125,29.015625 C5.35416367,28.3906219 4.94401152,27.5703176 4.72265625,26.5546875 L4.390625,25.03125 L4.1953125,23.0195312 C4.06510352,21.6783787 4,20.1875082 4,18.546875 L4,15.5 C4,13.8854086 4.06510352,12.4140692 4.1953125,11.0859375 L4.390625,9.09375 L4.7421875,7.53125 C4.97656367,6.48957812 5.38020547,5.68229452 5.953125,5.109375 C6.73437891,4.27603752 7.50911074,3.78776112 8.27734376,3.64453124 C9.04557676,3.50130136 9.62499804,3.4166668 10.015625,3.390625 C11.3958402,3.2864578 12.9062418,3.2083336 14.546875,3.15625 C16.1614664,3.1041664 17.671868,3.06510428 19.078125,3.03906248 C20.484382,3.01302072 21.6562453,3 22.59375,3 L25.40625,3 C26.3437547,3 27.515618,3.01302072 28.921875,3.03906248 C30.328132,3.06510428 31.8385336,3.1041664 33.453125,3.15625 C35.0937582,3.2083336 36.6041598,3.2864578 37.984375,3.390625 C38.375002,3.4427086 38.9544232,3.54036388 39.7226562,3.68359376 C40.4908892,3.82682364 41.2656211,4.30207928 42.046875,5.109375 C42.6458363,5.70833632 43.0559885,6.52213028 43.2773438,7.55078124 L43.609375,9.09375 Z M29.390625,17.375 L30.71875,16.671875 L19.9375,11.046875 L19.9375,22.296875 L29.390625,17.375 Z"></path></symbol>
   <symbol id="icon-zoom-in" viewBox="0 0 49 48"><path d="M32.6,29.2 L30.8,29.2 L30.2,28.6 C32.4,26 33.8,22.6 33.8,18.9 C33.8,10.7 27.1,4 18.9,4 C10.7,4 4,10.7 4,18.9 C4,27.1 10.7,33.8 18.9,33.8 C22.6,33.8 26,32.5 28.6,30.2 L29.2,30.8 L29.2,32.6 L40.6,44 L44,40.6 L32.6,29.2 L32.6,29.2 Z M18.9,29.2 C13.2,29.2 8.6,24.6 8.6,18.9 C8.6,13.2 13.2,8.6 18.9,8.6 C24.6,8.6 29.2,13.2 29.2,18.9 C29.2,24.6 24.6,29.2 18.9,29.2 L18.9,29.2 L18.9,29.2 Z M24.6,20.1 L20,20.1 L20,24.7 L17.7,24.7 L17.7,20.1 L13.1,20.1 L13.1,17.8 L17.7,17.8 L17.7,13.2 L20,13.2 L20,17.8 L24.6,17.8 L24.6,20.1 L24.6,20.1 Z"></path></symbol>
   <symbol id="icon-zoom-out" viewBox="0 0 48 48"><path d="M32.6,29.2 L30.8,29.2 L30.2,28.6 C32.4,26 33.8,22.6 33.8,18.9 C33.8,10.7 27.1,4 18.9,4 C10.7,4 4,10.7 4,18.9 C4,27.1 10.7,33.8 18.9,33.8 C22.6,33.8 26,32.5 28.6,30.2 L29.2,30.8 L29.2,32.6 L40.6,44 L44,40.6 L32.6,29.2 L32.6,29.2 Z M18.9,29.2 C13.2,29.2 8.6,24.6 8.6,18.9 C8.6,13.2 13.2,8.6 18.9,8.6 C24.6,8.6 29.2,13.2 29.2,18.9 C29.2,24.6 24.6,29.2 18.9,29.2 L18.9,29.2 L18.9,29.2 Z M13.2,17.8 L24.6,17.8 L24.6,20.1 L13.2,20.1 L13.2,17.8 L13.2,17.8 Z"></path></symbol>

</svg>
