<?xml version="1.0" encoding="utf-8"?>
<!-- Generator: Adobe Illustrator 18.1.0, SVG Export Plug-In . SVG Version: 6.00 Build 0)  -->
<!DOCTYPE svg PUBLIC "-//W3C//DTD SVG 1.1//EN" "http://www.w3.org/Graphics/SVG/1.1/DTD/svg11.dtd">
<svg version="1.1" id="Layer_1" xmlns="http://www.w3.org/2000/svg" xmlns:xlink="http://www.w3.org/1999/xlink" x="0px" y="0px"
	 viewBox="0 0 100 100" style="enable-background:new 0 0 100 100;" xml:space="preserve">
<style type="text/css">
	.st0{fill:none;stroke:#FFFFFF;stroke-miterlimit:10;}
</style>
<circle class="st0" cx="50.1" cy="50" r="40"/>
<g>
	<path class="st0" d="M68.9,58.9c0,0.4-0.3,0.8-0.6,1c-0.1,0-0.3,0.1-0.4,0.1c-0.3,0-0.5-0.1-0.7-0.3L60.6,53v2.7
		c0,2.6-2.1,4.7-4.7,4.7H37.8c-2.6,0-4.7-2.1-4.7-4.7V44.3c0-2.6,2.1-4.7,4.7-4.7h18.1c2.6,0,4.7,2.1,4.7,4.7V47l6.6-6.6
		c0.2-0.2,0.5-0.3,0.7-0.3c0.1,0,0.3,0,0.4,0.1c0.4,0.2,0.6,0.5,0.6,1V58.9z"/>
</g>
</svg>
